<svg width="80" height="80" fill="none" stroke="black" viewBox="0 0 80 80"><circle r="40" cx="40" cy="40" stroke-width="0.1" /><circle r="0.2" cx="39.167706326905716" cy="41.81859485365136" fill="none" stroke="black" stroke-width="0.1" /><circle r="0.202" cx="37.93408129449517" cy="39.65214241097073" fill="none" stroke="black" stroke-width="0.1" /><circle r="0.20400000000000001" cx="39.791009502010894" cy="37.81999473125631" fill="none" stroke="black" stroke-width="0.1" /><circle r="0.20600000000000002" cx="42.14015854196436" cy="39.19940870898005" fill="none" stroke="black" stroke-width="0.1" /><circle r="0.20800000000000002" cx="41.38354824715141" cy="41.93654182702163" fill="none" stroke="black" stroke-width="0.1" /><circle r="0.21000000000000002" cx="38.42828882764461" cy="41.91189669979663" fill="none" stroke="black" stroke-width="0.1" /><circle r="0.21200000000000002" cx="37.659334917523545" cy="38.93878043192019" fill="none" stroke="black" stroke-width="0.1" /><circle r="0.21400000000000002" cx="40.433197196123395" cy="37.37044391783122" fill="none" stroke="black" stroke-width="0.1" /><circle r="0.21600000000000003" cx="42.74645447735653" cy="39.72689232195286" fill="none" stroke="black" stroke-width="0.1" /><circle r="0.21800000000000003" cx="41.00975922518571" cy="42.67047024082883" fill="none" stroke="black" stroke-width="0.1" /><circle r="0.22000000000000003" cx="37.60574922761629" cy="41.723387141341156" fill="none" stroke="black" stroke-width="0.1" /><circle r="0.22200000000000003" cx="37.64095844276532" cy="38.07465641215918" fill="none" stroke="black" stroke-width="0.1" /><circle r="0.22400000000000003" cx="41.28645735519428" cy="37.13562790942473" fill="none" stroke="black" stroke-width="0.1" /><circle r="0.22600000000000003" cx="43.19381638793557" cy="40.514550172630635" fill="none" stroke="black" stroke-width="0.1" /><circle r="0.22800000000000004" cx="40.3412365012854" cy="43.31247002253462" fill="none" stroke="black" stroke-width="0.1" /><circle r="0.23000000000000004" cx="36.800678569175666" cy="41.22268858760853" fill="none" stroke="black" stroke-width="0.1" /><circle r="0.23200000000000004" cx="37.93352081355668" cy="37.15042744047523" fill="none" stroke="black" stroke-width="0.1" /><circle r="0.23400000000000004" cx="42.275825967040646" cy="37.19129190414107" fill="none" stroke="black" stroke-width="0.1" /><circle r="0.23600000000000004" cx="43.38969630051209" cy="41.507998338956206" fill="none" stroke="black" stroke-width="0.1" /><circle r="0.23800000000000004" cx="39.4080867969854" cy="43.758678459258924" fill="none" stroke="black" stroke-width="0.1" /><circle r="0.24000000000000005" cx="36.121969394491984" cy="40.413374675981956" fill="none" stroke="black" stroke-width="0.1" /><circle r="0.24200000000000005" cx="38.56062836359418" cy="36.27330786188201" fill="none" stroke="black" stroke-width="0.1" /><circle r="0.24400000000000005" cx="43.30248990888101" cy="37.58718827884579" fill="none" stroke="black" stroke-width="0.1" /><circle r="0.24600000000000005" cx="43.26087960294162" cy="42.6231449092872" fill="none" stroke="black" stroke-width="0.1" /><circle r="0.24800000000000005" cx="38.27416608369752" cy="43.91661809388407" fill="none" stroke="black" stroke-width="0.1" /><circle r="0.25000000000000006" cx="35.675878882985344" cy="39.334716928377134" fill="none" stroke="black" stroke-width="0.1" /><circle r="0.25200000000000006" cx="39.51048019008961" cy="35.556885061614395" fill="none" stroke="black" stroke-width="0.1" /><circle r="0.25400000000000006" cx="44.252562425467076" cy="38.34019946454232" fill="none" stroke="black" stroke-width="0.1" /><circle r="0.25600000000000006" cx="42.762372002658154" cy="43.752985600682536" fill="none" stroke="black" stroke-width="0.1" /><circle r="0.25800000000000006" cx="37.03271290718713" cy="43.71553930255436" fill="none" stroke="black" stroke-width="0.1" /><circle r="0.26000000000000006" cx="35.55488218826968" cy="38.060044423230806" fill="none" stroke="black" stroke-width="0.1" /><circle r="0.26200000000000007" cx="40.7346566627555" cy="35.10987683305737" fill="none" stroke="black" stroke-width="0.1" /><circle r="0.26400000000000007" cx="45.00770174459979" cy="39.43033058961164" fill="none" stroke="black" stroke-width="0.1" /><circle r="0.26600000000000007" cx="41.88396735456907" cy="44.77691239263586" fill="none" stroke="black" stroke-width="0.1" /><circle r="0.26800000000000007" cx="35.79895752468605" cy="43.11514720689217" fill="none" stroke="black" stroke-width="0.1" /><circle r="0.2700000000000001" cx="35.82732964408264" cy="36.69176072497038" fill="none" stroke="black" stroke-width="0.1" /><circle r="0.2720000000000001" cx="42.15035490267088" cy="35.02482424505834" fill="none" stroke="black" stroke-width="0.1" /><circle r="0.2740000000000001" cx="45.45666340008899" cy="40.800030960731675" fill="none" stroke="black" stroke-width="0.1" /><circle r="0.2760000000000001" cx="40.65382088432803" cy="45.57176975935084" fill="none" stroke="black" stroke-width="0.1" /><circle r="0.2780000000000001" cx="34.70027782318837" cy="42.11186406963399" fill="none" stroke="black" stroke-width="0.1" /><circle r="0.2800000000000001" cx="36.52887557118738" cy="35.35335656632659" fill="none" stroke="black" stroke-width="0.1" /><circle r="0.2820000000000001" cx="43.64598829280655" cy="35.36774413824996" fill="none" stroke="black" stroke-width="0.1" /><circle r="0.2840000000000001" cx="45.506772184671355" cy="42.357023569277544" fill="none" stroke="black" stroke-width="0.1" /><circle r="0.2860000000000001" cx="39.13859695004579" cy="46.02372059324879" fill="none" stroke="black" stroke-width="0.1" /><circle r="0.2880000000000001" cx="33.86470226994894" cy="40.74197153828859" fill="none" stroke="black" stroke-width="0.1" /><circle r="0.2900000000000001" cx="37.65651743719865" cy="34.17902804697995" fill="none" stroke="black" stroke-width="0.1" /><circle r="0.2920000000000001" cx="45.08977143753077" cy="36.16970931733688" fill="none" stroke="black" stroke-width="0.1" /><circle r="0.2940000000000001" cx="45.09427885662277" cy="43.9805210627462" fill="none" stroke="black" stroke-width="0.1" /><circle r="0.2960000000000001" cx="37.4400466550096" cy="46.03988732274638" fill="none" stroke="black" stroke-width="0.1" /><circle r="0.2980000000000001" cx="33.408726490591256" cy="39.081229885027554" fill="none" stroke="black" stroke-width="0.1" /><circle r="0.3000000000000001" cx="39.16588142146956" cy="33.301735583231256" fill="none" stroke="black" stroke-width="0.1" /><circle r="0.3020000000000001" cx="46.34064193453982" cy="37.42118537735744" fill="none" stroke="black" stroke-width="0.1" /><circle r="0.3040000000000001" cx="44.19263290224396" cy="45.53040950988454" fill="none" stroke="black" stroke-width="0.1" /><circle r="0.3060000000000001" cx="35.68817541854054" cy="45.55872231530969" fill="none" stroke="black" stroke-width="0.1" /><circle r="0.3080000000000001" cx="33.42549864792037" cy="37.24086390848457" fill="none" stroke="black" stroke-width="0.1" /><circle r="0.3100000000000001" cx="40.97212944054296" cy="32.84069910180962" fill="none" stroke="black" stroke-width="0.1" /><circle r="0.3120000000000001" cx="47.26064859267189" cy="39.06974088892844" fill="none" stroke="black" stroke-width="0.1" /><circle r="0.3140000000000001" cx="42.81785194432105" cy="46.858712373316585" fill="none" stroke="black" stroke-width="0.1" /><circle r="0.3160000000000001" cx="34.03145926468242" cy="44.55813794118328" fill="none" stroke="black" stroke-width="0.1" /><circle r="0.3180000000000001" cx="33.97443084885714" cy="35.360114074161366" fill="none" stroke="black" stroke-width="0.1" /><circle r="0.3200000000000001" cx="42.95456376403575" cy="32.88940558291736" fill="none" stroke="black" stroke-width="0.1" /><circle r="0.3220000000000001" cx="47.727781496293325" cy="41.02147841168888" fill="none" stroke="black" stroke-width="0.1" /><circle r="0.3240000000000001" cx="41.03039014174521" cy="47.82242904447168" fill="none" stroke="black" stroke-width="0.1" /><circle r="0.3260000000000001" cx="32.624836439623785" cy="43.06058612976318" fill="none" stroke="black" stroke-width="0.1" /><circle r="0.3280000000000001" cx="35.07320742679063" cy="33.59585173964805" fill="none" stroke="black" stroke-width="0.1" /><circle r="0.3300000000000001" cx="44.964692253329495" cy="33.50519778363267" fill="none" stroke="black" stroke-width="0.1" /><circle r="0.33200000000000013" cx="47.648146624079224" cy="43.146228411381706" fill="none" stroke="black" stroke-width="0.1" /><circle r="0.33400000000000013" cx="38.93318548624315" cy="48.29669402793894" fill="none" stroke="black" stroke-width="0.1" /><circle r="0.33600000000000013" cx="31.616415427134275" cy="41.13450857626012" fill="none" stroke="black" stroke-width="0.1" /><circle r="0.33800000000000013" cx="36.692991312168715" cy="32.11002417376274" fill="none" stroke="black" stroke-width="0.1" /><circle r="0.34000000000000014" cx="46.83721529380227" cy="34.70141650757522" fill="none" stroke="black" stroke-width="0.1" /><circle r="0.34200000000000014" cx="46.9664043024976" cy="45.28623080220141" fill="none" stroke="black" stroke-width="0.1" /><circle r="0.34400000000000014" cx="36.66587782380053" cy="48.18713804171976" fill="none" stroke="black" stroke-width="0.1" /><circle r="0.34600000000000014" cx="31.133982794685853" cy="38.89186466752768" fill="none" stroke="black" stroke-width="0.1" /><circle r="0.34800000000000014" cx="38.75738877973778" cy="31.05590600701902" fill="none" stroke="black" stroke-width="0.1" /><circle r="0.35000000000000014" cx="48.40312954132271" cy="36.44288896550171" fill="none" stroke="black" stroke-width="0.1" /><circle r="0.35200000000000015" cx="45.67349731358186" cy="47.26772510712805" fill="none" stroke="black" stroke-width="0.1" /><circle r="0.35400000000000015" cx="34.39551110818389" cy="47.44035814067508" fill="none" stroke="black" stroke-width="0.1" /><circle r="0.35600000000000015" cx="31.272451298603823" cy="36.48176270488218" fill="none" stroke="black" stroke-width="0.1" /><circle r="0.35800000000000015" cx="41.145438553992925" cy="30.564270270984515" fill="none" stroke="black" stroke-width="0.1" /><circle r="0.36000000000000015" cx="49.50393613481651" cy="38.64530522060167" fill="none" stroke="black" stroke-width="0.1" /><circle r="0.36200000000000015" cx="43.81088449302412" cy="48.91460511637102" fill="none" stroke="black" stroke-width="0.1" /><circle r="0.36400000000000016" cx="32.304338965215074" cy="46.051520572359735" fill="none" stroke="black" stroke-width="0.1" /><circle r="0.36600000000000016" cx="32.08335359797323" cy="34.080546077105026" fill="none" stroke="black" stroke-width="0.1" /><circle r="0.36800000000000016" cx="43.69856609891316" cy="30.730641402342318" fill="none" stroke="black" stroke-width="0.1" /><circle r="0.37000000000000016" cx="50.005810288493436" cy="41.178721964959955" fill="none" stroke="black" stroke-width="0.1" /><circle r="0.37200000000000016" cx="41.47075585938174" cy="50.06308984368591" fill="none" stroke="black" stroke-width="0.1" /><circle r="0.37400000000000017" cx="30.575616997153645" cy="44.0683202941338" fill="none" stroke="black" stroke-width="0.1" /><circle r="0.37600000000000017" cx="33.5673602743572" cy="31.878993525425418" fill="none" stroke="black" stroke-width="0.1" /><circle r="0.37800000000000017" cx="46.231113377784745" cy="31.604748301974965" fill="none" stroke="black" stroke-width="0.1" /><circle r="0.38000000000000017" cx="49.812547688627184" cy="43.87510101267278" fill="none" stroke="black" stroke-width="0.1" /><circle r="0.3820000000000002" cx="38.79201654745199" cy="50.57623756249691" fill="none" stroke="black" stroke-width="0.1" /><circle r="0.3840000000000002" cx="29.378466019340557" cy="41.59079096605967" fill="none" stroke="black" stroke-width="0.1" /><circle r="0.3860000000000002" cx="35.67059042380263" cy="30.067556306651884" fill="none" stroke="black" stroke-width="0.1" /><circle r="0.3880000000000002" cx="48.543744887993554" cy="33.18315884819924" fill="none" stroke="black" stroke-width="0.1" /><circle r="0.3900000000000002" cx="48.87615658084851" cy="46.53945482072168" fill="none" stroke="black" stroke-width="0.1" /><circle r="0.3920000000000002" cx="35.95216544404369" cy="50.35709589641837" fill="none" stroke="black" stroke-width="0.1" /><circle r="0.3940000000000002" cx="28.853009780482033" cy="38.76677899548738" fill="none" stroke="black" stroke-width="0.1" /><circle r="0.3960000000000002" cx="38.285203494517575" cy="28.82075257699403" fill="none" stroke="black" stroke-width="0.1" /><circle r="0.3980000000000002" cx="50.43876772201981" cy="35.40585661458878" fill="none" stroke="black" stroke-width="0.1" /><circle r="0.4000000000000002" cx="47.20411115096966" cy="48.96385980058117" fill="none" stroke="black" stroke-width="0.1" /><circle r="0.4020000000000002" cx="33.155534101905204" cy="49.35934354374375" fill="none" stroke="black" stroke-width="0.1" /><circle r="0.4040000000000002" cx="29.097016892446746" cy="35.78324065704375" fill="none" stroke="black" stroke-width="0.1" /><circle r="0.4060000000000002" cx="41.25443270923717" cy="28.281953081763312" fill="none" stroke="black" stroke-width="0.1" /><circle r="0.4080000000000002" cx="51.736209064634565" cy="38.15723121602577" fill="none" stroke="black" stroke-width="0.1" /><circle r="0.4100000000000002" cx="44.86251267598165" cy="50.94333566495693" fill="none" stroke="black" stroke-width="0.1" /><circle r="0.4120000000000002" cx="30.618665197734618" cy="47.59443594533556" fill="none" stroke="black" stroke-width="0.1" /><circle r="0.4140000000000002" cx="30.15520497861069" cy="32.8538656612943" fill="none" stroke="black" stroke-width="0.1" /><circle r="0.4160000000000002" cx="44.38186808265381" cy="28.54981082661861" fill="none" stroke="black" stroke-width="0.1" /><circle r="0.4180000000000002" cx="52.28938630796655" cy="41.271616755773856" fill="none" stroke="black" stroke-width="0.1" /><circle r="0.4200000000000002" cx="41.97470400820831" cy="52.2923978165355" fill="none" stroke="black" stroke-width="0.1" /><circle r="0.4220000000000002" cx="28.55387185938632" cy="45.134508310310956" fill="none" stroke="black" stroke-width="0.1" /><circle r="0.4240000000000002" cx="32.012198320580914" cy="30.20384645229209" fill="none" stroke="black" stroke-width="0.1" /><circle r="0.4260000000000002" cx="47.44444795402886" cy="29.667506609740506" fill="none" stroke="black" stroke-width="0.1" /><circle r="0.4280000000000002" cx="51.9986939104984" cy="44.54315357897674" fill="none" stroke="black" stroke-width="0.1" /><circle r="0.4300000000000002" cx="38.71522856611143" cy="52.86098702909946" fill="none" stroke="black" stroke-width="0.1" /><circle r="0.4320000000000002" cx="27.1522073927785" cy="42.110598285279636" fill="none" stroke="black" stroke-width="0.1" /><circle r="0.4340000000000002" cx="34.589878940817215" cy="28.052874189789925" fill="none" stroke="black" stroke-width="0.1" /><circle r="0.4360000000000002" cx="50.20829975664887" cy="31.61580557963954" fill="none" stroke="black" stroke-width="0.1" /><circle r="0.4380000000000002" cx="50.822420968989505" cy="47.739394638469925" fill="none" stroke="black" stroke-width="0.1" /><circle r="0.4400000000000002" cx="35.299391269046474" cy="52.54847710116587" fill="none" stroke="black" stroke-width="0.1" /><circle r="0.4420000000000002" cx="26.567172286448663" cy="38.70610486589986" fill="none" stroke="black" stroke-width="0.1" /><circle r="0.44400000000000023" cx="37.749552377217526" cy="26.597627616831655" fill="none" stroke="black" stroke-width="0.1" /><circle r="0.44600000000000023" cx="52.446309378137286" cy="34.31065839804879" fill="none" stroke="black" stroke-width="0.1" /><circle r="0.44800000000000023" cx="48.78360015820726" cy="50.617757214249266" fill="none" stroke="black" stroke-width="0.1" /><circle r="0.45000000000000023" cx="31.96903763037804" cy="51.314560018742085" fill="none" stroke="black" stroke-width="0.1" /><circle r="0.45200000000000023" cx="26.90048150626815" cy="35.14577346713421" fill="none" stroke="black" stroke-width="0.1" /><circle r="0.45400000000000024" cx="41.298986347718575" cy="25.99511301479224" fill="none" stroke="black" stroke-width="0.1" /><circle r="0.45600000000000024" cx="53.95611610925515" cy="37.60575207111085" fill="none" stroke="black" stroke-width="0.1" /><circle r="0.45800000000000024" cx="45.97216052673104" cy="52.94365959236246" fill="none" stroke="black" stroke-width="0.1" /><circle r="0.46000000000000024" cx="28.975490228567413" cy="49.186004806203215" fill="none" stroke="black" stroke-width="0.1" /><circle r="0.46200000000000024" cx="28.191107256424946" cy="31.680860791479596" fill="none" stroke="black" stroke-width="0.1" /><circle r="0.46400000000000025" cx="45.00400007439911" cy="26.348202196948023" fill="none" stroke="black" stroke-width="0.1" /><circle r="0.46600000000000025" cx="54.57714346036982" cy="41.30004366688146" fill="none" stroke="black" stroke-width="0.1" /><circle r="0.46800000000000025" cx="42.541995012430576" cy="54.50900276920434" fill="none" stroke="black" stroke-width="0.1" /><circle r="0.47000000000000025" cx="26.56084275516727" cy="46.25856833058976" fill="none" stroke="black" stroke-width="0.1" /><circle r="0.47200000000000025" cx="30.40860579892156" cy="28.571458654774876" fill="none" stroke="black" stroke-width="0.1" /><circle r="0.47400000000000025" cx="48.603913299896384" cy="27.694598709190043" fill="none" stroke="black" stroke-width="0.1" /><circle r="0.47600000000000026" cx="54.20529471091124" cy="45.14992254079209" fill="none" stroke="black" stroke-width="0.1" /><circle r="0.47800000000000026" cx="38.702934215411595" cy="55.14957574820006" fill="none" stroke="black" stroke-width="0.1" /><circle r="0.48000000000000026" cx="24.938988633978653" cy="42.69368458297869" fill="none" stroke="black" stroke-width="0.1" /><circle r="0.48200000000000026" cx="33.45144458025871" cy="26.067216828121587" fill="none" stroke="black" stroke-width="0.1" /><circle r="0.48400000000000026" cx="51.82983591909511" cy="30.000245896658832" fill="none" stroke="black" stroke-width="0.1" /><circle r="0.48600000000000027" cx="52.80406775140177" cy="48.88527287242855" fill="none" stroke="black" stroke-width="0.1" /><circle r="0.48800000000000027" cx="34.70801278701645" cy="54.75998886644634" fill="none" stroke="black" stroke-width="0.1" /><circle r="0.49000000000000027" cx="24.277837548831364" cy="38.709948505266354" fill="none" stroke="black" stroke-width="0.1" /><circle r="0.49200000000000027" cx="37.150687749069206" cy="24.387879077566136" fill="none" stroke="black" stroke-width="0.1" /><circle r="0.49400000000000027" cx="54.42451825461537" cy="33.15788789025863" fill="none" stroke="black" stroke-width="0.1" /><circle r="0.4960000000000003" cx="50.411070197570865" cy="52.22837754329058" fill="none" stroke="black" stroke-width="0.1" /><circle r="0.4980000000000003" cx="30.836793761006696" cy="53.304874160309666" fill="none" stroke="black" stroke-width="0.1" /><circle r="0.5000000000000002" cx="24.684140113431248" cy="34.569812532242025" fill="none" stroke="black" stroke-width="0.1" /><circle r="0.5020000000000002" cx="41.278999692136715" cy="23.705117834500438" fill="none" stroke="black" stroke-width="0.1" /><circle r="0.5040000000000002" cx="56.16231048133079" cy="36.99112647240431" fill="none" stroke="black" stroke-width="0.1" /><circle r="0.5060000000000002" cx="47.139228625684694" cy="54.91434341934655" fill="none" stroke="black" stroke-width="0.1" /><circle r="0.5080000000000002" cx="27.375849664823996" cy="50.825328092712795" fill="none" stroke="black" stroke-width="0.1" /><circle r="0.5100000000000002" cx="26.19219750313113" cy="30.562298203086563" fill="none" stroke="black" stroke-width="0.1" /><circle r="0.5120000000000002" cx="45.56451677788917" cy="24.12711264361171" fill="none" stroke="black" stroke-width="0.1" /><circle r="0.5140000000000002" cx="56.867713481617116" cy="41.263909372571234" fill="none" stroke="black" stroke-width="0.1" /><circle r="0.5160000000000002" cx="43.17236382528176" cy="56.711559106200866" fill="none" stroke="black" stroke-width="0.1" /><circle r="0.5180000000000002" cx="24.597760362037285" cy="47.43989510240375" fill="none" stroke="black" stroke-width="0.1" /><circle r="0.5200000000000002" cx="28.757486677625902" cy="26.9828615204323" fill="none" stroke="black" stroke-width="0.1" /><circle r="0.5220000000000002" cx="49.70874802820525" cy="25.687165314836413" fill="none" stroke="black" stroke-width="0.1" /><circle r="0.5240000000000002" cx="56.431050829637435" cy="45.694968712282105" fill="none" stroke="black" stroke-width="0.1" /><circle r="0.5260000000000002" cx="38.75522036720818" cy="57.44063498459238" fill="none" stroke="black" stroke-width="0.1" /><circle r="0.5280000000000002" cx="22.740154118429214" cy="43.339778457386814" fill="none" stroke="black" stroke-width="0.1" /><circle r="0.5300000000000002" cx="32.255898415330634" cy="24.11181207165769" fill="none" stroke="black" stroke-width="0.1" /><circle r="0.5320000000000003" cx="53.40732622906793" cy="28.33738865487886" fill="none" stroke="black" stroke-width="0.1" /><circle r="0.5340000000000003" cx="54.81995259440092" cy="49.976333499824" fill="none" stroke="black" stroke-width="0.1" /><circle r="0.5360000000000003" cx="34.17846306388704" cy="56.990329829096126" fill="none" stroke="black" stroke-width="0.1" /><circle r="0.5380000000000003" cx="21.986374745410142" cy="38.77839032944095" fill="none" stroke="black" stroke-width="0.1" /><circle r="0.5400000000000003" cx="36.48888736151009" cy="22.19285008655688" fill="none" stroke="black" stroke-width="0.1" /><circle r="0.5420000000000003" cx="56.372169354750454" cy="31.948161972607075" fill="none" stroke="black" stroke-width="0.1" /><circle r="0.5440000000000003" cx="52.08560754477841" cy="53.79469790439776" fill="none" stroke="black" stroke-width="0.1" /><circle r="0.5460000000000003" cx="29.759553136092137" cy="55.32913803928585" fill="none" stroke="black" stroke-width="0.1" /><circle r="0.5480000000000003" cx="22.449296152982782" cy="34.05578478903264" fill="none" stroke="black" stroke-width="0.1" /><circle r="0.5500000000000003" cx="41.19439878466261" cy="21.413337132685783" fill="none" stroke="black" stroke-width="0.1" /><circle r="0.5520000000000003" cx="58.35345032973369" cy="36.31363851555506" fill="none" stroke="black" stroke-width="0.1" /><circle r="0.5540000000000003" cx="48.36309429583032" cy="56.85416502823711" fill="none" stroke="black" stroke-width="0.1" /><circle r="0.5560000000000003" cx="25.8207621052713" cy="52.51148723072881" fill="none" stroke="black" stroke-width="0.1" /><circle r="0.5580000000000003" cx="24.15962721960265" cy="29.498923141979805" fill="none" stroke="black" stroke-width="0.1" /><circle r="0.5600000000000003" cx="46.06299739497682" cy="21.887847654447448" fill="none" stroke="black" stroke-width="0.1" /><circle r="0.5620000000000003" cx="59.15972639445717" cy="41.16314637494247" fill="none" stroke="black" stroke-width="0.1" /><circle r="0.5640000000000003" cx="43.86552001247611" cy="58.89872628070863" fill="none" stroke="black" stroke-width="0.1" /><circle r="0.5660000000000003" cx="22.665843892965604" cy="48.677860165787564" fill="none" stroke="black" stroke-width="0.1" /><circle r="0.5680000000000003" cx="27.059764361784705" cy="25.439069341986993" fill="none" stroke="black" stroke-width="0.1" /><circle r="0.5700000000000003" cx="50.758212305390316" cy="23.64636147543463" fill="none" stroke="black" stroke-width="0.1" /><circle r="0.5720000000000003" cx="58.67465475717954" cy="46.17787744295336" fill="none" stroke="black" stroke-width="0.1" /><circle r="0.5740000000000003" cx="38.87214805769181" cy="59.732794404144386" fill="none" stroke="black" stroke-width="0.1" /><circle r="0.5760000000000003" cx="20.55704306057894" cy="44.04858314127531" fill="none" stroke="black" stroke-width="0.1" /><circle r="0.5780000000000003" cx="31.003874676171897" cy="22.187876203047015" fill="none" stroke="black" stroke-width="0.1" /><circle r="0.5800000000000003" cx="54.93976072131272" cy="26.62816207135603" fill="none" stroke="black" stroke-width="0.1" /><circle r="0.5820000000000003" cx="56.86891692524898" cy="51.0118421151526" fill="none" stroke="black" stroke-width="0.1" /><circle r="0.5840000000000003" cx="33.71115059347764" cy="59.23819048512836" fill="none" stroke="black" stroke-width="0.1" /><circle r="0.5860000000000003" cx="19.694154538617465" cy="38.91148491124366" fill="none" stroke="black" stroke-width="0.1" /><circle r="0.5880000000000003" cx="35.76445430889874" cy="20.01387849785273" fill="none" stroke="black" stroke-width="0.1" /><circle r="0.5900000000000003" cx="58.28804935177742" cy="30.682120632517645" fill="none" stroke="black" stroke-width="0.1" /><circle r="0.5920000000000003" cx="53.80627918988948" cy="55.315712681126676" fill="none" stroke="black" stroke-width="0.1" /><circle r="0.5940000000000003" cx="28.738044717417495" cy="57.38618958291643" fill="none" stroke="black" stroke-width="0.1" /><circle r="0.5960000000000003" cx="20.197261096189514" cy="33.60409256574876" fill="none" stroke="black" stroke-width="0.1" /><circle r="0.5980000000000003" cx="41.045135517383024" cy="19.121141871493446" fill="none" stroke="black" stroke-width="0.1" /><circle r="0.6000000000000003" cx="60.528199188821816" cy="35.5735976161159" fill="none" stroke="black" stroke-width="0.1" /><circle r="0.6020000000000003" cx="49.64311180545951" cy="58.76191407366015" fill="none" stroke="black" stroke-width="0.1" /><circle r="0.6040000000000003" cx="24.31122879628238" cy="54.24354443660005" fill="none" stroke="black" stroke-width="0.1" /><circle r="0.6060000000000003" cx="22.09456195457661" cy="28.49145911066464" fill="none" stroke="black" stroke-width="0.1" /><circle r="0.6080000000000003" cx="46.4990457717842" cy="19.63172064075482" fill="none" stroke="black" stroke-width="0.1" /><circle r="0.6100000000000003" cx="61.45181096562635" cy="40.99771303240566" fill="none" stroke="black" stroke-width="0.1" /><circle r="0.6120000000000003" cx="44.62114784331796" cy="61.0691692434751" fill="none" stroke="black" stroke-width="0.1" /><circle r="0.6140000000000003" cx="20.766300686481387" cy="49.97181205785351" fill="none" stroke="black" stroke-width="0.1" /><circle r="0.6160000000000003" cx="25.316381389497934" cy="23.941078974560078" fill="none" stroke="black" stroke-width="0.1" /><circle r="0.6180000000000003" cx="51.75158810368084" cy="21.57335619160597" fill="none" stroke="black" stroke-width="0.1" /><circle r="0.6200000000000003" cx="60.934791169489415" cy="46.59825876196645" fill="none" stroke="black" stroke-width="0.1" /><circle r="0.6220000000000003" cx="39.05375246083213" cy="62.02468253107449" fill="none" stroke="black" stroke-width="0.1" /><circle r="0.6240000000000003" cx="18.390989065333823" cy="44.81977659497579" fill="none" stroke="black" stroke-width="0.1" /><circle r="0.6260000000000003" cx="29.696030543635626" cy="20.296613528575627" fill="none" stroke="black" stroke-width="0.1" /><circle r="0.6280000000000003" cx="56.426146953059515" cy="24.873513419286937" fill="none" stroke="black" stroke-width="0.1" /><circle r="0.6300000000000003" cx="58.94978831560503" cy="51.991086180732665" fill="none" stroke="black" stroke-width="0.1" /><circle r="0.6320000000000003" cx="33.30645915503147" cy="61.502253625067695" fill="none" stroke="black" stroke-width="0.1" /><circle r="0.6340000000000003" cx="17.402548618146675" cy="39.10926095584965" fill="none" stroke="black" stroke-width="0.1" /><circle r="0.6360000000000003" cx="34.977716933587246" cy="17.85229644408201" fill="none" stroke="black" stroke-width="0.1" /><circle r="0.6380000000000003" cx="60.170956996996395" cy="29.360426755488703" fill="none" stroke="black" stroke-width="0.1" /><circle r="0.6400000000000003" cx="55.57213314405003" cy="56.790433864078" fill="none" stroke="black" stroke-width="0.1" /><circle r="0.6420000000000003" cx="27.772975537318906" cy="59.474852959367794" fill="none" stroke="black" stroke-width="0.1" /><circle r="0.6440000000000003" cx="17.929354010598384" cy="33.21511344158882" fill="none" stroke="black" stroke-width="0.1" /><circle r="0.6460000000000004" cx="40.831187654979374" cy="16.82990392591761" fill="none" stroke="black" stroke-width="0.1" /><circle r="0.6480000000000004" cx="62.6852264261514" cy="34.771338412725456" fill="none" stroke="black" stroke-width="0.1" /><circle r="0.6500000000000004" cx="50.97861257785008" cy="60.63639238979212" fill="none" stroke="black" stroke-width="0.1" /><circle r="0.6520000000000004" cx="22.848233292946162" cy="56.02054302534086" fill="none" stroke="black" stroke-width="0.1" /><circle r="0.6540000000000004" cx="19.998180919087453" cy="27.540607620977628" fill="none" stroke="black" stroke-width="0.1" /><circle r="0.6560000000000004" cx="46.872290537487196" cy="17.360052500759593" fill="none" stroke="black" stroke-width="0.1" /><circle r="0.6580000000000004" cx="63.74259516344573" cy="40.76759358043279" fill="none" stroke="black" stroke-width="0.1" /><circle r="0.6600000000000004" cx="45.43890638940775" cy="63.22155889011884" fill="none" stroke="black" stroke-width="0.1" /><circle r="0.6620000000000004" cx="18.90032580030242" cy="51.32107652419213" fill="none" stroke="black" stroke-width="0.1" /><circle r="0.6640000000000004" cx="23.5282991222629" cy="22.48986949807762" fill="none" stroke="black" stroke-width="0.1" /><circle r="0.6660000000000004" cx="52.688179446786535" cy="19.469332029226585" fill="none" stroke="black" stroke-width="0.1" /><circle r="0.6680000000000004" cx="63.21013736509189" cy="46.955747515081526" fill="none" stroke="black" stroke-width="0.1" /><circle r="0.6700000000000004" cx="39.30004286955586" cy="64.3149272056393" fill="none" stroke="black" stroke-width="0.1" /><circle r="0.6720000000000004" cx="16.243319681162568" cy="45.65301160697196" fill="none" stroke="black" stroke-width="0.1" /><circle r="0.6740000000000004" cx="28.33304593617483" cy="18.439215972683396" fill="none" stroke="black" stroke-width="0.1" /><circle r="0.6760000000000004" cx="57.8655103403144" cy="23.07440871697191" fill="none" stroke="black" stroke-width="0.1" /><circle r="0.6780000000000004" cx="61.06138086917447" cy="52.913375270763595" fill="none" stroke="black" stroke-width="0.1" /><circle r="0.6800000000000004" cx="32.96474767811047" cy="63.781194771654036" fill="none" stroke="black" stroke-width="0.1" /><circle r="0.6820000000000004" cx="15.112929243181576" cy="39.37172128389512" fill="none" stroke="black" stroke-width="0.1" /><circle r="0.6840000000000004" cx="34.129028723446254" cy="15.709429889978335" fill="none" stroke="black" stroke-width="0.1" /><circle r="0.6860000000000004" cx="62.01970352435912" cy="27.983765910264424" fill="none" stroke="black" stroke-width="0.1" /><circle r="0.6880000000000004" cx="57.382198751956444" cy="58.217891385873415" fill="none" stroke="black" stroke-width="0.1" /><circle r="0.6900000000000004" cx="26.865030456271953" cy="61.593938966416786" fill="none" stroke="black" stroke-width="0.1" /><circle r="0.6920000000000004" cx="15.646901121753029" cy="32.889200113466636" fill="none" stroke="black" stroke-width="0.1" /><circle r="0.6940000000000004" cx="40.55255884966469" cy="14.540995625954775" fill="none" stroke="black" stroke-width="0.1" /><circle r="0.6960000000000004" cx="64.82320768851561" cy="33.90722066271755" fill="none" stroke="black" stroke-width="0.1" /><circle r="0.6980000000000004" cx="52.36890540783238" cy="62.476414394028495" fill="none" stroke="black" stroke-width="0.1" /><circle r="0.7000000000000004" cx="21.432741125428404" cy="57.84150772453491" fill="none" stroke="black" stroke-width="0.1" /><circle r="0.7020000000000004" cx="17.87167659673362" cy="26.647047953338184" fill="none" stroke="black" stroke-width="0.1" /><circle r="0.7040000000000004" cx="47.182385235676584" cy="15.074171180754465" fill="none" stroke="black" stroke-width="0.1" /><circle r="0.7060000000000004" cx="66.03070661573607" cy="40.4727981445299" fill="none" stroke="black" stroke-width="0.1" /><circle r="0.7080000000000004" cx="46.31842963094786" cy="65.35457250672462" fill="none" stroke="black" stroke-width="0.1" /><circle r="0.7100000000000004" cx="17.069101608592092" cy="52.72495673717292" fill="none" stroke="black" stroke-width="0.1" /><circle r="0.7120000000000004" cx="21.69649742963546" cy="21.08640188497559" fill="none" stroke="black" stroke-width="0.1" /><circle r="0.7140000000000004" cx="53.56731264897548" cy="17.33548472865687" fill="none" stroke="black" stroke-width="0.1" /><circle r="0.7160000000000004" cx="65.49936370451229" cy="47.250003494136905" fill="none" stroke="black" stroke-width="0.1" /><circle r="0.7180000000000004" cx="39.611002684740036" cy="66.602156042109" fill="none" stroke="black" stroke-width="0.1" /><circle r="0.7200000000000004" cx="14.11535595495344" cy="46.547915902119655" fill="none" stroke="black" stroke-width="0.1" /><circle r="0.7220000000000004" cx="26.915623289809886" cy="16.616862676154206" fill="none" stroke="black" stroke-width="0.1" /><circle r="0.7240000000000004" cx="59.25689448880384" cy="21.231832411045765" fill="none" stroke="black" stroke-width="0.1" /><circle r="0.7260000000000004" cx="63.202495613510706" cy="53.77804130872789" fill="none" stroke="black" stroke-width="0.1" /><circle r="0.7280000000000004" cx="32.68635011500293" cy="66.073682619831" fill="none" stroke="black" stroke-width="0.1" /><circle r="0.7300000000000004" cx="12.826668784368778" cy="39.698842822437875" fill="none" stroke="black" stroke-width="0.1" /><circle r="0.7320000000000004" cx="33.21876820173125" cy="13.586598187697518" fill="none" stroke="black" stroke-width="0.1" /><circle r="0.7340000000000004" cx="63.83311305134035" cy="26.55284612707858" fill="none" stroke="black" stroke-width="0.1" /><circle r="0.7360000000000004" cx="59.235487010041595" cy="59.59713345075029" fill="none" stroke="black" stroke-width="0.1" /><circle r="0.7380000000000004" cx="26.014871927155877" cy="63.74224542426732" fill="none" stroke="black" stroke-width="0.1" /><circle r="0.7400000000000004" cx="13.351235372659282" cy="32.62668027028603" fill="none" stroke="black" stroke-width="0.1" /><circle r="0.7420000000000004" cx="40.20927864828411" cy="12.255789298533518" fill="none" stroke="black" stroke-width="0.1" /><circle r="0.7440000000000004" cx="66.94082534616689" cy="32.981629130109575" fill="none" stroke="black" stroke-width="0.1" /><circle r="0.7460000000000004" cx="53.81327668523938" cy="64.28080748692302" fill="none" stroke="black" stroke-width="0.1" /><circle r="0.7480000000000004" cx="20.06569947071681" cy="59.70544499391512" fill="none" stroke="black" stroke-width="0.1" /><circle r="0.7500000000000004" cx="15.716254349862488" cy="25.811436922668243" fill="none" stroke="black" stroke-width="0.1" /><circle r="0.7520000000000004" cx="47.42900844822582" cy="12.775411234029928" fill="none" stroke="black" stroke-width="0.1" /><circle r="0.7540000000000004" cx="68.31477306792249" cy="40.11336274540494" fill="none" stroke="black" stroke-width="0.1" /><circle r="0.7560000000000004" cx="47.25932657062931" cy="67.46689421359739" fill="none" stroke="black" stroke-width="0.1" /><circle r="0.7580000000000005" cx="15.273797402958945" cy="54.18273352108381" fill="none" stroke="black" stroke-width="0.1" /><circle r="0.7600000000000005" cx="19.821974368262264" cy="19.731618673289937" fill="none" stroke="black" stroke-width="0.1" /><circle r="0.7620000000000005" cx="54.38833654749554" cy="15.173022809935194" fill="none" stroke="black" stroke-width="0.1" /><circle r="0.7640000000000005" cx="67.80113405187234" cy="47.48071155905762" fill="none" stroke="black" stroke-width="0.1" /><circle r="0.7660000000000005" cx="39.986589411976176" cy="68.88499688689828" fill="none" stroke="black" stroke-width="0.1" /><circle r="0.7680000000000005" cx="12.008411988736142" cy="47.50409225740618" fill="none" stroke="black" stroke-width="0.1" /><circle r="0.7700000000000005" cx="25.44448733130433" cy="14.830719598060941" fill="none" stroke="black" stroke-width="0.1" /><circle r="0.7720000000000005" cx="60.59936151953444" cy="19.346787054128427" fill="none" stroke="black" stroke-width="0.1" /><circle r="0.7740000000000005" cx="65.37192089580527" cy="54.58443879815035" fill="none" stroke="black" stroke-width="0.1" /><circle r="0.7760000000000005" cx="32.47157532057541" cy="68.37837947886074" fill="none" stroke="black" stroke-width="0.1" /><circle r="0.7780000000000005" cx="10.545139265668489" cy="40.090576603652785" fill="none" stroke="black" stroke-width="0.1" /><circle r="0.7800000000000005" cx="32.24733880945345" cy="11.485113634022898" fill="none" stroke="black" stroke-width="0.1" /><circle r="0.7820000000000005" cx="65.61002297603956" cy="25.068397669147533" fill="none" stroke="black" stroke-width="0.1" /><circle r="0.7840000000000005" cx="61.13099089020419" cy="60.92722685876225" fill="none" stroke="black" stroke-width="0.1" /><circle r="0.7860000000000005" cx="25.223139766167513" cy="65.91855757232206" fill="none" stroke="black" stroke-width="0.1" /><circle r="0.7880000000000005" cx="11.04369598115575" cy="32.42785647466603" fill="none" stroke="black" stroke-width="0.1" /><circle r="0.7900000000000005" cx="39.8014024916739" cy="9.975656809354188" fill="none" stroke="black" stroke-width="0.1" /><circle r="0.7920000000000005" cx="69.03676893511692" cy="31.99497346608883" fill="none" stroke="black" stroke-width="0.1" /><circle r="0.7940000000000005" cx="55.31099062510534" cy="66.04841244832262" fill="none" stroke="black" stroke-width="0.1" /><circle r="0.7960000000000005" cx="18.748036829793108" cy="61.61134335047598" fill="none" stroke="black" stroke-width="0.1" /><circle r="0.7980000000000005" cx="13.533132021819245" cy="25.034408650990684" fill="none" stroke="black" stroke-width="0.1" /><circle r="0.8000000000000005" cx="47.61186391168481" cy="10.465113377736103" fill="none" stroke="black" stroke-width="0.1" /><circle r="0.8020000000000005" cx="70.59342284119793" cy="39.6893492963782" fill="none" stroke="black" stroke-width="0.1" /><circle r="0.8040000000000005" cx="48.26118135502827" cy="69.55721540705967" fill="none" stroke="black" stroke-width="0.1" /><circle r="0.8060000000000005" cx="13.515568997295624" cy="55.693665584017765" fill="none" stroke="black" stroke-width="0.1" /><circle r="0.8080000000000005" cx="17.905745855391082" cy="18.426443645207137" fill="none" stroke="black" stroke-width="0.1" /><circle r="0.8100000000000005" cx="55.15062272828723" cy="12.983167174054277" fill="none" stroke="black" stroke-width="0.1" /><circle r="0.8120000000000005" cx="70.1141062185294" cy="47.64758175236594" fill="none" stroke="black" stroke-width="0.1" /><circle r="0.8140000000000005" cx="40.426734666108686" cy="71.16207827672494" fill="none" stroke="black" stroke-width="0.1" /><circle r="0.8160000000000005" cx="9.923794498394741" cy="48.521118625227636" fill="none" stroke="black" stroke-width="0.1" /><circle r="0.8180000000000005" cx="23.920384844594185" cy="13.081939121585389" fill="none" stroke="black" stroke-width="0.1" /><circle r="0.8200000000000005" cx="61.891992388858114" cy="17.420292976963363" fill="none" stroke="black" stroke-width="0.1" /><circle r="0.8220000000000005" cx="67.56843278257725" cy="55.3319450466179" fill="none" stroke="black" stroke-width="0.1" /><circle r="0.8240000000000005" cx="32.320706939647835" cy="70.69394171645634" fill="none" stroke="black" stroke-width="0.1" /><circle r="0.8260000000000005" cx="8.269711906208695" cy="40.546847771319264" fill="none" stroke="black" stroke-width="0.1" /><circle r="0.8280000000000005" cx="31.215168780223486" cy="9.406281029596435" fill="none" stroke="black" stroke-width="0.1" /><circle r="0.8300000000000005" cx="67.34928437037335" cy="23.531172797419888" fill="none" stroke="black" stroke-width="0.1" /><circle r="0.8320000000000005" cx="63.06768566903573" cy="62.20725732445487" fill="none" stroke="black" stroke-width="0.1" /><circle r="0.8340000000000005" cx="24.490450930497058" cy="68.12164846982964" fill="none" stroke="black" stroke-width="0.1" /><circle r="0.8360000000000005" cx="8.72562799529641" cy="32.293006052201456" fill="none" stroke="black" stroke-width="0.1" /><circle r="0.8380000000000005" cx="39.32901170622773" cy="7.7019691047641174" fill="none" stroke="black" stroke-width="0.1" /><circle r="0.8400000000000005" cx="71.10973559738031" cy="30.947688081982662" fill="none" stroke="black" stroke-width="0.1" /><circle r="0.8420000000000005" cx="56.861289504589294" cy="67.77808382956638" fill="none" stroke="black" stroke-width="0.1" /><circle r="0.8440000000000005" cx="17.480662710350853" cy="63.55817369905842" fill="none" stroke="black" stroke-width="0.1" /><circle r="0.8460000000000005" cx="11.32353953534987" cy="24.316574346803293" fill="none" stroke="black" stroke-width="0.1" /><circle r="0.8480000000000005" cx="47.730680626132774" cy="8.144624047788643" fill="none" stroke="black" stroke-width="0.1" /><circle r="0.8500000000000005" cx="72.86528529061884" cy="39.200845593003" fill="none" stroke="black" stroke-width="0.1" /><circle r="0.8520000000000005" cx="49.32355340350723" cy="71.62423519916234" fill="none" stroke="black" stroke-width="0.1" /><circle r="0.8540000000000005" cx="11.795558336580267" cy="57.256989756465146" fill="none" stroke="black" stroke-width="0.1" /><circle r="0.8560000000000005" cx="15.948845336933598" cy="17.171781511181184" fill="none" stroke="black" stroke-width="0.1" /><circle r="0.8580000000000005" cx="55.853565744907606" cy="10.767150700421247" fill="none" stroke="black" stroke-width="0.1" /><circle r="0.8600000000000005" cx="72.43693240863946" cy="47.7503494061458" fill="none" stroke="black" stroke-width="0.1" /><circle r="0.8620000000000005" cx="40.93134418355962" cy="73.43202989666855" fill="none" stroke="black" stroke-width="0.1" /><circle r="0.8640000000000005" cx="7.862802374497662" cy="49.59854826415934" fill="none" stroke="black" stroke-width="0.1" /><circle r="0.8660000000000005" cx="22.344084430530703" cy="11.371659663826808" fill="none" stroke="black" stroke-width="0.1" /><circle r="0.8680000000000005" cx="63.13388720295026" cy="15.453387955133945" fill="none" stroke="black" stroke-width="0.1" /><circle r="0.8700000000000006" cx="69.79079546314897" cy="56.01996038299758" fill="none" stroke="black" stroke-width="0.1" /><circle r="0.8720000000000006" cx="32.234003301919465" cy="73.01902020480607" fill="none" stroke="black" stroke-width="0.1" /><circle r="0.8740000000000006" cx="6.001756662271831" cy="41.067555595091335" fill="none" stroke="black" stroke-width="0.1" /><circle r="0.8760000000000006" cx="30.122711007613994" cy="7.351397240297111" fill="none" stroke="black" stroke-width="0.1" /><circle r="0.8780000000000006" cx="69.04976236925273" cy="21.941945528658493" fill="none" stroke="black" stroke-width="0.1" /><circle r="0.8800000000000006" cx="65.04452926244487" cy="63.43632978993364" fill="none" stroke="black" stroke-width="0.1" /><circle r="0.8820000000000006" cx="23.817399302820036" cy="70.3502794002892" fill="none" stroke="black" stroke-width="0.1" /><circle r="0.8840000000000006" cx="6.3983818468732" cy="32.222380988281316" fill="none" stroke="black" stroke-width="0.1" /><circle r="0.8860000000000006" cx="38.79221348768153" cy="5.436095753797581" fill="none" stroke="black" stroke-width="0.1" /><circle r="0.8880000000000006" cx="73.15843051904005" cy="29.84023201475633" fill="none" stroke="black" stroke-width="0.1" /><circle r="0.8900000000000006" cx="58.463393906549555" cy="69.46869034164187" fill="none" stroke="black" stroke-width="0.1" /><circle r="0.8920000000000006" cx="16.264467315143293" cy="65.54488966830914" fill="none" stroke="black" stroke-width="0.1" /><circle r="0.8940000000000006" cx="9.088718487274754" cy="23.65852209128445" fill="none" stroke="black" stroke-width="0.1" /><circle r="0.8960000000000006" cx="47.78521295646575" cy="5.815294951945752" fill="none" stroke="black" stroke-width="0.1" /><circle r="0.8980000000000006" cx="75.12899126300395" cy="38.64796529490557" fill="none" stroke="black" stroke-width="0.1" /><circle r="0.9000000000000006" cx="50.44597754457961" cy="73.6666608551862" fill="none" stroke="black" stroke-width="0.1" /><text x="36" y="78" font-size="2" font-family="Arial, Helvetica, sans-serif" fill="black" stroke="none">VARICITE</text></svg>