<svg width="80" height="80" fill="none" stroke="black" viewBox="0 0 80 80"><circle r="40" cx="40" cy="40" stroke-width="0.1" /><circle r="0.2" cx="39.167706326905716" cy="41.81859485365136" fill="none" stroke="black" stroke-width="0.1" /><circle r="0.202" cx="38.31112281665321" cy="41.239644650523125" fill="none" stroke="black" stroke-width="0.1" /><circle r="0.20400000000000001" cx="37.82702670157919" cy="40.27255649753801" fill="none" stroke="black" stroke-width="0.1" /><circle r="0.20600000000000002" cx="37.881090601139675" cy="39.14475269107621" fill="none" stroke="black" stroke-width="0.1" /><circle r="0.20800000000000002" cx="38.50576704244469" cy="38.14752385479448" fill="none" stroke="black" stroke-width="0.1" /><circle r="0.21000000000000002" cx="39.58041078847309" cy="37.56082598128583" fill="none" stroke="black" stroke-width="0.1" /><circle r="0.21200000000000002" cx="40.85234356063626" cy="37.5754566502861" fill="none" stroke="black" stroke-width="0.1" /><circle r="0.21400000000000002" cx="41.995923991067016" cy="38.23406896457333" fill="none" stroke="black" stroke-width="0.1" /><circle r="0.21600000000000003" cx="42.695906684251455" cy="39.408656487472534" fill="none" stroke="black" stroke-width="0.1" /><circle r="0.21800000000000003" cx="42.73375476351414" cy="40.823170634172364" fill="none" stroke="black" stroke-width="0.1" /><circle r="0.22000000000000003" cx="42.0534108487387" cy="42.11801885881175" fill="none" stroke="black" stroke-width="0.1" /><circle r="0.22200000000000003" cx="40.78723556020218" cy="42.941476699338814" fill="none" stroke="black" stroke-width="0.1" /><circle r="0.22400000000000003" cx="39.23257783211809" cy="43.04477638197675" fill="none" stroke="black" stroke-width="0.1" /><circle r="0.22600000000000003" cx="37.78236103267882" cy="42.35527119683035" fill="none" stroke="black" stroke-width="0.1" /><circle r="0.22800000000000004" cx="36.82577579492617" cy="41.00657870826053" fill="none" stroke="black" stroke-width="0.1" /><circle r="0.23000000000000004" cx="36.64417836208224" cy="39.31510136919177" fill="none" stroke="black" stroke-width="0.1" /><circle r="0.23200000000000004" cx="37.32995770622226" cy="37.70625325080598" fill="none" stroke="black" stroke-width="0.1" /><circle r="0.23400000000000004" cx="38.75141448842294" cy="36.607470085573325" fill="none" stroke="black" stroke-width="0.1" /><circle r="0.23600000000000004" cx="40.57550839186983" cy="36.33490926566785" fill="none" stroke="black" stroke-width="0.1" /><circle r="0.23800000000000004" cx="42.345392730612936" cy="37.00380942875991" fill="none" stroke="black" stroke-width="0.1" /><circle r="0.24000000000000005" cx="43.59482083410842" cy="38.48762994916586" fill="none" stroke="black" stroke-width="0.1" /><circle r="0.24200000000000005" cx="43.97077677832032" cy="40.43926845635913" fill="none" stroke="black" stroke-width="0.1" /><circle r="0.24400000000000005" cx="43.33212369054255" cy="42.37171914672145" fill="none" stroke="black" stroke-width="0.1" /><circle r="0.24600000000000005" cx="41.79695056843023" cy="43.77957585644452" fill="none" stroke="black" stroke-width="0.1" /><circle r="0.24800000000000005" cx="39.723695132905725" cy="44.27107195214738" fill="none" stroke="black" stroke-width="0.1" /><circle r="0.25000000000000006" cx="37.628036718410264" cy="43.67619574979218" fill="none" stroke="black" stroke-width="0.1" /><circle r="0.25200000000000006" cx="36.054668795188164" cy="42.1012524085264" fill="none" stroke="black" stroke-width="0.1" /><circle r="0.25400000000000006" cx="35.43582629640298" cy="39.9131472315153" fill="none" stroke="black" stroke-width="0.1" /><circle r="0.25600000000000006" cx="35.9732873287329" cy="37.654539477403844" fill="none" stroke="black" stroke-width="0.1" /><circle r="0.25800000000000006" cx="37.575888746746344" cy="35.90931428341787" fill="none" stroke="black" stroke-width="0.1" /><circle r="0.26000000000000006" cx="39.871256132700545" cy="35.15170906229496" fill="none" stroke="black" stroke-width="0.1" /><circle r="0.26200000000000007" cx="42.29164711982773" cy="35.618062246199145" fill="none" stroke="black" stroke-width="0.1" /><circle r="0.26400000000000007" cx="44.214305947942194" cy="37.23572335372541" fill="none" stroke="black" stroke-width="0.1" /><circle r="0.26600000000000007" cx="45.12165019192956" cy="39.62996714806935" fill="none" stroke="black" stroke-width="0.1" /><circle r="0.26800000000000007" cx="44.740097374406645" cy="42.2100626419048" fill="none" stroke="black" stroke-width="0.1" /><circle r="0.2700000000000001" cx="43.12041579408571" cy="44.3149310854312" fill="none" stroke="black" stroke-width="0.1" /><circle r="0.2720000000000001" cx="40.63645472924343" cy="45.38250177683423" fill="none" stroke="black" stroke-width="0.1" /><circle r="0.2740000000000001" cx="37.89964787953894" cy="45.09938682294987" fill="none" stroke="black" stroke-width="0.1" /><circle r="0.2760000000000001" cx="35.608622350454" cy="43.49111763466484" fill="none" stroke="black" stroke-width="0.1" /><circle r="0.2780000000000001" cx="34.37087413557216" cy="40.92734405828125" fill="none" stroke="black" stroke-width="0.1" /><circle r="0.2800000000000001" cx="34.54202374671574" cy="38.03773212364235" fill="none" stroke="black" stroke-width="0.1" /><circle r="0.2820000000000001" cx="36.125102837687194" cy="35.55745602368416" fill="none" stroke="black" stroke-width="0.1" /><circle r="0.2840000000000001" cx="38.75806897184546" cy="34.14016149358133" fill="none" stroke="black" stroke-width="0.1" /><circle r="0.2860000000000001" cx="41.7956710215771" cy="34.185983266082886" fill="none" stroke="black" stroke-width="0.1" /><circle r="0.2880000000000001" cx="44.467414463336496" cy="35.72980000318816" fill="none" stroke="black" stroke-width="0.1" /><circle r="0.2900000000000001" cx="46.07299756480438" cy="38.42065659912735" fill="none" stroke="black" stroke-width="0.1" /><circle r="0.2920000000000001" cx="46.165646380964155" cy="41.60053263162724" fill="none" stroke="black" stroke-width="0.1" /><circle r="0.2940000000000001" cx="44.675407184327455" cy="44.46506356737944" fill="none" stroke="black" stroke-width="0.1" /><circle r="0.2960000000000001" cx="41.93860877740015" cy="46.26700853742733" fill="none" stroke="black" stroke-width="0.1" /><circle r="0.2980000000000001" cx="38.62306541581545" cy="46.51099655589499" fill="none" stroke="black" stroke-width="0.1" /><circle r="0.3000000000000001" cx="35.56534045864801" cy="45.08884021681716" fill="none" stroke="black" stroke-width="0.1" /><circle r="0.3020000000000001" cx="33.55966973861865" cy="42.3186571812874" fill="none" stroke="black" stroke-width="0.1" /><circle r="0.3040000000000001" cx="33.15180188964279" cy="38.874929939381595" fill="none" stroke="black" stroke-width="0.1" /><circle r="0.3060000000000001" cx="34.4912337439197" cy="35.62453210092098" fill="none" stroke="black" stroke-width="0.1" /><circle r="0.3080000000000001" cx="37.281676046661865" cy="33.40851952254214" fill="none" stroke="black" stroke-width="0.1" /><circle r="0.3100000000000001" cx="40.84524370795995" cy="32.82461233979975" fill="none" stroke="black" stroke-width="0.1" /><circle r="0.3120000000000001" cx="44.28685459710231" cy="34.0665964520098" fill="none" stroke="black" stroke-width="0.1" /><circle r="0.3140000000000001" cx="46.71904123916633" cy="36.863647050094315" fill="none" stroke="black" stroke-width="0.1" /><circle r="0.3160000000000001" cx="47.49071387070164" cy="40.53787145980984" fill="none" stroke="black" stroke-width="0.1" /><circle r="0.3180000000000001" cx="46.360927011894155" cy="44.168288923449914" fill="none" stroke="black" stroke-width="0.1" /><circle r="0.3200000000000001" cx="43.5714000365569" cy="46.821664150255515" fill="none" stroke="black" stroke-width="0.1" /><circle r="0.3220000000000001" cx="39.79651998438532" cy="47.79234373492631" fill="none" stroke="black" stroke-width="0.1" /><circle r="0.3240000000000001" cx="35.9806539158885" cy="46.78947398965026" fill="none" stroke="black" stroke-width="0.1" /><circle r="0.3260000000000001" cx="33.10192458490296" cy="44.02203686801025" fill="none" stroke="black" stroke-width="0.1" /><circle r="0.3280000000000001" cx="31.921531172873333" cy="40.157294021318734" fill="none" stroke="black" stroke-width="0.1" /><circle r="0.3300000000000001" cx="32.78284986170611" cy="36.16029052123414" fill="none" stroke="black" stroke-width="0.1" /><circle r="0.33200000000000013" cx="35.51324505555433" cy="33.052919313230035" fill="none" stroke="black" stroke-width="0.1" /><circle r="0.33400000000000013" cx="39.45629465423704" cy="31.65268848688461" fill="none" stroke="black" stroke-width="0.1" /><circle r="0.33600000000000013" cx="43.62917265814013" cy="32.357964550107866" fill="none" stroke="black" stroke-width="0.1" /><circle r="0.33800000000000013" cx="46.96756969820372" cy="35.03603006650188" fill="none" stroke="black" stroke-width="0.1" /><circle r="0.34000000000000014" cx="48.59713109961589" cy="39.04509850978373" fill="none" stroke="black" stroke-width="0.1" /><circle r="0.34200000000000014" cx="48.06219038175281" cy="43.387640956236716" fill="none" stroke="black" stroke-width="0.1" /><circle r="0.34400000000000014" cx="45.45202624648972" cy="46.95852066229505" fill="none" stroke="black" stroke-width="0.1" /><circle r="0.34600000000000014" cx="41.389924699075536" cy="48.82622990471582" fill="none" stroke="black" stroke-width="0.1" /><circle r="0.34800000000000014" cx="36.8848672084613" cy="48.475662079807115" fill="none" stroke="black" stroke-width="0.1" /><circle r="0.35000000000000014" cx="33.0809955724884" cy="45.94920185672624" fill="none" stroke="black" stroke-width="0.1" /><circle r="0.35200000000000015" cx="30.9670407682825" cy="41.84771413322778" fill="none" stroke="black" stroke-width="0.1" /><circle r="0.35400000000000015" cx="31.11950932231786" cy="37.18821936780256" fill="none" stroke="black" stroke-width="0.1" /><circle r="0.35600000000000015" cx="33.546286653014704" cy="33.151811623871325" fill="none" stroke="black" stroke-width="0.1" /><circle r="0.35800000000000015" cx="37.67289159996562" cy="30.784274771105125" fill="none" stroke="black" stroke-width="0.1" /><circle r="0.36000000000000015" cx="42.47783162111412" cy="30.725284346277398" fill="none" stroke="black" stroke-width="0.1" /><circle r="0.36200000000000015" cx="46.74534005291537" cy="33.03627882734125" fill="none" stroke="black" stroke-width="0.1" /><circle r="0.36400000000000016" cx="49.37299461792919" cy="37.17315159722517" fill="none" stroke="black" stroke-width="0.1" /><circle r="0.36600000000000016" cx="49.6563822280106" cy="42.113647857747644" fill="none" stroke="black" stroke-width="0.1" /><circle r="0.36800000000000016" cx="47.47733512638034" cy="46.60983051278918" fill="none" stroke="black" stroke-width="0.1" /><circle r="0.37000000000000016" cx="43.345580502723976" cy="49.50330027410443" fill="none" stroke="black" stroke-width="0.1" /><circle r="0.37200000000000016" cx="38.280293665587436" cy="50.02354778126894" fill="none" stroke="black" stroke-width="0.1" /><circle r="0.37400000000000017" cx="33.558862623306176" cy="47.99261998937507" fill="none" stroke="black" stroke-width="0.1" /><circle r="0.37600000000000017" cx="30.39475335830177" cy="43.88185998615935" fill="none" stroke="black" stroke-width="0.1" /><circle r="0.37800000000000017" cx="29.625711722582036" cy="38.70340147423019" fill="none" stroke="black" stroke-width="0.1" /><circle r="0.38000000000000017" cx="31.492398645790075" cy="33.76115241427989" fill="none" stroke="black" stroke-width="0.1" /><circle r="0.3820000000000002" cx="35.56584517226357" cy="30.32248503159711" fill="none" stroke="black" stroke-width="0.1" /><circle r="0.3840000000000002" cx="40.84502963115824" cy="29.293295328511913" fill="none" stroke="black" stroke-width="0.1" /><circle r="0.3860000000000002" cx="46.00265984428381" cy="30.979728396892757" fill="none" stroke="black" stroke-width="0.1" /><circle r="0.3880000000000002" cx="49.718868343054346" cy="34.99915025916831" fill="none" stroke="black" stroke-width="0.1" /><circle r="0.3900000000000002" cx="51.01892928457106" cy="40.36581747036289" fill="none" stroke="black" stroke-width="0.1" /><circle r="0.3920000000000002" cx="49.52859602550557" cy="45.73238674399415" fill="none" stroke="black" stroke-width="0.1" /><circle r="0.3940000000000002" cx="45.58025050463769" cy="49.728156521432574" fill="none" stroke="black" stroke-width="0.1" /><circle r="0.3960000000000002" cx="40.140108965635015" cy="51.30913212752195" fill="none" stroke="black" stroke-width="0.1" /><circle r="0.3980000000000002" cx="34.57204343930901" cy="50.030519058117186" fill="none" stroke="black" stroke-width="0.1" /><circle r="0.4000000000000002" cx="30.295679474575877" cy="46.1705885570043" fill="none" stroke="black" stroke-width="0.1" /><circle r="0.4020000000000002" cx="28.42447284479842" cy="40.67171130643398" fill="none" stroke="black" stroke-width="0.1" /><circle r="0.4040000000000002" cx="29.476029369660143" cy="34.91058528200496" fill="none" stroke="black" stroke-width="0.1" /><circle r="0.4060000000000002" cx="33.229974158743374" cy="30.353602998594862" fill="none" stroke="black" stroke-width="0.1" /><circle r="0.4080000000000002" cx="38.77215606692134" cy="28.18362156682504" fill="none" stroke="black" stroke-width="0.1" /><circle r="0.4100000000000002" cx="44.71692491160155" cy="28.99312740246744" fill="none" stroke="black" stroke-width="0.1" /><circle r="0.4120000000000002" cx="49.553522324309604" cy="32.623340105513975" fill="none" stroke="black" stroke-width="0.1" /><circle r="0.4140000000000002" cx="52.03000619895543" cy="38.19274355635549" fill="none" stroke="black" stroke-width="0.1" /><circle r="0.4160000000000002" cx="51.47714524436263" cy="44.31076988945185" fill="none" stroke="black" stroke-width="0.1" /><circle r="0.4180000000000002" cx="47.988529164107455" cy="49.4249364344915" fill="none" stroke="black" stroke-width="0.1" /><circle r="0.4200000000000002" cx="42.40859644824086" cy="52.21479280010603" fill="none" stroke="black" stroke-width="0.1" /><circle r="0.4220000000000002" cx="36.12864811616363" cy="51.93271384017555" fill="none" stroke="black" stroke-width="0.1" /><circle r="0.4240000000000002" cx="30.740013604830892" cy="48.60361853880585" fill="none" stroke="black" stroke-width="0.1" /><circle r="0.4260000000000002" cx="27.630811508220916" cy="43.03041268721615" fill="none" stroke="black" stroke-width="0.1" /><circle r="0.4280000000000002" cx="27.62848477187077" cy="36.60080730758504" fill="none" stroke="black" stroke-width="0.1" /><circle r="0.4300000000000002" cx="30.780134920641174" cy="30.941870341046098" fill="none" stroke="black" stroke-width="0.1" /><circle r="0.4320000000000002" cx="36.32884153455331" cy="27.508282923409613" fill="none" stroke="black" stroke-width="0.1" /><circle r="0.4340000000000002" cx="42.894933406083176" cy="27.20849557032698" fill="none" stroke="black" stroke-width="0.1" /><circle r="0.4360000000000002" cx="48.81893703271241" cy="30.16483606577631" fill="none" stroke="black" stroke-width="0.1" /><circle r="0.4380000000000002" cx="52.58098137008706" cy="35.67080460529638" fill="none" stroke="black" stroke-width="0.1" /><circle r="0.4400000000000002" cx="53.19066124583795" cy="42.359333782564406" fill="none" stroke="black" stroke-width="0.1" /><circle r="0.4420000000000002" cx="50.447374424215624" cy="48.54209533078659" fill="none" stroke="black" stroke-width="0.1" /><circle r="0.44400000000000023" cx="45.002797435225034" cy="52.63566847547476" fill="none" stroke="black" stroke-width="0.1" /><circle r="0.44600000000000023" cx="38.20672873443523" cy="53.566996836739534" fill="none" stroke="black" stroke-width="0.1" /><circle r="0.44800000000000023" cx="31.772590292596362" cy="51.05432628008244" fill="none" stroke="black" stroke-width="0.1" /><circle r="0.45000000000000023" cx="27.34544514827831" cy="45.69015522677264" fill="none" stroke="black" stroke-width="0.1" /><circle r="0.45200000000000023" cx="26.081439739321844" cy="38.80226034971212" fill="none" stroke="black" stroke-width="0.1" /><circle r="0.45400000000000024" cx="28.346173983699423" cy="32.12519434006167" fill="none" stroke="black" stroke-width="0.1" /><circle r="0.45600000000000024" cx="33.61061930137172" cy="27.36348884034848" fill="none" stroke="black" stroke-width="0.1" /><circle r="0.45800000000000024" cx="40.573847397068015" cy="25.756555045745454" fill="none" stroke="black" stroke-width="0.1" /><circle r="0.46000000000000024" cx="47.48433069554778" cy="27.756336576020953" fill="none" stroke="black" stroke-width="0.1" /><circle r="0.46200000000000024" cx="52.58050687117394" cy="32.90148805281372" fill="none" stroke="black" stroke-width="0.1" /><circle r="0.46400000000000025" cx="54.539795134999515" cy="39.922815595839886" fill="none" stroke="black" stroke-width="0.1" /><circle r="0.46600000000000025" cx="52.82161816536334" cy="47.056155654577495" fill="none" stroke="black" stroke-width="0.1" /><circle r="0.46800000000000025" cx="47.81551836902547" cy="52.48561462737925" fill="none" stroke="black" stroke-width="0.1" /><circle r="0.47000000000000025" cx="40.754024414881094" cy="54.80581210814741" fill="none" stroke="black" stroke-width="0.1" /><circle r="0.47200000000000025" cx="33.40942431496276" cy="53.38546645208142" fill="none" stroke="black" stroke-width="0.1" /><circle r="0.47400000000000025" cx="27.648985668159852" cy="48.53830603660237" fill="none" stroke="black" stroke-width="0.1" /><circle r="0.47600000000000026" cx="24.960239540638028" cy="41.455233769884906" fill="none" stroke="black" stroke-width="0.1" /><circle r="0.47800000000000026" cx="26.06701221103013" cy="33.91198913663767" fill="none" stroke="black" stroke-width="0.1" /><circle r="0.48000000000000026" cx="30.73527669700481" cy="27.824003033880995" fill="none" stroke="black" stroke-width="0.1" /><circle r="0.48200000000000026" cx="37.8207308655441" cy="24.76002588454924" fill="none" stroke="black" stroke-width="0.1" /><circle r="0.48400000000000026" cx="45.54900645760918" cy="25.538028234939297" fill="none" stroke="black" stroke-width="0.1" /><circle r="0.48600000000000027" cx="51.95996811516971" cy="30.007433378549564" fill="none" stroke="black" stroke-width="0.1" /><circle r="0.48800000000000027" cx="55.404862255379626" cy="37.075513909627624" fill="none" stroke="black" stroke-width="0.1" /><circle r="0.49000000000000027" cx="54.970224873099255" cy="44.974232830180135" fill="none" stroke="black" stroke-width="0.1" /><circle r="0.49200000000000027" cx="50.71958656484031" cy="51.70245119104953" fill="none" stroke="black" stroke-width="0.1" /><circle r="0.49400000000000027" cx="43.689142843309135" cy="55.53291505422155" fill="none" stroke="black" stroke-width="0.1" /><circle r="0.4960000000000003" cx="35.63551502186998" cy="55.455577338801646" fill="none" stroke="black" stroke-width="0.1" /><circle r="0.4980000000000003" cx="28.596909655885142" cy="51.443494029532935" fill="none" stroke="black" stroke-width="0.1" /><circle r="0.5000000000000002" cx="24.377290756956636" cy="44.47140424333664" fill="none" stroke="black" stroke-width="0.1" /><circle r="0.5020000000000002" cx="24.08411005905316" cy="36.27931828992742" fill="none" stroke="black" stroke-width="0.1" /><circle r="0.5040000000000002" cx="27.838033392390923" cy="28.93834694833529" fill="none" stroke="black" stroke-width="0.1" /><circle r="0.5060000000000002" cx="34.7306538906703" cy="24.327086531850775" fill="none" stroke="black" stroke-width="0.1" /><circle r="0.5080000000000002" cx="43.0438644596767" cy="23.65093919666581" fill="none" stroke="black" stroke-width="0.1" /><circle r="0.5100000000000002" cx="50.6780323748149" cy="27.127344889168892" fill="none" stroke="black" stroke-width="0.1" /><circle r="0.5120000000000002" cx="55.68229343355959" cy="33.91904015276083" fill="none" stroke="black" stroke-width="0.1" /><circle r="0.5140000000000002" cx="56.753032139622235" cy="42.335195736718" fill="none" stroke="black" stroke-width="0.1" /><circle r="0.5160000000000002" cx="53.57319022928324" cy="50.25224887523178" fill="none" stroke="black" stroke-width="0.1" /><circle r="0.5180000000000002" cx="46.90415735134337" cy="55.64971681110852" fill="none" stroke="black" stroke-width="0.1" /><circle r="0.5200000000000002" cx="38.40404278237233" cy="57.12579693209935" fill="none" stroke="black" stroke-width="0.1" /><circle r="0.5220000000000002" cx="30.215547815774315" cy="54.26118930715816" fill="none" stroke="black" stroke-width="0.1" /><circle r="0.5240000000000002" cx="24.425842096911417" cy="47.73677617678479" fill="none" stroke="black" stroke-width="0.1" /><circle r="0.5260000000000002" cx="22.53459447447891" cy="39.17245252154426" fill="none" stroke="black" stroke-width="0.1" /><circle r="0.5280000000000002" cx="25.065736782234467" cy="30.72507778240181" fill="none" stroke="black" stroke-width="0.1" /><circle r="0.5300000000000002" cx="31.42341502908625" cy="24.545297957039175" fill="none" stroke="black" stroke-width="0.1" /><circle r="0.5320000000000003" cx="40.031479374137156" cy="22.23002788271729" fill="none" stroke="black" stroke-width="0.1" /><circle r="0.5340000000000003" cx="48.724070030552014" cy="24.409976680516955" fill="none" stroke="black" stroke-width="0.1" /><circle r="0.5360000000000003" cx="55.2905497202751" cy="30.578710849793644" fill="none" stroke="black" stroke-width="0.1" /><circle r="0.5380000000000003" cx="58.03768112537867" cy="39.209377068914044" fill="none" stroke="black" stroke-width="0.1" /><circle r="0.5400000000000003" cx="56.226088474062756" cy="48.13243830790549" fill="none" stroke="black" stroke-width="0.1" /><circle r="0.5420000000000003" cx="50.26853680880115" cy="55.08102041661295" fill="none" stroke="black" stroke-width="0.1" /><circle r="0.5440000000000003" cx="41.63702727627652" cy="58.266793415833206" fill="none" stroke="black" stroke-width="0.1" /><circle r="0.5460000000000003" cx="32.49929851419736" cy="56.840092108444026" fill="none" stroke="black" stroke-width="0.1" /><circle r="0.5480000000000003" cx="25.174443859931422" cy="51.11592484400986" fill="none" stroke="black" stroke-width="0.1" /><circle r="0.5500000000000003" cx="21.544347628433307" cy="42.5058971526951" fill="none" stroke="black" stroke-width="0.1" /><circle r="0.5520000000000003" cx="22.57031069898849" cy="33.17033449792704" fill="none" stroke="black" stroke-width="0.1" /><circle r="0.5540000000000003" cx="28.038994716496717" cy="25.476275353477433" fill="none" stroke="black" stroke-width="0.1" /><circle r="0.5560000000000003" cx="36.604704318712116" cy="21.397310215008464" fill="none" stroke="black" stroke-width="0.1" /><circle r="0.5580000000000003" cx="46.12026717336886" cy="22.007436126927768" fill="none" stroke="black" stroke-width="0.1" /><circle r="0.5600000000000003" cx="54.175222336735395" cy="27.198708201743138" fill="none" stroke="black" stroke-width="0.1" /><circle r="0.5620000000000003" cx="58.706431557007626" cy="35.6968100898299" fill="none" stroke="black" stroke-width="0.1" /><circle r="0.5640000000000003" cx="58.52643546621077" cy="45.37357319819207" fill="none" stroke="black" stroke-width="0.1" /><circle r="0.5660000000000003" cx="53.63426638476216" cy="53.779876819091854" fill="none" stroke="black" stroke-width="0.1" /><circle r="0.5680000000000003" cx="45.22745542260892" cy="58.76550318549004" fill="none" stroke="black" stroke-width="0.1" /><circle r="0.5700000000000003" cx="35.4092212140905" cy="59.02906658611619" fill="none" stroke="black" stroke-width="0.1" /><circle r="0.5720000000000003" cx="26.662350871338433" cy="54.457386199473035" fill="none" stroke="black" stroke-width="0.1" /><circle r="0.5740000000000003" cx="21.221364973169667" cy="46.16588124513447" fill="none" stroke="black" stroke-width="0.1" /><circle r="0.5760000000000003" cx="20.501730406540805" cy="36.22679408714755" fill="none" stroke="black" stroke-width="0.1" /><circle r="0.5780000000000003" cx="24.731909472040364" cy="27.151364405897827" fill="none" stroke="black" stroke-width="0.1" /><circle r="0.5800000000000003" cx="32.883824955444496" cy="21.255332685394347" fill="none" stroke="black" stroke-width="0.1" /><circle r="0.5820000000000003" cx="42.92230120758764" cy="20.06808637756696" fill="none" stroke="black" stroke-width="0.1" /><circle r="0.5840000000000003" cx="52.31306934481917" cy="23.936192129209388" fill="none" stroke="black" stroke-width="0.1" /><circle r="0.5860000000000003" cx="58.6625549200066" cy="31.924031398170413" fill="none" stroke="black" stroke-width="0.1" /><circle r="0.5880000000000003" cx="60.327931407657076" cy="42.039633468442034" fill="none" stroke="black" stroke-width="0.1" /><circle r="0.5900000000000003" cx="56.84196312775681" cy="51.73132145170695" fill="none" stroke="black" stroke-width="0.1" /><circle r="0.5920000000000003" cx="49.04282354993876" cy="58.53137183925337" fill="none" stroke="black" stroke-width="0.1" /><circle r="0.5940000000000003" cx="38.873109182646594" cy="60.68432600027771" fill="none" stroke="black" stroke-width="0.1" /><circle r="0.5960000000000003" cx="28.896098304272385" cy="57.599984861687155" fill="none" stroke="black" stroke-width="0.1" /><circle r="0.5980000000000003" cx="21.649684606130783" cy="50.014237362152244" fill="none" stroke="black" stroke-width="0.1" /><circle r="0.6000000000000003" cx="19.00082264571266" cy="39.81412250489815" fill="none" stroke="black" stroke-width="0.1" /><circle r="0.6020000000000003" cx="21.66468737720733" cy="29.568541040465185" fill="none" stroke="black" stroke-width="0.1" /><circle r="0.6040000000000003" cx="29.01235042367963" cy="21.881289869640657" fill="none" stroke="black" stroke-width="0.1" /><circle r="0.6060000000000003" cx="39.21851030395285" cy="18.729351235682266" fill="none" stroke="black" stroke-width="0.1" /><circle r="0.6080000000000003" cx="49.714781238317514" cy="20.95459568579251" fill="none" stroke="black" stroke-width="0.1" /><circle r="0.6100000000000003" cx="57.836011406559635" cy="28.039551759859748" fill="none" stroke="black" stroke-width="0.1" /><circle r="0.6120000000000003" cx="61.49699313644937" cy="38.22681470470568" fill="none" stroke="black" stroke-width="0.1" /><circle r="0.6140000000000003" cx="59.72774357917689" cy="48.95479526702003" fill="none" stroke="black" stroke-width="0.1" /><circle r="0.6160000000000003" cx="52.92997656166593" cy="57.50180865267269" fill="none" stroke="black" stroke-width="0.1" /><circle r="0.6180000000000003" cx="42.78707942390883" cy="61.676559073912614" fill="none" stroke="black" stroke-width="0.1" /><circle r="0.6200000000000003" cx="31.84743423791176" cy="60.37984719017357" fill="none" stroke="black" stroke-width="0.1" /><circle r="0.6220000000000003" cx="22.88417170420453" cy="53.89353974870501" fill="none" stroke="black" stroke-width="0.1" /><circle r="0.6240000000000003" cx="18.192203240061215" cy="43.82094235460342" fill="none" stroke="black" stroke-width="0.1" /><circle r="0.6260000000000003" cx="19.000727579895607" cy="32.69070572310555" fill="none" stroke="black" stroke-width="0.1" /><circle r="0.6280000000000003" cx="25.15158797984701" cy="23.322063662437877" fill="none" stroke="black" stroke-width="0.1" /><circle r="0.6300000000000003" cx="35.127550600110595" cy="18.110736379550907" fill="none" stroke="black" stroke-width="0.1" /><circle r="0.6320000000000003" cx="46.426317671002934" cy="18.416375624299008" fill="none" stroke="black" stroke-width="0.1" /><circle r="0.6340000000000003" cx="56.188140575376" cy="24.20815622823403" fill="none" stroke="black" stroke-width="0.1" /><circle r="0.6360000000000003" cx="61.91962974974561" cy="34.06081389127552" fill="none" stroke="black" stroke-width="0.1" /><circle r="0.6380000000000003" cx="62.13056327317055" cy="45.50510619445197" fill="none" stroke="black" stroke-width="0.1" /><circle r="0.6400000000000003" cx="56.72106887836485" cy="55.646592458582695" fill="none" stroke="black" stroke-width="0.1" /><circle r="0.6420000000000003" cx="47.018653759895024" cy="61.897683082890524" fill="none" stroke="black" stroke-width="0.1" /><circle r="0.6440000000000003" cx="35.45273881075657" cy="62.63781163621605" fill="none" stroke="black" stroke-width="0.1" /><circle r="0.6460000000000004" cx="24.946411428159053" cy="57.63331211399996" fill="none" stroke="black" stroke-width="0.1" /><circle r="0.6480000000000004" cx="18.177665700974103" cy="48.10827513972954" fill="none" stroke="black" stroke-width="0.1" /><circle r="0.6500000000000004" cx="16.89683860337949" cy="36.445487588753984" fill="none" stroke="black" stroke-width="0.1" /><circle r="0.6520000000000004" cx="21.47420332881338" cy="25.59042826112279" fill="none" stroke="black" stroke-width="0.1" /><circle r="0.6540000000000004" cx="30.794599409077833" cy="18.307378559504432" fill="none" stroke="black" stroke-width="0.1" /><circle r="0.6560000000000004" cx="42.528714976729006" cy="16.475519122274676" fill="none" stroke="black" stroke-width="0.1" /><circle r="0.6580000000000004" cx="53.7151317407602" cy="20.604248240050346" fill="none" stroke="black" stroke-width="0.1" /><circle r="0.6600000000000004" cx="61.50771423328186" cy="29.692685681542322" fill="none" stroke="black" stroke-width="0.1" /><circle r="0.6620000000000004" cx="63.899721641320134" cy="41.47184593874897" fill="none" stroke="black" stroke-width="0.1" /><circle r="0.6640000000000004" cx="60.24042026709047" cy="52.971005643802286" fill="none" stroke="black" stroke-width="0.1" /><circle r="0.6660000000000004" cx="51.41124093787417" cy="61.26691809496107" fill="none" stroke="black" stroke-width="0.1" /><circle r="0.6680000000000004" cx="39.613999500391515" cy="64.22692517869942" fill="none" stroke="black" stroke-width="0.1" /><circle r="0.6700000000000004" cx="27.82192226681771" cy="61.057066455814" fill="none" stroke="black" stroke-width="0.1" /><circle r="0.6720000000000004" cx="19.030322182888526" cy="52.514352250377975" fill="none" stroke="black" stroke-width="0.1" /><circle r="0.6740000000000004" cx="15.495770573070839" cy="40.726612133408416" fill="none" stroke="black" stroke-width="0.1" /><circle r="0.6760000000000004" cx="18.157016314373745" cy="28.66262095061373" fill="none" stroke="black" stroke-width="0.1" /><circle r="0.6780000000000004" cx="26.386225771359506" cy="19.384419090125036" fill="none" stroke="black" stroke-width="0.1" /><circle r="0.6800000000000004" cx="38.13632675915283" cy="15.270124908294676" fill="none" stroke="black" stroke-width="0.1" /><circle r="0.6820000000000004" cx="50.45008652557823" cy="17.404497867763027" fill="none" stroke="black" stroke-width="0.1" /><circle r="0.6840000000000004" cx="60.20436059717494" cy="25.293405803540985" fill="none" stroke="black" stroke-width="0.1" /><circle r="0.6860000000000004" cx="64.90221175857286" cy="36.977240576692765" fill="none" stroke="black" stroke-width="0.1" /><circle r="0.6880000000000004" cx="63.3119964870762" cy="49.51752172503661" fill="none" stroke="black" stroke-width="0.1" /><circle r="0.6900000000000004" cx="55.789868184856324" cy="59.73589845192913" fill="none" stroke="black" stroke-width="0.1" /><circle r="0.6920000000000004" cx="44.201347763009984" cy="65.0197037747102" fill="none" stroke="black" stroke-width="0.1" /><circle r="0.6940000000000004" cx="31.458850821175044" cy="63.9898936159595" fill="none" stroke="black" stroke-width="0.1" /><circle r="0.6960000000000004" cx="20.789773338537632" cy="56.86062844662787" fill="none" stroke="black" stroke-width="0.1" /><circle r="0.6980000000000004" cx="14.919064116032825" cy="45.39682130372355" fill="none" stroke="black" stroke-width="0.1" /><circle r="0.7000000000000004" cx="15.373319843585538" cy="32.47742567509907" fill="none" stroke="black" stroke-width="0.1" /><circle r="0.7020000000000004" cx="22.08410888917988" cy="21.372470085778065" fill="none" stroke="black" stroke-width="0.1" /><circle r="0.7040000000000004" cx="33.39352516283728" cy="14.915381401625176" fill="none" stroke="black" stroke-width="0.1" /><circle r="0.7060000000000004" cx="46.46354105090949" cy="14.780089966790047" fill="none" stroke="black" stroke-width="0.1" /><circle r="0.7080000000000004" cx="57.98814689981701" cy="21.04733604184889" fill="none" stroke="black" stroke-width="0.1" /><circle r="0.7100000000000004" cx="65.02959328991943" cy="32.172479016877915" fill="none" stroke="black" stroke-width="0.1" /><circle r="0.7120000000000004" cx="65.76721187171407" cy="45.36592884393688" fill="none" stroke="black" stroke-width="0.1" /><circle r="0.7140000000000004" cx="59.967954297941496" cy="57.29257141535971" fill="none" stroke="black" stroke-width="0.1" /><circle r="0.7160000000000004" cx="49.057096549748685" cy="64.91483698699484" fill="none" stroke="black" stroke-width="0.1" /><circle r="0.7180000000000004" cx="35.76825044845026" cy="66.26629628883666" fill="none" stroke="black" stroke-width="0.1" /><circle r="0.7200000000000004" cx="23.458546927951417" cy="60.95877692674861" fill="none" stroke="black" stroke-width="0.1" /><circle r="0.7220000000000004" cx="15.260533139392734" cy="50.29226915956393" fill="none" stroke="black" stroke-width="0.1" /><circle r="0.7240000000000004" cx="13.28503695849702" cy="36.936856240538894" fill="none" stroke="black" stroke-width="0.1" /><circle r="0.7260000000000004" cx="18.07783785144709" cy="24.26440240306872" fill="none" stroke="black" stroke-width="0.1" /><circle r="0.7280000000000004" cx="28.4699558739401" cy="15.497255613888736" fill="none" stroke="black" stroke-width="0.1" /><circle r="0.7300000000000004" cx="41.86237679219397" cy="12.888891987159717" fill="none" stroke="black" stroke-width="0.1" /><circle r="0.7320000000000004" cx="54.87596672579134" cy="17.144836163940013" fill="none" stroke="black" stroke-width="0.1" /><circle r="0.7340000000000004" cx="64.204079166999" cy="27.23262843504425" fill="none" stroke="black" stroke-width="0.1" /><circle r="0.7360000000000004" cx="67.45273001654998" cy="40.631834344121025" fill="none" stroke="black" stroke-width="0.1" /><circle r="0.7380000000000004" cx="63.75486751244378" cy="53.96367768412885" fill="none" stroke="black" stroke-width="0.1" /><circle r="0.7400000000000004" cx="54.00115372349313" cy="63.84303240804553" fill="none" stroke="black" stroke-width="0.1" /><circle r="0.7420000000000004" cx="40.62598225074281" cy="67.73793740027816" fill="none" stroke="black" stroke-width="0.1" /><circle r="0.7440000000000004" cx="26.999997745757007" cy="64.61839843266966" fill="none" stroke="black" stroke-width="0.1" /><circle r="0.7460000000000004" cx="16.58067997406885" cy="55.22825251048245" fill="none" stroke="black" stroke-width="0.1" /><circle r="0.7480000000000004" cx="12.035045570811587" cy="41.908461100837535" fill="none" stroke="black" stroke-width="0.1" /><circle r="0.7500000000000004" cx="14.557070356598548" cy="28.013634572527074" fill="none" stroke="black" stroke-width="0.1" /><circle r="0.7520000000000004" cx="23.554502790815956" cy="17.067184613686997" fill="none" stroke="black" stroke-width="0.1" /><circle r="0.7540000000000004" cx="36.78711481927561" cy="11.867872568618704" fill="none" stroke="black" stroke-width="0.1" /><circle r="0.7560000000000004" cx="50.92434364170972" cy="13.774309999585697" fill="none" stroke="black" stroke-width="0.1" /><circle r="0.7580000000000005" cx="62.38355165720307" cy="22.350307645476764" fill="none" stroke="black" stroke-width="0.1" /><circle r="0.7600000000000005" cx="68.23793068729404" cy="35.46356191494117" fill="none" stroke="black" stroke-width="0.1" /><circle r="0.7620000000000005" cx="66.96397212240518" cy="49.8156626053543" fill="none" stroke="black" stroke-width="0.1" /><circle r="0.7640000000000005" cx="58.83762575559615" cy="61.771723769423836" fill="none" stroke="black" stroke-width="0.1" /><circle r="0.7660000000000005" cx="45.876210100689384" cy="68.28097204575101" fill="none" stroke="black" stroke-width="0.1" /><circle r="0.7680000000000005" cx="31.33780529003962" cy="67.65514026011671" fill="none" stroke="black" stroke-width="0.1" /><circle r="0.7700000000000005" cx="18.902310024144068" cy="60.00607664392651" fill="none" stroke="black" stroke-width="0.1" /><circle r="0.7720000000000005" cx="11.740001750080868" cy="47.22920458380874" fill="none" stroke="black" stroke-width="0.1" /><circle r="0.7740000000000005" cx="11.703361940233329" cy="32.53404396513362" fill="none" stroke="black" stroke-width="0.1" /><circle r="0.7760000000000005" cx="18.848176072516342" cy="19.638026997839248" fill="none" stroke="black" stroke-width="0.1" /><circle r="0.7780000000000005" cx="31.407655371781196" cy="11.826100042949097" fill="none" stroke="black" stroke-width="0.1" /><circle r="0.7800000000000005" cx="46.229102948181975" cy="11.114003800094693" fill="none" stroke="black" stroke-width="0.1" /><circle r="0.7820000000000005" cx="59.56526078265342" cy="17.72834546993068" fill="none" stroke="black" stroke-width="0.1" /><circle r="0.7840000000000005" cx="68.02171643657094" cy="30.03751999006257" fill="none" stroke="black" stroke-width="0.1" /><circle r="0.7860000000000005" cx="69.42083988100629" cy="44.95392830955224" fill="none" stroke="black" stroke-width="0.1" /><circle r="0.7880000000000005" cx="63.36237179532803" cy="58.70840677601527" fill="none" stroke="black" stroke-width="0.1" /><circle r="0.7900000000000005" cx="51.33639439257257" cy="67.80263993177702" fill="none" stroke="black" stroke-width="0.1" /><circle r="0.7920000000000005" cx="36.35714271882919" cy="69.89889614733316" fill="none" stroke="black" stroke-width="0.1" /><circle r="0.7940000000000005" cx="22.20757014343239" cy="64.4208039343326" fill="none" stroke="black" stroke-width="0.1" /><circle r="0.7960000000000005" cx="12.483980328817239" cy="52.71081277712311" fill="none" stroke="black" stroke-width="0.1" /><circle r="0.7980000000000005" cx="9.681998979087712" cy="37.70155724544769" fill="none" stroke="black" stroke-width="0.1" /><circle r="0.8000000000000005" cx="14.556187504555464" cy="23.181486222122572" fill="none" stroke="black" stroke-width="0.1" /><circle r="0.8020000000000005" cx="25.91759082086479" cy="12.83863448367515" fill="none" stroke="black" stroke-width="0.1" /><circle r="0.8040000000000005" cx="40.923360401599425" cy="9.323893572215681" fill="none" stroke="black" stroke-width="0.1" /><circle r="0.8060000000000005" cx="55.78800620652883" cy="13.571699165050369" fill="none" stroke="black" stroke-width="0.1" /><circle r="0.8080000000000005" cx="66.73835123369022" cy="24.55218548454804" fill="none" stroke="black" stroke-width="0.1" /><circle r="0.8100000000000005" cx="70.9712868970991" cy="39.52040335950974" fill="none" stroke="black" stroke-width="0.1" /><circle r="0.8120000000000005" cx="67.37122256682142" cy="54.702417324967946" fill="none" stroke="black" stroke-width="0.1" /><circle r="0.8140000000000005" cx="56.80362468214317" cy="66.24681737928735" fill="none" stroke="black" stroke-width="0.1" /><circle r="0.8160000000000005" cx="41.90752343994132" cy="71.20174601406251" fill="none" stroke="black" stroke-width="0.1" /><circle r="0.8180000000000005" cx="26.436581996587776" cy="68.2695899698723" fill="none" stroke="black" stroke-width="0.1" /><circle r="0.8200000000000005" cx="14.31322621471255" cy="58.1464088045944" fill="none" stroke="black" stroke-width="0.1" /><circle r="0.8220000000000005" cx="8.63417739176268" cy="43.35740928523467" fill="none" stroke="black" stroke-width="0.1" /><circle r="0.8240000000000005" cx="10.879517669488195" cy="27.627162458096322" fill="none" stroke="black" stroke-width="0.1" /><circle r="0.8260000000000005" cx="20.52728235983033" cy="14.941598360904656" fill="none" stroke="black" stroke-width="0.1" /><circle r="0.8280000000000005" cx="35.17385596839524" cy="8.538003340757331" fill="none" stroke="black" stroke-width="0.1" /><circle r="0.8300000000000005" cx="51.132660984678395" cy="10.078945800653841" fill="none" stroke="black" stroke-width="0.1" /><circle r="0.8320000000000005" cx="64.36205514617191" cy="19.22090788665515" fill="none" stroke="black" stroke-width="0.1" /><circle r="0.8340000000000005" cx="71.48889490248752" cy="33.689475234175326" fill="none" stroke="black" stroke-width="0.1" /><circle r="0.8360000000000005" cx="70.66854353992215" cy="49.84502601011747" fill="none" stroke="black" stroke-width="0.1" /><circle r="0.8380000000000005" cx="62.062071962736866" cy="63.59826276892032" fill="none" stroke="black" stroke-width="0.1" /><circle r="0.8400000000000005" cx="47.80726277501046" cy="71.44529611821022" fill="none" stroke="black" stroke-width="0.1" /><circle r="0.8420000000000005" cx="31.4877805993644" cy="71.36027974804168" fill="none" stroke="black" stroke-width="0.1" /><circle r="0.8440000000000005" cx="17.232271965037178" cy="63.318204479032225" fill="none" stroke="black" stroke-width="0.1" /><circle r="0.8460000000000005" cx="8.669863912220915" cy="49.312990804313785" fill="none" stroke="black" stroke-width="0.1" /><circle r="0.8480000000000005" cx="8.00630847974896" cy="32.86332690204975" fill="none" stroke="black" stroke-width="0.1" /><circle r="0.8500000000000005" cx="15.455946687554476" cy="18.12867009082845" fill="none" stroke="black" stroke-width="0.1" /><circle r="0.8520000000000005" cx="29.17572941245821" cy="8.85748779806504" fill="none" stroke="black" stroke-width="0.1" /><circle r="0.8540000000000005" cx="45.72095985025315" cy="7.433685449658547" fill="none" stroke="black" stroke-width="0.1" /><circle r="0.8560000000000005" cx="60.9101227248741" cy="14.26379267198266" fill="none" stroke="black" stroke-width="0.1" /><circle r="0.8580000000000005" cx="70.88168770642538" cy="27.662399366051545" fill="none" stroke="black" stroke-width="0.1" /><circle r="0.8600000000000005" cx="73.07579903298307" cy="44.26778845887483" fill="none" stroke="black" stroke-width="0.1" /><circle r="0.8620000000000005" cx="66.89128948679172" cy="59.885335670728686" fill="none" stroke="black" stroke-width="0.1" /><circle r="0.8640000000000005" cx="53.8494242536838" cy="70.547095571289" fill="none" stroke="black" stroke-width="0.1" /><circle r="0.8660000000000005" cx="37.220001366910594" cy="73.51991695395455" fill="none" stroke="black" stroke-width="0.1" /><circle r="0.8680000000000005" cx="21.201628169147032" cy="68.00596573069714" fill="none" stroke="black" stroke-width="0.1" /><circle r="0.8700000000000006" cx="9.861658029103193" cy="55.3561378036689" fill="none" stroke="black" stroke-width="0.1" /><circle r="0.8720000000000006" cx="6.103430853177379" cy="38.739444537252844" fill="none" stroke="black" stroke-width="0.1" /><circle r="0.8740000000000006" cx="10.92304615120748" cy="22.349193223107935" fill="none" stroke="black" stroke-width="0.1" /><circle r="0.8760000000000006" cx="23.145900865012997" cy="10.3447906372587" fill="none" stroke="black" stroke-width="0.1" /><circle r="0.8780000000000006" cx="39.71254351944573" cy="5.7962079036289325" fill="none" stroke="black" stroke-width="0.1" /><circle r="0.8800000000000006" cx="56.444386711822304" cy="9.898967697568398" fill="none" stroke="black" stroke-width="0.1" /><circle r="0.8820000000000006" cx="69.09765915388459" cy="21.660363777753254" fill="none" stroke="black" stroke-width="0.1" /><circle r="0.8840000000000006" cx="74.43976446957464" cy="38.139160597952504" fill="none" stroke="black" stroke-width="0.1" /><circle r="0.8860000000000006" cx="71.07504898684653" cy="55.18102616640513" fill="none" stroke="black" stroke-width="0.1" /><circle r="0.8880000000000006" cx="59.80905595478353" cy="68.46583394492849" fill="none" stroke="black" stroke-width="0.1" /><circle r="0.8900000000000006" cx="43.45628888943027" cy="74.60281335545983" fill="none" stroke="black" stroke-width="0.1" /><circle r="0.8920000000000006" cx="26.13719474967214" cy="71.99592990665329" fill="none" stroke="black" stroke-width="0.1" /><circle r="0.8940000000000006" cx="12.239940657647153" cy="61.258653069021946" fill="none" stroke="black" stroke-width="0.1" /><circle r="0.8960000000000006" cx="5.308579804209366" cy="45.070400851912765" fill="none" stroke="black" stroke-width="0.1" /><circle r="0.8980000000000006" cx="7.139312257159688" cy="27.508033538808547" fill="none" stroke="black" stroke-width="0.1" /><circle r="0.9000000000000006" cx="17.315280799173355" cy="13.019154668920503" fill="none" stroke="black" stroke-width="0.1" /><text x="36" y="78" font-size="2" font-family="Arial, Helvetica, sans-serif" fill="black" stroke="none">VARICITE</text></svg>