<svg width="80" height="80" fill="none" stroke="black" viewBox="0 0 80 80"><circle r="40" cx="40" cy="40" stroke-width="0.1" /><circle r="0.2" cx="39.167706326905716" cy="41.81859485365136" fill="none" stroke="black" stroke-width="0.1" /><circle r="0.202" cx="37.96170073789931" cy="40.48410858091938" fill="none" stroke="black" stroke-width="0.1" /><circle r="0.20400000000000001" cx="38.29055486013485" cy="38.631096309526704" fill="none" stroke="black" stroke-width="0.1" /><circle r="0.20600000000000002" cx="40.02932066837472" cy="37.715188126255015" fill="none" stroke="black" stroke-width="0.1" /><circle r="0.20800000000000002" cx="41.89531714357898" cy="38.56049559734761" fill="none" stroke="black" stroke-width="0.1" /><circle r="0.21000000000000002" cx="42.39254538182308" cy="40.63352316131065" fill="none" stroke="black" stroke-width="0.1" /><circle r="0.21200000000000002" cx="41.00917697728667" cy="42.36356972152601" fill="none" stroke="black" stroke-width="0.1" /><circle r="0.21400000000000002" cx="38.71096179620059" cy="42.332510559278475" fill="none" stroke="black" stroke-width="0.1" /><circle r="0.21600000000000003" cx="37.27417127006637" cy="40.43296389580243" fill="none" stroke="black" stroke-width="0.1" /><circle r="0.21800000000000003" cx="37.91275224156638" cy="38.052072435917125" fill="none" stroke="black" stroke-width="0.1" /><circle r="0.22000000000000003" cx="40.26072305516779" cy="37.061544029851056" fill="none" stroke="black" stroke-width="0.1" /><circle r="0.22200000000000003" cx="42.557171963322496" cy="38.346852532289574" fill="none" stroke="black" stroke-width="0.1" /><circle r="0.22400000000000003" cx="42.96594981398592" cy="41.030893641903425" fill="none" stroke="black" stroke-width="0.1" /><circle r="0.22600000000000003" cx="41.041774477208044" cy="43.06266729153493" fill="none" stroke="black" stroke-width="0.1" /><circle r="0.22800000000000004" cx="38.173599572720924" cy="42.7844499419517" fill="none" stroke="black" stroke-width="0.1" /><circle r="0.23000000000000004" cx="36.58646848382996" cy="40.28004926015598" fill="none" stroke="black" stroke-width="0.1" /><circle r="0.23200000000000004" cx="37.61548862112036" cy="37.410694014992906" fill="none" stroke="black" stroke-width="0.1" /><circle r="0.23400000000000004" cx="40.59077721460305" cy="36.43360023515228" fill="none" stroke="black" stroke-width="0.1" /><circle r="0.23600000000000004" cx="43.258976020649065" cy="38.2270997498916" fill="none" stroke="black" stroke-width="0.1" /><circle r="0.23800000000000004" cx="43.48937480334593" cy="41.51732939132364" fill="none" stroke="black" stroke-width="0.1" /><circle r="0.24000000000000005" cx="40.97322922884035" cy="43.7766155308862" fill="none" stroke="black" stroke-width="0.1" /><circle r="0.24200000000000005" cx="37.56262232782617" cy="43.16531437351624" fill="none" stroke="black" stroke-width="0.1" /><circle r="0.24400000000000005" cx="35.91007844698364" cy="40.025331604218316" fill="none" stroke="black" stroke-width="0.1" /><circle r="0.24600000000000005" cx="37.40582486240885" cy="36.71602674257174" fill="none" stroke="black" stroke-width="0.1" /><circle r="0.24800000000000005" cx="41.01663627291406" cy="35.842494655614324" fill="none" stroke="black" stroke-width="0.1" /><circle r="0.25000000000000006" cx="43.990174953245386" cy="38.20580691047668" fill="none" stroke="black" stroke-width="0.1" /><circle r="0.25200000000000006" cx="43.95274105824403" cy="42.087280078588385" fill="none" stroke="black" stroke-width="0.1" /><circle r="0.25400000000000006" cx="40.80175842157781" cy="44.49404143655008" fill="none" stroke="black" stroke-width="0.1" /><circle r="0.25600000000000006" cx="36.885935034202504" cy="43.46672747541434" fill="none" stroke="black" stroke-width="0.1" /><circle r="0.25800000000000006" cx="35.25646953273826" cy="39.66993378518907" fill="none" stroke="black" stroke-width="0.1" /><circle r="0.26000000000000006" cx="37.28989736215725" cy="35.977830971682344" fill="none" stroke="black" stroke-width="0.1" /><circle r="0.26200000000000007" cx="41.53433756052949" cy="35.29906038643885" fill="none" stroke="black" stroke-width="0.1" /><circle r="0.26400000000000007" cx="44.73977127088181" cy="38.28647489083951" fill="none" stroke="black" stroke-width="0.1" /><circle r="0.26600000000000007" cx="44.34654237752197" cy="42.73418989106566" fill="none" stroke="black" stroke-width="0.1" /><circle r="0.26800000000000007" cx="40.52672532073526" cy="45.20340854022595" fill="none" stroke="black" stroke-width="0.1" /><circle r="0.2700000000000001" cx="36.15227450279059" cy="43.681118511828245" fill="none" stroke="black" stroke-width="0.1" /><circle r="0.2720000000000001" cx="34.63698331680792" cy="39.21613007724275" fill="none" stroke="black" stroke-width="0.1" /><circle r="0.2740000000000001" cx="37.27285468686807" cy="35.20647275578175" fill="none" stroke="black" stroke-width="0.1" /><circle r="0.2760000000000001" cx="42.13883401864108" cy="34.813721079550035" fill="none" stroke="black" stroke-width="0.1" /><circle r="0.2780000000000001" cx="45.49642627453961" cy="38.471496415264056" fill="none" stroke="black" stroke-width="0.1" /><circle r="0.2800000000000001" cx="44.66193927254903" cy="43.45055390032746" fill="none" stroke="black" stroke-width="0.1" /><circle r="0.2820000000000001" cx="40.14865216952148" cy="45.89312544686574" fill="none" stroke="black" stroke-width="0.1" /><circle r="0.2840000000000001" cx="35.371131551304046" cy="43.80179916416781" fill="none" stroke="black" stroke-width="0.1" /><circle r="0.2860000000000001" cx="34.062726179681064" cy="38.66733178076637" fill="none" stroke="black" stroke-width="0.1" /><circle r="0.2880000000000001" cx="37.358802445449236" cy="34.412829385293925" fill="none" stroke="black" stroke-width="0.1" /><circle r="0.2900000000000001" cx="42.82403500883732" cy="34.39638944350509" fill="none" stroke="black" stroke-width="0.1" /><circle r="0.2920000000000001" cx="46.24856527812448" cy="38.76212603023689" fill="none" stroke="black" stroke-width="0.1" /><circle r="0.2940000000000001" cx="44.89084723686851" cy="44.22798277026003" fill="none" stroke="black" stroke-width="0.1" /><circle r="0.2960000000000001" cx="39.669223218079146" cy="46.55165526569752" fill="none" stroke="black" stroke-width="0.1" /><circle r="0.2980000000000001" cx="34.55266640900489" cy="43.823033056150095" fill="none" stroke="black" stroke-width="0.1" /><circle r="0.3000000000000001" cx="33.54446248326957" cy="38.028063041046735" fill="none" stroke="black" stroke-width="0.1" /><circle r="0.3020000000000001" cx="37.550756860130036" cy="33.60819015913334" fill="none" stroke="black" stroke-width="0.1" /><circle r="0.3040000000000001" cx="43.58285622401736" cy="34.05636968864819" fill="none" stroke="black" stroke-width="0.1" /><circle r="0.3060000000000001" cx="46.98448529982749" cy="39.15845968813511" fill="none" stroke="black" stroke-width="0.1" /><circle r="0.3080000000000001" cx="45.02601894269913" cy="45.05727531261938" fill="none" stroke="black" stroke-width="0.1" /><circle r="0.3100000000000001" cx="39.09127782782495" cy="47.16762506091086" fill="none" stroke="black" stroke-width="0.1" /><circle r="0.3120000000000001" cx="33.70761801512116" cy="43.74009745279079" fill="none" stroke="black" stroke-width="0.1" /><circle r="0.3140000000000001" cx="33.09251018081221" cy="37.30392704145141" fill="none" stroke="black" stroke-width="0.1" /><circle r="0.3160000000000001" cx="37.8506074325904" cy="32.80415317067099" fill="none" stroke="black" stroke-width="0.1" /><circle r="0.3180000000000001" cx="44.40727832881025" cy="33.80226470939591" fill="none" stroke="black" stroke-width="0.1" /><circle r="0.3200000000000001" cx="47.6924643696577" cy="39.65942413246567" fill="none" stroke="black" stroke-width="0.1" /><circle r="0.3220000000000001" cx="45.061119688309276" cy="45.928498334368335" fill="none" stroke="black" stroke-width="0.1" /><circle r="0.3240000000000001" cx="38.41879367485725" cy="47.72993444715597" fill="none" stroke="black" stroke-width="0.1" /><circle r="0.3260000000000001" cx="32.84720791625675" cy="43.54933661502256" fill="none" stroke="black" stroke-width="0.1" /><circle r="0.3280000000000001" cx="32.71663970226018" cy="36.50156280986677" fill="none" stroke="black" stroke-width="0.1" /><circle r="0.3300000000000001" cx="38.259089033809836" cy="32.01251891972201" fill="none" stroke="black" stroke-width="0.1" /><circle r="0.33200000000000013" cx="45.28841389035696" cy="33.641888761253114" fill="none" stroke="black" stroke-width="0.1" /><circle r="0.33400000000000013" cx="48.36087158537546" cy="40.262776202996235" fill="none" stroke="black" stroke-width="0.1" /><circle r="0.33600000000000013" cx="44.99079547010994" cy="46.83107316426417" fill="none" stroke="black" stroke-width="0.1" /><circle r="0.33800000000000013" cx="37.656860151687496" cy="48.227862459427115" fill="none" stroke="black" stroke-width="0.1" /><circle r="0.34000000000000014" cx="31.983039511006567" cy="43.248206353961855" fill="none" stroke="black" stroke-width="0.1" /><circle r="0.34200000000000014" cx="32.425976934503666" cy="35.62859294925198" fill="none" stroke="black" stroke-width="0.1" /><circle r="0.34400000000000014" cx="38.77576367518599" cy="31.245181588347712" fill="none" stroke="black" stroke-width="0.1" /><circle r="0.34600000000000014" cx="46.21658209604948" cy="33.582186350237556" fill="none" stroke="black" stroke-width="0.1" /><circle r="0.34800000000000014" cx="48.97827704111184" cy="40.965112103874006" fill="none" stroke="black" stroke-width="0.1" /><circle r="0.35000000000000014" cx="44.810733107835546" cy="47.75386819369371" fill="none" stroke="black" stroke-width="0.1" /><circle r="0.35200000000000015" cx="36.81164214145396" cy="48.651171837725094" fill="none" stroke="black" stroke-width="0.1" /><circle r="0.35400000000000015" cx="31.12699342743643" cy="42.835309394624126" fill="none" stroke="black" stroke-width="0.1" /><circle r="0.35600000000000015" cx="32.228911086862745" cy="34.69356267311906" fill="none" stroke="black" stroke-width="0.1" /><circle r="0.35800000000000015" cx="39.399012145481564" cy="30.514018838374103" fill="none" stroke="black" stroke-width="0.1" /><circle r="0.36000000000000015" cx="47.181390694127636" cy="33.62915800711577" fill="none" stroke="black" stroke-width="0.1" /><circle r="0.36200000000000015" cx="49.53356075143465" cy="41.76188660211289" fill="none" stroke="black" stroke-width="0.1" /><circle r="0.36400000000000016" cx="44.51771191002019" cy="48.68529671905697" fill="none" stroke="black" stroke-width="0.1" /><circle r="0.36600000000000016" cx="35.89033441255866" cy="48.99020988405724" fill="none" stroke="black" stroke-width="0.1" /><circle r="0.36800000000000016" cx="30.29111985084188" cy="42.31042122767333" fill="none" stroke="black" stroke-width="0.1" /><circle r="0.37000000000000016" cx="32.13300819746126" cy="33.70587059405446" fill="none" stroke="black" stroke-width="0.1" /><circle r="0.37200000000000016" cx="40.12603562365387" cy="29.83078100237927" fill="none" stroke="black" stroke-width="0.1" /><circle r="0.37400000000000017" cx="48.17182453635231" cy="33.7877935685402" fill="none" stroke="black" stroke-width="0.1" /><circle r="0.37600000000000017" cx="50.01601969853708" cy="42.64744204818869" fill="none" stroke="black" stroke-width="0.1" /><circle r="0.37800000000000017" cx="44.10964642970906" cy="49.61341933043492" fill="none" stroke="black" stroke-width="0.1" /><circle r="0.38000000000000017" cx="34.90110695379157" cy="49.23600507272097" fill="none" stroke="black" stroke-width="0.1" /><circle r="0.3820000000000002" cx="29.487528645023573" cy="41.67450619909283" fill="none" stroke="black" stroke-width="0.1" /><circle r="0.3840000000000002" cx="32.144930995668204" cy="32.67569177756793" fill="none" stroke="black" stroke-width="0.1" /><circle r="0.3860000000000002" cx="40.95286730213052" cy="29.206980547384767" fill="none" stroke="black" stroke-width="0.1" /><circle r="0.3880000000000002" cx="49.17634004970974" cy="34.06201353217326" fill="none" stroke="black" stroke-width="0.1" /><circle r="0.3900000000000002" cx="50.41547214155596" cy="43.615047035443936" fill="none" stroke="black" stroke-width="0.1" /><circle r="0.3920000000000002" cx="43.585619926545505" cy="50.526050054144726" fill="none" stroke="black" stroke-width="0.1" /><circle r="0.3940000000000002" cx="33.8530416399734" cy="49.38035862427975" fill="none" stroke="black" stroke-width="0.1" /><circle r="0.3960000000000002" cx="28.72827813001971" cy="40.92972366099203" fill="none" stroke="black" stroke-width="0.1" /><circle r="0.3980000000000002" cx="32.27036579000087" cy="31.613893634134406" fill="none" stroke="black" stroke-width="0.1" /><circle r="0.4000000000000002" cx="41.87439397915257" cy="28.653782691534726" fill="none" stroke="black" stroke-width="0.1" /><circle r="0.4020000000000002" cx="50.18296491664278" cy="34.454618993574684" fill="none" stroke="black" stroke-width="0.1" /><circle r="0.4040000000000002" cx="50.722358344708084" cy="44.656944441119016" fill="none" stroke="black" stroke-width="0.1" /><circle r="0.4060000000000002" cx="42.94590822055952" cy="51.41086542537595" fill="none" stroke="black" stroke-width="0.1" /><circle r="0.4080000000000002" cx="32.75606068542766" cy="49.41593028897272" fill="none" stroke="black" stroke-width="0.1" /><circle r="0.4100000000000002" cx="28.025263392655926" cy="40.07942408157631" fill="none" stroke="black" stroke-width="0.1" /><circle r="0.4120000000000002" cx="32.51395700006054" cy="30.53194527883061" fill="none" stroke="black" stroke-width="0.1" /><circle r="0.4140000000000002" cx="42.88438750296234" cy="28.181898048639315" fill="none" stroke="black" stroke-width="0.1" /><circle r="0.4160000000000002" cx="51.17940220099973" cy="34.967250609429975" fill="none" stroke="black" stroke-width="0.1" /><circle r="0.4180000000000002" cx="50.92783690484824" cy="45.76440851961737" fill="none" stroke="black" stroke-width="0.1" /><circle r="0.4200000000000002" cx="42.19199369467868" cy="52.25551564164028" fill="none" stroke="black" stroke-width="0.1" /><circle r="0.4220000000000002" cx="31.62084740672097" cy="49.3363176262671" fill="none" stroke="black" stroke-width="0.1" /><circle r="0.4240000000000002" cx="27.390105013308577" cy="39.128135088092684" fill="none" stroke="black" stroke-width="0.1" /><circle r="0.4260000000000002" cx="32.879249895560704" cy="29.441821040059587" fill="none" stroke="black" stroke-width="0.1" /><circle r="0.4280000000000002" cx="43.97554587539996" cy="27.801478163621994" fill="none" stroke="black" stroke-width="0.1" /><circle r="0.4300000000000002" cx="52.15313812004975" cy="35.600356965048846" fill="none" stroke="black" stroke-width="0.1" /><circle r="0.4320000000000002" cx="51.02387588904875" cy="46.92781064859962" fill="none" stroke="black" stroke-width="0.1" /><circle r="0.4340000000000002" cx="41.32656927667633" cy="53.047736928455414" fill="none" stroke="black" stroke-width="0.1" /><circle r="0.4360000000000002" cx="30.45875987661054" cy="49.13612811358421" fill="none" stroke="black" stroke-width="0.1" /><circle r="0.4380000000000002" cx="26.834039092858866" cy="38.08153749277393" fill="none" stroke="black" stroke-width="0.1" /><circle r="0.4400000000000002" cx="33.36864204569708" cy="28.35589884611508" fill="none" stroke="black" stroke-width="0.1" /><circle r="0.4420000000000002" cx="45.1395437484333" cy="27.522014783710432" fill="none" stroke="black" stroke-width="0.1" /><circle r="0.44400000000000023" cx="53.09155263181652" cy="36.35317265443251" fill="none" stroke="black" stroke-width="0.1" /><circle r="0.44600000000000023" cx="51.0033380286756" cy="48.136693261190466" fill="none" stroke="black" stroke-width="0.1" /><circle r="0.44800000000000023" cx="40.353532306444784" cy="53.775464235672814" fill="none" stroke="black" stroke-width="0.1" /><circle r="0.45000000000000023" cx="29.281738107573503" cy="48.811043468588664" fill="none" stroke="black" stroke-width="0.1" /><circle r="0.45200000000000023" cx="26.36780945792362" cy="36.94643142789878" fill="none" stroke="black" stroke-width="0.1" /><circle r="0.45400000000000024" cx="33.98334391841391" cy="27.28685426041556" fill="none" stroke="black" stroke-width="0.1" /><circle r="0.45600000000000024" cx="46.367091974810315" cy="27.352243685763586" fill="none" stroke="black" stroke-width="0.1" /><circle r="0.45800000000000024" cx="53.98203198186138" cy="37.22370630908643" fill="none" stroke="black" stroke-width="0.1" /><circle r="0.46000000000000024" cx="50.86005925795148" cy="49.3798514334601" fill="none" stroke="black" stroke-width="0.1" /><circle r="0.46200000000000024" cx="39.27796827060076" cy="54.426943376257555" fill="none" stroke="black" stroke-width="0.1" /><circle r="0.46400000000000025" cx="28.10220545524898" cy="48.357875625474094" fill="none" stroke="black" stroke-width="0.1" /><circle r="0.46600000000000025" cx="26.00156291010885" cy="35.73069279152215" fill="none" stroke="black" stroke-width="0.1" /><circle r="0.46800000000000025" cx="34.72334900198487" cy="26.247550972821347" fill="none" stroke="black" stroke-width="0.1" /><circle r="0.47000000000000025" cx="47.648005803911445" cy="27.300053849589048" fill="none" stroke="black" stroke-width="0.1" /><circle r="0.47200000000000025" cx="54.812082334702154" cy="38.20873873764723" fill="none" stroke="black" stroke-width="0.1" /><circle r="0.47400000000000025" cx="50.588919931870485" cy="50.645421535873396" fill="none" stroke="black" stroke-width="0.1" /><circle r="0.47600000000000026" cx="38.106124462956615" cy="54.99084171920276" fill="none" stroke="black" stroke-width="0.1" /><circle r="0.47800000000000026" cx="26.932964979219523" cy="47.774613866019195" fill="none" stroke="black" stroke-width="0.1" /><circle r="0.48000000000000026" cx="25.744748366313758" cy="34.44322027966853" fill="none" stroke="black" stroke-width="0.1" /><circle r="0.48200000000000026" cx="35.587413751219344" cy="25.25092858526093" fill="none" stroke="black" stroke-width="0.1" /><circle r="0.48400000000000026" cx="48.971281246497846" cy="27.372402730676058" fill="none" stroke="black" stroke-width="0.1" /><circle r="0.48600000000000027" cx="55.56944360243415" cy="39.30383126282226" fill="none" stroke="black" stroke-width="0.1" /><circle r="0.48800000000000027" cx="50.18590811024345" cy="51.92097630102829" fill="none" stroke="black" stroke-width="0.1" /><circle r="0.49000000000000027" cx="36.84537370577977" cy="55.45635655462877" fill="none" stroke="black" stroke-width="0.1" /><circle r="0.49200000000000027" cx="25.78709154044279" cy="47.060462670409684" fill="none" stroke="black" stroke-width="0.1" /><circle r="0.49400000000000027" cx="25.606020712131052" cy="33.09387335328976" fill="none" stroke="black" stroke-width="0.1" /><circle r="0.4960000000000003" cx="36.573047588015314" cy="24.309888554698095" fill="none" stroke="black" stroke-width="0.1" /><circle r="0.4980000000000003" cx="50.32517906788787" cy="27.575238343692394" fill="none" stroke="black" stroke-width="0.1" /><circle r="0.5000000000000002" cx="56.24220257693668" cy="40.50334426564039" fill="none" stroke="black" stroke-width="0.1" /><circle r="0.5020000000000002" cx="49.64817435125413" cy="53.19362560814136" fill="none" stroke="black" stroke-width="0.1" /><circle r="0.5040000000000002" cx="35.50416834247018" cy="55.81332026195493" fill="none" stroke="black" stroke-width="0.1" /><circle r="0.5060000000000002" cx="24.677820451003363" cy="46.2158699204786" fill="none" stroke="black" stroke-width="0.1" /><circle r="0.5080000000000002" cx="25.593150159301622" cy="31.69340155854573" fill="none" stroke="black" stroke-width="0.1" /><circle r="0.5100000000000002" cx="37.67651311141847" cy="23.43717917507434" fill="none" stroke="black" stroke-width="0.1" /><circle r="0.5120000000000002" cx="51.69731580861562" cy="27.913428820649237" fill="none" stroke="black" stroke-width="0.1" /><circle r="0.5140000000000002" cx="56.81890447236419" cy="41.80046587012617" fill="none" stroke="black" stroke-width="0.1" /><circle r="0.5160000000000002" cx="48.97407751880487" cy="54.450122237769556" fill="none" stroke="black" stroke-width="0.1" /><circle r="0.5180000000000002" cx="34.091984786770425" cy="56.05230143126677" fill="none" stroke="black" stroke-width="0.1" /><circle r="0.5200000000000002" cx="23.618433522411944" cy="45.242545158638556" fill="none" stroke="black" stroke-width="0.1" /><circle r="0.5220000000000002" cx="25.71293786119046" cy="30.253365686464065" fill="none" stroke="black" stroke-width="0.1" /><circle r="0.5240000000000002" cx="38.892836596337176" cy="22.64528049210847" fill="none" stroke="black" stroke-width="0.1" /><circle r="0.5260000000000002" cx="53.07476117527379" cy="28.390700055147413" fill="none" stroke="black" stroke-width="0.1" /><circle r="0.5280000000000002" cx="57.288661991456706" cy="43.187250624780155" fill="none" stroke="black" stroke-width="0.1" /><circle r="0.5300000000000002" cx="48.16322117270864" cy="55.676971808529935" fill="none" stroke="black" stroke-width="0.1" /><circle r="0.5320000000000003" cx="32.61925898635097" cy="56.16470111352017" fill="none" stroke="black" stroke-width="0.1" /><circle r="0.5340000000000003" cx="22.622143383197933" cy="44.14346767887353" fill="none" stroke="black" stroke-width="0.1" /><circle r="0.5360000000000003" cx="25.97113849759848" cy="28.78605132228448" fill="none" stroke="black" stroke-width="0.1" /><circle r="0.5380000000000003" cx="40.21582878313989" cy="21.946290050619258" fill="none" stroke="black" stroke-width="0.1" /><circle r="0.5400000000000003" cx="54.44414109243394" cy="29.00958198693688" fill="none" stroke="black" stroke-width="0.1" /><circle r="0.5420000000000003" cx="57.64126104253175" cy="44.65466796122476" fill="none" stroke="black" stroke-width="0.1" /><circle r="0.5440000000000003" cx="47.216480178994075" cy="56.8605460714114" fill="none" stroke="black" stroke-width="0.1" /><circle r="0.5460000000000003" cx="31.097313229061896" cy="56.14284340686498" fill="none" stroke="black" stroke-width="0.1" /><circle r="0.5480000000000003" cx="21.70197695482592" cy="42.92288430121327" fill="none" stroke="black" stroke-width="0.1" /><circle r="0.5500000000000003" cx="26.372390492195095" cy="27.3043753953267" fill="none" stroke="black" stroke-width="0.1" /><circle r="0.5520000000000003" cx="41.63811588307007" cy="21.35181037329269" fill="none" stroke="black" stroke-width="0.1" /><circle r="0.5540000000000003" cx="55.79174565965427" cy="29.77136401953852" fill="none" stroke="black" stroke-width="0.1" /><circle r="0.5560000000000003" cx="57.867262253769866" cy="46.19266013559692" fill="none" stroke="black" stroke-width="0.1" /><circle r="0.5580000000000003" cx="46.13601724876004" cy="57.987198706939324" fill="none" stroke="black" stroke-width="0.1" /><circle r="0.5600000000000003" cx="29.538274787802386" cy="55.980059623933485" fill="none" stroke="black" stroke-width="0.1" /><circle r="0.5620000000000003" cx="20.870658986864825" cy="41.58629675760402" fill="none" stroke="black" stroke-width="0.1" /><circle r="0.5640000000000003" cx="26.920154472770527" cy="25.821786396593694" fill="none" stroke="black" stroke-width="0.1" /><circle r="0.5660000000000003" cx="43.15118064729935" cy="20.87283906252456" fill="none" stroke="black" stroke-width="0.1" /><circle r="0.5680000000000003" cx="57.10364121597986" cy="30.676059998314287" fill="none" stroke="black" stroke-width="0.1" /><circle r="0.5700000000000003" cx="57.9580974574596" cy="47.790209285274905" fill="none" stroke="black" stroke-width="0.1" /><circle r="0.5720000000000003" cx="44.92528918765145" cy="59.043382746193075" fill="none" stroke="black" stroke-width="0.1" /><circle r="0.5740000000000003" cx="27.954986964340115" cy="55.67076532817666" fill="none" stroke="black" stroke-width="0.1" /><circle r="0.5760000000000003" cx="20.14049655774109" cy="40.14043869447791" fill="none" stroke="black" stroke-width="0.1" /><circle r="0.5780000000000003" cx="27.616660526722697" cy="24.352158983119356" fill="none" stroke="black" stroke-width="0.1" /><circle r="0.5800000000000003" cx="44.745413271053046" cy="20.51966240315857" fill="none" stroke="black" stroke-width="0.1" /><circle r="0.5820000000000003" cx="58.365785678327924" cy="31.722383107577116" fill="none" stroke="black" stroke-width="0.1" /><circle r="0.5840000000000003" cx="57.90616034906729" cy="49.43541316283979" fill="none" stroke="black" stroke-width="0.1" /><circle r="0.5860000000000003" cx="43.58904271361575" cy="60.015768718683816" fill="none" stroke="black" stroke-width="0.1" /><circle r="0.5880000000000003" cx="26.360913153044812" cy="55.21052957596197" fill="none" stroke="black" stroke-width="0.1" /><circle r="0.5900000000000003" cx="19.523265446251283" cy="38.593242375064854" fill="none" stroke="black" stroke-width="0.1" /><circle r="0.5920000000000003" cx="28.462864742101864" cy="22.909683734905215" fill="none" stroke="black" stroke-width="0.1" /><circle r="0.5940000000000003" cx="46.41017182912526" cy="20.301753323681606" fill="none" stroke="black" stroke-width="0.1" /><circle r="0.5960000000000003" cx="59.56414629000939" cy="32.90773097358036" fill="none" stroke="black" stroke-width="0.1" /><circle r="0.5980000000000003" cx="57.7048905641359" cy="51.115569041302884" fill="none" stroke="black" stroke-width="0.1" /><circle r="0.6000000000000003" cx="42.13329977761175" cy="60.89136261852829" fill="none" stroke="black" stroke-width="0.1" /><circle r="0.6020000000000003" cx="24.77003460193839" cy="54.59613575484435" fill="none" stroke="black" stroke-width="0.1" /><circle r="0.6040000000000003" cx="19.030099271275876" cy="36.95379524203395" fill="none" stroke="black" stroke-width="0.1" /><circle r="0.6060000000000003" cx="29.458415458560587" cy="21.508752871812973" fill="none" stroke="black" stroke-width="0.1" /><circle r="0.6080000000000003" cx="48.133851865793645" cy="20.227674546848956" fill="none" stroke="black" stroke-width="0.1" /><circle r="0.6100000000000003" cx="60.68481889160542" cy="34.228181186013984" fill="none" stroke="black" stroke-width="0.1" /><circle r="0.6120000000000003" cx="57.34885045985196" cy="52.81726522007304" fill="none" stroke="black" stroke-width="0.1" /><circle r="0.6140000000000003" cx="40.56533239983915" cy="61.657622775311495" fill="none" stroke="black" stroke-width="0.1" /><circle r="0.6160000000000003" cx="23.196742600291042" cy="53.82563346682984" fill="none" stroke="black" stroke-width="0.1" /><circle r="0.6180000000000003" cx="18.671382282852225" cy="35.23228657784792" fill="none" stroke="black" stroke-width="0.1" /><circle r="0.6200000000000003" cx="30.60162958314713" cy="20.16384277367151" fill="none" stroke="black" stroke-width="0.1" /><circle r="0.6220000000000003" cx="49.903964691171666" cy="20.30498772795447" fill="none" stroke="black" stroke-width="0.1" /><circle r="0.6240000000000003" cx="61.714147808689006" cy="35.67849737447664" fill="none" stroke="black" stroke-width="0.1" /><circle r="0.6260000000000003" cx="56.83379393736257" cy="54.52647950036119" fill="none" stroke="black" stroke-width="0.1" /><circle r="0.6280000000000003" cx="38.89362711229082" cy="62.30257471758229" fill="none" stroke="black" stroke-width="0.1" /><circle r="0.6300000000000003" cx="21.65572586882177" cy="52.89838096817519" fill="none" stroke="black" stroke-width="0.1" /><circle r="0.6320000000000003" cx="18.456646667003806" cy="33.439944575715806" fill="none" stroke="black" stroke-width="0.1" /><circle r="0.6340000000000003" cx="31.889479253514228" cy="18.88939417684034" fill="none" stroke="black" stroke-width="0.1" /><circle r="0.6360000000000003" cx="51.7072238679123" cy="20.54016934023877" fill="none" stroke="black" stroke-width="0.1" /><circle r="0.6380000000000003" cx="62.63884543961161" cy="37.25214589881937" fill="none" stroke="black" stroke-width="0.1" /><circle r="0.6400000000000003" cx="56.15672669525203" cy="56.22868394217254" fill="none" stroke="black" stroke-width="0.1" /><circle r="0.6420000000000003" cx="37.12783917644817" cy="62.8149231250875" fill="none" stroke="black" stroke-width="0.1" /><circle r="0.6440000000000003" cx="20.16185397003942" cy="51.81507774388123" fill="none" stroke="black" stroke-width="0.1" /><circle r="0.6460000000000004" cx="18.39447519960257" cy="31.58896420769654" fill="none" stroke="black" stroke-width="0.1" /><circle r="0.6480000000000004" cx="33.31758905629028" cy="17.699690944307815" fill="none" stroke="black" stroke-width="0.1" /><circle r="0.6500000000000004" cx="53.529639307395755" cy="20.938534022490035" fill="none" stroke="black" stroke-width="0.1" /><circle r="0.6520000000000004" cx="63.4461106218706" cy="38.94132313381047" fill="none" stroke="black" stroke-width="0.1" /><circle r="0.6540000000000004" cx="55.3159573636373" cy="57.908955163136746" fill="none" stroke="black" stroke-width="0.1" /><circle r="0.6560000000000004" cx="35.27873682219059" cy="63.18415998059578" fill="none" stroke="black" stroke-width="0.1" /><circle r="0.6580000000000004" cx="18.73005759206898" cy="50.577786865091184" fill="none" stroke="black" stroke-width="0.1" /><circle r="0.6600000000000004" cx="18.492410051224134" cy="29.692426347810404" fill="none" stroke="black" stroke-width="0.1" /><circle r="0.6620000000000004" cx="34.88024393159469" cy="16.608738323894865" fill="none" stroke="black" stroke-width="0.1" /><circle r="0.6640000000000004" cx="55.35661833356812" cy="21.504166054024022" fill="none" stroke="black" stroke-width="0.1" /><circle r="0.6660000000000004" cx="64.12374485749972" cy="40.73699324980182" fill="none" stroke="black" stroke-width="0.1" /><circle r="0.6680000000000004" cx="54.3111390317202" cy="59.552089392562934" fill="none" stroke="black" stroke-width="0.1" /><circle r="0.6700000000000004" cx="33.35813582992366" cy="63.40066805341792" fill="none" stroke="black" stroke-width="0.1" /><circle r="0.6720000000000004" cx="17.37520658916801" cy="49.1899468506173" fill="none" stroke="black" stroke-width="0.1" /><circle r="0.6740000000000004" cx="18.756868505648235" cy="27.764208676441164" fill="none" stroke="black" stroke-width="0.1" /><circle r="0.6760000000000004" cx="36.57040781650524" cy="15.630141620130228" fill="none" stroke="black" stroke-width="0.1" /><circle r="0.6780000000000004" cx="57.17307301589686" cy="22.239859567259266" fill="none" stroke="black" stroke-width="0.1" /><circle r="0.6800000000000004" cx="64.66026548649887" cy="42.62893631253967" fill="none" stroke="black" stroke-width="0.1" /><circle r="0.6820000000000004" cx="53.14330074891255" cy="61.142721452633104" fill="none" stroke="black" stroke-width="0.1" /><circle r="0.6840000000000004" cx="31.37882485200484" cy="63.45581887437716" fill="none" stroke="black" stroke-width="0.1" /><circle r="0.6860000000000004" cx="16.111986685810322" cy="47.656372829290234" fill="none" stroke="black" stroke-width="0.1" /><circle r="0.6880000000000004" cx="19.193066309607147" cy="25.818888957363324" fill="none" stroke="black" stroke-width="0.1" /><circle r="0.6900000000000004" cx="38.379753001248936" cy="14.776986209752113" fill="none" stroke="black" stroke-width="0.1" /><circle r="0.6920000000000004" cx="58.963533020892925" cy="23.147068048392867" fill="none" stroke="black" stroke-width="0.1" /><circle r="0.6940000000000004" cx="65.04501491251396" cy="44.60580644751273" fill="none" stroke="black" stroke-width="0.1" /><circle r="0.6960000000000004" cx="51.814868650375416" cy="62.66544680288419" fill="none" stroke="black" stroke-width="0.1" /><circle r="0.6980000000000004" cx="29.35448194122882" cy="63.34206439585782" fill="none" stroke="black" stroke-width="0.1" /><circle r="0.7000000000000004" cx="14.954775768501143" cy="45.98324687723473" fill="none" stroke="black" stroke-width="0.1" /><circle r="0.7020000000000004" cx="19.80494932088224" cy="23.871641339929788" fill="none" stroke="black" stroke-width="0.1" /><circle r="0.7040000000000004" cx="40.29870009254052" cy="14.061719828509975" fill="none" stroke="black" stroke-width="0.1" /><circle r="0.7060000000000004" cx="60.712263184708206" cy="24.225863612629134" fill="none" stroke="black" stroke-width="0.1" /><circle r="0.7080000000000004" cx="65.26826500671815" cy="46.655199737818485" fill="none" stroke="black" stroke-width="0.1" /><circle r="0.7100000000000004" cx="50.32967643150266" cy="64.1049457543562" fill="none" stroke="black" stroke-width="0.1" /><circle r="0.7120000000000004" cx="27.299582822910146" cy="63.0530215704553" fill="none" stroke="black" stroke-width="0.1" /><circle r="0.7140000000000004" cx="13.917520700235332" cy="44.17809748298717" fill="none" stroke="black" stroke-width="0.1" /><circle r="0.7160000000000004" cx="20.59513406622165" cy="21.938126395855704" fill="none" stroke="black" stroke-width="0.1" /><circle r="0.7180000000000004" cx="42.31646839939293" cy="13.496038047970831" fill="none" stroke="black" stroke-width="0.1" /><circle r="0.7200000000000004" cx="62.403384967808336" cy="25.47490647244654" fill="none" stroke="black" stroke-width="0.1" /><circle r="0.7220000000000004" cx="65.32131584401276" cy="48.763731450001444" fill="none" stroke="black" stroke-width="0.1" /><circle r="0.7240000000000004" cx="48.692964972028676" cy="65.44610893624167" fill="none" stroke="black" stroke-width="0.1" /><circle r="0.7260000000000004" cx="25.229301512468687" cy="62.583549127416525" fill="none" stroke="black" stroke-width="0.1" /><circle r="0.7280000000000004" cx="13.013615596609071" cy="42.249768173037914" fill="none" stroke="black" stroke-width="0.1" /><circle r="0.7300000000000004" cx="21.564857760164728" cy="20.034375652210706" fill="none" stroke="black" stroke-width="0.1" /><circle r="0.7320000000000004" cx="44.42113647842888" cy="13.090773845405721" fill="none" stroke="black" stroke-width="0.1" /><circle r="0.7340000000000004" cx="64.02100091696317" cy="26.89142494596574" fill="none" stroke="black" stroke-width="0.1" /><circle r="0.7360000000000004" cx="65.19658796009546" cy="50.91712211020689" fill="none" stroke="black" stroke-width="0.1" /><circle r="0.7380000000000004" cx="46.911370988528645" cy="66.67416308075887" fill="none" stroke="black" stroke-width="0.1" /><circle r="0.7400000000000004" cx="23.159403941906756" cy="61.929815877205385" fill="none" stroke="black" stroke-width="0.1" /><circle r="0.7420000000000004" cx="12.25578249998106" cy="40.20837541034795" fill="none" stroke="black" stroke-width="0.1" /><circle r="0.7440000000000004" cx="22.713938271111143" cy="18.176671429292945" fill="none" stroke="black" stroke-width="0.1" /><circle r="0.7460000000000004" cx="46.599712498787376" cy="12.855792147617489" fill="none" stroke="black" stroke-width="0.1" /><circle r="0.7480000000000004" cx="65.549321230075" cy="28.47120627808643" fill="none" stroke="black" stroke-width="0.1" /><circle r="0.7500000000000004" cx="64.88770735842606" cy="53.10029188382229" fill="none" stroke="black" stroke-width="0.1" /><circle r="0.7520000000000004" cx="44.99290467356731" cy="67.77479618144234" fill="none" stroke="black" stroke-width="0.1" /><circle r="0.7540000000000004" cx="21.10613531571201" cy="61.089359930823164" fill="none" stroke="black" stroke-width="0.1" /><circle r="0.7560000000000004" cx="11.655955378734149" cy="38.06525595809556" fill="none" stroke="black" stroke-width="0.1" /><circle r="0.7580000000000005" cx="24.04074445229555" cy="16.381422833645146" fill="none" stroke="black" stroke-width="0.1" /><circle r="0.7600000000000005" cx="48.838214011690496" cy="12.799890200891614" fill="none" stroke="black" stroke-width="0.1" /><circle r="0.7620000000000005" cx="66.97279149591697" cy="30.208598470199316" fill="none" stroke="black" stroke-width="0.1" /><circle r="0.7640000000000005" cx="64.38958254240617" cy="55.29746264604527" fill="none" stroke="black" stroke-width="0.1" /><circle r="0.7660000000000005" cx="42.94691636009031" cy="68.73428107620975" fill="none" stroke="black" stroke-width="0.1" /><circle r="0.7680000000000005" cx="19.086101969102707" cy="60.0611382815937" fill="none" stroke="black" stroke-width="0.1" /><circle r="0.7700000000000005" cx="11.225168362640648" cy="35.83290397979396" fill="none" stroke="black" stroke-width="0.1" /><circle r="0.7720000000000005" cx="25.542177183181643" cy="14.665038792264152" fill="none" stroke="black" stroke-width="0.1" /><circle r="0.7740000000000005" cx="51.12175663715787" cy="12.930704584274302" fill="none" stroke="black" stroke-width="0.1" /><circle r="0.7760000000000005" cx="68.27622066388535" cy="32.096523235483225" fill="none" stroke="black" stroke-width="0.1" /><circle r="0.7780000000000005" cx="63.69847289988139" cy="57.49226706901027" fill="none" stroke="black" stroke-width="0.1" /><circle r="0.7800000000000005" cx="40.784052330274186" cy="69.53959650948849" fill="none" stroke="black" stroke-width="0.1" /><circle r="0.7820000000000005" cx="17.116148548753024" cy="58.84556626257897" fill="none" stroke="black" stroke-width="0.1" /><circle r="0.7840000000000005" cx="10.973449102659998" cy="33.524898224419665" fill="none" stroke="black" stroke-width="0.1" /><circle r="0.7860000000000005" cx="27.213661391665767" cy="13.043799043763336" fill="none" stroke="black" stroke-width="0.1" /><circle r="0.7880000000000005" cx="53.4346511107246" cy="13.254625642307804" fill="none" stroke="black" stroke-width="0.1" /><circle r="0.7900000000000005" cx="69.44490828852209" cy="34.126500116581596" fill="none" stroke="black" stroke-width="0.1" /><circle r="0.7920000000000005" cx="62.812047824057814" cy="59.667863993654514" fill="none" stroke="black" stroke-width="0.1" /><circle r="0.7940000000000005" cx="38.51619996842286" cy="70.17854473738394" fill="none" stroke="black" stroke-width="0.1" /><circle r="0.7960000000000005" cx="15.213231377855454" cy="57.44454646221171" fill="none" stroke="black" stroke-width="0.1" /><circle r="0.7980000000000005" cx="10.90971811431342" cy="31.155819720783185" fill="none" stroke="black" stroke-width="0.1" /><circle r="0.8000000000000005" cx="29.049149249862435" cy="11.533724025643892" fill="none" stroke="black" stroke-width="0.1" /><circle r="0.8020000000000005" cx="55.760508066901565" cy="13.776720066453873" fill="none" stroke="black" stroke-width="0.1" /><circle r="0.8040000000000005" cx="70.46477008997712" cy="36.2886817214328" fill="none" stroke="black" stroke-width="0.1" /><circle r="0.8060000000000005" cx="61.72943601669398" cy="61.80705930189566" fill="none" stroke="black" stroke-width="0.1" /><circle r="0.8080000000000005" cx="36.156422536988316" cy="70.63986475632392" fill="none" stroke="black" stroke-width="0.1" /><circle r="0.8100000000000005" cx="13.394288903222279" cy="55.86148675360512" fill="none" stroke="black" stroke-width="0.1" /><circle r="0.8120000000000005" cx="11.04169492826032" cy="28.741160478448595" fill="none" stroke="black" stroke-width="0.1" /><circle r="0.8140000000000005" cx="31.04113465672132" cy="10.150444613679891" fill="none" stroke="black" stroke-width="0.1" /><circle r="0.8160000000000005" cx="58.08234987390209" cy="14.500662301977627" fill="none" stroke="black" stroke-width="0.1" /><circle r="0.8180000000000005" cx="71.32246087477742" cy="38.57189995167387" fill="none" stroke="black" stroke-width="0.1" /><circle r="0.8200000000000005" cx="60.451264485632976" cy="63.89243145723513" fill="none" stroke="black" stroke-width="0.1" /><circle r="0.8220000000000005" cx="33.71888393294038" cy="70.91334025873161" fill="none" stroke="black" stroke-width="0.1" /><circle r="0.8240000000000005" cx="11.676110151886785" cy="54.10130716890957" fill="none" stroke="black" stroke-width="0.1" /><circle r="0.8260000000000005" cx="11.375811830045812" cy="26.297223762644087" fill="none" stroke="black" stroke-width="0.1" /><circle r="0.8280000000000005" cx="33.18067903975235" cy="8.90907267962054" fill="none" stroke="black" stroke-width="0.1" /><circle r="0.8300000000000005" cx="60.38272877640054" cy="15.428675399407457" fill="none" stroke="black" stroke-width="0.1" /><circle r="0.8320000000000005" cx="72.00549387131034" cy="40.963723017006586" fill="none" stroke="black" stroke-width="0.1" /><circle r="0.8340000000000005" cx="58.979686818891004" cy="65.90646084004541" fill="none" stroke="black" stroke-width="0.1" /><circle r="0.8360000000000005" cx="31.218763857861493" cy="70.98990144895578" fill="none" stroke="black" stroke-width="0.1" /><circle r="0.8380000000000005" cx="10.075202148018345" cy="52.170435428448116" fill="none" stroke="black" stroke-width="0.1" /><circle r="0.8400000000000005" cx="11.91713592346072" cy="23.841016577191176" fill="none" stroke="black" stroke-width="0.1" /><circle r="0.8420000000000005" cx="35.457448426358226" cy="7.824073436794471" fill="none" stroke="black" stroke-width="0.1" /><circle r="0.8440000000000005" cx="62.64385055015279" cy="16.56148186718418" fill="none" stroke="black" stroke-width="0.1" /><circle r="0.8460000000000005" cx="72.50235555125784" cy="43.45052294871502" fill="none" stroke="black" stroke-width="0.1" /><circle r="0.8480000000000005" cx="57.31840039118532" cy="67.83166196781252" fill="none" stroke="black" stroke-width="0.1" /><circle r="0.8500000000000005" cx="28.672163908818867" cy="70.86171988874445" fill="none" stroke="black" stroke-width="0.1" /><circle r="0.8520000000000005" cx="8.607657257761268" cy="50.076791014693185" fill="none" stroke="black" stroke-width="0.1" /><circle r="0.8540000000000005" cx="12.669300198845441" cy="21.39013505209777" fill="none" stroke="black" stroke-width="0.1" /><circle r="0.8560000000000005" cx="37.859761653198426" cy="6.909140539737109" fill="none" stroke="black" stroke-width="0.1" /><circle r="0.8580000000000005" cx="64.84770282462209" cy="17.89826501517907" fill="none" stroke="black" stroke-width="0.1" /><circle r="0.8600000000000005" cx="72.80261503177115" cy="46.01755324674493" fill="none" stroke="black" stroke-width="0.1" /><circle r="0.8620000000000005" cx="55.47265223546016" cy="69.65071766080038" fill="none" stroke="black" stroke-width="0.1" /><circle r="0.8640000000000005" cx="26.09600516771139" cy="70.52229558378073" fill="none" stroke="black" stroke-width="0.1" /><circle r="0.8660000000000005" cx="7.2890214396656035" cy="47.82975776287702" fill="none" stroke="black" stroke-width="0.1" /><circle r="0.8680000000000005" cx="13.634444229313175" cy="18.96264349061908" fill="none" stroke="black" stroke-width="0.1" /><circle r="0.8700000000000006" cx="40.37464950023097" cy="6.177074893617409" fill="none" stroke="black" stroke-width="0.1" /><circle r="0.8720000000000006" cx="66.97618718767558" cy="19.436641207830924" fill="none" stroke="black" stroke-width="0.1" /><circle r="0.8740000000000006" cx="72.89702718332757" cy="48.64903621794916" fill="none" stroke="black" stroke-width="0.1" /><circle r="0.8760000000000006" cx="53.44923339114355" cy="71.34661419022058" fill="none" stroke="black" stroke-width="0.1" /><circle r="0.8780000000000006" cx="23.507917933898415" cy="69.96653557094912" fill="none" stroke="black" stroke-width="0.1" /><circle r="0.8800000000000006" cx="6.1341643815920435" cy="45.44014502260365" fill="none" stroke="black" stroke-width="0.1" /><circle r="0.8820000000000006" cx="14.813165054640297" cy="16.576947883864584" fill="none" stroke="black" stroke-width="0.1" /><circle r="0.8840000000000006" cx="42.9879244551633" cy="5.6396681120477865" fill="none" stroke="black" stroke-width="0.1" /><circle r="0.8860000000000006" cx="69.01125415027526" cy="21.172643371197207" fill="none" stroke="black" stroke-width="0.1" /><circle r="0.8880000000000006" cx="72.77762860479692" cy="51.32825948881763" fill="none" stroke="black" stroke-width="0.1" /><circle r="0.8900000000000006" cx="51.25646162200369" cy="72.90277642923688" fill="none" stroke="black" stroke-width="0.1" /><circle r="0.8920000000000006" cx="20.926124308000535" cy="69.19082331977191" fill="none" stroke="black" stroke-width="0.1" /><circle r="0.8940000000000006" cx="5.157152501274858" cy="42.92013752768101" fill="none" stroke="black" stroke-width="0.1" /><circle r="0.8960000000000006" cx="16.20447874487916" cy="14.251664749015713" fill="none" stroke="black" stroke-width="0.1" /><circle r="0.8980000000000006" cx="45.684260734559224" cy="5.307591537894986" fill="none" stroke="black" stroke-width="0.1" /><circle r="0.9000000000000006" cx="70.9350400191733" cy="23.100716020726402" fill="none" stroke="black" stroke-width="0.1" /><text x="36" y="78" font-size="2" font-family="Arial, Helvetica, sans-serif" fill="black" stroke="none">VARICITE</text></svg>