<svg width="80" height="80" fill="none" stroke="black" viewBox="0 0 80 80"><circle r="40" cx="40" cy="40" stroke-width="0.1" /><circle r="0.2" cx="39.167706326905716" cy="41.81859485365136" fill="none" stroke="black" stroke-width="0.1" /><circle r="0.202" cx="37.906153489773246" cy="40.06951108984362" fill="none" stroke="black" stroke-width="0.1" /><circle r="0.20400000000000001" cx="38.9585729662067" cy="38.073466913524584" fill="none" stroke="black" stroke-width="0.1" /><circle r="0.20600000000000002" cx="41.31430121949632" cy="38.13081908194245" fill="none" stroke="black" stroke-width="0.1" /><circle r="0.20800000000000002" cx="42.35311742139155" cy="40.356704921669966" fill="none" stroke="black" stroke-width="0.1" /><circle r="0.21000000000000002" cx="40.7596064282465" cy="42.35555154351727" fill="none" stroke="black" stroke-width="0.1" /><circle r="0.21200000000000002" cx="38.16274374048823" cy="41.79705020433065" fill="none" stroke="black" stroke-width="0.1" /><circle r="0.21400000000000002" cx="37.48233395857475" cy="39.126167805666256" fill="none" stroke="black" stroke-width="0.1" /><circle r="0.21600000000000003" cx="39.64681361547508" cy="37.26269121621505" fill="none" stroke="black" stroke-width="0.1" /><circle r="0.21800000000000003" cx="42.37121170626402" cy="38.40991193826364" fill="none" stroke="black" stroke-width="0.1" /><circle r="0.22000000000000003" cx="42.563431377874004" cy="41.45990395948877" fill="none" stroke="black" stroke-width="0.1" /><circle r="0.22200000000000003" cx="39.83166522519798" cy="43.040343468029945" fill="none" stroke="black" stroke-width="0.1" /><circle r="0.22400000000000003" cx="37.116596548386" cy="41.24321540177898" fill="none" stroke="black" stroke-width="0.1" /><circle r="0.22600000000000003" cx="37.52850597671465" cy="37.91267101470209" fill="none" stroke="black" stroke-width="0.1" /><circle r="0.22800000000000004" cx="40.78811755033304" cy="36.76460655764139" fill="none" stroke="black" stroke-width="0.1" /><circle r="0.23000000000000004" cx="43.33985003406711" cy="39.24103573869258" fill="none" stroke="black" stroke-width="0.1" /><circle r="0.23200000000000004" cx="42.22929673341197" cy="42.7240844470021" fill="none" stroke="black" stroke-width="0.1" /><circle r="0.23400000000000004" cx="38.517475930527205" cy="43.297020986198575" fill="none" stroke="black" stroke-width="0.1" /><circle r="0.23600000000000004" cx="36.29294122025626" cy="40.147699707260685" fill="none" stroke="black" stroke-width="0.1" /><circle r="0.23800000000000004" cx="38.168407157026344" cy="36.66483993524033" fill="none" stroke="black" stroke-width="0.1" /><circle r="0.24000000000000005" cx="42.22200698052386" cy="36.79489704088881" fill="none" stroke="black" stroke-width="0.1" /><circle r="0.24200000000000005" cx="43.953762099506676" cy="40.57252970272696" fill="none" stroke="black" stroke-width="0.1" /><circle r="0.24400000000000005" cx="41.281072935984206" cy="43.88419259727023" fill="none" stroke="black" stroke-width="0.1" /><circle r="0.24600000000000005" cx="37.027688614913586" cy="42.94611439528165" fill="none" stroke="black" stroke-width="0.1" /><circle r="0.24800000000000005" cx="35.94739495528478" cy="38.623485433586424" fill="none" stroke="black" stroke-width="0.1" /><circle r="0.25000000000000006" cx="39.411366440641444" cy="35.66477964426294" fill="none" stroke="black" stroke-width="0.1" /><circle r="0.25200000000000006" cx="43.695942386341656" cy="37.485858023729925" fill="none" stroke="black" stroke-width="0.1" /><circle r="0.25400000000000006" cx="43.981705986173445" cy="42.23276564817506" fill="none" stroke="black" stroke-width="0.1" /><circle r="0.25600000000000006" cx="39.773266866887695" cy="44.65448086110031" fill="none" stroke="black" stroke-width="0.1" /><circle r="0.25800000000000006" cx="35.64616170928194" cy="41.91157451810734" fill="none" stroke="black" stroke-width="0.1" /><circle r="0.26000000000000006" cx="36.27398361048296" cy="36.895277489847054" fill="none" stroke="black" stroke-width="0.1" /><circle r="0.26200000000000007" cx="41.13843370493966" cy="35.187828587897414" fill="none" stroke="black" stroke-width="0.1" /><circle r="0.26400000000000007" cx="44.907179333567186" cy="38.85056927646285" fill="none" stroke="black" stroke-width="0.1" /><circle r="0.26600000000000007" cx="43.27841298268316" cy="43.952244085956046" fill="none" stroke="black" stroke-width="0.1" /><circle r="0.26800000000000007" cx="37.88686004079659" cy="44.784092339495324" fill="none" stroke="black" stroke-width="0.1" /><circle r="0.2700000000000001" cx="34.680745542992796" cy="40.24729945735693" fill="none" stroke="black" stroke-width="0.1" /><circle r="0.2720000000000001" cx="37.35953411805211" cy="35.26667770733186" fill="none" stroke="black" stroke-width="0.1" /><circle r="0.2740000000000001" cx="43.111999452891595" cy="35.44690386602672" fill="none" stroke="black" stroke-width="0.1" /><circle r="0.2760000000000001" cx="45.55730449057906" cy="40.76711589671305" fill="none" stroke="black" stroke-width="0.1" /><circle r="0.2780000000000001" cx="41.82283907415355" cy="45.40594882603776" fill="none" stroke="black" stroke-width="0.1" /><circle r="0.2800000000000001" cx="35.90785372152285" cy="44.11027235539758" fill="none" stroke="black" stroke-width="0.1" /><circle r="0.2820000000000001" cx="34.40574071189731" cy="38.14115949649337" fill="none" stroke="black" stroke-width="0.1" /><circle r="0.2840000000000001" cx="39.154705452337964" cy="34.06994290687747" fill="none" stroke="black" stroke-width="0.1" /><circle r="0.2860000000000001" cx="45.00845444091311" cy="36.54419197389414" fill="none" stroke="black" stroke-width="0.1" /><circle r="0.2880000000000001" cx="45.41028903741395" cy="42.98683319447846" fill="none" stroke="black" stroke-width="0.1" /><circle r="0.2900000000000001" cx="39.73628773725369" cy="46.269456183950666" fill="none" stroke="black" stroke-width="0.1" /><circle r="0.2920000000000001" cx="34.184535618480126" cy="42.59947572161651" fill="none" stroke="black" stroke-width="0.1" /><circle r="0.2940000000000001" cx="35.00590397570298" cy="35.89448786384687" fill="none" stroke="black" stroke-width="0.1" /><circle r="0.2960000000000001" cx="41.46784085428809" cy="33.60632787621364" fill="none" stroke="black" stroke-width="0.1" /><circle r="0.2980000000000001" cx="46.469404111499884" cy="38.43928367660604" fill="none" stroke="black" stroke-width="0.1" /><circle r="0.3000000000000001" cx="44.34388240015956" cy="45.166544850631226" fill="none" stroke="black" stroke-width="0.1" /><circle r="0.3020000000000001" cx="37.275944332738106" cy="46.279613500977455" fill="none" stroke="black" stroke-width="0.1" /><circle r="0.3040000000000001" cx="33.06977956750424" cy="40.368299819465385" fill="none" stroke="black" stroke-width="0.1" /><circle r="0.3060000000000001" cx="36.532058355007145" cy="33.879166253938585" fill="none" stroke="black" stroke-width="0.1" /><circle r="0.3080000000000001" cx="43.984158788592126" cy="34.08701608768601" fill="none" stroke="black" stroke-width="0.1" /><circle r="0.3100000000000001" cx="47.16353313524909" cy="40.94043501646221" fill="none" stroke="black" stroke-width="0.1" /><circle r="0.3120000000000001" cx="42.38483598269196" cy="46.920618276979134" fill="none" stroke="black" stroke-width="0.1" /><circle r="0.3140000000000001" cx="34.80338906869135" cy="45.289372347320935" fill="none" stroke="black" stroke-width="0.1" /><circle r="0.3160000000000001" cx="32.85757395745408" cy="37.67925653577098" fill="none" stroke="black" stroke-width="0.1" /><circle r="0.3180000000000001" cx="38.8768615591854" cy="32.47839212383652" fill="none" stroke="black" stroke-width="0.1" /><circle r="0.3200000000000001" cx="46.30857272370109" cy="35.585035652491115" fill="none" stroke="black" stroke-width="0.1" /><circle r="0.3220000000000001" cx="46.84899332075691" cy="43.72200423054933" fill="none" stroke="black" stroke-width="0.1" /><circle r="0.3240000000000001" cx="39.72073591421999" cy="47.88505621859434" fill="none" stroke="black" stroke-width="0.1" /><circle r="0.3260000000000001" cx="32.73191269599846" cy="43.30683110264367" fill="none" stroke="black" stroke-width="0.1" /><circle r="0.3280000000000001" cx="33.72443249666757" cy="34.91043690370992" fill="none" stroke="black" stroke-width="0.1" /><circle r="0.3300000000000001" cx="41.77629220414887" cy="32.02031259976433" fill="none" stroke="black" stroke-width="0.1" /><circle r="0.33200000000000013" cx="48.02631718362602" cy="38.00722995109077" fill="none" stroke="black" stroke-width="0.1" /><circle r="0.33400000000000013" cx="45.425566887016316" cy="46.36682408697712" fill="none" stroke="black" stroke-width="0.1" /><circle r="0.33600000000000013" cx="36.68481275034551" cy="47.78338830457072" fill="none" stroke="black" stroke-width="0.1" /><circle r="0.33800000000000013" cx="31.460256305319852" cy="40.51068838754241" fill="none" stroke="black" stroke-width="0.1" /><circle r="0.34000000000000014" cx="35.68608601720349" cy="32.50249067029372" fill="none" stroke="black" stroke-width="0.1" /><circle r="0.34200000000000014" cx="44.838366704267926" cy="32.715411292665074" fill="none" stroke="black" stroke-width="0.1" /><circle r="0.34400000000000014" cx="48.772236326782874" cy="41.09246044645605" fill="none" stroke="black" stroke-width="0.1" /><circle r="0.34600000000000014" cx="42.966993016140464" cy="48.427999610950025" fill="none" stroke="black" stroke-width="0.1" /><circle r="0.34800000000000014" cx="33.71444331896914" cy="46.48326130967651" fill="none" stroke="black" stroke-width="0.1" /><circle r="0.35000000000000014" cx="31.303098005447378" cy="37.237841297617635" fill="none" stroke="black" stroke-width="0.1" /><circle r="0.35200000000000015" cx="38.57786753716667" cy="30.89033813700225" fill="none" stroke="black" stroke-width="0.1" /><circle r="0.35400000000000015" cx="47.596123170319025" cy="34.60851247044542" fill="none" stroke="black" stroke-width="0.1" /><circle r="0.35600000000000015" cx="48.29763072342499" cy="44.43817804709024" fill="none" stroke="black" stroke-width="0.1" /><circle r="0.35800000000000015" cx="39.72661758897253" cy="49.50106767986319" fill="none" stroke="black" stroke-width="0.1" /><circle r="0.36000000000000015" cx="31.288486580162555" cy="44.033551033021915" fill="none" stroke="black" stroke-width="0.1" /><circle r="0.36200000000000015" cx="32.429735786866644" cy="33.94325791011764" fill="none" stroke="black" stroke-width="0.1" /><circle r="0.36400000000000016" cx="42.063742803166996" cy="30.429991345752263" fill="none" stroke="black" stroke-width="0.1" /><circle r="0.36600000000000016" cx="49.57771182099817" cy="37.55446094410412" fill="none" stroke="black" stroke-width="0.1" /><circle r="0.36800000000000016" cx="46.52332690783135" cy="47.55292036589581" fill="none" stroke="black" stroke-width="0.1" /><circle r="0.37000000000000016" cx="36.11354750037129" cy="49.29521984506714" fill="none" stroke="black" stroke-width="0.1" /><circle r="0.37200000000000016" cx="29.852388654339578" cy="40.67445087102324" fill="none" stroke="black" stroke-width="0.1" /><circle r="0.37400000000000017" cx="34.82172488980002" cy="31.136835109111217" fill="none" stroke="black" stroke-width="0.1" /><circle r="0.37600000000000017" cx="45.67450648994034" cy="31.33226811122857" fill="none" stroke="black" stroke-width="0.1" /><circle r="0.37800000000000017" cx="50.38320212660314" cy="41.223167444835035" fill="none" stroke="black" stroke-width="0.1" /><circle r="0.38000000000000017" cx="43.56923774877323" cy="49.92789211729924" fill="none" stroke="black" stroke-width="0.1" /><circle r="0.3820000000000002" cx="32.64116377812741" cy="47.69178486826407" fill="none" stroke="black" stroke-width="0.1" /><circle r="0.3840000000000002" cx="29.742516738916063" cy="36.81697672823727" fill="none" stroke="black" stroke-width="0.1" /><circle r="0.3860000000000002" cx="38.25775802728066" cy="29.30599149483715" fill="none" stroke="black" stroke-width="0.1" /><circle r="0.3880000000000002" cx="48.87093281108157" cy="33.61474737686309" fill="none" stroke="black" stroke-width="0.1" /><circle r="0.3900000000000002" cx="49.75601224447977" cy="45.135255600801294" fill="none" stroke="black" stroke-width="0.1" /><circle r="0.3920000000000002" cx="39.7539370654432" cy="51.11727723105967" fill="none" stroke="black" stroke-width="0.1" /><circle r="0.3940000000000002" cx="29.854450113367662" cy="44.77954417260212" fill="none" stroke="black" stroke-width="0.1" /><circle r="0.3960000000000002" cx="31.12198163679779" cy="32.99308270759211" fill="none" stroke="black" stroke-width="0.1" /><circle r="0.3980000000000002" cx="42.330149546222756" cy="28.835573096112896" fill="none" stroke="black" stroke-width="0.1" /><circle r="0.4000000000000002" cx="51.123381765149176" cy="37.0810313282347" fill="none" stroke="black" stroke-width="0.1" /><circle r="0.4020000000000002" cx="47.63702150077796" cy="48.72467349513181" fill="none" stroke="black" stroke-width="0.1" /><circle r="0.4040000000000002" cx="35.562229046233576" cy="50.814910492551824" fill="none" stroke="black" stroke-width="0.1" /><circle r="0.4060000000000002" cx="28.24638938320418" cy="40.859571095805926" fill="none" stroke="black" stroke-width="0.1" /><circle r="0.4080000000000002" cx="33.939084385948064" cy="29.782382767037028" fill="none" stroke="black" stroke-width="0.1" /><circle r="0.4100000000000002" cx="46.49246301763066" cy="29.93776620403309" fill="none" stroke="black" stroke-width="0.1" /><circle r="0.4120000000000002" cx="51.99621837983662" cy="41.33253314528033" fill="none" stroke="black" stroke-width="0.1" /><circle r="0.4140000000000002" cx="44.1914959798499" cy="51.420095728622535" fill="none" stroke="black" stroke-width="0.1" /><circle r="0.4160000000000002" cx="31.58369638429773" cy="48.91478734734135" fill="none" stroke="black" stroke-width="0.1" /><circle r="0.4180000000000002" cx="28.176034595502216" cy="36.41672396915335" fill="none" stroke="black" stroke-width="0.1" /><circle r="0.4200000000000002" cx="37.91656953306923" cy="27.72556243693972" fill="none" stroke="black" stroke-width="0.1" /><circle r="0.4220000000000002" cx="50.132829783741215" cy="32.603866849918965" fill="none" stroke="black" stroke-width="0.1" /><circle r="0.4240000000000002" cx="51.22394800865965" cy="45.813139521713346" fill="none" stroke="black" stroke-width="0.1" /><circle r="0.4260000000000002" cx="39.80269675992073" cy="52.73347149961293" fill="none" stroke="black" stroke-width="0.1" /><circle r="0.4280000000000002" cx="28.42999532789355" cy="45.544717475889605" fill="none" stroke="black" stroke-width="0.1" /><circle r="0.4300000000000002" cx="29.80133900169804" cy="32.06004163476186" fill="none" stroke="black" stroke-width="0.1" /><circle r="0.4320000000000002" cx="42.575471177670074" cy="27.237267212191917" fill="none" stroke="black" stroke-width="0.1" /><circle r="0.4340000000000002" cx="52.663121243249854" cy="36.58699760053483" fill="none" stroke="black" stroke-width="0.1" /><circle r="0.4360000000000002" cx="48.766508287911705" cy="49.881924531080784" fill="none" stroke="black" stroke-width="0.1" /><circle r="0.4380000000000002" cx="35.03093610203728" cy="52.342261906877695" fill="none" stroke="black" stroke-width="0.1" /><circle r="0.4400000000000002" cx="26.642471115673544" cy="41.06603100535834" fill="none" stroke="black" stroke-width="0.1" /><circle r="0.4420000000000002" cx="33.03827553883125" cy="28.43931587116206" fill="none" stroke="black" stroke-width="0.1" /><circle r="0.44400000000000023" cx="47.29212274987898" cy="28.532086248985898" fill="none" stroke="black" stroke-width="0.1" /><circle r="0.44600000000000023" cx="53.61107273087558" cy="41.42053655877496" fill="none" stroke="black" stroke-width="0.1" /><circle r="0.44800000000000023" cx="44.83369173898228" cy="52.90441103547525" fill="none" stroke="black" stroke-width="0.1" /><circle r="0.45000000000000023" cx="30.54218569719935" cy="50.152111780991206" fill="none" stroke="black" stroke-width="0.1" /><circle r="0.45200000000000023" cx="26.603856552471683" cy="36.037142352639314" fill="none" stroke="black" stroke-width="0.1" /><circle r="0.45400000000000024" cx="37.5543404180234" cy="26.149260878599762" fill="none" stroke="black" stroke-width="0.1" /><circle r="0.45600000000000024" cx="51.38164334615329" cy="31.575998887644566" fill="none" stroke="black" stroke-width="0.1" /><circle r="0.45800000000000024" cx="52.701247280274856" cy="46.47173412041252" fill="none" stroke="black" stroke-width="0.1" /><circle r="0.46000000000000024" cx="39.87289720078442" cy="54.34943709273756" fill="none" stroke="black" stroke-width="0.1" /><circle r="0.46200000000000024" cx="27.015313431771872" cy="46.32897619879212" fill="none" stroke="black" stroke-width="0.1" /><circle r="0.46400000000000025" cx="28.467977989199305" cy="31.144263534724548" fill="none" stroke="black" stroke-width="0.1" /><circle r="0.46600000000000025" cx="42.79966829445377" cy="25.63528341939767" fill="none" stroke="black" stroke-width="0.1" /><circle r="0.46800000000000025" cx="54.19672498323524" cy="36.07241807846284" fill="none" stroke="black" stroke-width="0.1" /><circle r="0.47000000000000025" cx="49.91164348555046" cy="51.02451579051644" fill="none" stroke="black" stroke-width="0.1" /><circle r="0.47200000000000025" cx="34.519745626710225" cy="53.877075052187315" fill="none" stroke="black" stroke-width="0.1" /><circle r="0.47400000000000025" cx="25.04084631501409" cy="41.29381066194931" fill="none" stroke="black" stroke-width="0.1" /><circle r="0.47600000000000026" cx="32.119410993597874" cy="27.107815665598974" fill="none" stroke="black" stroke-width="0.1" /><circle r="0.47800000000000026" cx="48.073373748157906" cy="27.115409928035895" fill="none" stroke="black" stroke-width="0.1" /><circle r="0.48000000000000026" cx="55.22755263895319" cy="41.48715857524041" fill="none" stroke="black" stroke-width="0.1" /><circle r="0.48200000000000026" cx="45.495747291618855" cy="54.38063930104171" fill="none" stroke="black" stroke-width="0.1" /><circle r="0.48400000000000026" cx="29.516774887457657" cy="51.40359992457483" fill="none" stroke="black" stroke-width="0.1" /><circle r="0.48600000000000027" cx="25.026188111698332" cy="35.678289397269054" fill="none" stroke="black" stroke-width="0.1" /><circle r="0.48800000000000027" cx="37.17111090286613" cy="24.577296395374816" fill="none" stroke="black" stroke-width="0.1" /><circle r="0.49000000000000027" cx="52.61720388886713" cy="30.531272998614988" fill="none" stroke="black" stroke-width="0.1" /><circle r="0.49200000000000027" cx="54.187718477159954" cy="47.11094539515356" fill="none" stroke="black" stroke-width="0.1" /><circle r="0.49400000000000027" cx="39.96453702836307" cy="55.96496061309405" fill="none" stroke="black" stroke-width="0.1" /><circle r="0.4960000000000003" cx="25.610594794707758" cy="47.13222390548068" fill="none" stroke="black" stroke-width="0.1" /><circle r="0.4980000000000003" cx="27.122069846907102" cy="30.245875745508354" fill="none" stroke="black" stroke-width="0.1" /><circle r="0.5000000000000002" cx="43.00270334910432" cy="24.02983179182889" fill="none" stroke="black" stroke-width="0.1" /><circle r="0.5020000000000002" cx="55.723988228898136" cy="35.537352895704814" fill="none" stroke="black" stroke-width="0.1" /><circle r="0.5040000000000002" cx="51.07228191474796" cy="52.15229086223444" fill="none" stroke="black" stroke-width="0.1" /><circle r="0.5060000000000002" cx="34.02873281825524" cy="55.41915021148116" fill="none" stroke="black" stroke-width="0.1" /><circle r="0.5080000000000002" cx="23.44172726839627" cy="41.542888248004296" fill="none" stroke="black" stroke-width="0.1" /><circle r="0.5100000000000002" cx="31.1826049991865" cy="25.788062398123525" fill="none" stroke="black" stroke-width="0.1" /><circle r="0.5120000000000002" cx="48.83610568118096" cy="25.68791991389781" fill="none" stroke="black" stroke-width="0.1" /><circle r="0.5140000000000002" cx="56.84544539373162" cy="41.532381965049" fill="none" stroke="black" stroke-width="0.1" /><circle r="0.5160000000000002" cx="46.177583144645844" cy="55.848582475760686" fill="none" stroke="black" stroke-width="0.1" /><circle r="0.5180000000000002" cx="28.50760572601406" cy="52.669092266269764" fill="none" stroke="black" stroke-width="0.1" /><circle r="0.5200000000000002" cx="23.44323528461318" cy="35.34022080358702" fill="none" stroke="black" stroke-width="0.1" /><circle r="0.5220000000000002" cx="36.76692306271234" cy="23.009878207688452" fill="none" stroke="black" stroke-width="0.1" /><circle r="0.5240000000000002" cx="53.83934294764276" cy="29.469820192535575" fill="none" stroke="black" stroke-width="0.1" /><circle r="0.5260000000000002" cx="55.68316918468272" cy="47.730681038861945" fill="none" stroke="black" stroke-width="0.1" /><circle r="0.5280000000000002" cx="40.07761299491853" cy="57.579828674450184" fill="none" stroke="black" stroke-width="0.1" /><circle r="0.5300000000000002" cx="24.216028934056254" cy="47.95436247536229" fill="none" stroke="black" stroke-width="0.1" /><circle r="0.5320000000000003" cx="25.763786949903484" cy="29.36500409063254" fill="none" stroke="black" stroke-width="0.1" /><circle r="0.5340000000000003" cx="43.18454065261014" cy="22.421122736878946" fill="none" stroke="black" stroke-width="0.1" /><circle r="0.5360000000000003" cx="57.24470675494918" cy="34.981863997876175" fill="none" stroke="black" stroke-width="0.1" /><circle r="0.5380000000000003" cx="52.24827701185985" cy="53.26509461861266" fill="none" stroke="black" stroke-width="0.1" /><circle r="0.5400000000000003" cx="33.55797110811835" cy="56.96828700123153" fill="none" stroke="black" stroke-width="0.1" /><circle r="0.5420000000000003" cx="21.845326071303173" cy="41.81324006758526" fill="none" stroke="black" stroke-width="0.1" /><circle r="0.5440000000000003" cx="30.22797340004529" cy="24.480235306881152" fill="none" stroke="black" stroke-width="0.1" /><circle r="0.5460000000000003" cx="49.58020983310502" cy="24.249799856710435" fill="none" stroke="black" stroke-width="0.1" /><circle r="0.5480000000000003" cx="58.46453813090193" cy="41.55619138041233" fill="none" stroke="black" stroke-width="0.1" /><circle r="0.5500000000000003" cx="46.87911805210483" cy="57.308043211906025" fill="none" stroke="black" stroke-width="0.1" /><circle r="0.5520000000000003" cx="27.51481857362788" cy="53.94842803869215" fill="none" stroke="black" stroke-width="0.1" /><circle r="0.5540000000000003" cx="21.855204577119196" cy="35.02299044989822" fill="none" stroke="black" stroke-width="0.1" /><circle r="0.5560000000000003" cx="36.34182082410622" cy="21.447215165451368" fill="none" stroke="black" stroke-width="0.1" /><circle r="0.5580000000000003" cx="55.04789321589257" cy="28.39177297072913" fill="none" stroke="black" stroke-width="0.1" /><circle r="0.5600000000000003" cx="57.187406169808646" cy="48.33085044602435" fill="none" stroke="black" stroke-width="0.1" /><circle r="0.5620000000000003" cx="40.21211996475411" cy="59.19382791734242" fill="none" stroke="black" stroke-width="0.1" /><circle r="0.5640000000000003" cx="22.831804500854474" cy="48.795292110164375" fill="none" stroke="black" stroke-width="0.1" /><circle r="0.5660000000000003" cx="24.393302788174985" cy="28.501772869767546" fill="none" stroke="black" stroke-width="0.1" /><circle r="0.5680000000000003" cx="43.34514637716715" cy="20.80936697981732" fill="none" stroke="black" stroke-width="0.1" /><circle r="0.5700000000000003" cx="58.75867688204238" cy="34.40601513810335" fill="none" stroke="black" stroke-width="0.1" /><circle r="0.5720000000000003" cx="53.43948083920162" cy="54.36277322708719" fill="none" stroke="black" stroke-width="0.1" /><circle r="0.5740000000000003" cx="33.107532155673404" cy="58.524284386041046" fill="none" stroke="black" stroke-width="0.1" /><circle r="0.5760000000000003" cx="20.25185461195109" cy="42.1048405479947" fill="none" stroke="black" stroke-width="0.1" /><circle r="0.5780000000000003" cx="29.25563362774562" cy="23.184512607159753" fill="none" stroke="black" stroke-width="0.1" /><circle r="0.5800000000000003" cx="50.30557911162646" cy="22.80123437062972" fill="none" stroke="black" stroke-width="0.1" /><circle r="0.5820000000000003" cx="60.084617847794746" cy="41.55857335664528" fill="none" stroke="black" stroke-width="0.1" /><circle r="0.5840000000000003" cx="47.60026902102622" cy="58.75882487812147" fill="none" stroke="black" stroke-width="0.1" /><circle r="0.5860000000000003" cx="26.53855237047103" cy="55.241445230602274" fill="none" stroke="black" stroke-width="0.1" /><circle r="0.5880000000000003" cx="20.262302974472906" cy="34.72665038817843" fill="none" stroke="black" stroke-width="0.1" /><circle r="0.5900000000000003" cx="35.895849961936264" cy="19.889515732706453" fill="none" stroke="black" stroke-width="0.1" /><circle r="0.5920000000000003" cx="56.242688557046826" cy="27.297265316524168" fill="none" stroke="black" stroke-width="0.1" /><circle r="0.5940000000000003" cx="58.700235395220005" cy="48.91136471946696" fill="none" stroke="black" stroke-width="0.1" /><circle r="0.5960000000000003" cx="40.36805091444753" cy="60.806745024735946" fill="none" stroke="black" stroke-width="0.1" /><circle r="0.5980000000000003" cx="21.458109265910462" cy="49.65491134113018" fill="none" stroke="black" stroke-width="0.1" /><circle r="0.6000000000000003" cx="23.01079195396644" cy="27.65630484949551" fill="none" stroke="black" stroke-width="0.1" /><circle r="0.6020000000000003" cx="43.484488558805594" cy="19.194775548349583" fill="none" stroke="black" stroke-width="0.1" /><circle r="0.6040000000000003" cx="60.26569549176537" cy="33.80987187248597" fill="none" stroke="black" stroke-width="0.1" /><circle r="0.6060000000000003" cx="54.645744095797795" cy="55.44517416154326" fill="none" stroke="black" stroke-width="0.1" /><circle r="0.6080000000000003" cx="32.67748584282356" cy="60.08694069334477" fill="none" stroke="black" stroke-width="0.1" /><circle r="0.6100000000000003" cx="18.66152455572313" cy="42.41766224150362" fill="none" stroke="black" stroke-width="0.1" /><circle r="0.6120000000000003" cx="28.26570469249048" cy="21.901071478229454" fill="none" stroke="black" stroke-width="0.1" /><circle r="0.6140000000000003" cx="51.012108055970394" cy="21.34240902035766" fill="none" stroke="black" stroke-width="0.1" /><circle r="0.6160000000000003" cx="61.70547141900089" cy="41.53951631330582" fill="none" stroke="black" stroke-width="0.1" /><circle r="0.6180000000000003" cx="48.340951317378526" cy="60.20073157390891" fill="none" stroke="black" stroke-width="0.1" /><circle r="0.6200000000000003" cx="25.578944625815964" cy="56.5479805986929" fill="none" stroke="black" stroke-width="0.1" /><circle r="0.6220000000000003" cx="18.66473792613359" cy="34.45125084010489" fill="none" stroke="black" stroke-width="0.1" /><circle r="0.6240000000000003" cx="35.429058096227976" cy="18.3369879722985" fill="none" stroke="black" stroke-width="0.1" /><circle r="0.6260000000000003" cx="57.423564016842704" cy="26.18643268554488" fill="none" stroke="black" stroke-width="0.1" /><circle r="0.6280000000000003" cx="60.221462033488734" cy="49.47213667702132" fill="none" stroke="black" stroke-width="0.1" /><circle r="0.6300000000000003" cx="40.54539693320873" cy="62.41836673768286" fill="none" stroke="black" stroke-width="0.1" /><circle r="0.6320000000000003" cx="20.09513010594947" cy="50.533117036324974" fill="none" stroke="black" stroke-width="0.1" /><circle r="0.6340000000000003" cx="21.616430129061335" cy="26.828721254171455" fill="none" stroke="black" stroke-width="0.1" /><circle r="0.6360000000000003" cx="43.60253709989386" cy="17.577559757156518" fill="none" stroke="black" stroke-width="0.1" /><circle r="0.6380000000000003" cx="61.76556004159315" cy="33.19350155543965" fill="none" stroke="black" stroke-width="0.1" /><circle r="0.6400000000000003" cx="55.86691612822166" cy="56.51214621362038" fill="none" stroke="black" stroke-width="0.1" /><circle r="0.6420000000000003" cx="32.26790026871988" cy="61.65605362815525" fill="none" stroke="black" stroke-width="0.1" /><circle r="0.6440000000000003" cx="17.074547329616767" cy="42.751675827203606" fill="none" stroke="black" stroke-width="0.1" /><circle r="0.6460000000000004" cx="27.258307174518183" cy="20.630088050250112" fill="none" stroke="black" stroke-width="0.1" /><circle r="0.6480000000000004" cx="51.69969284477255" cy="19.87351030760763" fill="none" stroke="black" stroke-width="0.1" /><circle r="0.6500000000000004" cx="63.32688561200072" cy="41.49901055521027" fill="none" stroke="black" stroke-width="0.1" /><circle r="0.6520000000000004" cx="49.10107847213282" cy="61.63356814406904" fill="none" stroke="black" stroke-width="0.1" /><circle r="0.6540000000000004" cx="24.63613140781768" cy="57.867869679459595" fill="none" stroke="black" stroke-width="0.1" /><circle r="0.6560000000000004" cx="17.062717330581034" cy="34.19684019320764" fill="none" stroke="black" stroke-width="0.1" /><circle r="0.6580000000000004" cx="34.941494688814544" cy="16.78983953056967" fill="none" stroke="black" stroke-width="0.1" /><circle r="0.6600000000000004" cx="58.59035583553617" cy="25.059411995903773" fill="none" stroke="black" stroke-width="0.1" /><circle r="0.6620000000000004" cx="61.750890481302" cy="50.013080858077785" fill="none" stroke="black" stroke-width="0.1" /><circle r="0.6640000000000004" cx="40.74414722336158" cy="64.02847987097729" fill="none" stroke="black" stroke-width="0.1" /><circle r="0.6660000000000004" cx="18.743052989818214" cy="51.429804408051844" fill="none" stroke="black" stroke-width="0.1" /><circle r="0.6680000000000004" cx="20.210394071989924" cy="26.019141756885375" fill="none" stroke="black" stroke-width="0.1" /><circle r="0.6700000000000004" cx="43.699263771519774" cy="15.957931192413604" fill="none" stroke="black" stroke-width="0.1" /><circle r="0.6720000000000004" cx="63.258068579805" cy="32.55697333492046" fill="none" stroke="black" stroke-width="0.1" /><circle r="0.6740000000000004" cx="57.10284494152447" cy="57.56353950393168" fill="none" stroke="black" stroke-width="0.1" /><circle r="0.6760000000000004" cx="31.878841744596716" cy="63.23142028784922" fill="none" stroke="black" stroke-width="0.1" /><circle r="0.6780000000000004" cx="15.491134106706163" cy="43.106850112981874" fill="none" stroke="black" stroke-width="0.1" /><circle r="0.6800000000000004" cx="26.233563215402448" cy="19.37173739124701" fill="none" stroke="black" stroke-width="0.1" /><circle r="0.6820000000000004" cx="52.368231303853925" cy="18.394725657507493" fill="none" stroke="black" stroke-width="0.1" /><circle r="0.6840000000000004" cx="64.9486471028016" cy="41.43704827332498" fill="none" stroke="black" stroke-width="0.1" /><circle r="0.6860000000000004" cx="49.88056228744156" cy="63.05714019309386" fill="none" stroke="black" stroke-width="0.1" /><circle r="0.6880000000000004" cx="23.710247333389734" cy="59.20094680115178" fill="none" stroke="black" stroke-width="0.1" /><circle r="0.6900000000000004" cx="15.456449520102925" cy="33.96346499714108" fill="none" stroke="black" stroke-width="0.1" /><circle r="0.6920000000000004" cx="34.43321103988639" cy="15.248277622081446" fill="none" stroke="black" stroke-width="0.1" /><circle r="0.6940000000000004" cx="59.74290146003357" cy="23.91634161829464" fill="none" stroke="black" stroke-width="0.1" /><circle r="0.6960000000000004" cx="63.288324373741204" cy="50.534113530022736" fill="none" stroke="black" stroke-width="0.1" /><circle r="0.6980000000000004" cx="40.96428910095365" cy="65.63687132880645" fill="none" stroke="black" stroke-width="0.1" /><circle r="0.7000000000000004" cx="17.40206296474997" cy="52.344867020380235" fill="none" stroke="black" stroke-width="0.1" /><circle r="0.7020000000000004" cx="18.792861605163537" cy="25.227684470529013" fill="none" stroke="black" stroke-width="0.1" /><circle r="0.7040000000000004" cx="43.774642215745374" cy="14.336101696291166" fill="none" stroke="black" stroke-width="0.1" /><circle r="0.7060000000000004" cx="64.7430197603621" cy="31.90035814752731" fill="none" stroke="black" stroke-width="0.1" /><circle r="0.7080000000000004" cx="58.35337721025628" cy="58.59920549319356" fill="none" stroke="black" stroke-width="0.1" /><circle r="0.7100000000000004" cx="31.51037478872819" cy="64.8128371769964" fill="none" stroke="black" stroke-width="0.1" /><circle r="0.7120000000000004" cx="13.911495790620826" cy="43.48315203762357" fill="none" stroke="black" stroke-width="0.1" /><circle r="0.7140000000000004" cx="25.191596509245993" cy="18.12619349415789" fill="none" stroke="black" stroke-width="0.1" /><circle r="0.7160000000000004" cx="53.01762291388405" cy="16.906243404939143" fill="none" stroke="black" stroke-width="0.1" /><circle r="0.7180000000000004" cx="66.57054249158234" cy="41.353623545529864" fill="none" stroke="black" stroke-width="0.1" /><circle r="0.7200000000000004" cx="50.67931284293522" cy="64.47125409950857" fill="none" stroke="black" stroke-width="0.1" /><circle r="0.7220000000000004" cx="22.801425558178263" cy="60.54704509580664" fill="none" stroke="black" stroke-width="0.1" /><circle r="0.7240000000000004" cx="13.846143245551882" cy="33.7511699600802" fill="none" stroke="black" stroke-width="0.1" /><circle r="0.7260000000000004" cx="33.904260284415635" cy="13.712509014364969" fill="none" stroke="black" stroke-width="0.1" /><circle r="0.7280000000000004" cx="60.88103955594842" cy="22.757361365994093" fill="none" stroke="black" stroke-width="0.1" /><circle r="0.7300000000000004" cx="64.83356659860937" cy="51.03515269456787" fill="none" stroke="black" stroke-width="0.1" /><circle r="0.7320000000000004" cx="41.20580799648397" cy="67.24332812039694" fill="none" stroke="black" stroke-width="0.1" /><circle r="0.7340000000000004" cx="16.072344142686497" cy="53.27819679677802" fill="none" stroke="black" stroke-width="0.1" /><circle r="0.7360000000000004" cx="17.36401160194169" cy="24.45446593895968" fill="none" stroke="black" stroke-width="0.1" /><circle r="0.7380000000000004" cx="43.82864794774472" cy="12.71228335143768" fill="none" stroke="black" stroke-width="0.1" /><circle r="0.7400000000000004" cx="66.2202128577481" cy="31.223728713492477" fill="none" stroke="black" stroke-width="0.1" /><circle r="0.7420000000000004" cx="59.61835828957064" cy="59.61899699327237" fill="none" stroke="black" stroke-width="0.1" /><circle r="0.7440000000000004" cx="31.16256212149631" cy="66.40010022222611" fill="none" stroke="black" stroke-width="0.1" /><circle r="0.7460000000000004" cx="12.33584300004021" cy="43.88054667303082" fill="none" stroke="black" stroke-width="0.1" /><circle r="0.7480000000000004" cx="24.132532293776734" cy="16.893629263946348" fill="none" stroke="black" stroke-width="0.1" /><circle r="0.7500000000000004" cx="53.64776881794143" cy="15.40825278082055" fill="none" stroke="black" stroke-width="0.1" /><circle r="0.7520000000000004" cx="68.19235831834338" cy="41.248732337264265" fill="none" stroke="black" stroke-width="0.1" /><circle r="0.7540000000000004" cx="51.49723850212658" cy="65.8757170301658" fill="none" stroke="black" stroke-width="0.1" /><circle r="0.7560000000000004" cx="21.9097977666265" cy="61.905996511358325" fill="none" stroke="black" stroke-width="0.1" /><circle r="0.7580000000000005" cx="12.2320076610755" cy="33.55999794523134" fill="none" stroke="black" stroke-width="0.1" /><circle r="0.7600000000000005" cx="33.35469738846598" cy="12.18274001269835" fill="none" stroke="black" stroke-width="0.1" /><circle r="0.7620000000000005" cx="62.00461001957436" cy="21.58261248476207" fill="none" stroke="black" stroke-width="0.1" /><circle r="0.7640000000000005" cx="66.38641931081159" cy="51.516118093959584" fill="none" stroke="black" stroke-width="0.1" /><circle r="0.7660000000000005" cx="41.4686874557619" cy="68.8476373756549" fill="none" stroke="black" stroke-width="0.1" /><circle r="0.7680000000000005" cx="14.75407968666396" cy="54.22968402785812" fill="none" stroke="black" stroke-width="0.1" /><circle r="0.7700000000000005" cx="15.924023973625104" cy="23.699601128272505" fill="none" stroke="black" stroke-width="0.1" /><circle r="0.7720000000000005" cx="43.86125835781172" cy="11.086688465445146" fill="none" stroke="black" stroke-width="0.1" /><circle r="0.7740000000000005" cx="67.68944778176773" cy="30.527159531547476" fill="none" stroke="black" stroke-width="0.1" /><circle r="0.7760000000000005" cx="60.89763222642168" cy="60.62276817813786" fill="none" stroke="black" stroke-width="0.1" /><circle r="0.7780000000000005" cx="30.835464660583888" cy="67.99300478713542" fill="none" stroke="black" stroke-width="0.1" /><circle r="0.7800000000000005" cx="10.764386053206955" cy="44.29899722657195" fill="none" stroke="black" stroke-width="0.1" /><circle r="0.7820000000000005" cx="23.056497341335763" cy="15.67421650479" fill="none" stroke="black" stroke-width="0.1" /><circle r="0.7840000000000005" cx="54.2585718289588" cy="13.900943898324297" fill="none" stroke="black" stroke-width="0.1" /><circle r="0.7860000000000005" cx="69.81388107856229" cy="41.1223725020414" fill="none" stroke="black" stroke-width="0.1" /><circle r="0.7880000000000005" cx="52.33424591893526" cy="67.27033695448631" fill="none" stroke="black" stroke-width="0.1" /><circle r="0.7900000000000005" cx="21.035494162141088" cy="63.27763182383054" fill="none" stroke="black" stroke-width="0.1" /><circle r="0.7920000000000005" cx="10.614252308817058" cy="33.389989967471365" fill="none" stroke="black" stroke-width="0.1" /><circle r="0.7940000000000005" cx="32.78457914537459" cy="10.659176444915023" fill="none" stroke="black" stroke-width="0.1" /><circle r="0.7960000000000005" cx="63.11345398977973" cy="20.392237642649583" fill="none" stroke="black" stroke-width="0.1" /><circle r="0.7980000000000005" cx="67.94668394678351" cy="51.97693121707668" fill="none" stroke="black" stroke-width="0.1" /><circle r="0.8000000000000005" cx="41.75290914088736" cy="70.44958636079949" fill="none" stroke="black" stroke-width="0.1" /><circle r="0.8020000000000005" cx="13.447451797259045" cy="55.19921737923077" fill="none" stroke="black" stroke-width="0.1" /><circle r="0.8040000000000005" cx="14.473079656381152" cy="22.963203418173634" fill="none" stroke="black" stroke-width="0.1" /><circle r="0.8060000000000005" cx="43.87245271324737" cy="9.459529555299003" fill="none" stroke="black" stroke-width="0.1" /><circle r="0.8080000000000005" cx="69.15052509230546" cy="29.81072687367434" fill="none" stroke="black" stroke-width="0.1" /><circle r="0.8100000000000005" cx="62.1910417708464" cy="61.61037459472978" fill="none" stroke="black" stroke-width="0.1" /><circle r="0.8120000000000005" cx="30.529141516282998" cy="69.59134568723425" fill="none" stroke="black" stroke-width="0.1" /><circle r="0.8140000000000005" cx="9.197334952458416" cy="44.7384650435507" fill="none" stroke="black" stroke-width="0.1" /><circle r="0.8160000000000005" cx="21.963619949766127" cy="14.468125907338546" fill="none" stroke="black" stroke-width="0.1" /><circle r="0.8180000000000005" cx="54.849936437061515" cy="12.3845077390385" fill="none" stroke="black" stroke-width="0.1" /><circle r="0.8200000000000005" cx="71.43489723885328" cy="40.97454378184155" fill="none" stroke="black" stroke-width="0.1" /><circle r="0.8220000000000005" cx="53.19024004432246" cy="68.65492265864879" fill="none" stroke="black" stroke-width="0.1" /><circle r="0.8240000000000005" cx="20.17864345735284" cy="64.66178064960538" fill="none" stroke="black" stroke-width="0.1" /><circle r="0.8260000000000005" cx="8.993087103590288" cy="33.24118519010528" fill="none" stroke="black" stroke-width="0.1" /><circle r="0.8280000000000005" cx="32.19396417181644" cy="9.14202364624171" fill="none" stroke="black" stroke-width="0.1" /><circle r="0.8300000000000005" cx="64.20741385982052" cy="19.18638091971124" fill="none" stroke="black" stroke-width="0.1" /><circle r="0.8320000000000005" cx="69.51416123896857" cy="52.41751530541259" fill="none" stroke="black" stroke-width="0.1" /><circle r="0.8340000000000005" cx="42.05845283135612" cy="72.04896249398837" fill="none" stroke="black" stroke-width="0.1" /><circle r="0.8360000000000005" cx="12.152641699097934" cy="56.18668389946414" fill="none" stroke="black" stroke-width="0.1" /><circle r="0.8380000000000005" cx="13.011360598100264" cy="22.245384593458073" fill="none" stroke="black" stroke-width="0.1" /><circle r="0.8400000000000005" cx="43.86221216012263" cy="7.831019331812961" fill="none" stroke="black" stroke-width="0.1" /><circle r="0.8420000000000005" cx="70.60324601404211" cy="29.07450877973874" fill="none" stroke="black" stroke-width="0.1" /><circle r="0.8440000000000005" cx="63.49842838733365" cy="62.58167317373412" fill="none" stroke="black" stroke-width="0.1" /><circle r="0.8460000000000005" cx="30.243649986923124" cy="71.1949172049282" fill="none" stroke="black" stroke-width="0.1" /><circle r="0.8480000000000005" cx="7.634899368777994" cy="45.198909609799294" fill="none" stroke="black" stroke-width="0.1" /><circle r="0.8500000000000005" cx="20.8540299331996" cy="13.275527036044785" fill="none" stroke="black" stroke-width="0.1" /><circle r="0.8520000000000005" cx="55.4217688167952" cy="10.859136139069019" fill="none" stroke="black" stroke-width="0.1" /><circle r="0.8540000000000005" cx="73.05519325262976" cy="40.80524780737978" fill="none" stroke="black" stroke-width="0.1" /><circle r="0.8560000000000005" cx="54.06512413303926" cy="70.02928375972671" fill="none" stroke="black" stroke-width="0.1" /><circle r="0.8580000000000005" cx="19.339372864475767" cy="66.05827145776998" fill="none" stroke="black" stroke-width="0.1" /><circle r="0.8600000000000005" cx="7.368722317528196" cy="33.11362092174653" fill="none" stroke="black" stroke-width="0.1" /><circle r="0.8620000000000005" cx="31.582912903747175" cy="7.63148644416794" fill="none" stroke="black" stroke-width="0.1" /><circle r="0.8640000000000005" cx="65.28633328907137" cy="17.965187797623717" fill="none" stroke="black" stroke-width="0.1" /><circle r="0.8660000000000005" cx="71.088651230343" cy="52.83779535894234" fill="none" stroke="black" stroke-width="0.1" /><circle r="0.8680000000000005" cx="42.38529642528957" cy="73.64555336093449" fill="none" stroke="black" stroke-width="0.1" /><circle r="0.8700000000000006" cx="10.86982962742865" cy="57.19196902815252" fill="none" stroke="black" stroke-width="0.1" /><circle r="0.8720000000000006" cx="11.539049745184453" cy="21.546254835592205" fill="none" stroke="black" stroke-width="0.1" /><circle r="0.8740000000000006" cx="43.83051972491727" cy="6.201370684049792" fill="none" stroke="black" stroke-width="0.1" /><circle r="0.8760000000000006" cx="72.04741245112885" cy="28.318585052005904" fill="none" stroke="black" stroke-width="0.1" /><circle r="0.8780000000000006" cx="64.819632266279" cy="63.536522240268866" fill="none" stroke="black" stroke-width="0.1" /><circle r="0.8800000000000006" cx="29.979045554418562" cy="72.8035131045376" fill="none" stroke="black" stroke-width="0.1" /><circle r="0.8820000000000006" cx="6.077288626367093" cy="45.68028855439448" fill="none" stroke="black" stroke-width="0.1" /><circle r="0.8840000000000006" cx="19.727858612742594" cy="12.096588316569001" fill="none" stroke="black" stroke-width="0.1" /><circle r="0.8860000000000006" cx="55.97397683424271" cy="9.325021775084085" fill="none" stroke="black" stroke-width="0.1" /><circle r="0.8880000000000006" cx="74.67455557576908" cy="40.61448809824906" fill="none" stroke="black" stroke-width="0.1" /><circle r="0.8900000000000006" cx="54.958799750487586" cy="71.39323071977142" fill="none" stroke="black" stroke-width="0.1" /><circle r="0.8920000000000006" cx="18.51780808576438" cy="67.46693158254007" fill="none" stroke="black" stroke-width="0.1" /><circle r="0.8940000000000006" cx="5.741368564707017" cy="33.00733261331963" fill="none" stroke="black" stroke-width="0.1" /><circle r="0.8960000000000006" cx="30.95148759222556" cy="6.127769143347827" fill="none" stroke="black" stroke-width="0.1" /><circle r="0.8980000000000006" cx="66.35005721467397" cy="16.72880514921083" fill="none" stroke="black" stroke-width="0.1" /><circle r="0.9000000000000006" cx="72.66995328898739" cy="53.237698141873835" fill="none" stroke="black" stroke-width="0.1" /><text x="36" y="78" font-size="2" font-family="Arial, Helvetica, sans-serif" fill="black" stroke="none">VARICITE</text></svg>