<svg width="80" height="80" fill="none" stroke="black" viewBox="0 0 80 80"><circle r="40" cx="40" cy="40" stroke-width="0.1" /><circle r="0.2" cx="39.167706326905716" cy="41.81859485365136" fill="none" stroke="black" stroke-width="0.1" /><circle r="0.202" cx="38.44331812881661" cy="41.402057970245515" fill="none" stroke="black" stroke-width="0.1" /><circle r="0.20400000000000001" cx="37.92449011264605" cy="40.698826664843274" fill="none" stroke="black" stroke-width="0.1" /><circle r="0.20600000000000002" cx="37.72298567263782" cy="39.80913158200648" fill="none" stroke="black" stroke-width="0.1" /><circle r="0.20800000000000002" cx="37.90233211720998" cy="38.87563820168451" fill="none" stroke="black" stroke-width="0.1" /><circle r="0.21000000000000002" cx="38.46237350713523" cy="38.06058519948918" fill="none" stroke="black" stroke-width="0.1" /><circle r="0.21200000000000002" cx="39.33446934289609" cy="37.51766864732872" fill="none" stroke="black" stroke-width="0.1" /><circle r="0.21400000000000002" cx="40.38892286351746" cy="37.363531906843285" fill="none" stroke="black" stroke-width="0.1" /><circle r="0.21600000000000003" cx="41.45405240416637" cy="37.654081926848676" fill="none" stroke="black" stroke-width="0.1" /><circle r="0.21800000000000003" cx="42.344140920770144" cy="38.370267401206284" fill="none" stroke="black" stroke-width="0.1" /><circle r="0.22000000000000003" cx="42.8917140314342" cy="39.41648482418483" fill="none" stroke="black" stroke-width="0.1" /><circle r="0.22200000000000003" cx="42.978552680655966" cy="40.63265229672954" fill="none" stroke="black" stroke-width="0.1" /><circle r="0.22400000000000003" cx="42.5597692225429" cy="41.818565788560356" fill="none" stroke="black" stroke-width="0.1" /><circle r="0.22600000000000003" cx="41.676225014512575" cy="42.7668564655078" fill="none" stroke="black" stroke-width="0.1" /><circle r="0.22800000000000004" cx="40.45241889720628" cy="43.299123692960094" fill="none" stroke="black" stroke-width="0.1" /><circle r="0.23000000000000004" cx="39.07943561747458" cy="43.298967447190954" fill="none" stroke="black" stroke-width="0.1" /><circle r="0.23200000000000004" cx="37.78519525694594" cy="42.73588010522122" fill="none" stroke="black" stroke-width="0.1" /><circle r="0.23400000000000004" cx="36.79662083427961" cy="41.67528711587852" fill="none" stroke="black" stroke-width="0.1" /><circle r="0.23600000000000004" cx="36.30000335927073" cy="40.27225880810755" fill="none" stroke="black" stroke-width="0.1" /><circle r="0.23800000000000004" cx="36.406463599702626" cy="38.74919180537629" fill="none" stroke="black" stroke-width="0.1" /><circle r="0.24000000000000005" cx="37.12883248630029" cy="37.36060667798915" fill="none" stroke="black" stroke-width="0.1" /><circle r="0.24200000000000005" cx="38.37454945723197" cy="36.35062532301558" fill="none" stroke="black" stroke-width="0.1" /><circle r="0.24400000000000005" cx="39.95656788627702" cy="35.91023061145282" fill="none" stroke="black" stroke-width="0.1" /><circle r="0.24600000000000005" cx="41.621184340797704" cy="36.1417638313405" fill="none" stroke="black" stroke-width="0.1" /><circle r="0.24800000000000005" cx="43.08869731772902" cy="37.03717214819126" fill="none" stroke="black" stroke-width="0.1" /><circle r="0.25000000000000006" cx="44.10038399188133" cy="38.474393196422035" fill="none" stroke="black" stroke-width="0.1" /><circle r="0.25200000000000006" cx="44.46390843685734" cy="40.233284091514776" fill="none" stroke="black" stroke-width="0.1" /><circle r="0.25400000000000006" cx="44.089223170955975" cy="42.029157179253694" fill="none" stroke="black" stroke-width="0.1" /><circle r="0.25600000000000006" cx="43.008357156593306" cy="43.558846332503535" fill="none" stroke="black" stroke-width="0.1" /><circle r="0.25800000000000006" cx="41.37501680086024" cy="44.5518516888572" fill="none" stroke="black" stroke-width="0.1" /><circle r="0.26000000000000006" cx="39.44326460640437" cy="44.817939985254895" fill="none" stroke="black" stroke-width="0.1" /><circle r="0.26200000000000007" cx="37.528130936013206" cy="44.282859830826254" fill="none" stroke="black" stroke-width="0.1" /><circle r="0.26400000000000007" cx="35.95424266999177" cy="43.00556943468034" fill="none" stroke="black" stroke-width="0.1" /><circle r="0.26600000000000007" cx="35.00084513600334" cy="41.17331822016816" fill="none" stroke="black" stroke-width="0.1" /><circle r="0.26800000000000007" cx="34.852520582712295" cy="39.074605139089556" fill="none" stroke="black" stroke-width="0.1" /><circle r="0.2700000000000001" cx="35.564260309094706" cy="37.053843453832194" fill="none" stroke="black" stroke-width="0.1" /><circle r="0.2720000000000001" cx="37.04738679261513" cy="35.4548404596124" fill="none" stroke="black" stroke-width="0.1" /><circle r="0.2740000000000001" cx="39.079469264694495" cy="34.56236741169855" fill="none" stroke="black" stroke-width="0.1" /><circle r="0.2760000000000001" cx="41.33737005863437" cy="34.55173960550083" fill="none" stroke="black" stroke-width="0.1" /><circle r="0.2780000000000001" cx="43.44856844819038" cy="35.45528871564477" fill="none" stroke="black" stroke-width="0.1" /><circle r="0.2800000000000001" cx="45.05262058607429" cy="37.15201383198964" fill="none" stroke="black" stroke-width="0.1" /><circle r="0.2820000000000001" cx="45.862615729967516" cy="39.38294100546425" fill="none" stroke="black" stroke-width="0.1" /><circle r="0.2840000000000001" cx="45.716163398362355" cy="41.79041224393226" fill="none" stroke="black" stroke-width="0.1" /><circle r="0.2860000000000001" cx="44.606900628530234" cy="43.975385716989955" fill="none" stroke="black" stroke-width="0.1" /><circle r="0.2880000000000001" cx="42.690547864489076" cy="45.56357368863694" fill="none" stroke="black" stroke-width="0.1" /><circle r="0.2900000000000001" cx="40.263693363874786" cy="46.26945697886575" fill="none" stroke="black" stroke-width="0.1" /><circle r="0.2920000000000001" cx="37.718072301117374" cy="45.9472435612704" fill="none" stroke="black" stroke-width="0.1" /><circle r="0.2940000000000001" cx="35.47735704631676" cy="44.61973221231484" fill="none" stroke="black" stroke-width="0.1" /><circle r="0.2960000000000001" cx="33.92665418905224" cy="42.479530330656054" fill="none" stroke="black" stroke-width="0.1" /><circle r="0.2980000000000001" cx="33.34643909103678" cy="39.86160841529761" fill="none" stroke="black" stroke-width="0.1" /><circle r="0.3000000000000001" cx="33.8622423689266" cy="37.19100885330689" fill="none" stroke="black" stroke-width="0.1" /><circle r="0.3020000000000001" cx="35.41905164375621" cy="34.91384849248203" fill="none" stroke="black" stroke-width="0.1" /><circle r="0.3040000000000001" cx="37.785453399994246" cy="33.422813416330435" fill="none" stroke="black" stroke-width="0.1" /><circle r="0.3060000000000001" cx="40.587640840518226" cy="32.98958608621752" fill="none" stroke="black" stroke-width="0.1" /><circle r="0.3080000000000001" cx="43.36836118570974" cy="33.715810082229844" fill="none" stroke="black" stroke-width="0.1" /><circle r="0.3100000000000001" cx="45.66152401361229" cy="35.51137316729366" fill="none" stroke="black" stroke-width="0.1" /><circle r="0.3120000000000001" cx="47.07029786052672" cy="38.104402953307016" fill="none" stroke="black" stroke-width="0.1" /><circle r="0.3140000000000001" cx="47.33561385019026" cy="41.082124965471486" fill="none" stroke="black" stroke-width="0.1" /><circle r="0.3160000000000001" cx="46.383277075857485" cy="43.956497664959784" fill="none" stroke="black" stroke-width="0.1" /><circle r="0.3180000000000001" cx="44.34119664232106" cy="46.24420024604435" fill="none" stroke="black" stroke-width="0.1" /><circle r="0.3200000000000001" cx="41.52307350975503" cy="47.54786374306548" fill="none" stroke="black" stroke-width="0.1" /><circle r="0.3220000000000001" cx="38.3804516738896" cy="47.62489922683526" fill="none" stroke="black" stroke-width="0.1" /><circle r="0.3240000000000001" cx="35.43041908543291" cy="46.43203158148528" fill="none" stroke="black" stroke-width="0.1" /><circle r="0.3260000000000001" cx="33.17052584943449" cy="44.137451851895975" fill="none" stroke="black" stroke-width="0.1" /><circle r="0.3280000000000001" cx="31.994919087352116" cy="41.09776116799623" fill="none" stroke="black" stroke-width="0.1" /><circle r="0.3300000000000001" cx="32.125822224587964" cy="37.80274048842495" fill="none" stroke="black" stroke-width="0.1" /><circle r="0.33200000000000013" cx="33.572236230062515" cy="34.796467265608975" fill="none" stroke="black" stroke-width="0.1" /><circle r="0.33400000000000013" cx="36.123436590781594" cy="32.587478085407845" fill="none" stroke="black" stroke-width="0.1" /><circle r="0.33600000000000013" cx="39.37916185536638" cy="31.562810894725196" fill="none" stroke="black" stroke-width="0.1" /><circle r="0.33800000000000013" cx="42.81226389093428" cy="31.92044575439046" fill="none" stroke="black" stroke-width="0.1" /><circle r="0.34000000000000014" cx="45.85403903471619" cy="33.63189769397357" fill="none" stroke="black" stroke-width="0.1" /><circle r="0.34200000000000014" cx="47.98843092621486" cy="36.44191113979794" fill="none" stroke="black" stroke-width="0.1" /><circle r="0.34400000000000014" cx="48.83950156351028" cy="39.90612716740535" fill="none" stroke="black" stroke-width="0.1" /><circle r="0.34600000000000014" cx="48.23735726809391" cy="43.46123825209714" fill="none" stroke="black" stroke-width="0.1" /><circle r="0.34800000000000014" cx="46.25101296771812" cy="46.51657401380664" fill="none" stroke="black" stroke-width="0.1" /><circle r="0.35000000000000014" cx="43.181979904605676" cy="48.55222946878097" fill="none" stroke="black" stroke-width="0.1" /><circle r="0.35200000000000015" cx="39.51881894322924" cy="49.20743529928965" fill="none" stroke="black" stroke-width="0.1" /><circle r="0.35400000000000015" cx="35.85945254660521" cy="48.344165134163276" fill="none" stroke="black" stroke-width="0.1" /><circle r="0.35600000000000015" cx="32.813574251318116" cy="46.07481563166176" fill="none" stroke="black" stroke-width="0.1" /><circle r="0.35800000000000015" cx="30.901083006816545" cy="42.748587737576784" fill="none" stroke="black" stroke-width="0.1" /><circle r="0.36000000000000015" cx="30.463458998258325" cy="38.89800829308929" fill="none" stroke="black" stroke-width="0.1" /><circle r="0.36200000000000015" cx="31.603169654224246" cy="35.15373699184005" fill="none" stroke="black" stroke-width="0.1" /><circle r="0.36400000000000016" cx="34.16180064176161" cy="32.14127693238495" fill="none" stroke="black" stroke-width="0.1" /><circle r="0.36600000000000016" cx="37.741333864388814" cy="30.376505193650107" fill="none" stroke="black" stroke-width="0.1" /><circle r="0.36800000000000016" cx="41.765858644719884" cy="30.177467574659364" fill="none" stroke="black" stroke-width="0.1" /><circle r="0.37000000000000016" cx="45.574183512232786" cy="31.607497204531157" fill="none" stroke="black" stroke-width="0.1" /><circle r="0.37200000000000016" cx="48.528463565634915" cy="34.45976451677025" fill="none" stroke="black" stroke-width="0.1" /><circle r="0.37400000000000017" cx="50.120997011589154" cy="38.28662774289894" fill="none" stroke="black" stroke-width="0.1" /><circle r="0.37600000000000017" cx="50.061315095724034" cy="42.46972438635486" fill="none" stroke="black" stroke-width="0.1" /><circle r="0.37800000000000017" cx="48.32865144223223" cy="46.31985681434344" fill="none" stroke="black" stroke-width="0.1" /><circle r="0.38000000000000017" cx="45.18038863319148" cy="49.19054261777295" fill="none" stroke="black" stroke-width="0.1" /><circle r="0.3820000000000002" cx="41.11426513941214" cy="50.586521534436656" fill="none" stroke="black" stroke-width="0.1" /><circle r="0.3840000000000002" cx="36.78981176964423" cy="50.24901417335763" fill="none" stroke="black" stroke-width="0.1" /><circle r="0.3860000000000002" cx="32.92139618018324" cy="48.20308435663536" fill="none" stroke="black" stroke-width="0.1" /><circle r="0.3880000000000002" cx="30.160216761035414" cy="44.75852559204969" fill="none" stroke="black" stroke-width="0.1" /><circle r="0.3900000000000002" cx="28.984738933546634" cy="40.463301886330065" fill="none" stroke="black" stroke-width="0.1" /><circle r="0.3920000000000002" cx="29.617998681110272" cy="36.01647786317532" fill="none" stroke="black" stroke-width="0.1" /><circle r="0.3940000000000002" cx="31.986032983586668" cy="32.15445619094256" fill="none" stroke="black" stroke-width="0.1" /><circle r="0.3960000000000002" cx="35.72507804272536" cy="29.52903336557644" fill="none" stroke="black" stroke-width="0.1" /><circle r="0.3980000000000002" cx="40.237168448313895" cy="28.597466240912734" fill="none" stroke="black" stroke-width="0.1" /><circle r="0.4000000000000002" cx="44.78568862029172" cy="29.54307959150445" fill="none" stroke="black" stroke-width="0.1" /><circle r="0.4020000000000002" cx="48.6156211438524" cy="32.24016125775774" fill="none" stroke="black" stroke-width="0.1" /><circle r="0.4040000000000002" cx="51.07886327998512" cy="36.26973346483154" fill="none" stroke="black" stroke-width="0.1" /><circle r="0.4060000000000002" cx="51.743813500202826" cy="40.98441326304269" fill="none" stroke="black" stroke-width="0.1" /><circle r="0.4080000000000002" cx="50.47071195275043" cy="45.612360573103786" fill="none" stroke="black" stroke-width="0.1" /><circle r="0.4100000000000002" cx="47.439627172548114" cy="49.38363322671364" fill="none" stroke="black" stroke-width="0.1" /><circle r="0.4120000000000002" cx="43.1256634362823" cy="51.658264368382135" fill="none" stroke="black" stroke-width="0.1" /><circle r="0.4140000000000002" cx="38.22467293257471" cy="52.03475960722389" fill="none" stroke="black" stroke-width="0.1" /><circle r="0.4160000000000002" cx="33.54105707424697" cy="50.420636078563795" fill="none" stroke="black" stroke-width="0.1" /><circle r="0.4180000000000002" cx="29.85574042868155" cy="47.05266068584861" fill="none" stroke="black" stroke-width="0.1" /><circle r="0.4200000000000002" cx="27.795986545303244" cy="42.462631843695114" fill="none" stroke="black" stroke-width="0.1" /><circle r="0.4220000000000002" cx="27.728754226985366" cy="37.39355564450896" fill="none" stroke="black" stroke-width="0.1" /><circle r="0.4240000000000002" cx="29.695706059572167" cy="32.67940395942633" fill="none" stroke="black" stroke-width="0.1" /><circle r="0.4260000000000002" cx="33.40132131072042" cy="29.107908164376862" fill="none" stroke="black" stroke-width="0.1" /><circle r="0.4280000000000002" cx="38.256896561213594" cy="27.28896186766432" fill="none" stroke="black" stroke-width="0.1" /><circle r="0.4300000000000002" cx="43.473954640624484" cy="27.55061189636678" fill="none" stroke="black" stroke-width="0.1" /><circle r="0.4320000000000002" cx="48.19226072572785" cy="29.88035256534608" fill="none" stroke="black" stroke-width="0.1" /><circle r="0.4340000000000002" cx="51.62166466346385" cy="33.9221602974415" fill="none" stroke="black" stroke-width="0.1" /><circle r="0.4360000000000002" cx="53.174381569820355" cy="39.03058251884009" fill="none" stroke="black" stroke-width="0.1" /><circle r="0.4380000000000002" cx="52.56557209092181" cy="44.37371958724467" fill="none" stroke="black" stroke-width="0.1" /><circle r="0.4400000000000002" cx="49.865037098353326" cy="49.06868474742139" fill="none" stroke="black" stroke-width="0.1" /><circle r="0.4420000000000002" cx="45.490727177636316" cy="52.32748717544524" fill="none" stroke="black" stroke-width="0.1" /><circle r="0.44400000000000023" cx="40.14431355146653" cy="53.58923373847341" fill="none" stroke="black" stroke-width="0.1" /><circle r="0.44600000000000023" cx="34.6987078366036" cy="52.61647836752843" fill="none" stroke="black" stroke-width="0.1" /><circle r="0.44800000000000023" cx="30.055549290115913" cy="49.539198083627724" fill="none" stroke="black" stroke-width="0.1" /><circle r="0.45000000000000023" cx="26.99592505431945" cy="44.838353005633664" fill="none" stroke="black" stroke-width="0.1" /><circle r="0.45200000000000023" cx="26.049037838278004" cy="39.27092197797354" fill="none" stroke="black" stroke-width="0.1" /><circle r="0.45400000000000024" cx="27.400892902629277" cy="33.748062272464345" fill="none" stroke="black" stroke-width="0.1" /><circle r="0.45600000000000024" cx="30.858725893269558" cy="29.185994835139915" fill="none" stroke="black" stroke-width="0.1" /><circle r="0.45800000000000024" cx="35.8778413257064" cy="26.35401770249034" fill="none" stroke="black" stroke-width="0.1" /><circle r="0.46000000000000024" cx="41.64724802022551" cy="25.74485798177148" fill="none" stroke="black" stroke-width="0.1" /><circle r="0.46200000000000024" cx="47.22065695233289" cy="27.489199139274582" fill="none" stroke="black" stroke-width="0.1" /><circle r="0.46400000000000025" cx="51.671688805221734" cy="31.329170718203315" fill="none" stroke="black" stroke-width="0.1" /><circle r="0.46600000000000025" cx="54.24783474870309" cy="36.655985948945506" fill="none" stroke="black" stroke-width="0.1" /><circle r="0.46800000000000025" cx="54.497585433393645" cy="42.606322428529054" fill="none" stroke="black" stroke-width="0.1" /><circle r="0.47000000000000025" cx="52.34926590003256" cy="48.202210478297545" fill="none" stroke="black" stroke-width="0.1" /><circle r="0.47200000000000025" cx="48.12785775907488" cy="52.511767590882094" fill="none" stroke="black" stroke-width="0.1" /><circle r="0.47400000000000025" cx="42.50621377889689" cy="54.80436143487684" fill="none" stroke="black" stroke-width="0.1" /><circle r="0.47600000000000026" cx="36.39792128592492" cy="54.67436979694898" fill="none" stroke="black" stroke-width="0.1" /><circle r="0.47800000000000026" cx="30.808854819503715" cy="52.11259160010941" fill="none" stroke="black" stroke-width="0.1" /><circle r="0.48000000000000026" cx="26.671535350528515" cy="47.51279109837285" fill="none" stroke="black" stroke-width="0.1" /><circle r="0.48200000000000026" cx="24.689572661094207" cy="41.61147128428882" fill="none" stroke="black" stroke-width="0.1" /><circle r="0.48400000000000026" cx="25.21813505164699" cy="35.37003578322099" fill="none" stroke="black" stroke-width="0.1" /><circle r="0.48600000000000027" cx="28.20073191525931" cy="29.818178077356627" fill="none" stroke="black" stroke-width="0.1" /><circle r="0.48800000000000027" cx="33.17349668038943" cy="25.884007210707875" fill="none" stroke="black" stroke-width="0.1" /><circle r="0.49000000000000027" cx="39.33708959121437" cy="24.238934845959008" fill="none" stroke="black" stroke-width="0.1" /><circle r="0.49200000000000027" cx="45.68511657476649" cy="25.18324092349083" fill="none" stroke="black" stroke-width="0.1" /><circle r="0.49400000000000027" cx="51.16844466443145" cy="28.59179817948796" fill="none" stroke="black" stroke-width="0.1" /><circle r="0.4960000000000003" cx="54.868587457899274" cy="33.9296864161065" fill="none" stroke="black" stroke-width="0.1" /><circle r="0.4980000000000003" cx="56.151506609211324" cy="40.33594531192511" fill="none" stroke="black" stroke-width="0.1" /><circle r="0.5000000000000002" cx="54.77608318591783" cy="46.76238609389008" fill="none" stroke="black" stroke-width="0.1" /><circle r="0.5020000000000002" cx="50.938729128240944" cy="52.14509078018664" fill="none" stroke="black" stroke-width="0.1" /><circle r="0.5040000000000002" cx="45.245986470331445" cy="55.58053997630059" fill="none" stroke="black" stroke-width="0.1" /><circle r="0.5060000000000002" cx="38.61881431443301" cy="56.47721308662318" fill="none" stroke="black" stroke-width="0.1" /><circle r="0.5080000000000002" cx="32.143640039502216" cy="54.65723398773072" fill="none" stroke="black" stroke-width="0.1" /><circle r="0.5100000000000002" cx="26.894257560184975" cy="50.39062751238984" fill="none" stroke="black" stroke-width="0.1" /><circle r="0.5120000000000002" cx="23.753769123762417" cy="44.35572982587143" fill="none" stroke="black" stroke-width="0.1" /><circle r="0.5140000000000002" cx="23.266094635742547" cy="37.5314708306206" fill="none" stroke="black" stroke-width="0.1" /><circle r="0.5160000000000002" cx="25.542004918730132" cy="31.038611813453365" fill="none" stroke="black" stroke-width="0.1" /><circle r="0.5180000000000002" cx="30.235875270624316" cy="25.955681103407134" fill="none" stroke="black" stroke-width="0.1" /><circle r="0.5200000000000002" cx="36.59780982236548" cy="23.139836833671854" fill="none" stroke="black" stroke-width="0.1" /><circle r="0.5220000000000002" cx="43.59334038487249" cy="23.082407680806185" fill="none" stroke="black" stroke-width="0.1" /><circle r="0.5240000000000002" cx="50.071611166581" cy="25.823443700630186" fill="none" stroke="black" stroke-width="0.1" /><circle r="0.5260000000000002" cx="54.954709520681305" cy="30.94009447333775" fill="none" stroke="black" stroke-width="0.1" /><circle r="0.5280000000000002" cx="57.416995352023605" cy="37.61155429042462" fill="none" stroke="black" stroke-width="0.1" /><circle r="0.5300000000000002" cx="57.02459843185401" cy="44.750649769675206" fill="none" stroke="black" stroke-width="0.1" /><circle r="0.5320000000000003" cx="53.811531099369404" cy="51.1809887170658" fill="none" stroke="black" stroke-width="0.1" /><circle r="0.5340000000000003" cx="48.27911599589715" cy="55.83080741233627" fill="none" stroke="black" stroke-width="0.1" /><circle r="0.5360000000000003" cx="41.317996817684445" cy="57.91157403436601" fill="none" stroke="black" stroke-width="0.1" /><circle r="0.5380000000000003" cx="34.06482471644317" cy="57.05158993623343" fill="none" stroke="black" stroke-width="0.1" /><circle r="0.5400000000000003" cx="27.71666953987193" cy="53.36197189067882" fill="none" stroke="black" stroke-width="0.1" /><circle r="0.5420000000000003" cx="23.333456575323535" cy="47.42336549506856" fill="none" stroke="black" stroke-width="0.1" /><circle r="0.5440000000000003" cx="21.66103408656348" cy="40.1947542703361" fill="none" stroke="black" stroke-width="0.1" /><circle r="0.5460000000000003" cx="23.00440053303804" cy="32.8586539253021" fill="none" stroke="black" stroke-width="0.1" /><circle r="0.5480000000000003" cx="27.17261680046461" cy="26.627672594036675" fill="none" stroke="black" stroke-width="0.1" /><circle r="0.5500000000000003" cx="33.505273893340984" cy="22.54407957741894" fill="none" stroke="black" stroke-width="0.1" /><circle r="0.5520000000000003" cx="40.97697498728508" cy="21.305510975845852" fill="none" stroke="black" stroke-width="0.1" /><circle r="0.5540000000000003" cx="48.36332800167926" cy="23.145950939423244" fill="none" stroke="black" stroke-width="0.1" /><circle r="0.5560000000000003" cx="54.441584581040324" cy="27.792267418203373" fill="none" stroke="black" stroke-width="0.1" /><circle r="0.5580000000000003" cx="58.193047601836795" cy="34.504270388992836" fill="none" stroke="black" stroke-width="0.1" /><circle r="0.5600000000000003" cx="58.97374303471489" cy="42.19250433354383" fill="none" stroke="black" stroke-width="0.1" /><circle r="0.5620000000000003" cx="56.624771375673184" cy="49.595050896508994" fill="none" stroke="black" stroke-width="0.1" /><circle r="0.5640000000000003" cx="51.503459205351845" cy="55.48465454283066" fill="none" stroke="black" stroke-width="0.1" /><circle r="0.5660000000000003" cx="44.42936196649388" cy="58.87217469105714" fill="none" stroke="black" stroke-width="0.1" /><circle r="0.5680000000000003" cx="36.55321378765768" cy="59.172638441445855" fill="none" stroke="black" stroke-width="0.1" /><circle r="0.5700000000000003" cx="29.169762555634122" cy="56.30602900459384" fill="none" stroke="black" stroke-width="0.1" /><circle r="0.5720000000000003" cx="23.504928383868336" cy="50.715480034916204" fill="none" stroke="black" stroke-width="0.1" /><circle r="0.5740000000000003" cx="20.51227414183477" cy="43.299055300688124" fill="none" stroke="black" stroke-width="0.1" /><circle r="0.5760000000000003" cx="20.71257550182729" cy="35.26556695820004" fill="none" stroke="black" stroke-width="0.1" /><circle r="0.5780000000000003" cx="24.103468242016476" cy="27.937566453346935" fill="none" stroke="black" stroke-width="0.1" /><circle r="0.5800000000000003" cx="30.1548064364503" cy="22.533613318827513" fill="none" stroke="black" stroke-width="0.1" /><circle r="0.5820000000000003" cx="37.89132257083981" cy="19.965666856624594" fill="none" stroke="black" stroke-width="0.1" /><circle r="0.5840000000000003" cx="46.04974020320747" cy="20.685284276653327" fill="none" stroke="black" stroke-width="0.1" /><circle r="0.5860000000000003" cx="53.28504002547422" cy="24.604548187157746" fill="none" stroke="black" stroke-width="0.1" /><circle r="0.5880000000000003" cx="58.39220233962213" cy="31.10551895283384" fill="none" stroke="black" stroke-width="0.1" /><circle r="0.5900000000000003" cx="60.506869241628785" cy="39.137481068764814" fill="none" stroke="black" stroke-width="0.1" /><circle r="0.5920000000000003" cx="59.25151683412632" cy="47.38671101271403" fill="none" stroke="black" stroke-width="0.1" /><circle r="0.5940000000000003" cx="54.80243662460623" cy="54.49134551980995" fill="none" stroke="black" stroke-width="0.1" /><circle r="0.5960000000000003" cx="47.86570521050626" cy="59.266208281377374" fill="none" stroke="black" stroke-width="0.1" /><circle r="0.5980000000000003" cx="39.565277824456956" cy="60.90047945933516" fill="none" stroke="black" stroke-width="0.1" /><circle r="0.6000000000000003" cx="31.260916432505326" cy="59.09524596333716" fill="none" stroke="black" stroke-width="0.1" /><circle r="0.6020000000000003" cx="24.32543958347443" cy="54.117619514234306" fill="none" stroke="black" stroke-width="0.1" /><circle r="0.6040000000000003" cx="19.917783327381695" cy="46.76170640548751" fill="none" stroke="black" stroke-width="0.1" /><circle r="0.6060000000000003" cx="18.789387326957144" cy="38.222041891901526" fill="none" stroke="black" stroke-width="0.1" /><circle r="0.6080000000000003" cx="21.156243977292437" cy="29.899640652101937" fill="none" stroke="black" stroke-width="0.1" /><circle r="0.6100000000000003" cx="26.65837214777406" cy="23.172148347079226" fill="none" stroke="black" stroke-width="0.1" /><circle r="0.6120000000000003" cx="34.41420378454628" cy="19.16580261590521" fill="none" stroke="black" stroke-width="0.1" /><circle r="0.6140000000000003" cx="43.161731271340436" cy="18.56694887871008" fill="none" stroke="black" stroke-width="0.1" /><circle r="0.6160000000000003" cx="51.463833447346104" cy="21.504645916027783" fill="none" stroke="black" stroke-width="0.1" /><circle r="0.6180000000000003" cx="57.944378221871155" cy="27.524411227102934" fill="none" stroke="black" stroke-width="0.1" /><circle r="0.6200000000000003" cx="61.51631287796083" cy="35.658251488432775" fill="none" stroke="black" stroke-width="0.1" /><circle r="0.6220000000000003" cx="61.563938865371526" cy="44.58023641426054" fill="none" stroke="black" stroke-width="0.1" /><circle r="0.6240000000000003" cx="58.048818658307866" cy="52.82262629259377" fill="none" stroke="black" stroke-width="0.1" /><circle r="0.6260000000000003" cx="51.521132364039204" cy="59.01732720574285" fill="none" stroke="black" stroke-width="0.1" /><circle r="0.6280000000000003" cx="43.03378798035782" cy="62.122952571712375" fill="none" stroke="black" stroke-width="0.1" /><circle r="0.6300000000000003" cx="33.97265510126782" cy="61.59980876007299" fill="none" stroke="black" stroke-width="0.1" /><circle r="0.6320000000000003" cx="25.830283291591268" cy="57.50341476408078" fill="none" stroke="black" stroke-width="0.1" /><circle r="0.6340000000000003" cx="19.96004983878841" cy="50.480392289230124" fill="none" stroke="black" stroke-width="0.1" /><circle r="0.6360000000000003" cx="17.351233501087933" cy="41.666576154202694" fill="none" stroke="black" stroke-width="0.1" /><circle r="0.6380000000000003" cx="18.462392218457058" cy="32.50336902012514" fill="none" stroke="black" stroke-width="0.1" /><circle r="0.6400000000000003" cx="23.141093316999903" cy="24.50202382716075" fill="none" stroke="black" stroke-width="0.1" /><circle r="0.6420000000000003" cx="30.64399618750477" cy="18.994400326089874" fill="none" stroke="black" stroke-width="0.1" /><circle r="0.6440000000000003" cx="39.75480501080034" cy="16.911301911600347" fill="none" stroke="black" stroke-width="0.1" /><circle r="0.6460000000000004" cx="48.98139998600486" cy="18.625279433606853" fill="none" stroke="black" stroke-width="0.1" /><circle r="0.6480000000000004" cx="56.80020410204659" cy="23.884431684561196" fill="none" stroke="black" stroke-width="0.1" /><circle r="0.6500000000000004" cx="61.907765899483536" cy="31.848900792321054" fill="none" stroke="black" stroke-width="0.1" /><circle r="0.6520000000000004" cx="63.43801588658596" cy="41.2248719525494" fill="none" stroke="black" stroke-width="0.1" /><circle r="0.6540000000000004" cx="61.10899102378026" cy="50.47471827582787" fill="none" stroke="black" stroke-width="0.1" /><circle r="0.6560000000000004" cx="55.27419105685856" cy="58.06916399722411" fill="none" stroke="black" stroke-width="0.1" /><circle r="0.6580000000000004" cx="46.869300547715504" cy="62.74011290616547" fill="none" stroke="black" stroke-width="0.1" /><circle r="0.6600000000000004" cx="37.262239353132536" cy="63.69234405120062" fill="none" stroke="black" stroke-width="0.1" /><circle r="0.6620000000000004" cx="28.03055515931036" cy="60.738741890618286" fill="none" stroke="black" stroke-width="0.1" /><circle r="0.6640000000000004" cx="20.702379719557342" cy="54.336089128902834" fill="none" stroke="black" stroke-width="0.1" /><circle r="0.6660000000000004" cx="16.503485366587665" cy="45.514709881928304" fill="none" stroke="black" stroke-width="0.1" /><circle r="0.6680000000000004" cx="16.15230855050285" cy="35.71275000383951" fill="none" stroke="black" stroke-width="0.1" /><circle r="0.6700000000000004" cx="19.73720789084762" cy="26.541735589561718" fill="none" stroke="black" stroke-width="0.1" /><circle r="0.6720000000000004" cx="26.69689768924652" cy="19.52162435861616" fill="none" stroke="black" stroke-width="0.1" /><circle r="0.6740000000000004" cx="35.90810317752529" cy="15.82890971854561" fill="none" stroke="black" stroke-width="0.1" /><circle r="0.6760000000000004" cx="45.86678736952933" cy="16.099520800604676" fill="none" stroke="black" stroke-width="0.1" /><circle r="0.6780000000000004" cx="54.93372191281343" cy="20.3195280841451" fill="none" stroke="black" stroke-width="0.1" /><circle r="0.6800000000000004" cx="61.60430871287565" cy="27.82240397127731" fill="none" stroke="black" stroke-width="0.1" /><circle r="0.6820000000000004" cx="64.75823894784546" cy="37.39411642597273" fill="none" stroke="black" stroke-width="0.1" /><circle r="0.6840000000000004" cx="63.84756649833906" cy="47.46951618963995" fill="none" stroke="black" stroke-width="0.1" /><circle r="0.6860000000000004" cx="58.99163554094113" cy="56.388258128308166" fill="none" stroke="black" stroke-width="0.1" /><circle r="0.6880000000000004" cx="50.962458774718144" cy="62.66841188995387" fill="none" stroke="black" stroke-width="0.1" /><circle r="0.6900000000000004" cx="41.062127453680844" cy="65.25267332921673" fill="none" stroke="black" stroke-width="0.1" /><circle r="0.6920000000000004" cx="30.911694549334882" cy="63.686274591742105" fill="none" stroke="black" stroke-width="0.1" /><circle r="0.6940000000000004" cx="22.185753624808928" cy="58.19667142869785" fill="none" stroke="black" stroke-width="0.1" /><circle r="0.6960000000000004" cx="16.33617089514317" cy="49.66109683711573" fill="none" stroke="black" stroke-width="0.1" /><circle r="0.6980000000000004" cx="14.350547690541084" cy="39.46650096083556" fill="none" stroke="black" stroke-width="0.1" /><circle r="0.7000000000000004" cx="16.5855912592449" cy="29.28421895889769" fill="none" stroke="black" stroke-width="0.1" /><circle r="0.7020000000000004" cx="22.703490099774726" cy="20.795969947133344" fill="none" stroke="black" stroke-width="0.1" /><circle r="0.7040000000000004" cx="31.722573659359377" cy="15.416106631062991" fill="none" stroke="black" stroke-width="0.1" /><circle r="0.7060000000000004" cx="42.17473053063306" cy="14.055987740537724" fill="none" stroke="black" stroke-width="0.1" /><circle r="0.7080000000000004" cx="52.34435873530109" cy="16.96972194231707" fill="none" stroke="black" stroke-width="0.1" /><circle r="0.7100000000000004" cx="60.54996086602846" cy="23.707371807940405" fill="none" stroke="black" stroke-width="0.1" /><circle r="0.7120000000000004" cx="65.4221638919528" cy="33.184137394967" fill="none" stroke="black" stroke-width="0.1" /><circle r="0.7140000000000004" cx="66.13219687832193" cy="43.85493337330455" fill="none" stroke="black" stroke-width="0.1" /><circle r="0.7160000000000004" cx="62.53271308667293" cy="53.966278708148224" fill="none" stroke="black" stroke-width="0.1" /><circle r="0.7180000000000004" cx="55.18705281641589" cy="61.84443754715122" fill="none" stroke="black" stroke-width="0.1" /><circle r="0.7200000000000004" cx="45.28130684549687" cy="66.17246258959412" fill="none" stroke="black" stroke-width="0.1" /><circle r="0.7220000000000004" cx="34.43286755634836" cy="66.2102854115486" fill="none" stroke="black" stroke-width="0.1" /><circle r="0.7240000000000004" cx="24.42635858139093" cy="61.9210810172441" fill="none" stroke="black" stroke-width="0.1" /><circle r="0.7260000000000004" cx="16.92005510919398" cy="53.9823592014135" fill="none" stroke="black" stroke-width="0.1" /><circle r="0.7280000000000004" cx="13.171090208598436" cy="43.67913025113718" fill="none" stroke="black" stroke-width="0.1" /><circle r="0.7300000000000004" cx="13.824980911708867" cy="32.69595997220784" fill="none" stroke="black" stroke-width="0.1" /><circle r="0.7320000000000004" cx="18.8047015712098" cy="22.84155530024592" fill="none" stroke="black" stroke-width="0.1" /><circle r="0.7340000000000004" cx="27.318331417439666" cy="15.750907089911642" fill="none" stroke="black" stroke-width="0.1" /><circle r="0.7360000000000004" cx="37.98484450928217" cy="12.614041036541646" fill="none" stroke="black" stroke-width="0.1" /><circle r="0.7380000000000004" cx="49.05808667619583" cy="13.976374373148566" fill="none" stroke="black" stroke-width="0.1" /><circle r="0.7400000000000004" cx="58.71262188555272" cy="19.644158524680726" fill="none" stroke="black" stroke-width="0.1" /><circle r="0.7420000000000004" cx="65.34465592314505" cy="28.711357870080946" fill="none" stroke="black" stroke-width="0.1" /><circle r="0.7440000000000004" cx="67.83843026336282" cy="39.704364291939896" fill="none" stroke="black" stroke-width="0.1" /><circle r="0.7460000000000004" cx="65.75384166582313" cy="50.82145389731469" fill="none" stroke="black" stroke-width="0.1" /><circle r="0.7480000000000004" cx="59.40375343133997" cy="60.22808079813201" fill="none" stroke="black" stroke-width="0.1" /><circle r="0.7500000000000004" cx="49.80747230869595" cy="66.35961137638711" fill="none" stroke="black" stroke-width="0.1" /><circle r="0.7520000000000004" cx="38.52723108218318" cy="68.18154274901761" fill="none" stroke="black" stroke-width="0.1" /><circle r="0.7540000000000004" cx="27.413891450020728" cy="65.36393298698238" fill="none" stroke="black" stroke-width="0.1" /><circle r="0.7560000000000004" cx="18.3032565865901" cy="58.34064953191812" fill="none" stroke="black" stroke-width="0.1" /><circle r="0.7580000000000005" cx="12.71282178950495" cy="48.24287148442086" fill="none" stroke="black" stroke-width="0.1" /><circle r="0.7600000000000005" cx="11.589054932314" cy="36.71698303980581" fill="none" stroke="black" stroke-width="0.1" /><circle r="0.7620000000000005" cx="15.147287594438161" cy="25.656161215127007" fill="none" stroke="black" stroke-width="0.1" /><circle r="0.7640000000000005" cx="22.831280947548677" cy="16.88941398194349" fill="none" stroke="black" stroke-width="0.1" /><circle r="0.7660000000000005" cx="33.3999422026403" cy="11.879145424231762" fill="none" stroke="black" stroke-width="0.1" /><circle r="0.7680000000000005" cx="45.12771377998173" cy="11.477255542452102" fill="none" stroke="black" stroke-width="0.1" /><circle r="0.7700000000000005" cx="56.08629137651328" cy="15.780444786290808" fill="none" stroke="black" stroke-width="0.1" /><circle r="0.7720000000000005" cx="64.4616796666377" cy="24.10927541341185" fill="none" stroke="black" stroke-width="0.1" /><circle r="0.7740000000000005" cx="68.85445470474407" cy="35.11526165574178" fill="none" stroke="black" stroke-width="0.1" /><circle r="0.7760000000000005" cx="68.51353390061719" cy="46.99914169726171" fill="none" stroke="black" stroke-width="0.1" /><circle r="0.7780000000000005" cx="63.46441207372438" cy="57.805010278976276" fill="none" stroke="black" stroke-width="0.1" /><circle r="0.7800000000000005" cx="54.50999849389297" cy="65.74223074458034" fill="none" stroke="black" stroke-width="0.1" /><circle r="0.7820000000000005" cx="43.10308971889125" cy="69.48214475231585" fill="none" stroke="black" stroke-width="0.1" /><circle r="0.7840000000000005" cx="31.1107078239246" cy="68.38041727333052" fill="none" stroke="black" stroke-width="0.1" /><circle r="0.7860000000000005" cx="20.508523768855518" cy="62.587819269037965" fill="none" stroke="black" stroke-width="0.1" /><circle r="0.7880000000000005" cx="13.055378559713027" cy="53.03043650226732" fill="none" stroke="black" stroke-width="0.1" /><circle r="0.7900000000000005" cx="10.001522583195179" cy="41.26173597612339" fill="none" stroke="black" stroke-width="0.1" /><circle r="0.7920000000000005" cx="11.878967650643226" cy="29.21010011138089" fill="none" stroke="black" stroke-width="0.1" /><circle r="0.7940000000000005" cx="18.409093767212717" cy="18.86285276942558" fill="none" stroke="black" stroke-width="0.1" /><circle r="0.7960000000000005" cx="28.543511536277695" cy="11.93855007166254" fill="none" stroke="black" stroke-width="0.1" /><circle r="0.7980000000000005" cx="40.63227590278895" cy="9.601574840417392" fill="none" stroke="black" stroke-width="0.1" /><circle r="0.8000000000000005" cx="52.69247851471278" cy="12.26642848182826" fill="none" stroke="black" stroke-width="0.1" /><circle r="0.8020000000000005" cx="62.73349968920982" cy="19.524599713786078" fill="none" stroke="black" stroke-width="0.1" /><circle r="0.8040000000000005" cx="69.0855700652567" cy="30.20685372420921" fill="none" stroke="black" stroke-width="0.1" /><circle r="0.8060000000000005" cx="70.67741184588144" cy="42.57150295317076" fill="none" stroke="black" stroke-width="0.1" /><circle r="0.8080000000000005" cx="67.21680009265683" cy="54.588358122706865" fill="none" stroke="black" stroke-width="0.1" /><circle r="0.8100000000000005" cx="59.24362853189081" cy="64.27207007913808" fill="none" stroke="black" stroke-width="0.1" /><circle r="0.8120000000000005" cx="48.04592899460927" cy="70.01013039981163" fill="none" stroke="black" stroke-width="0.1" /><circle r="0.8140000000000005" cx="35.45186452472826" cy="70.8313426353535" fill="none" stroke="black" stroke-width="0.1" /><circle r="0.8160000000000005" cx="23.531276031047007" cy="66.57007208937199" fill="none" stroke="black" stroke-width="0.1" /><circle r="0.8180000000000005" cx="14.255503127567188" cy="57.89851685993252" fill="none" stroke="black" stroke-width="0.1" /><circle r="0.8200000000000005" cx="9.171387698772062" cy="46.2208651794239" fill="none" stroke="black" stroke-width="0.1" /><circle r="0.8220000000000005" cx="9.143368042274897" cy="33.44597152695466" fill="none" stroke="black" stroke-width="0.1" /><circle r="0.8240000000000005" cx="14.206656623821203" cy="21.67534345537345" fill="none" stroke="black" stroke-width="0.1" /><circle r="0.8260000000000005" cx="23.556413961214485" cy="12.857437424129436" fill="none" stroke="black" stroke-width="0.1" /><circle r="0.8280000000000005" cx="35.675527478086096" cy="8.465132988908888" fill="none" stroke="black" stroke-width="0.1" /><circle r="0.8300000000000005" cx="48.5807351568547" cy="9.249770583491433" fill="none" stroke="black" stroke-width="0.1" /><circle r="0.8320000000000005" cx="60.1471726911015" cy="15.112817906502048" fill="none" stroke="black" stroke-width="0.1" /><circle r="0.8340000000000005" cx="68.45823565896636" cy="25.1170551241118" fill="none" stroke="black" stroke-width="0.1" /><circle r="0.8360000000000005" cx="72.12315142800483" cy="37.636265172769676" fill="none" stroke="black" stroke-width="0.1" /><circle r="0.8380000000000005" cx="70.50964347215906" cy="50.61954237251931" fill="none" stroke="black" stroke-width="0.1" /><circle r="0.8400000000000005" cx="63.852776267636656" cy="61.927267598268145" fill="none" stroke="black" stroke-width="0.1" /><circle r="0.8420000000000005" cx="53.221280447340455" cy="69.68371217238106" fill="none" stroke="black" stroke-width="0.1" /><circle r="0.8440000000000005" cx="40.3460764269179" cy="72.58816243832601" fill="none" stroke="black" stroke-width="0.1" /><circle r="0.8460000000000005" cx="27.338492191373035" cy="70.13296276525209" fill="none" stroke="black" stroke-width="0.1" /><circle r="0.8480000000000005" cx="16.344042505780735" cy="62.69193854723923" fill="none" stroke="black" stroke-width="0.1" /><circle r="0.8500000000000005" cx="9.188543146708398" cy="51.46384540971049" fill="none" stroke="black" stroke-width="0.1" /><circle r="0.8520000000000005" cx="7.074930388550868" cy="38.27933411691311" fill="none" stroke="black" stroke-width="0.1" /><circle r="0.8540000000000005" cx="10.381125049816667" cy="25.30250117586695" fill="none" stroke="black" stroke-width="0.1" /><circle r="0.8560000000000005" cx="18.592891993024338" cy="14.675677170402594" fill="none" stroke="black" stroke-width="0.1" /><circle r="0.8580000000000005" cx="30.383557578876307" cy="8.165756485174612" fill="none" stroke="black" stroke-width="0.1" /><circle r="0.8600000000000005" cx="43.82827327352354" cy="6.870453915828925" fill="none" stroke="black" stroke-width="0.1" /><circle r="0.8620000000000005" cx="56.71823272905863" cy="11.033317079495927" fill="none" stroke="black" stroke-width="0.1" /><circle r="0.8640000000000005" cx="66.92355175567194" cy="19.998651024002307" fill="none" stroke="black" stroke-width="0.1" /><circle r="0.8660000000000005" cx="72.74519451812475" cy="32.31459428721147" fill="none" stroke="black" stroke-width="0.1" /><circle r="0.8680000000000005" cx="73.19779746559817" cy="45.96817756380557" fill="none" stroke="black" stroke-width="0.1" /><circle r="0.8700000000000006" cx="68.17631831826455" cy="58.714318342590474" fill="none" stroke="black" stroke-width="0.1" /><circle r="0.8720000000000006" cx="58.478346862420615" cy="68.44498369189301" fill="none" stroke="black" stroke-width="0.1" /><circle r="0.8740000000000006" cx="45.67757986603913" cy="73.53781912803419" fill="none" stroke="black" stroke-width="0.1" /><circle r="0.8760000000000006" cx="31.868503975003343" cy="73.12658860183844" fill="none" stroke="black" stroke-width="0.1" /><circle r="0.8780000000000006" cx="19.323701354858777" cy="67.24835223159228" fill="none" stroke="black" stroke-width="0.1" /><circle r="0.8800000000000006" cx="10.11984722371368" cy="56.84240095906097" fill="none" stroke="black" stroke-width="0.1" /><circle r="0.8820000000000006" cx="5.793949443213499" cy="43.60029586375261" fill="none" stroke="black" stroke-width="0.1" /><circle r="0.8840000000000006" cx="7.086731951678793" cy="29.690931837486644" fill="none" stroke="black" stroke-width="0.1" /><circle r="0.8860000000000006" cx="13.815997002866908" cy="17.405305666017224" fill="none" stroke="black" stroke-width="0.1" /><circle r="0.8880000000000006" cx="24.901585770185868" cy="8.779169009378784" fill="none" stroke="black" stroke-width="0.1" /><circle r="0.8900000000000006" cx="38.53865550143668" cy="5.255718495606985" fill="none" stroke="black" stroke-width="0.1" /><circle r="0.8920000000000006" cx="52.49149432657555" cy="7.4442098930294875" fill="none" stroke="black" stroke-width="0.1" /><circle r="0.8940000000000006" cx="64.46004808595964" cy="15.014858963125107" fill="none" stroke="black" stroke-width="0.1" /><circle r="0.8960000000000006" cx="72.45907075181907" cy="26.748119909673537" fill="none" stroke="black" stroke-width="0.1" /><circle r="0.8980000000000006" cx="75.14739800970625" cy="40.73105276641606" fill="none" stroke="black" stroke-width="0.1" /><circle r="0.9000000000000006" cx="72.0527342955873" cy="54.669175988325634" fill="none" stroke="black" stroke-width="0.1" /><text x="36" y="78" font-size="2" font-family="Arial, Helvetica, sans-serif" fill="black" stroke="none">VARICITE</text></svg>