<svg width="80" height="80" fill="none" stroke="black" viewBox="0 0 80 80"><circle r="40" cx="40" cy="40" stroke-width="0.1" /><circle r="0.2" cx="39.167706326905716" cy="41.81859485365136" fill="none" stroke="black" stroke-width="0.1" /><circle r="0.202" cx="37.923553530465455" cy="40.278199674977394" fill="none" stroke="black" stroke-width="0.1" /><circle r="0.20400000000000001" cx="38.59658913187423" cy="38.31876892271571" fill="none" stroke="black" stroke-width="0.1" /><circle r="0.20600000000000002" cx="40.70321918149532" cy="37.825900696201515" fill="none" stroke="black" stroke-width="0.1" /><circle r="0.20800000000000002" cx="42.306272110442464" cy="39.41219990422315" fill="none" stroke="black" stroke-width="0.1" /><circle r="0.21000000000000002" cx="41.795928922789685" cy="41.70301623723542" fill="none" stroke="black" stroke-width="0.1" /><circle r="0.21200000000000002" cx="39.49833784749752" cy="42.520562454046036" fill="none" stroke="black" stroke-width="0.1" /><circle r="0.21400000000000002" cx="37.51144464275691" cy="40.95358126761003" fill="none" stroke="black" stroke-width="0.1" /><circle r="0.21600000000000003" cx="37.790307547530524" cy="38.34625900894383" fill="none" stroke="black" stroke-width="0.1" /><circle r="0.21800000000000003" cx="40.2284100660583" cy="37.15415147245619" fill="none" stroke="black" stroke-width="0.1" /><circle r="0.22000000000000003" cx="42.61349470691603" cy="38.6317363496307" fill="none" stroke="black" stroke-width="0.1" /><circle r="0.22200000000000003" cx="42.633220474871756" cy="41.529109195157815" fill="none" stroke="black" stroke-width="0.1" /><circle r="0.22400000000000003" cx="40.11390174675733" cy="43.13793345883651" fill="none" stroke="black" stroke-width="0.1" /><circle r="0.22600000000000003" cx="37.32761531437614" cy="41.823070237824936" fill="none" stroke="black" stroke-width="0.1" /><circle r="0.22800000000000004" cx="36.945636494120926" cy="38.67343919326927" fill="none" stroke="black" stroke-width="0.1" /><circle r="0.23000000000000004" cx="39.4791885997339" cy="36.61482932699799" fill="none" stroke="black" stroke-width="0.1" /><circle r="0.23200000000000004" cx="42.657828505995774" cy="37.692111867373924" fill="none" stroke="black" stroke-width="0.1" /><circle r="0.23400000000000004" cx="43.46055475534858" cy="41.045363948696505" fill="none" stroke="black" stroke-width="0.1" /><circle r="0.23600000000000004" cx="40.986088529905366" cy="43.57655272730448" fill="none" stroke="black" stroke-width="0.1" /><circle r="0.23800000000000004" cx="37.436072595141574" cy="42.811458920670184" fill="none" stroke="black" stroke-width="0.1" /><circle r="0.24000000000000005" cx="36.16092695083816" cy="39.313328227462904" fill="none" stroke="black" stroke-width="0.1" /><circle r="0.24200000000000005" cx="38.498171607628166" cy="36.29803613201508" fill="none" stroke="black" stroke-width="0.1" /><circle r="0.24400000000000005" cx="42.38644289252343" cy="36.67840545509774" fill="none" stroke="black" stroke-width="0.1" /><circle r="0.24600000000000005" cx="44.17731266389048" cy="40.253542714547756" fill="none" stroke="black" stroke-width="0.1" /><circle r="0.24800000000000005" cx="42.058580584438964" cy="43.75241868364539" fill="none" stroke="black" stroke-width="0.1" /><circle r="0.25000000000000006" cx="37.8770713965156" cy="43.825414898348654" fill="none" stroke="black" stroke-width="0.1" /><circle r="0.25200000000000006" cx="35.53694489832309" cy="40.24907661350627" fill="none" stroke="black" stroke-width="0.1" /><circle r="0.25400000000000006" cx="37.3544896555054" cy="36.27971775033505" fill="none" stroke="black" stroke-width="0.1" /><circle r="0.25600000000000006" cx="41.772828956984405" cy="35.69039706129699" fill="none" stroke="black" stroke-width="0.1" /><circle r="0.25800000000000006" cx="44.68473775931338" cy="39.18559400391237" fill="none" stroke="black" stroke-width="0.1" /><circle r="0.26000000000000006" cx="43.25058980217562" cy="43.59946745199785" fill="none" stroke="black" stroke-width="0.1" /><circle r="0.26200000000000007" cx="38.66245759408105" cy="44.76067277938408" fill="none" stroke="black" stroke-width="0.1" /><circle r="0.26400000000000007" cx="35.16828554132769" cy="41.433923076687506" fill="none" stroke="black" stroke-width="0.1" /><circle r="0.26600000000000007" cx="36.1391840154312" cy="36.61439445101795" fill="none" stroke="black" stroke-width="0.1" /><circle r="0.26800000000000007" cx="40.820447664592656" cy="34.83475405913092" fill="none" stroke="black" stroke-width="0.1" /><circle r="0.2700000000000001" cx="44.89450290580825" cy="37.90250952206344" fill="none" stroke="black" stroke-width="0.1" /><circle r="0.2720000000000001" cx="44.46245188188878" cy="43.07618647058777" fill="none" stroke="black" stroke-width="0.1" /><circle r="0.2740000000000001" cx="39.773108050129544" cy="45.5103307562327" fill="none" stroke="black" stroke-width="0.1" /><circle r="0.2760000000000001" cx="35.134985668003445" cy="42.79351669933582" fill="none" stroke="black" stroke-width="0.1" /><circle r="0.2780000000000001" cx="34.95871356988461" cy="37.329334141167344" fill="none" stroke="black" stroke-width="0.1" /><circle r="0.2800000000000001" cx="39.564140935607355" cy="34.21640018016575" fill="none" stroke="black" stroke-width="0.1" /><circle r="0.2820000000000001" cx="44.73676083905655" cy="36.49085170538771" fill="none" stroke="black" stroke-width="0.1" /><circle r="0.2840000000000001" cx="45.582908890606525" cy="42.17053641277602" fill="none" stroke="black" stroke-width="0.1" /><circle r="0.2860000000000001" cx="41.158709204145254" cy="45.97366035025671" fill="none" stroke="black" stroke-width="0.1" /><circle r="0.2880000000000001" cx="35.494963680491004" cy="44.23049025053892" fill="none" stroke="black" stroke-width="0.1" /><circle r="0.2900000000000001" cx="33.92700719605186" cy="38.4206382924757" fill="none" stroke="black" stroke-width="0.1" /><circle r="0.2920000000000001" cx="38.069143386954366" cy="33.92968759124722" fill="none" stroke="black" stroke-width="0.1" /><circle r="0.2940000000000001" cx="44.16706724409759" cy="35.05714904299463" fill="none" stroke="black" stroke-width="0.1" /><circle r="0.2960000000000001" cx="46.49758447281735" cy="40.90277129916875" fill="none" stroke="black" stroke-width="0.1" /><circle r="0.2980000000000001" cx="42.73995371907183" cy="46.06479007199297" fill="none" stroke="black" stroke-width="0.1" /><circle r="0.3000000000000001" cx="36.27786990161839" cy="45.63100768341881" fill="none" stroke="black" stroke-width="0.1" /><circle r="0.3020000000000001" cx="33.15660920931547" cy="39.85158340398029" fill="none" stroke="black" stroke-width="0.1" /><circle r="0.3040000000000001" cx="36.42770000138162" cy="34.05001909920115" fill="none" stroke="black" stroke-width="0.1" /><circle r="0.3060000000000001" cx="43.171632798761266" cy="33.72051193250423" fill="none" stroke="black" stroke-width="0.1" /><circle r="0.3080000000000001" cx="47.098061182669774" cy="39.325887659898946" fill="none" stroke="black" stroke-width="0.1" /><circle r="0.3100000000000001" cx="44.41306458239243" cy="45.720619371329775" fill="none" stroke="black" stroke-width="0.1" /><circle r="0.3120000000000001" cx="37.480841982313" cy="46.8728627864903" fill="none" stroke="black" stroke-width="0.1" /><circle r="0.3140000000000001" cx="32.749541536716364" cy="41.55340821170695" fill="none" stroke="black" stroke-width="0.1" /><circle r="0.3160000000000001" cx="34.753464812356725" cy="34.62654966294273" fill="none" stroke="black" stroke-width="0.1" /><circle r="0.3180000000000001" cx="41.77046698830593" cy="32.60395567594955" fill="none" stroke="black" stroke-width="0.1" /><circle r="0.3200000000000001" cx="47.2909135431605" cy="37.5235954074185" fill="none" stroke="black" stroke-width="0.1" /><circle r="0.3220000000000001" cx="46.05638935585601" cy="44.90735906270103" fill="none" stroke="black" stroke-width="0.1" /><circle r="0.3240000000000001" cx="39.066536969947926" cy="47.83458657310811" fill="none" stroke="black" stroke-width="0.1" /><circle r="0.3260000000000001" cx="32.78854086818371" cy="43.42856853368039" fill="none" stroke="black" stroke-width="0.1" /><circle r="0.3280000000000001" cx="33.17401646713236" cy="35.67653509219518" fill="none" stroke="black" stroke-width="0.1" /><circle r="0.3300000000000001" cx="40.0181147277661" cy="31.82502006995504" fill="none" stroke="black" stroke-width="0.1" /><circle r="0.33200000000000013" cx="47.00603788307264" cy="35.60587515187029" fill="none" stroke="black" stroke-width="0.1" /><circle r="0.33400000000000013" cx="47.538655157303616" cy="43.62517632940241" fill="none" stroke="black" stroke-width="0.1" /><circle r="0.33600000000000013" cx="40.96366060349463" cy="48.404936539990786" fill="none" stroke="black" stroke-width="0.1" /><circle r="0.33800000000000013" cx="33.32931919017762" cy="45.356308666746855" fill="none" stroke="black" stroke-width="0.1" /><circle r="0.34000000000000014" cx="31.821967369940694" cy="37.181794489096795" fill="none" stroke="black" stroke-width="0.1" /><circle r="0.34200000000000014" cx="38.00184816073739" cy="31.486339551799624" fill="none" stroke="black" stroke-width="0.1" /><circle r="0.34400000000000014" cx="46.20365224966494" cy="33.70235768201884" fill="none" stroke="black" stroke-width="0.1" /><circle r="0.34600000000000014" cx="48.72834782781328" cy="41.91054159774323" fill="none" stroke="black" stroke-width="0.1" /><circle r="0.34800000000000014" cx="43.07004534148433" cy="48.492097597250655" fill="none" stroke="black" stroke-width="0.1" /><circle r="0.35000000000000014" cx="34.39444181425466" cy="47.200232109190885" fill="none" stroke="black" stroke-width="0.1" /><circle r="0.35200000000000015" cx="30.825254298506955" cy="39.08761778133562" fill="none" stroke="black" stroke-width="0.1" /><circle r="0.35400000000000015" cx="35.83735003709824" cy="31.666839117936455" fill="none" stroke="black" stroke-width="0.1" /><circle r="0.35600000000000015" cx="44.87941530986651" cy="31.953919821811347" fill="none" stroke="black" stroke-width="0.1" /><circle r="0.35800000000000015" cx="49.503585469052766" cy="39.83602368338953" fill="none" stroke="black" stroke-width="0.1" /><circle r="0.36000000000000015" cx="45.258152474806" cy="48.03192583081365" fill="none" stroke="black" stroke-width="0.1" /><circle r="0.36200000000000015" cx="35.96932115144926" cy="48.817406252399046" fill="none" stroke="black" stroke-width="0.1" /><circle r="0.36400000000000016" cx="30.29727202774461" cy="41.30428903867698" fill="none" stroke="black" stroke-width="0.1" /><circle r="0.36600000000000016" cx="33.66210043804088" cy="32.41420708544463" fill="none" stroke="black" stroke-width="0.1" /><circle r="0.36800000000000016" cx="43.067227847242826" cy="30.503026096008355" fill="none" stroke="black" stroke-width="0.1" /><circle r="0.37000000000000016" cx="49.76180391928428" cy="37.50744924997581" fill="none" stroke="black" stroke-width="0.1" /><circle r="0.37200000000000016" cx="47.38270201504874" cy="46.994612995512725" fill="none" stroke="black" stroke-width="0.1" /><circle r="0.37400000000000017" cx="38.00069268742607" cy="50.0684157279032" fill="none" stroke="black" stroke-width="0.1" /><circle r="0.37600000000000017" cx="30.32754202264262" cy="43.71122037559828" fill="none" stroke="black" stroke-width="0.1" /><circle r="0.37800000000000017" cx="31.626843695774227" cy="33.73922700419474" fill="none" stroke="black" stroke-width="0.1" /><circle r="0.38000000000000017" cx="40.83942733625845" cy="29.483448200710356" fill="none" stroke="black" stroke-width="0.1" /><circle r="0.3820000000000002" cx="49.42856400902109" cy="35.05852190859936" fill="none" stroke="black" stroke-width="0.1" /><circle r="0.3840000000000002" cx="49.289978345104316" cy="45.38923949620845" fill="none" stroke="black" stroke-width="0.1" /><circle r="0.3860000000000002" cx="40.39777994490678" cy="50.82769578975279" fill="none" stroke="black" stroke-width="0.1" /><circle r="0.3880000000000002" cx="30.97359284203327" cy="46.16351148442244" fill="none" stroke="black" stroke-width="0.1" /><circle r="0.3900000000000002" cx="29.88565602203677" cy="35.61244135133907" fill="none" stroke="black" stroke-width="0.1" /><circle r="0.3920000000000002" cx="38.304256027767394" cy="29.010056761719053" fill="none" stroke="black" stroke-width="0.1" /><circle r="0.3940000000000002" cx="48.46482897916802" cy="32.643173554212545" fill="none" stroke="black" stroke-width="0.1" /><circle r="0.3960000000000002" cx="50.828230477412944" cy="43.26581149609493" fill="none" stroke="black" stroke-width="0.1" /><circle r="0.3980000000000002" cx="43.036177681161355" cy="50.993436682330874" fill="none" stroke="black" stroke-width="0.1" /><circle r="0.4000000000000002" cx="32.254667633278125" cy="48.50057801146551" fill="none" stroke="black" stroke-width="0.1" /><circle r="0.4020000000000002" cx="28.58524670224475" cy="37.96347547243201" fill="none" stroke="black" stroke-width="0.1" /><circle r="0.4040000000000002" cx="35.600665261515246" cy="29.169397345541583" fill="none" stroke="black" stroke-width="0.1" /><circle r="0.4060000000000002" cx="46.872143652637085" cy="30.426084050007525" fill="none" stroke="black" stroke-width="0.1" /><circle r="0.4080000000000002" cx="51.8584922415103" cy="40.7145360439058" fill="none" stroke="black" stroke-width="0.1" /><circle r="0.4100000000000002" cx="45.764298487621225" cy="50.49635593649568" fill="none" stroke="black" stroke-width="0.1" /><circle r="0.4120000000000002" cx="34.14777007845799" cy="50.556339561865606" fill="none" stroke="black" stroke-width="0.1" /><circle r="0.4140000000000002" cx="27.854198683533504" cy="40.683180342897266" fill="none" stroke="black" stroke-width="0.1" /><circle r="0.4160000000000002" cx="32.89070160199651" cy="30.01173306883794" fill="none" stroke="black" stroke-width="0.1" /><circle r="0.4180000000000002" cx="44.6952702995381" cy="28.571944092966817" fill="none" stroke="black" stroke-width="0.1" /><circle r="0.4200000000000002" cx="52.26509671995326" cy="37.86226698341624" fill="none" stroke="black" stroke-width="0.1" /><circle r="0.4220000000000002" cx="48.41204928467518" cy="49.306688553518725" fill="none" stroke="black" stroke-width="0.1" /><circle r="0.4240000000000002" cx="36.586419280891874" cy="52.170335520195565" fill="none" stroke="black" stroke-width="0.1" /><circle r="0.4260000000000002" cx="27.792882343861265" cy="43.62856769665203" fill="none" stroke="black" stroke-width="0.1" /><circle r="0.4280000000000002" cx="30.349891895589657" cy="31.545160346097955" fill="none" stroke="black" stroke-width="0.1" /><circle r="0.4300000000000002" cx="42.021992424399464" cy="27.23414038790682" fill="none" stroke="black" stroke-width="0.1" /><circle r="0.4320000000000002" cx="51.965155049791115" cy="34.86624263969762" fill="none" stroke="black" stroke-width="0.1" /><circle r="0.4340000000000002" cx="50.80124275332494" cy="47.438842650825876" fill="none" stroke="black" stroke-width="0.1" /><circle r="0.4360000000000002" cx="39.46231474977049" cy="53.19905279070004" fill="none" stroke="black" stroke-width="0.1" /><circle r="0.4380000000000002" cx="28.464756336591854" cy="46.63032266377761" fill="none" stroke="black" stroke-width="0.1" /><circle r="0.4400000000000002" cx="28.15619300485568" cy="33.732286233260865" fill="none" stroke="black" stroke-width="0.1" /><circle r="0.4420000000000002" cx="38.97997747146237" cy="26.54360453013971" fill="none" stroke="black" stroke-width="0.1" /><circle r="0.44400000000000023" cx="50.916313647791675" cy="31.90542179338305" fill="none" stroke="black" stroke-width="0.1" /><circle r="0.44600000000000023" cx="52.75711544483385" cy="44.95330501051395" fill="none" stroke="black" stroke-width="0.1" /><circle r="0.44800000000000023" cx="42.6299252353922" cy="53.52671036343457" fill="none" stroke="black" stroke-width="0.1" /><circle r="0.45000000000000023" cx="29.88970184843462" cy="49.50249947574082" fill="none" stroke="black" stroke-width="0.1" /><circle r="0.45200000000000023" cx="26.478187576400998" cy="36.48980217352288" fill="none" stroke="black" stroke-width="0.1" /><circle r="0.45400000000000024" cx="35.73078153838131" cy="26.598582212057742" fill="none" stroke="black" stroke-width="0.1" /><circle r="0.45600000000000024" cx="49.12219427411907" cy="29.169895123996703" fill="none" stroke="black" stroke-width="0.1" /><circle r="0.45800000000000024" cx="54.12022849124792" cy="41.95554911852183" fill="none" stroke="black" stroke-width="0.1" /><circle r="0.46000000000000024" cx="45.91382143731914" cy="53.07475491194789" fill="none" stroke="black" stroke-width="0.1" /><circle r="0.46200000000000024" cx="32.03992464077971" cy="52.05384690775252" fill="none" stroke="black" stroke-width="0.1" /><circle r="0.46400000000000025" cx="25.463281448022713" cy="39.69110885315285" fill="none" stroke="black" stroke-width="0.1" /><circle r="0.46600000000000025" cx="32.46127144465995" cy="27.45604540948503" fill="none" stroke="black" stroke-width="0.1" /><circle r="0.46800000000000025" cx="46.63505338232776" cy="26.84899370338292" fill="none" stroke="black" stroke-width="0.1" /><circle r="0.47000000000000025" cx="54.757975619605" cy="38.59188757155342" fill="none" stroke="black" stroke-width="0.1" /><circle r="0.47200000000000025" cx="49.11838494426075" cy="51.809380001011064" fill="none" stroke="black" stroke-width="0.1" /><circle r="0.47400000000000025" cx="34.83880902808766" cy="54.10008272144003" fill="none" stroke="black" stroke-width="0.1" /><circle r="0.47600000000000026" cx="25.226685383629693" cy="43.171951330922454" fill="none" stroke="black" stroke-width="0.1" /><circle r="0.47800000000000026" cx="29.372919494790416" cy="29.12538805585249" fill="none" stroke="black" stroke-width="0.1" /><circle r="0.48000000000000026" cx="43.55536341168843" cy="25.11882427323605" fill="none" stroke="black" stroke-width="0.1" /><circle r="0.48200000000000026" cx="54.57492096230567" cy="35.042409461992236" fill="none" stroke="black" stroke-width="0.1" /><circle r="0.48400000000000026" cx="52.03935642825297" cy="49.746486381947356" fill="none" stroke="black" stroke-width="0.1" /><circle r="0.48600000000000027" cx="38.16292821603426" cy="55.47634944877371" fill="none" stroke="black" stroke-width="0.1" /><circle r="0.48800000000000027" cx="25.84194081501514" cy="46.738824831858096" fill="none" stroke="black" stroke-width="0.1" /><circle r="0.49000000000000027" cx="26.669582105116405" cy="31.564919458133865" fill="none" stroke="black" stroke-width="0.1" /><circle r="0.49200000000000027" cx="40.02820922150177" cy="24.130025071228886" fill="none" stroke="black" stroke-width="0.1" /><circle r="0.49400000000000027" cx="53.52123733581776" cy="31.511338980234314" fill="none" stroke="black" stroke-width="0.1" /><circle r="0.4960000000000003" cx="54.47654645979348" cy="46.95364671215345" fill="none" stroke="black" stroke-width="0.1" /><circle r="0.4980000000000003" cx="41.847216976628644" cy="56.04904403512111" fill="none" stroke="black" stroke-width="0.1" /><circle r="0.5000000000000002" cx="27.333676368742097" cy="50.17972227854174" fill="none" stroke="black" stroke-width="0.1" /><circle r="0.5020000000000002" cx="24.544494507703952" cy="34.68150632438016" fill="none" stroke="black" stroke-width="0.1" /><circle r="0.5040000000000002" cx="36.23659614672917" cy="23.99655063940315" fill="none" stroke="black" stroke-width="0.1" /><circle r="0.5060000000000002" cx="51.59861243629749" cy="28.215331377057453" fill="none" stroke="black" stroke-width="0.1" /><circle r="0.5080000000000002" cx="56.246932048570656" cy="43.54881656459294" fill="none" stroke="black" stroke-width="0.1" /><circle r="0.5100000000000002" cx="45.69310770146287" cy="55.7262249029939" fill="none" stroke="black" stroke-width="0.1" /><circle r="0.5120000000000002" cx="29.6731625367234" cy="53.2766271321849" fill="none" stroke="black" stroke-width="0.1" /><circle r="0.5140000000000002" cx="23.16729135813955" cy="38.33352324401512" fill="none" stroke="black" stroke-width="0.1" /><circle r="0.5160000000000002" cx="32.39196950752776" cy="24.786257132920447" fill="none" stroke="black" stroke-width="0.1" /><circle r="0.5180000000000002" cx="48.86313086015544" cy="25.370374702140808" fill="none" stroke="black" stroke-width="0.1" /><circle r="0.5200000000000002" cx="57.197308578748235" cy="39.69573424886536" fill="none" stroke="black" stroke-width="0.1" /><circle r="0.5220000000000002" cx="49.47923235421657" cy="54.46586253822339" fill="none" stroke="black" stroke-width="0.1" /><circle r="0.5240000000000002" cx="32.777072303025264" cy="55.819020686637856" fill="none" stroke="black" stroke-width="0.1" /><circle r="0.5260000000000002" cx="22.67189116609543" cy="42.337064235394394" fill="none" stroke="black" stroke-width="0.1" /><circle r="0.5280000000000002" cx="28.722435881160145" cy="26.513972136115953" fill="none" stroke="black" stroke-width="0.1" /><circle r="0.5300000000000002" cx="45.424816214583046" cy="23.178079953881664" fill="none" stroke="black" stroke-width="0.1" /><circle r="0.5320000000000003" cx="57.215664839853645" cy="35.5961625686422" fill="none" stroke="black" stroke-width="0.1" /><circle r="0.5340000000000003" cx="52.97411353270726" cy="52.28131112872006" fill="none" stroke="black" stroke-width="0.1" /><circle r="0.5360000000000003" cx="36.5096649373096" cy="57.61758102436753" fill="none" stroke="black" stroke-width="0.1" /><circle r="0.5380000000000003" cx="23.1460579326589" cy="46.4751572792258" fill="none" stroke="black" stroke-width="0.1" /><circle r="0.5400000000000003" cx="25.459341609245293" cy="29.137599088443864" fill="none" stroke="black" stroke-width="0.1" /><circle r="0.5420000000000003" cx="41.4437196114936" cy="21.81221017596174" fill="none" stroke="black" stroke-width="0.1" /><circle r="0.5440000000000003" cx="56.240499859281584" cy="31.479333105872787" fill="none" stroke="black" stroke-width="0.1" /><circle r="0.5460000000000003" cx="55.95011962644604" cy="49.243533355923034" fill="none" stroke="black" stroke-width="0.1" /><circle r="0.5480000000000003" cx="40.68839974098204" cy="58.51720836942266" fill="none" stroke="black" stroke-width="0.1" /><circle r="0.5500000000000003" cx="24.623376350972165" cy="50.50952283199188" fill="none" stroke="black" stroke-width="0.1" /><circle r="0.5520000000000003" cx="22.822992736474255" cy="32.557633342223426" fill="none" stroke="black" stroke-width="0.1" /><circle r="0.5540000000000003" cx="37.12265646158438" cy="21.406315073070147" fill="none" stroke="black" stroke-width="0.1" /><circle r="0.5560000000000003" cx="54.26740243250823" cy="27.58914475836339" fill="none" stroke="black" stroke-width="0.1" /><circle r="0.5580000000000003" cx="58.19785211970019" cy="45.479799561071914" fill="none" stroke="black" stroke-width="0.1" /><circle r="0.5600000000000003" cx="45.09276902556307" cy="58.408522582007116" fill="none" stroke="black" stroke-width="0.1" /><circle r="0.5620000000000003" cx="27.078250836916915" cy="54.194239097829865" fill="none" stroke="black" stroke-width="0.1" /><circle r="0.5640000000000003" cx="21.008383752924686" cy="36.62026445948425" fill="none" stroke="black" stroke-width="0.1" /><circle r="0.5660000000000003" cx="32.69690949110569" cy="22.04329946736043" fill="none" stroke="black" stroke-width="0.1" /><circle r="0.5680000000000003" cx="51.35236258616441" cy="24.169830584853024" fill="none" stroke="black" stroke-width="0.1" /><circle r="0.5700000000000003" cx="59.54007529966992" cy="41.16879522724458" fill="none" stroke="black" stroke-width="0.1" /><circle r="0.5720000000000003" cx="49.4759284981667" cy="57.237043803901884" fill="none" stroke="black" stroke-width="0.1" /><circle r="0.5740000000000003" cx="30.42437008477348" cy="57.29053315333623" fill="none" stroke="black" stroke-width="0.1" /><circle r="0.5760000000000003" cx="20.17183366705903" cy="41.124019516390355" fill="none" stroke="black" stroke-width="0.1" /><circle r="0.5780000000000003" cx="28.421418742602288" cy="23.747662289201642" fill="none" stroke="black" stroke-width="0.1" /><circle r="0.5800000000000003" cx="47.61147065858975" cy="21.450929553925693" fill="none" stroke="black" stroke-width="0.1" /><circle r="0.5820000000000003" cx="59.84429496062762" cy="36.53229434415068" fill="none" stroke="black" stroke-width="0.1" /><circle r="0.5840000000000003" cx="53.57851193268364" cy="55.00938418769964" fill="none" stroke="black" stroke-width="0.1" /><circle r="0.5860000000000003" cx="34.516877176447636" cy="59.58181781913618" fill="none" stroke="black" stroke-width="0.1" /><circle r="0.5880000000000003" cx="20.419403684705124" cy="45.82967820187878" fill="none" stroke="black" stroke-width="0.1" /><circle r="0.5900000000000003" cx="24.55615593814177" cy="26.481002049226944" fill="none" stroke="black" stroke-width="0.1" /><circle r="0.5920000000000003" cx="43.2168736370318" cy="19.632473787831533" fill="none" stroke="black" stroke-width="0.1" /><circle r="0.5940000000000003" cx="59.033144874076726" cy="31.823777082148112" fill="none" stroke="black" stroke-width="0.1" /><circle r="0.5960000000000003" cx="57.1438580140516" cy="51.795941352602526" fill="none" stroke="black" stroke-width="0.1" /><circle r="0.5980000000000003" cx="39.15826218429011" cy="60.88804687972534" fill="none" stroke="black" stroke-width="0.1" /><circle r="0.6000000000000003" cx="21.797891087906898" cy="50.47297623182161" fill="none" stroke="black" stroke-width="0.1" /><circle r="0.6020000000000003" cx="21.350519238787054" cy="30.141202287441548" fill="none" stroke="black" stroke-width="0.1" /><circle r="0.6040000000000003" cx="38.38908727972815" cy="18.871321380463332" fill="none" stroke="black" stroke-width="0.1" /><circle r="0.6060000000000003" cx="57.09184612323804" cy="27.31457446123496" fill="none" stroke="black" stroke-width="0.1" /><circle r="0.6080000000000003" cx="59.93376135237992" cy="47.72978384861854" fill="none" stroke="black" stroke-width="0.1" /><circle r="0.6100000000000003" cx="44.107762981448495" cy="61.07847025493645" fill="none" stroke="black" stroke-width="0.1" /><circle r="0.6120000000000003" cx="24.289062209387303" cy="54.779422645675204" fill="none" stroke="black" stroke-width="0.1" /><circle r="0.6140000000000003" cx="19.027675453020336" cy="34.565496517973926" fill="none" stroke="black" stroke-width="0.1" /><circle r="0.6160000000000003" cx="33.38599257255865" cy="19.269527121897344" fill="none" stroke="black" stroke-width="0.1" /><circle r="0.6180000000000003" cx="54.07215978477651" cy="23.278297216141002" fill="none" stroke="black" stroke-width="0.1" /><circle r="0.6200000000000003" cx="61.743795266034155" cy="43.00164412094269" fill="none" stroke="black" stroke-width="0.1" /><circle r="0.6220000000000003" cx="49.093834723175206" cy="60.0819370337518" fill="none" stroke="black" stroke-width="0.1" /><circle r="0.6240000000000003" cx="27.80761039578053" cy="58.48040139550329" fill="none" stroke="black" stroke-width="0.1" /><circle r="0.6260000000000003" cx="17.76981316166839" cy="39.537379061361236" fill="none" stroke="black" stroke-width="0.1" /><circle r="0.6280000000000003" cx="28.489062012984416" cy="20.86554921982132" fill="none" stroke="black" stroke-width="0.1" /><circle r="0.6300000000000003" cx="50.09244963524861" cy="19.974439199863365" fill="none" stroke="black" stroke-width="0.1" /><circle r="0.6320000000000003" cx="62.41724644914739" cy="37.85117203150477" fill="none" stroke="black" stroke-width="0.1" /><circle r="0.6340000000000003" cx="53.82904327931824" cy="57.894015395621565" fill="none" stroke="black" stroke-width="0.1" /><circle r="0.6360000000000003" cx="32.20311221651217" cy="61.329618864192035" fill="none" stroke="black" stroke-width="0.1" /><circle r="0.6380000000000003" cx="17.705248263070164" cy="44.7970897415686" fill="none" stroke="black" stroke-width="0.1" /><circle r="0.6400000000000003" cx="23.98755132291884" cy="23.62894360880031" fill="none" stroke="black" stroke-width="0.1" /><circle r="0.6420000000000003" cx="45.333697601705104" cy="17.632128065156408" fill="none" stroke="black" stroke-width="0.1" /><circle r="0.6440000000000003" cx="61.85675312178914" cy="32.55483761270722" fill="none" stroke="black" stroke-width="0.1" /><circle r="0.6460000000000004" cx="58.02656598796369" cy="54.58036843435682" fill="none" stroke="black" stroke-width="0.1" /><circle r="0.6480000000000004" cx="37.266019006146045" cy="63.11890455720693" fill="none" stroke="black" stroke-width="0.1" /><circle r="0.6500000000000004" cx="18.89824281969195" cy="50.05517125181446" fill="none" stroke="black" stroke-width="0.1" /><circle r="0.6520000000000004" cx="20.161543019136378" cy="27.459006234814503" fill="none" stroke="black" stroke-width="0.1" /><circle r="0.6540000000000004" cx="40.03155749827702" cy="16.43502113040836" fill="none" stroke="black" stroke-width="0.1" /><circle r="0.6560000000000004" cx="60.03284719429351" cy="27.41109086179089" fill="none" stroke="black" stroke-width="0.1" /><circle r="0.6580000000000004" cx="61.417355954800705" cy="50.27603468782393" fill="none" stroke="black" stroke-width="0.1" /><circle r="0.6600000000000004" cx="42.73747497049745" cy="63.69237706068975" fill="none" stroke="black" stroke-width="0.1" /><circle r="0.6620000000000004" cx="21.34226211460139" cy="55.00839238558744" fill="none" stroke="black" stroke-width="0.1" /><circle r="0.6640000000000004" cx="17.26482946445158" cy="32.187598274568266" fill="none" stroke="black" stroke-width="0.1" /><circle r="0.6660000000000004" cx="34.4647777740334" cy="16.50830913047843" fill="none" stroke="black" stroke-width="0.1" /><circle r="0.6680000000000004" cx="56.98876229063596" cy="22.72357514321139" fill="none" stroke="black" stroke-width="0.1" /><circle r="0.6700000000000004" cx="63.76695278095217" cy="45.18050002489986" fill="none" stroke="black" stroke-width="0.1" /><circle r="0.6720000000000004" cx="48.322512322211445" cy="62.95805280607735" fill="none" stroke="black" stroke-width="0.1" /><circle r="0.6740000000000004" cx="24.957210277795475" cy="59.357161526771826" fill="none" stroke="black" stroke-width="0.1" /><circle r="0.6760000000000004" cx="15.508667010024126" cy="37.58614242878403" fill="none" stroke="black" stroke-width="0.1" /><circle r="0.6780000000000004" cx="28.940556619168603" cy="17.908695441278667" fill="none" stroke="black" stroke-width="0.1" /><circle r="0.6800000000000004" cx="52.84107477444002" cy="18.783336769481455" fill="none" stroke="black" stroke-width="0.1" /><circle r="0.6820000000000004" cx="64.89090904416415" cy="39.54869970624402" fill="none" stroke="black" stroke-width="0.1" /><circle r="0.6840000000000004" cx="53.70595307901509" cy="60.896098922905054" fill="none" stroke="black" stroke-width="0.1" /><circle r="0.6860000000000004" cx="29.590961623895957" cy="62.82343412120075" fill="none" stroke="black" stroke-width="0.1" /><circle r="0.6880000000000004" cx="15.047415341512576" cy="43.37652467205778" fill="none" stroke="black" stroke-width="0.1" /><circle r="0.6900000000000004" cx="23.777598306951166" cy="20.618067477432408" fill="none" stroke="black" stroke-width="0.1" /><circle r="0.6920000000000004" cx="47.775982922256176" cy="15.851066491607188" fill="none" stroke="black" stroke-width="0.1" /><circle r="0.6940000000000004" cx="64.66785057475528" cy="33.6783409597209" fill="none" stroke="black" stroke-width="0.1" /><circle r="0.6960000000000004" cx="58.57016025419216" cy="57.56310758760016" fill="none" stroke="black" stroke-width="0.1" /><circle r="0.6980000000000004" cx="35.02525545898997" cy="65.1680539921482" fill="none" stroke="black" stroke-width="0.1" /><circle r="0.7000000000000004" cx="15.966996513465116" cy="49.24539038744166" fill="none" stroke="black" stroke-width="0.1" /><circle r="0.7020000000000004" cx="19.287804841788315" cy="24.541377916251758" fill="none" stroke="black" stroke-width="0.1" /><circle r="0.7040000000000004" cx="42.04128654099841" cy="14.140441820140563" fill="none" stroke="black" stroke-width="0.1" /><circle r="0.7060000000000004" cx="63.0492983297895" cy="27.894172002528734" fill="none" stroke="black" stroke-width="0.1" /><circle r="0.7080000000000004" cx="62.613640480859445" cy="53.091988550347544" fill="none" stroke="black" stroke-width="0.1" /><circle r="0.7100000000000004" cx="40.985760969928215" cy="66.20646676509755" fill="none" stroke="black" stroke-width="0.1" /><circle r="0.7120000000000004" cx="18.276969503212307" cy="54.86110177731207" fill="none" stroke="black" stroke-width="0.1" /><circle r="0.7140000000000004" cx="15.757650707741963" cy="29.509016929183794" fill="none" stroke="black" stroke-width="0.1" /><circle r="0.7160000000000004" cx="35.934390579827024" cy="13.803608644651138" fill="none" stroke="black" stroke-width="0.1" /><circle r="0.7180000000000004" cx="60.06554551942594" cy="22.53002839132698" fill="none" stroke="black" stroke-width="0.1" /><circle r="0.7200000000000004" cx="65.56941543469452" cy="47.687326864912244" fill="none" stroke="black" stroke-width="0.1" /><circle r="0.7220000000000004" cx="47.15586138006188" cy="65.8218061511842" fill="none" stroke="black" stroke-width="0.1" /><circle r="0.7240000000000004" cx="21.9068251919461" cy="59.89243889937077" fill="none" stroke="black" stroke-width="0.1" /><circle r="0.7260000000000004" cx="13.430342470139745" cy="35.28369596548994" fill="none" stroke="black" stroke-width="0.1" /><circle r="0.7280000000000004" cx="29.78690596785001" cy="14.91974660633474" fill="none" stroke="black" stroke-width="0.1" /><circle r="0.7300000000000004" cx="55.827097108313154" cy="17.909648664540875" fill="none" stroke="black" stroke-width="0.1" /><circle r="0.7320000000000004" cx="67.22205741044272" cy="41.61632000004828" fill="none" stroke="black" stroke-width="0.1" /><circle r="0.7340000000000004" cx="53.19346847883474" cy="63.97447839887219" fill="none" stroke="black" stroke-width="0.1" /><circle r="0.7360000000000004" cx="26.7068735641909" cy="64.02799179210756" fill="none" stroke="black" stroke-width="0.1" /><circle r="0.7380000000000004" cx="12.489854277589359" cy="41.57159388256847" fill="none" stroke="black" stroke-width="0.1" /><circle r="0.7400000000000004" cx="23.946643651440517" cy="17.48750902396272" fill="none" stroke="black" stroke-width="0.1" /><circle r="0.7420000000000004" cx="50.52142835054232" cy="14.327357548074659" fill="none" stroke="black" stroke-width="0.1" /><circle r="0.7440000000000004" cx="67.42232811179582" cy="35.19567685006437" fill="none" stroke="black" stroke-width="0.1" /><circle r="0.7460000000000004" cx="58.749974770029276" cy="60.707551065330264" fill="none" stroke="black" stroke-width="0.1" /><circle r="0.7480000000000004" cx="32.45383247643764" cy="66.99511540457509" fill="none" stroke="black" stroke-width="0.1" /><circle r="0.7500000000000004" cx="13.047853815138904" cy="48.03725332622234" fill="none" stroke="black" stroke-width="0.1" /><circle r="0.7520000000000004" cx="18.757979481051024" cy="21.42192248179201" fill="none" stroke="black" stroke-width="0.1" /><circle r="0.7540000000000004" cx="44.40509061088353" cy="12.029758640478267" fill="none" stroke="black" stroke-width="0.1" /><circle r="0.7560000000000004" cx="66.09846830315848" cy="28.775114600628385" fill="none" stroke="black" stroke-width="0.1" /><circle r="0.7580000000000005" cx="63.49029400947011" cy="56.14748006187487" fill="none" stroke="black" stroke-width="0.1" /><circle r="0.7600000000000005" cx="38.860950531855245" cy="68.57730859106772" fill="none" stroke="black" stroke-width="0.1" /><circle r="0.7620000000000005" cx="15.134393766548015" cy="54.32147519087709" fill="none" stroke="black" stroke-width="0.1" /><circle r="0.7640000000000005" cx="14.541696193472461" cy="26.556084376397642" fill="none" stroke="black" stroke-width="0.1" /><circle r="0.7660000000000005" cx="37.79147069808739" cy="11.199555154085079" fill="none" stroke="black" stroke-width="0.1" /><circle r="0.7680000000000005" cx="63.263354703713716" cy="22.718312352979105" fill="none" stroke="black" stroke-width="0.1" /><circle r="0.7700000000000005" cx="67.11284247731064" cy="50.49997132379577" fill="none" stroke="black" stroke-width="0.1" /><circle r="0.7720000000000005" cx="45.59222159335022" cy="68.6289356709407" fill="none" stroke="black" stroke-width="0.1" /><circle r="0.7740000000000005" cx="18.69304799393083" cy="60.0612567206309" fill="none" stroke="black" stroke-width="0.1" /><circle r="0.7760000000000005" cx="11.575475120032571" cy="32.647722438039615" fill="none" stroke="black" stroke-width="0.1" /><circle r="0.7780000000000005" cx="31.034777838246022" cy="11.942526546561808" fill="none" stroke="black" stroke-width="0.1" /><circle r="0.7800000000000005" cx="59.01696092029243" cy="17.382358713692895" fill="none" stroke="black" stroke-width="0.1" /><circle r="0.7820000000000005" cx="69.36828040295615" cy="44.04105570035046" fill="none" stroke="black" stroke-width="0.1" /><circle r="0.7840000000000005" cx="52.27999174633041" cy="67.08633239680208" fill="none" stroke="black" stroke-width="0.1" /><circle r="0.7860000000000005" cx="23.580929608960673" cy="64.91066744376971" fill="none" stroke="black" stroke-width="0.1" /><circle r="0.7880000000000005" cx="10.076208785123868" cy="39.39039412035732" fill="none" stroke="black" stroke-width="0.1" /><circle r="0.7900000000000005" cx="24.511073993453856" cy="14.278534330957513" fill="none" stroke="black" stroke-width="0.1" /><circle r="0.7920000000000005" cx="53.54381956166196" cy="13.096852383389496" fill="none" stroke="black" stroke-width="0.1" /><circle r="0.7940000000000005" cx="70.07586925576976" cy="37.1037414635713" fill="none" stroke="black" stroke-width="0.1" /><circle r="0.7960000000000005" cx="58.54503687461714" cy="63.97452204568599" fill="none" stroke="black" stroke-width="0.1" /><circle r="0.7980000000000005" cx="29.573753069970074" cy="68.56146704835089" fill="none" stroke="black" stroke-width="0.1" /><circle r="0.8000000000000005" cx="10.185234511486872" cy="46.42882250999038" fill="none" stroke="black" stroke-width="0.1" /><circle r="0.8020000000000005" cx="18.59736339883749" cy="18.137219492512592" fill="none" stroke="black" stroke-width="0.1" /><circle r="0.8040000000000005" cx="47.10546853004568" cy="10.143871366693858" fill="none" stroke="black" stroke-width="0.1" /><circle r="0.8060000000000005" cx="69.13640582290405" cy="30.06088129042444" fill="none" stroke="black" stroke-width="0.1" /><circle r="0.8080000000000005" cx="64.01801458571063" cy="59.40900243084594" fill="none" stroke="black" stroke-width="0.1" /><circle r="0.8100000000000005" cx="36.375809860609145" cy="70.76224749321048" fill="none" stroke="black" stroke-width="0.1" /><circle r="0.8120000000000005" cx="11.957450886377991" cy="53.37760588483938" fill="none" stroke="black" stroke-width="0.1" /><circle r="0.8140000000000005" cx="13.64990295898956" cy="23.358797791946497" fill="none" stroke="black" stroke-width="0.1" /><circle r="0.8160000000000005" cx="40.02815955278937" cy="8.74001268331066" fill="none" stroke="black" stroke-width="0.1" /><circle r="0.8180000000000005" cx="66.54086370304792" cy="23.305133157277794" fill="none" stroke="black" stroke-width="0.1" /><circle r="0.8200000000000005" cx="68.36107964273617" cy="53.592338338136216" fill="none" stroke="black" stroke-width="0.1" /><circle r="0.8220000000000005" cx="43.63443407530849" cy="71.334931210268" fill="none" stroke="black" stroke-width="0.1" /><circle r="0.8240000000000005" cx="15.355079883691324" cy="59.84231620705494" fill="none" stroke="black" stroke-width="0.1" /><circle r="0.8260000000000005" cx="9.982976435457527" cy="29.700071780556286" fill="none" stroke="black" stroke-width="0.1" /><circle r="0.8280000000000005" cx="32.6863940606411" cy="9.021619342454887" fill="none" stroke="black" stroke-width="0.1" /><circle r="0.8300000000000005" cx="62.37409870301303" cy="17.22709214378143" fill="none" stroke="black" stroke-width="0.1" /><circle r="0.8320000000000005" cx="71.28840569075334" cy="46.80559103464387" fill="none" stroke="black" stroke-width="0.1" /><circle r="0.8340000000000005" cx="50.958257691312134" cy="70.18757713647767" fill="none" stroke="black" stroke-width="0.1" /><circle r="0.8360000000000005" cx="20.246587758801695" cy="65.44183178997275" fill="none" stroke="black" stroke-width="0.1" /><circle r="0.8380000000000005" cx="7.8493856686619665" cy="36.845475770016606" fill="none" stroke="black" stroke-width="0.1" /><circle r="0.8400000000000005" cx="25.483113358405312" cy="11.034158009215744" fill="none" stroke="black" stroke-width="0.1" /><circle r="0.8420000000000005" cx="56.81324475654045" cy="12.19280981910154" fill="none" stroke="black" stroke-width="0.1" /><circle r="0.8440000000000005" cx="72.5843824302224" cy="39.39492013667331" fill="none" stroke="black" stroke-width="0.1" /><circle r="0.8460000000000005" cx="57.93831221572249" cy="67.32263127612808" fill="none" stroke="black" stroke-width="0.1" /><circle r="0.8480000000000005" cx="26.410990954027135" cy="69.83064251987305" fill="none" stroke="black" stroke-width="0.1" /><circle r="0.8500000000000005" cx="7.42384894965263" cy="44.42266975309509" fill="none" stroke="black" stroke-width="0.1" /><circle r="0.8520000000000005" cx="18.827590563067066" cy="14.726496510478341" fill="none" stroke="black" stroke-width="0.1" /><circle r="0.8540000000000005" cx="50.12072661140168" cy="8.521989931743526" fill="none" stroke="black" stroke-width="0.1" /><circle r="0.8560000000000005" cx="72.11835682721915" cy="31.753985525151208" fill="none" stroke="black" stroke-width="0.1" /><circle r="0.8580000000000005" cx="64.17083895619974" cy="62.839999324725184" fill="none" stroke="black" stroke-width="0.1" /><circle r="0.8600000000000005" cx="33.54746511183963" cy="72.71983027946604" fill="none" stroke="black" stroke-width="0.1" /><circle r="0.8620000000000005" cx="8.790361904817534" cy="52.02191810684655" fill="none" stroke="black" stroke-width="0.1" /><circle r="0.8640000000000005" cx="13.112236948752294" cy="19.950566140163758" fill="none" stroke="black" stroke-width="0.1" /><circle r="0.8660000000000005" cx="42.63212777651633" cy="6.468147555375346" fill="none" stroke="black" stroke-width="0.1" /><circle r="0.8680000000000005" cx="69.85495549380755" cy="24.303040661874697" fill="none" stroke="black" stroke-width="0.1" /><circle r="0.8700000000000006" cx="69.28053706904414" cy="56.93460285770885" fill="none" stroke="black" stroke-width="0.1" /><circle r="0.8720000000000006" cx="41.28986346417015" cy="73.8954665441234" fill="none" stroke="black" stroke-width="0.1" /><circle r="0.8740000000000006" cx="11.934375959348369" cy="59.2182458150786" fill="none" stroke="black" stroke-width="0.1" /><circle r="0.8760000000000006" cx="8.689634007151863" cy="26.46659387316379" fill="none" stroke="black" stroke-width="0.1" /><circle r="0.8780000000000006" cx="34.73945906363525" cy="6.201941859674548" fill="none" stroke="black" stroke-width="0.1" /><circle r="0.8800000000000006" cx="65.85925489499144" cy="17.46582736651176" fill="none" stroke="black" stroke-width="0.1" /><circle r="0.8820000000000006" cx="72.94291617415104" cy="49.88839213132478" fill="none" stroke="black" stroke-width="0.1" /><circle r="0.8840000000000006" cx="49.225453559167796" cy="73.23328311538941" fill="none" stroke="black" stroke-width="0.1" /><circle r="0.8860000000000006" cx="16.740393682378567" cy="65.59517413398966" fill="none" stroke="black" stroke-width="0.1" /><circle r="0.8880000000000006" cx="5.851127221595455" cy="33.953770764821336" fill="none" stroke="black" stroke-width="0.1" /><circle r="0.8900000000000006" cx="26.870656365550463" cy="7.798742870370305" fill="none" stroke="black" stroke-width="0.1" /><circle r="0.8920000000000006" cx="60.29634463635655" cy="11.645541895457981" fill="none" stroke="black" stroke-width="0.1" /><circle r="0.8940000000000006" cx="74.904434145751" cy="42.05711010033973" fill="none" stroke="black" stroke-width="0.1" /><circle r="0.8960000000000006" cx="56.91691629015473" cy="70.70865583564161" fill="none" stroke="black" stroke-width="0.1" /><circle r="0.8980000000000006" cx="22.995282663210414" cy="70.76871159629331" fill="none" stroke="black" stroke-width="0.1" /><circle r="0.9000000000000006" cx="4.8082649436691085" cy="42.025903187469474" fill="none" stroke="black" stroke-width="0.1" /><text x="36" y="78" font-size="2" font-family="Arial, Helvetica, sans-serif" fill="black" stroke="none">VARICITE</text></svg>