<svg width="80" height="80" fill="none" stroke="black" viewBox="0 0 80 80"><circle r="40" cx="40" cy="40" stroke-width="0.1" /><circle r="0.2" cx="39.167706326905716" cy="41.81859485365136" fill="none" stroke="black" stroke-width="0.1" /><circle r="0.202" cx="38.09850854538005" cy="40.87940619056685" fill="none" stroke="black" stroke-width="0.1" /><circle r="0.20400000000000001" cx="37.8924205543581" cy="39.40484549879232" fill="none" stroke="black" stroke-width="0.1" /><circle r="0.20600000000000002" cx="38.734097564228904" cy="38.097707692517055" fill="none" stroke="black" stroke-width="0.1" /><circle r="0.20800000000000002" cx="40.28784291915281" cy="37.63747032740463" fill="none" stroke="black" stroke-width="0.1" /><circle r="0.21000000000000002" cx="41.825789145139865" cy="38.32903650623676" fill="none" stroke="black" stroke-width="0.1" /><circle r="0.21200000000000002" cx="42.56862246623007" cy="39.91586542935179" fill="none" stroke="black" stroke-width="0.1" /><circle r="0.21400000000000002" cx="42.07947776024716" cy="41.66673250542415" fill="none" stroke="black" stroke-width="0.1" /><circle r="0.21600000000000003" cx="40.5123721781033" cy="42.71202410592267" fill="none" stroke="black" stroke-width="0.1" /><circle r="0.21800000000000003" cx="38.57724241945512" cy="42.47523450747643" fill="none" stroke="black" stroke-width="0.1" /><circle r="0.22000000000000003" cx="37.219570472880015" cy="40.985754353132336" fill="none" stroke="black" stroke-width="0.1" /><circle r="0.22200000000000003" cx="37.158537659943335" cy="38.90541479544089" fill="none" stroke="black" stroke-width="0.1" /><circle r="0.22400000000000003" cx="38.50925794472612" cy="37.23643561235895" fill="none" stroke="black" stroke-width="0.1" /><circle r="0.22600000000000003" cx="40.68612435715262" cy="36.83859867044345" fill="none" stroke="black" stroke-width="0.1" /><circle r="0.22800000000000004" cx="42.65363302084526" cy="37.98825155879776" fill="none" stroke="black" stroke-width="0.1" /><circle r="0.23000000000000004" cx="43.41889114176785" cy="40.20447092884163" fill="none" stroke="black" stroke-width="0.1" /><circle r="0.23200000000000004" cx="42.53159377130536" cy="42.445696828531275" fill="none" stroke="black" stroke-width="0.1" /><circle r="0.23400000000000004" cx="40.34019938288203" cy="43.5989567071426" fill="none" stroke="black" stroke-width="0.1" /><circle r="0.23600000000000004" cx="37.86203042944728" cy="43.03202673395052" fill="none" stroke="black" stroke-width="0.1" /><circle r="0.23800000000000004" cx="36.31162723454496" cy="40.934842951008115" fill="none" stroke="black" stroke-width="0.1" /><circle r="0.24000000000000005" cx="36.505702865337156" cy="38.26798165867474" fill="none" stroke="black" stroke-width="0.1" /><circle r="0.24200000000000005" cx="38.43613945944822" cy="36.32381104814985" fill="none" stroke="black" stroke-width="0.1" /><circle r="0.24400000000000005" cx="41.232861721766064" cy="36.10023693347864" fill="none" stroke="black" stroke-width="0.1" /><circle r="0.24600000000000005" cx="43.55419797907231" cy="37.79049740313384" fill="none" stroke="black" stroke-width="0.1" /><circle r="0.24800000000000005" cx="44.23051432553051" cy="40.64895958385801" fill="none" stroke="black" stroke-width="0.1" /><circle r="0.25000000000000006" cx="42.85235705459493" cy="43.31733088990269" fill="none" stroke="black" stroke-width="0.1" /><circle r="0.25200000000000006" cx="40.00790777989992" cy="44.46999300525371" fill="none" stroke="black" stroke-width="0.1" /><circle r="0.25400000000000006" cx="37.0360347306314" cy="43.471906519763564" fill="none" stroke="black" stroke-width="0.1" /><circle r="0.25600000000000006" cx="35.39640807123885" cy="40.7228702189503" fill="none" stroke="black" stroke-width="0.1" /><circle r="0.25800000000000006" cx="35.952860674786" cy="37.503865331696545" fill="none" stroke="black" stroke-width="0.1" /><circle r="0.26000000000000006" cx="38.521696336258366" cy="35.38078813240093" fill="none" stroke="black" stroke-width="0.1" /><circle r="0.26200000000000007" cx="41.919630235283535" cy="35.442802971147145" fill="none" stroke="black" stroke-width="0.1" /><circle r="0.26400000000000007" cx="44.507759355639195" cy="37.745736130873915" fill="none" stroke="black" stroke-width="0.1" /><circle r="0.26600000000000007" cx="44.98203947621736" cy="41.24398860823236" fill="none" stroke="black" stroke-width="0.1" /><circle r="0.26800000000000007" cx="43.02900730310517" cy="44.263568312779284" fill="none" stroke="black" stroke-width="0.1" /><circle r="0.2700000000000001" cx="39.517636604126324" cy="45.30310763178735" fill="none" stroke="black" stroke-width="0.1" /><circle r="0.2720000000000001" cx="36.11526938379127" cy="43.77958569680469" fill="none" stroke="black" stroke-width="0.1" /><circle r="0.2740000000000001" cx="34.496035969146426" cy="40.348719008759346" fill="none" stroke="black" stroke-width="0.1" /><circle r="0.2760000000000001" cx="35.51750170708765" cy="36.626676853007126" fill="none" stroke="black" stroke-width="0.1" /><circle r="0.2780000000000001" cx="38.77028490831519" cy="34.42910906647037" fill="none" stroke="black" stroke-width="0.1" /><circle r="0.2800000000000001" cx="42.73552163493797" cy="34.88561622629018" fill="none" stroke="black" stroke-width="0.1" /><circle r="0.2820000000000001" cx="45.49342707632479" cy="37.86147622012247" fill="none" stroke="black" stroke-width="0.1" /><circle r="0.2840000000000001" cx="45.65273228127522" cy="41.981594750757345" fill="none" stroke="black" stroke-width="0.1" /><circle r="0.2860000000000001" cx="43.0510390956444" cy="45.26482529974636" fill="none" stroke="black" stroke-width="0.1" /><circle r="0.2880000000000001" cx="38.87422473309153" cy="46.07659691343906" fill="none" stroke="black" stroke-width="0.1" /><circle r="0.2900000000000001" cx="35.1175847483991" cy="43.94178212372715" fill="none" stroke="black" stroke-width="0.1" /><circle r="0.2920000000000001" cx="33.632716372905385" cy="39.813991365434795" fill="none" stroke="black" stroke-width="0.1" /><circle r="0.2940000000000001" cx="35.215404119588136" cy="35.65214222160547" fill="none" stroke="black" stroke-width="0.1" /><circle r="0.2960000000000001" cx="39.18358290598453" cy="33.491001372822446" fill="none" stroke="black" stroke-width="0.1" /><circle r="0.2980000000000001" cx="43.66728046046137" cy="34.446615534260374" fill="none" stroke="black" stroke-width="0.1" /><circle r="0.3000000000000001" cx="46.48943307018697" cy="38.14264746815159" fill="none" stroke="black" stroke-width="0.1" /><circle r="0.3020000000000001" cx="46.22287616380626" cy="42.85128694626336" fill="none" stroke="black" stroke-width="0.1" /><circle r="0.3040000000000001" cx="42.91036855589796" cy="46.300266253805496" fill="none" stroke="black" stroke-width="0.1" /><circle r="0.3060000000000001" cx="38.085163787177386" cy="46.769388988532356" fill="none" stroke="black" stroke-width="0.1" /><circle r="0.3080000000000001" cx="34.06242962945339" cy="43.947424235473925" fill="none" stroke="black" stroke-width="0.1" /><circle r="0.3100000000000001" cx="32.828423404972646" cy="39.12300847116075" fill="none" stroke="black" stroke-width="0.1" /><circle r="0.3120000000000001" cx="35.0603957214357" cy="34.59789767116642" fill="none" stroke="black" stroke-width="0.1" /><circle r="0.3140000000000001" cx="39.76054262482529" cy="32.58886748428593" fill="none" stroke="black" stroke-width="0.1" /><circle r="0.3160000000000001" cx="44.69947102982745" cy="34.14209320321564" fill="none" stroke="black" stroke-width="0.1" /><circle r="0.3180000000000001" cx="47.4734313448697" cy="38.5915082770854" fill="none" stroke="black" stroke-width="0.1" /><circle r="0.3200000000000001" cx="46.674060297787825" cy="43.840171759373824" fill="none" stroke="black" stroke-width="0.1" /><circle r="0.3220000000000001" cx="42.60146991463131" cy="47.34808677706436" fill="none" stroke="black" stroke-width="0.1" /><circle r="0.3240000000000001" cx="37.16051707343907" cy="47.36134747921662" fill="none" stroke="black" stroke-width="0.1" /><circle r="0.3260000000000001" cx="32.970591721219954" cy="43.787828434633546" fill="none" stroke="black" stroke-width="0.1" /><circle r="0.3280000000000001" cx="32.10458733263441" cy="38.28277584107291" fill="none" stroke="black" stroke-width="0.1" /><circle r="0.3300000000000001" cx="35.06413968972985" cy="33.483259403850745" fill="none" stroke="black" stroke-width="0.1" /><circle r="0.33200000000000013" cx="40.49737864757685" cy="31.74497035251026" fill="none" stroke="black" stroke-width="0.1" /><circle r="0.33400000000000013" cx="45.81467321731948" cy="33.986448605375735" fill="none" stroke="black" stroke-width="0.1" /><circle r="0.33600000000000013" cx="48.42280718479901" cy="39.20758651721588" fill="none" stroke="black" stroke-width="0.1" /><circle r="0.33800000000000013" cx="46.98945264880631" cy="44.93311024305098" fill="none" stroke="black" stroke-width="0.1" /><circle r="0.34000000000000014" cx="42.12148023130289" cy="48.385810731717655" fill="none" stroke="black" stroke-width="0.1" /><circle r="0.34200000000000014" cx="36.112805211231084" cy="47.83356506797306" fill="none" stroke="black" stroke-width="0.1" /><circle r="0.34400000000000014" cx="31.863919363805486" cy="43.456847101238445" fill="none" stroke="black" stroke-width="0.1" /><circle r="0.34600000000000014" cx="31.4817870196394" cy="37.30291405008736" fill="none" stroke="black" stroke-width="0.1" /><circle r="0.34800000000000014" cx="35.235946541223306" cy="32.32897043142722" fill="none" stroke="black" stroke-width="0.1" /><circle r="0.35000000000000014" cx="41.387590406526606" cy="30.981118813083555" fill="none" stroke="black" stroke-width="0.1" /><circle r="0.35200000000000015" cx="46.99370481500334" cy="33.991964300988286" fill="none" stroke="black" stroke-width="0.1" /><circle r="0.35400000000000015" cx="49.314991819447684" cy="39.98765481378336" fill="none" stroke="black" stroke-width="0.1" /><circle r="0.35600000000000015" cx="47.15405471808643" cy="46.11290447255847" fill="none" stroke="black" stroke-width="0.1" /><circle r="0.35800000000000015" cx="41.470270888741304" cy="49.39059787839517" fill="none" stroke="black" stroke-width="0.1" /><circle r="0.36000000000000015" cx="34.956859659564316" cy="48.168643431235715" fill="none" stroke="black" stroke-width="0.1" /><circle r="0.36200000000000015" cx="30.765027850109885" cy="42.95098532540473" fill="none" stroke="black" stroke-width="0.1" /><circle r="0.36400000000000016" cx="30.979451053957664" cy="36.195555663167795" fill="none" stroke="black" stroke-width="0.1" /><circle r="0.36600000000000016" cx="35.58261472156573" cy="31.1569274399747" fill="none" stroke="black" stroke-width="0.1" /><circle r="0.36800000000000016" cx="42.42201947708866" cy="30.318356459123102" fill="none" stroke="black" stroke-width="0.1" /><circle r="0.37000000000000016" cx="48.215867949251276" cy="34.16860746986916" fill="none" stroke="black" stroke-width="0.1" /><circle r="0.37200000000000016" cx="50.12777883497878" cy="40.9257407141074" fill="none" stroke="black" stroke-width="0.1" /><circle r="0.37400000000000017" cx="47.15493486502058" cy="47.36051167224896" fill="none" stroke="black" stroke-width="0.1" /><circle r="0.37600000000000017" cx="40.6504848479827" cy="50.33955847522249" fill="none" stroke="black" stroke-width="0.1" /><circle r="0.37800000000000017" cx="33.7096457352809" cy="48.35095612635646" fill="none" stroke="black" stroke-width="0.1" /><circle r="0.38000000000000017" cx="29.69699370730761" cy="42.26948481659191" fill="none" stroke="black" stroke-width="0.1" /><circle r="0.3820000000000002" cx="30.615571157056074" cy="34.975209428073406" fill="none" stroke="black" stroke-width="0.1" /><circle r="0.3840000000000002" cx="36.10830185676937" cy="29.98989083166544" fill="none" stroke="black" stroke-width="0.1" /><circle r="0.3860000000000002" cx="43.58894109809486" cy="29.77665774834834" fill="none" stroke="black" stroke-width="0.1" /><circle r="0.3880000000000002" cx="49.45921674150368" cy="34.523859147423536" fill="none" stroke="black" stroke-width="0.1" /><circle r="0.3900000000000002" cx="50.83963856942416" cy="42.013171797004055" fill="none" stroke="black" stroke-width="0.1" /><circle r="0.3920000000000002" cx="46.981437315628874" cy="48.65528353134344" fill="none" stroke="black" stroke-width="0.1" /><circle r="0.3940000000000002" cx="39.667539035894116" cy="51.21007112855874" fill="none" stroke="black" stroke-width="0.1" /><circle r="0.3960000000000002" cx="32.390057063828486" cy="48.36689120929714" fill="none" stroke="black" stroke-width="0.1" /><circle r="0.3980000000000002" cx="28.683040526534846" cy="41.41437381054223" fill="none" stroke="black" stroke-width="0.1" /><circle r="0.4000000000000002" cx="30.406431354174497" cy="33.658593165721484" fill="none" stroke="black" stroke-width="0.1" /><circle r="0.4020000000000002" cx="36.814428370961636" cy="28.851181300412755" fill="none" stroke="black" stroke-width="0.1" /><circle r="0.4040000000000002" cx="44.87418902340603" cy="29.374635000899566" fill="none" stroke="black" stroke-width="0.1" /><circle r="0.4060000000000002" cx="50.70084315004149" cy="35.06257345591749" fill="none" stroke="black" stroke-width="0.1" /><circle r="0.4080000000000002" cx="51.43002673955571" cy="43.23865538967055" fill="none" stroke="black" stroke-width="0.1" /><circle r="0.4100000000000002" cx="46.62536422901024" cy="49.975228009070875" fill="none" stroke="black" stroke-width="0.1" /><circle r="0.4120000000000002" cx="38.52959163174435" cy="51.98010013441308" fill="none" stroke="black" stroke-width="0.1" /><circle r="0.4140000000000002" cx="31.018683736847986" cy="48.205070577468646" fill="none" stroke="black" stroke-width="0.1" /><circle r="0.4160000000000002" cx="27.746220025232134" cy="40.39048217626234" fill="none" stroke="black" stroke-width="0.1" /><circle r="0.4180000000000002" cx="30.366356220639535" cy="32.2644371547773" fill="none" stroke="black" stroke-width="0.1" /><circle r="0.4200000000000002" cx="37.69961481415608" cy="27.76436646524789" fill="none" stroke="black" stroke-width="0.1" /><circle r="0.4220000000000002" cx="46.261312427185345" cy="29.12925983710516" fill="none" stroke="black" stroke-width="0.1" /><circle r="0.4240000000000002" cx="51.91717770994144" cy="35.78686869066777" fill="none" stroke="black" stroke-width="0.1" /><circle r="0.4260000000000002" cx="51.879683596771756" cy="44.58839216290333" fill="none" stroke="black" stroke-width="0.1" /><circle r="0.4280000000000002" cx="46.08112848811567" cy="51.29729066241233" fill="none" stroke="black" stroke-width="0.1" /><circle r="0.4300000000000002" cx="37.247474416231725" cy="52.62850853864786" fill="none" stroke="black" stroke-width="0.1" /><circle r="0.4320000000000002" cx="29.617556759357882" cy="47.85654328282136" fill="none" stroke="black" stroke-width="0.1" /><circle r="0.4340000000000002" cx="26.909092097335467" cy="39.205421316699216" fill="none" stroke="black" stroke-width="0.1" /><circle r="0.4360000000000002" cx="30.50748131792496" cy="30.813260150061005" fill="none" stroke="black" stroke-width="0.1" /><circle r="0.4380000000000002" cx="38.75965386750645" cy="26.752941214306887" fill="none" stroke="black" stroke-width="0.1" /><circle r="0.4400000000000002" cx="47.73176321561846" cy="29.05560245707375" fill="none" stroke="black" stroke-width="0.1" /><circle r="0.4420000000000002" cx="53.084301704011054" cy="36.69605176820002" fill="none" stroke="black" stroke-width="0.1" /><circle r="0.44400000000000023" cx="52.17091999923419" cy="46.046222487821815" fill="none" stroke="black" stroke-width="0.1" /><circle r="0.44600000000000023" cx="45.345875202052945" cy="52.597652294141014" fill="none" stroke="black" stroke-width="0.1" /><circle r="0.44800000000000023" cx="35.834590743438625" cy="53.13536317447499" fill="none" stroke="black" stroke-width="0.1" /><circle r="0.45000000000000023" cx="28.209871650684974" cy="47.31495034205148" fill="none" stroke="black" stroke-width="0.1" /><circle r="0.45200000000000023" cx="26.19340763636289" cy="37.86952885390148" fill="none" stroke="black" stroke-width="0.1" /><circle r="0.45400000000000024" cx="30.839548697004396" cy="29.327120495131265" fill="none" stroke="black" stroke-width="0.1" /><circle r="0.45600000000000024" cx="39.98751760528401" cy="25.84000550177285" fill="none" stroke="black" stroke-width="0.1" /><circle r="0.45800000000000024" cx="49.26511174501025" cy="29.166591978861216" fill="none" stroke="black" stroke-width="0.1" /><circle r="0.46000000000000024" cx="54.17826715043027" cy="37.78657717301215" fill="none" stroke="black" stroke-width="0.1" /><circle r="0.46200000000000024" cx="52.28788691730426" cy="47.59380406038658" fill="none" stroke="black" stroke-width="0.1" /><circle r="0.46400000000000025" cx="44.41957025123806" cy="53.852039517499676" fill="none" stroke="black" stroke-width="0.1" /><circle r="0.46600000000000025" cx="34.306780088486015" cy="53.482228007237595" fill="none" stroke="black" stroke-width="0.1" /><circle r="0.46800000000000025" cx="26.81969431435617" cy="46.57665888069209" fill="none" stroke="black" stroke-width="0.1" /><circle r="0.47000000000000025" cx="25.619797904968042" cy="36.3957784882114" fill="none" stroke="black" stroke-width="0.1" /><circle r="0.47200000000000025" cx="31.369730077964764" cy="27.829345084474085" fill="none" stroke="black" stroke-width="0.1" /><circle r="0.47400000000000025" cx="41.37340019674133" cy="25.047943388965113" fill="none" stroke="black" stroke-width="0.1" /><circle r="0.47600000000000026" cx="50.839288613836594" cy="29.47280083089744" fill="none" stroke="black" stroke-width="0.1" /><circle r="0.47800000000000026" cx="55.17542088472898" cy="39.05204115525365" fill="none" stroke="black" stroke-width="0.1" /><circle r="0.48000000000000026" cx="52.21682505777639" cy="49.210818937949455" fill="none" stroke="black" stroke-width="0.1" /><circle r="0.48200000000000026" cx="43.30505457047075" cy="55.036044668935105" fill="none" stroke="black" stroke-width="0.1" /><circle r="0.48400000000000026" cx="32.682150507142225" cy="53.65244222840304" fill="none" stroke="black" stroke-width="0.1" /><circle r="0.48600000000000027" cx="25.471652510179368" cy="45.640863782704194" fill="none" stroke="black" stroke-width="0.1" /><circle r="0.48800000000000027" cx="25.207474171725444" cy="34.79965581717599" fill="none" stroke="black" stroke-width="0.1" /><circle r="0.49000000000000027" cx="32.10248001661206" cy="26.344239196881425" fill="none" stroke="black" stroke-width="0.1" /><circle r="0.49200000000000027" cx="42.90479583128405" cy="24.39810712834637" fill="none" stroke="black" stroke-width="0.1" /><circle r="0.49400000000000027" cx="52.43084988808803" cy="29.982255939592818" fill="none" stroke="black" stroke-width="0.1" /><circle r="0.4960000000000003" cx="56.052728945885846" cy="40.48321153744537" fill="none" stroke="black" stroke-width="0.1" /><circle r="0.4980000000000003" cx="51.94629149782795" cy="50.87520778877007" fill="none" stroke="black" stroke-width="0.1" /><circle r="0.5000000000000002" cx="42.00806324460847" cy="56.125451373702816" fill="none" stroke="black" stroke-width="0.1" /><circle r="0.5020000000000002" cx="30.98088071417106" cy="53.631379692019074" fill="none" stroke="black" stroke-width="0.1" /><circle r="0.5040000000000002" cx="24.190616444262396" cy="44.509655373481976" fill="none" stroke="black" stroke-width="0.1" /><circle r="0.5060000000000002" cx="24.973941242195576" cy="33.09900128916036" fill="none" stroke="black" stroke-width="0.1" /><circle r="0.5080000000000002" cx="33.03942104398361" cy="24.89678045590732" fill="none" stroke="black" stroke-width="0.1" /><circle r="0.5100000000000002" cx="44.56661125121495" cy="23.91051005531007" fill="none" stroke="black" stroke-width="0.1" /><circle r="0.5120000000000002" cx="54.01526283847687" cy="30.700279167178703" fill="none" stroke="black" stroke-width="0.1" /><circle r="0.5140000000000002" cx="56.7880974496034" cy="42.06809308848058" fill="none" stroke="black" stroke-width="0.1" /><circle r="0.5160000000000002" cx="51.46736045993293" cy="52.563428834596394" fill="none" stroke="black" stroke-width="0.1" /><circle r="0.5180000000000002" cx="40.537208882961295" cy="57.0965619823422" fill="none" stroke="black" stroke-width="0.1" /><circle r="0.5200000000000002" cx="29.224993840799353" cy="53.406686476127845" fill="none" stroke="black" stroke-width="0.1" /><circle r="0.5220000000000002" cx="23.00137213768158" cy="43.18805203822227" fill="none" stroke="black" stroke-width="0.1" /><circle r="0.5240000000000002" cx="24.93472837754461" cy="31.313821844928498" fill="none" stroke="black" stroke-width="0.1" /><circle r="0.5260000000000002" cx="34.17926241664379" cy="23.512300373135567" fill="none" stroke="black" stroke-width="0.1" /><circle r="0.5280000000000002" cx="46.34131188199034" cy="23.603531977424858" fill="none" stroke="black" stroke-width="0.1" /><circle r="0.5300000000000002" cx="55.56720901787657" cy="31.629359140797916" fill="none" stroke="black" stroke-width="0.1" /><circle r="0.5320000000000003" cx="57.360686146632325" cy="43.79202802180173" fill="none" stroke="black" stroke-width="0.1" /><circle r="0.5340000000000003" cx="50.77379563179629" cy="54.250738671531664" fill="none" stroke="black" stroke-width="0.1" /><circle r="0.5360000000000003" cx="38.90392913770872" cy="57.92652305007407" fill="none" stroke="black" stroke-width="0.1" /><circle r="0.5380000000000003" cx="27.43810526451805" cy="52.96849357692218" fill="none" stroke="black" stroke-width="0.1" /><circle r="0.5400000000000003" cx="21.92829134023319" cy="41.68399706546956" fill="none" stroke="black" stroke-width="0.1" /><circle r="0.5420000000000003" cx="25.103140921434793" cy="29.46607316365971" fill="none" stroke="black" stroke-width="0.1" /><circle r="0.5440000000000003" cx="35.51775374799739" cy="22.21615709312497" fill="none" stroke="black" stroke-width="0.1" /><circle r="0.5460000000000003" cx="48.20910016464952" cy="23.49364063499307" fill="none" stroke="black" stroke-width="0.1" /><circle r="0.5480000000000003" cx="57.060901290499956" cy="32.76905627488239" fill="none" stroke="black" stroke-width="0.1" /><circle r="0.5500000000000003" cx="57.75121092038695" cy="45.63783077609959" fill="none" stroke="black" stroke-width="0.1" /><circle r="0.5520000000000003" cx="49.86219173788306" cy="55.911491888733494" fill="none" stroke="black" stroke-width="0.1" /><circle r="0.5540000000000003" cx="37.12239863433512" cy="58.593645026737605" fill="none" stroke="black" stroke-width="0.1" /><circle r="0.5560000000000003" cx="25.645147212883632" cy="52.30960200251081" fill="none" stroke="black" stroke-width="0.1" /><circle r="0.5580000000000003" cx="20.9950018209017" cy="40.0083194032655" fill="none" stroke="black" stroke-width="0.1" /><circle r="0.5600000000000003" cx="25.490035746236764" cy="27.5794147740731" fill="none" stroke="black" stroke-width="0.1" /><circle r="0.5620000000000003" cx="37.047674407433384" cy="21.033403083434376" fill="none" stroke="black" stroke-width="0.1" /><circle r="0.5640000000000003" cx="50.148124322974425" cy="23.595132651391076" fill="none" stroke="black" stroke-width="0.1" /><circle r="0.5660000000000003" cx="58.47041124324268" cy="34.115942428434714" fill="none" stroke="black" stroke-width="0.1" /><circle r="0.5680000000000003" cx="57.942231575586646" cy="47.58595584537781" fill="none" stroke="black" stroke-width="0.1" /><circle r="0.5700000000000003" cx="48.73208339824829" cy="57.51945617095567" fill="none" stroke="black" stroke-width="0.1" /><circle r="0.5720000000000003" cx="35.20940598403013" cy="59.077712362182055" fill="none" stroke="black" stroke-width="0.1" /><circle r="0.5740000000000003" cx="23.87207312367929" cy="51.425637823423784" fill="none" stroke="black" stroke-width="0.1" /><circle r="0.5760000000000003" cx="20.22406189049623" cy="38.17465841852089" fill="none" stroke="black" stroke-width="0.1" /><circle r="0.5780000000000003" cx="26.103623384917555" cy="25.678940612797184" fill="none" stroke="black" stroke-width="0.1" /><circle r="0.5800000000000003" cx="38.75885917892591" cy="19.98845159758337" fill="none" stroke="black" stroke-width="0.1" /><circle r="0.5820000000000003" cx="52.13471544302504" cy="23.91989719818901" fill="none" stroke="black" stroke-width="0.1" /><circle r="0.5840000000000003" cx="59.77000326639775" cy="35.66357626071641" fill="none" stroke="black" stroke-width="0.1" /><circle r="0.5860000000000003" cx="57.918421407408985" cy="49.61469704496753" fill="none" stroke="black" stroke-width="0.1" /><circle r="0.5880000000000003" cx="47.38601966272827" cy="59.048139372174674" fill="none" stroke="black" stroke-width="0.1" /><circle r="0.5900000000000003" cx="33.18419694491534" cy="59.36028031083998" fill="none" stroke="black" stroke-width="0.1" /><circle r="0.5920000000000003" cx="22.145544993621343" cy="50.31517505548015" fill="none" stroke="black" stroke-width="0.1" /><circle r="0.5940000000000003" cx="19.636642993907984" cy="36.19935315473235" fill="none" stroke="black" stroke-width="0.1" /><circle r="0.5960000000000003" cx="26.949299437667367" cy="23.79088790734266" fill="none" stroke="black" stroke-width="0.1" /><circle r="0.5980000000000003" cx="40.63826026789237" cy="19.1047457821057" fill="none" stroke="black" stroke-width="0.1" /><circle r="0.6000000000000003" cx="54.143650408794485" cy="24.477205370365578" fill="none" stroke="black" stroke-width="0.1" /><circle r="0.6020000000000003" cx="60.93447148726365" cy="37.40251495693533" fill="none" stroke="black" stroke-width="0.1" /><circle r="0.6040000000000003" cx="57.66681521738727" cy="51.70041623510433" fill="none" stroke="black" stroke-width="0.1" /><circle r="0.6060000000000003" cx="45.8296029805451" cy="60.47112488578044" fill="none" stroke="black" stroke-width="0.1" /><circle r="0.6080000000000003" cx="31.068285186670792" cy="59.4249548389013" fill="none" stroke="black" stroke-width="0.1" /><circle r="0.6100000000000003" cx="20.49260716399148" cy="48.97982459414675" fill="none" stroke="black" stroke-width="0.1" /><circle r="0.6120000000000003" cx="19.252224149620837" cy="34.101296984724314" fill="none" stroke="black" stroke-width="0.1" /><circle r="0.6140000000000003" cx="28.029507535228113" cy="21.942327526759197" fill="none" stroke="black" stroke-width="0.1" /><circle r="0.6160000000000003" cx="42.67004533889657" cy="18.404434300342214" fill="none" stroke="black" stroke-width="0.1" /><circle r="0.6180000000000003" cx="56.148437928515605" cy="25.27352800332416" fill="none" stroke="black" stroke-width="0.1" /><circle r="0.6200000000000003" cx="61.93947567733385" cy="39.3203625939699" fill="none" stroke="black" stroke-width="0.1" /><circle r="0.6220000000000003" cx="57.17703265630955" cy="53.81779917801943" fill="none" stroke="black" stroke-width="0.1" /><circle r="0.6240000000000003" cx="44.07149175306087" cy="61.762411514001755" fill="none" stroke="black" stroke-width="0.1" /><circle r="0.6260000000000003" cx="28.885232487357" cy="59.2576521969812" fill="none" stroke="black" stroke-width="0.1" /><circle r="0.6280000000000003" cx="18.94035017162293" cy="47.424287784436736" fill="none" stroke="black" stroke-width="0.1" /><circle r="0.6300000000000003" cx="19.08830191290351" cy="31.901758949369082" fill="none" stroke="black" stroke-width="0.1" /><circle r="0.6320000000000003" cx="29.343635807119057" cy="20.160839176298722" fill="none" stroke="black" stroke-width="0.1" /><circle r="0.6340000000000003" cx="44.835730861481856" cy="17.90805730508721" fill="none" stroke="black" stroke-width="0.1" /><circle r="0.6360000000000003" cx="58.12162460499388" cy="26.31238436850016" fill="none" stroke="black" stroke-width="0.1" /><circle r="0.6380000000000003" cx="62.76187223260442" cy="41.401855009118506" fill="none" stroke="black" stroke-width="0.1" /><circle r="0.6400000000000003" cx="56.441474023620515" cy="55.94013588181137" fill="none" stroke="black" stroke-width="0.1" /><circle r="0.6420000000000003" cx="42.12336601687524" cy="62.89675395680309" fill="none" stroke="black" stroke-width="0.1" /><circle r="0.6440000000000003" cx="26.660400548095804" cy="58.84683491896599" fill="none" stroke="black" stroke-width="0.1" /><circle r="0.6460000000000004" cx="17.515568435569087" cy="45.65637359307366" fill="none" stroke="black" stroke-width="0.1" /><circle r="0.6480000000000004" cx="19.16011939738589" cy="29.624173456115102" fill="none" stroke="black" stroke-width="0.1" /><circle r="0.6500000000000004" cx="30.887948445869114" cy="18.474175010586492" fill="none" stroke="black" stroke-width="0.1" /><circle r="0.6520000000000004" cx="47.11434964128287" cy="17.63424650986298" fill="none" stroke="black" stroke-width="0.1" /><circle r="0.6540000000000004" cx="60.03511775336048" cy="27.594223861080778" fill="none" stroke="black" stroke-width="0.1" /><circle r="0.6560000000000004" cx="63.380036347524815" cy="43.62898062662457" fill="none" stroke="black" stroke-width="0.1" /><circle r="0.6580000000000004" cx="55.45548593482063" cy="58.03962248824958" fill="none" stroke="black" stroke-width="0.1" /><circle r="0.6600000000000004" cx="39.99985621144322" cy="63.84999999956651" fill="none" stroke="black" stroke-width="0.1" /><circle r="0.6620000000000004" cx="24.420676946787417" cy="58.183721241914064" fill="none" stroke="black" stroke-width="0.1" /><circle r="0.6640000000000004" cx="16.244415651762463" cy="43.686978746042556" fill="none" stroke="black" stroke-width="0.1" /><circle r="0.6660000000000004" cx="19.480417708762744" cy="27.29390037843477" fill="none" stroke="black" stroke-width="0.1" /><circle r="0.6680000000000004" cx="32.65555358166385" cy="16.909915400584023" fill="none" stroke="black" stroke-width="0.1" /><circle r="0.6700000000000004" cx="49.48265102290159" cy="17.599442985098317" fill="none" stroke="black" stroke-width="0.1" /><circle r="0.6720000000000004" cx="61.86052145366124" cy="29.116342445022717" fill="none" stroke="black" stroke-width="0.1" /><circle r="0.6740000000000004" cx="63.77417156624158" cy="45.98113629161783" fill="none" stroke="black" stroke-width="0.1" /><circle r="0.6760000000000004" cx="54.21749458029122" cy="60.087681495368926" fill="none" stroke="black" stroke-width="0.1" /><circle r="0.6780000000000004" cx="37.718435395669964" cy="64.59942048008989" fill="none" stroke="black" stroke-width="0.1" /><circle r="0.6800000000000004" cx="22.194178062605406" cy="57.26246521021243" fill="none" stroke="black" stroke-width="0.1" /><circle r="0.6820000000000004" cx="15.152061828776194" cy="41.53003060068616" fill="none" stroke="black" stroke-width="0.1" /><circle r="0.6840000000000004" cx="20.059212925877485" cy="24.93795794506915" fill="none" stroke="black" stroke-width="0.1" /><circle r="0.6860000000000004" cx="34.63640828934858" cy="15.495120711143496" fill="none" stroke="black" stroke-width="0.1" /><circle r="0.6880000000000004" cx="51.91533187399627" cy="17.817636141913876" fill="none" stroke="black" stroke-width="0.1" /><circle r="0.6900000000000004" cx="63.56948214617504" cy="30.8728352506853" fill="none" stroke="black" stroke-width="0.1" /><circle r="0.6920000000000004" cx="63.926602999607155" cy="48.43531676341718" fill="none" stroke="black" stroke-width="0.1" /><circle r="0.6940000000000004" cx="52.72910463772203" cy="62.05529687222369" fill="none" stroke="black" stroke-width="0.1" /><circle r="0.6960000000000004" cx="35.29927568719129" cy="65.12402815901474" fill="none" stroke="black" stroke-width="0.1" /><circle r="0.6980000000000004" cx="20.00993208518779" cy="56.080305026994736" fill="none" stroke="black" stroke-width="0.1" /><circle r="0.7000000000000004" cx="14.262355916545776" cy="39.20239293293605" fill="none" stroke="black" stroke-width="0.1" /><circle r="0.7020000000000004" cx="20.903601510513973" cy="22.584731132401306" fill="none" stroke="black" stroke-width="0.1" /><circle r="0.7040000000000004" cx="36.81736114556075" cy="14.255983026687346" fill="none" stroke="black" stroke-width="0.1" /><circle r="0.7060000000000004" cx="54.385296100687455" cy="18.300127164069774" fill="none" stroke="black" stroke-width="0.1" /><circle r="0.7080000000000004" cx="65.1340399363956" cy="32.85458633278189" fill="none" stroke="black" stroke-width="0.1" /><circle r="0.7100000000000004" cx="63.822050642079475" cy="50.96633613410593" fill="none" stroke="black" stroke-width="0.1" /><circle r="0.7120000000000004" cx="50.99516226245354" cy="63.91336042513292" fill="none" stroke="black" stroke-width="0.1" /><circle r="0.7140000000000004" cx="32.7650701019496" cy="65.4048817035288" fill="none" stroke="black" stroke-width="0.1" /><circle r="0.7160000000000004" cx="17.897545473092464" cy="54.637677544131805" fill="none" stroke="black" stroke-width="0.1" /><circle r="0.7180000000000004" cx="13.597497956157504" cy="36.72373523278587" fill="none" stroke="black" stroke-width="0.1" /><circle r="0.7200000000000004" cx="22.01759674033966" cy="20.26365857087609" fill="none" stroke="black" stroke-width="0.1" /><circle r="0.7220000000000004" cx="39.18223234209052" cy="13.217481801412458" fill="none" stroke="black" stroke-width="0.1" /><circle r="0.7240000000000004" cx="56.8639401066266" cy="19.05531990981704" fill="none" stroke="black" stroke-width="0.1" /><circle r="0.7260000000000004" cx="66.52698167592615" cy="35.04929619497653" fill="none" stroke="black" stroke-width="0.1" /><circle r="0.7280000000000004" cx="63.44787940782392" cy="53.54707906805532" fill="none" stroke="black" stroke-width="0.1" /><circle r="0.7300000000000004" cx="49.02378096189109" cy="65.63302561446477" fill="none" stroke="black" stroke-width="0.1" /><circle r="0.7320000000000004" cx="30.14082136593111" cy="65.42537112141167" fill="none" stroke="black" stroke-width="0.1" /><circle r="0.7340000000000004" cx="15.886856442378775" cy="52.938297135618164" fill="none" stroke="black" stroke-width="0.1" /><circle r="0.7360000000000004" cx="13.177724612558421" cy="34.11636651037466" fill="none" stroke="black" stroke-width="0.1" /><circle r="0.7380000000000004" cx="23.401998442426045" cy="18.004901243805072" fill="none" stroke="black" stroke-width="0.1" /><circle r="0.7400000000000004" cx="41.71193094668121" cy="12.403047406755395" fill="none" stroke="black" stroke-width="0.1" /><circle r="0.7420000000000004" cx="59.321461295588676" cy="20.08854203221011" fill="none" stroke="black" stroke-width="0.1" /><circle r="0.7440000000000004" cx="67.7221918264305" cy="37.441547276460824" fill="none" stroke="black" stroke-width="0.1" /><circle r="0.7460000000000004" cx="62.79432272833719" cy="56.14877940763341" fill="none" stroke="black" stroke-width="0.1" /><circle r="0.7480000000000004" cx="46.82632955779623" cy="67.18606490039248" fill="none" stroke="black" stroke-width="0.1" /><circle r="0.7500000000000004" cx="27.453599651333874" cy="65.17148115012276" fill="none" stroke="black" stroke-width="0.1" /><circle r="0.7520000000000004" cx="14.00757924562663" cy="50.98919757432794" fill="none" stroke="black" stroke-width="0.1" /><circle r="0.7540000000000004" cx="13.021011843728694" cy="31.405035016722465" fill="none" stroke="black" stroke-width="0.1" /><circle r="0.7560000000000004" cx="25.054297960775166" cy="15.838996491149114" fill="none" stroke="black" stroke-width="0.1" /><circle r="0.7580000000000005" cx="44.38460848873051" cy="11.834236502438877" fill="none" stroke="black" stroke-width="0.1" /><circle r="0.7600000000000005" cx="61.72718643368759" cy="21.401898761546224" fill="none" stroke="black" stroke-width="0.1" /><circle r="0.7620000000000005" cx="68.69499709713719" cy="40.0129071795059" fill="none" stroke="black" stroke-width="0.1" /><circle r="0.7640000000000005" cx="61.85467681263047" cy="58.7413233635052" fill="none" stroke="black" stroke-width="0.1" /><circle r="0.7660000000000005" cx="44.417381849628995" cy="68.54522661662651" fill="none" stroke="black" stroke-width="0.1" /><circle r="0.7680000000000005" cx="24.732271551893746" cy="64.63202931215537" fill="none" stroke="black" stroke-width="0.1" /><circle r="0.7700000000000005" cx="12.288943142189577" cy="48.800735925091246" fill="none" stroke="black" stroke-width="0.1" /><circle r="0.7720000000000005" cx="13.142798310354081" cy="28.616695672974654" fill="none" stroke="black" stroke-width="0.1" /><circle r="0.7740000000000005" cx="26.968619923751014" cy="13.796501029283615" fill="none" stroke="black" stroke-width="0.1" /><circle r="0.7760000000000005" cx="47.17584763909702" cy="11.530423068467297" fill="none" stroke="black" stroke-width="0.1" /><circle r="0.7780000000000005" cx="64.04991643543788" cy="22.994161460002974" fill="none" stroke="black" stroke-width="0.1" /><circle r="0.7800000000000005" cx="69.42250087265218" cy="42.74206899963788" fill="none" stroke="black" stroke-width="0.1" /><circle r="0.7820000000000005" cx="60.62546296294617" cy="61.29357420829413" fill="none" stroke="black" stroke-width="0.1" /><circle r="0.7840000000000005" cx="41.81462800897365" cy="69.68458733398599" fill="none" stroke="black" stroke-width="0.1" /><circle r="0.7860000000000005" cx="22.00720295268439" cy="63.79887559138254" fill="none" stroke="black" stroke-width="0.1" /><circle r="0.7880000000000005" cx="10.75933006027067" cy="46.38655787383176" fill="none" stroke="black" stroke-width="0.1" /><circle r="0.7900000000000005" cx="13.555732940648117" cy="25.780247375792015" fill="none" stroke="black" stroke-width="0.1" /><circle r="0.7920000000000005" cx="29.135701989961227" cy="11.907626858005386" fill="none" stroke="black" stroke-width="0.1" /><circle r="0.7940000000000005" cx="50.05888435478012" cy="11.508508804607079" fill="none" stroke="black" stroke-width="0.1" /><circle r="0.7960000000000005" cx="66.25828392075469" cy="24.86069269956421" fill="none" stroke="black" stroke-width="0.1" /><circle r="0.7980000000000005" cx="69.88390351700593" cy="45.605027706111095" fill="none" stroke="black" stroke-width="0.1" /><circle r="0.8000000000000005" cx="59.10655566129148" cy="63.773715123260885" fill="none" stroke="black" stroke-width="0.1" /><circle r="0.8020000000000005" cx="39.038748155102056" cy="70.57989568148774" fill="none" stroke="black" stroke-width="0.1" /><circle r="0.8040000000000005" cx="19.309938764705244" cy="62.66710096328477" fill="none" stroke="black" stroke-width="0.1" /><circle r="0.8060000000000005" cx="9.445915009191502" cy="43.76352432892935" fill="none" stroke="black" stroke-width="0.1" /><circle r="0.8080000000000005" cx="14.269449837422478" cy="22.926242700240998" fill="none" stroke="black" stroke-width="0.1" /><circle r="0.8100000000000005" cx="31.542913347889836" cy="10.201874046197268" fill="none" stroke="black" stroke-width="0.1" /><circle r="0.8120000000000005" cx="53.00486147487162" cy="11.782656432268613" fill="none" stroke="black" stroke-width="0.1" /><circle r="0.8140000000000005" cx="68.32111971010617" cy="26.993409233552885" fill="none" stroke="black" stroke-width="0.1" /><circle r="0.8160000000000005" cx="70.0608047515058" cy="48.57529111411604" fill="none" stroke="black" stroke-width="0.1" /><circle r="0.8180000000000005" cx="57.30127449157648" cy="66.14960661209106" fill="none" stroke="black" stroke-width="0.1" /><circle r="0.8200000000000005" cx="36.11324898053008" cy="71.20890364163152" fill="none" stroke="black" stroke-width="0.1" /><circle r="0.8220000000000005" cx="16.672862780500893" cy="61.235152322096745" fill="none" stroke="black" stroke-width="0.1" /><circle r="0.8240000000000005" cx="8.3743133151035" cy="40.95159955272762" fill="none" stroke="black" stroke-width="0.1" /><circle r="0.8260000000000005" cx="15.290373450915194" cy="20.086572851345892" fill="none" stroke="black" stroke-width="0.1" /><circle r="0.8280000000000005" cx="34.174312329564984" cy="8.707664466094378" fill="none" stroke="black" stroke-width="0.1" /><circle r="0.8300000000000005" cx="55.98311138800004" cy="12.364049222818942" fill="none" stroke="black" stroke-width="0.1" /><circle r="0.8320000000000005" cx="70.20782428455135" cy="29.380783833367893" fill="none" stroke="black" stroke-width="0.1" /><circle r="0.8340000000000005" cx="69.93748445720847" cy="51.62412359597025" fill="none" stroke="black" stroke-width="0.1" /><circle r="0.8360000000000005" cx="55.21643833537167" cy="68.3891546965707" fill="none" stroke="black" stroke-width="0.1" /><circle r="0.8380000000000005" cx="33.06426470860581" cy="71.55168142853404" fill="none" stroke="black" stroke-width="0.1" /><circle r="0.8400000000000005" cx="14.128841160719944" cy="59.50495168701353" fill="none" stroke="black" stroke-width="0.1" /><circle r="0.8420000000000005" cx="7.568238724911247" cy="37.97370150381438" fill="none" stroke="black" stroke-width="0.1" /><circle r="0.8440000000000005" cx="16.62155664376828" cy="17.294131017742227" fill="none" stroke="black" stroke-width="0.1" /><circle r="0.8460000000000005" cx="37.010743076019686" cy="7.451980581878317" fill="none" stroke="black" stroke-width="0.1" /><circle r="0.8480000000000005" cx="58.96146504746541" cy="13.260679828130677" fill="none" stroke="black" stroke-width="0.1" /><circle r="0.8500000000000005" cx="71.88874013805977" cy="32.007886549398464" fill="none" stroke="black" stroke-width="0.1" /><circle r="0.8520000000000005" cx="69.50115844635843" cy="54.72082030060977" fill="none" stroke="black" stroke-width="0.1" /><circle r="0.8540000000000005" cx="52.86238067251078" cy="70.4606859482089" fill="none" stroke="black" stroke-width="0.1" /><circle r="0.8560000000000005" cx="29.92032406837177" cy="71.59091219185265" fill="none" stroke="black" stroke-width="0.1" /><circle r="0.8580000000000005" cx="11.710853280036186" cy="57.48196793431307" fill="none" stroke="black" stroke-width="0.1" /><circle r="0.8600000000000005" cx="7.0491763513288745" cy="34.85551548994797" fill="none" stroke="black" stroke-width="0.1" /><circle r="0.8620000000000005" cx="18.262553946766637" cy="14.582457552258148" fill="none" stroke="black" stroke-width="0.1" /><circle r="0.8640000000000005" cx="40.02997076663334" cy="6.4600133906834" fill="none" stroke="black" stroke-width="0.1" /><circle r="0.8660000000000005" cx="61.90658429214963" cy="14.477171205939335" fill="none" stroke="black" stroke-width="0.1" /><circle r="0.8680000000000005" cx="73.33552089265267" cy="34.85646553277743" fill="none" stroke="black" stroke-width="0.1" /><circle r="0.8700000000000006" cx="68.74220597922675" cy="57.83300929309718" fill="none" stroke="black" stroke-width="0.1" /><circle r="0.8720000000000006" cx="50.25292522699437" cy="72.33332528970152" fill="none" stroke="black" stroke-width="0.1" /><circle r="0.8740000000000006" cx="26.712085360878724" cy="71.31216296494728" fill="none" stroke="black" stroke-width="0.1" /><circle r="0.8760000000000006" cx="9.45161384168114" cy="55.17524968895805" fill="none" stroke="black" stroke-width="0.1" /><circle r="0.8780000000000006" cx="6.836074317206105" cy="31.625272642878933" fill="none" stroke="black" stroke-width="0.1" /><circle r="0.8800000000000006" cx="20.209331948709192" cy="11.985370641687837" fill="none" stroke="black" stroke-width="0.1" /><circle r="0.8820000000000006" cx="43.206854500051485" cy="5.754823562792261" fill="none" stroke="black" stroke-width="0.1" /><circle r="0.8840000000000006" cx="64.7843141425995" cy="16.01463211703997" fill="none" stroke="black" stroke-width="0.1" /><circle r="0.8860000000000006" cx="74.52149303343501" cy="37.905067126973556" fill="none" stroke="black" stroke-width="0.1" /><circle r="0.8880000000000006" cx="67.65436607128913" cy="60.926978692470655" fill="none" stroke="black" stroke-width="0.1" /><circle r="0.8900000000000006" cx="47.40532161974461" cy="73.9773724220713" fill="none" stroke="black" stroke-width="0.1" /><circle r="0.8920000000000006" cx="23.472042061631786" cy="70.70412849092966" fill="none" stroke="black" stroke-width="0.1" /><circle r="0.8940000000000006" cx="7.383190310807159" cy="52.5974184140626" fill="none" stroke="black" stroke-width="0.1" /><circle r="0.8960000000000006" cx="6.945057800419313" cy="28.313495125471967" fill="none" stroke="black" stroke-width="0.1" /><circle r="0.8980000000000006" cx="22.454218384582727" cy="9.536586328776732" fill="none" stroke="black" stroke-width="0.1" /><circle r="0.9000000000000006" cx="46.51355649570712" cy="5.357019733036552" fill="none" stroke="black" stroke-width="0.1" /><text x="36" y="78" font-size="2" font-family="Arial, Helvetica, sans-serif" fill="black" stroke="none">VARICITE</text></svg>