<svg width="80" height="80" fill="none" stroke="black" viewBox="0 0 80 80"><circle r="40" cx="40" cy="40" stroke-width="0.1" /><circle r="0.2" cx="39.167706326905716" cy="41.81859485365136" fill="none" stroke="black" stroke-width="0.1" /><circle r="0.202" cx="38.19580220703723" cy="41.06484521122475" fill="none" stroke="black" stroke-width="0.1" /><circle r="0.20400000000000001" cx="37.8161928787066" cy="39.835420362777676" fill="none" stroke="black" stroke-width="0.1" /><circle r="0.20600000000000002" cx="38.228471395597246" cy="38.55677049511076" fill="none" stroke="black" stroke-width="0.1" /><circle r="0.20800000000000002" cx="39.345108496474495" cy="37.71187475897623" fill="none" stroke="black" stroke-width="0.1" /><circle r="0.21000000000000002" cx="40.80117814247807" cy="37.65826163203158" fill="none" stroke="black" stroke-width="0.1" /><circle r="0.21200000000000002" cx="42.072469650567974" cy="38.480207399848695" fill="none" stroke="black" stroke-width="0.1" /><circle r="0.21400000000000002" cx="42.66421087844512" cy="39.935150981698115" fill="none" stroke="black" stroke-width="0.1" /><circle r="0.21600000000000003" cx="42.30246014521736" cy="41.52193208773771" fill="none" stroke="black" stroke-width="0.1" /><circle r="0.21800000000000003" cx="41.05451750284548" cy="42.65311474237217" fill="none" stroke="black" stroke-width="0.1" /><circle r="0.22000000000000003" cx="39.32721120150215" cy="42.87225612239157" fill="none" stroke="black" stroke-width="0.1" /><circle r="0.22200000000000003" cx="37.73562131285603" cy="42.03583254743806" fill="none" stroke="black" stroke-width="0.1" /><circle r="0.22400000000000003" cx="36.88406803047848" cy="40.388030876753064" fill="none" stroke="black" stroke-width="0.1" /><circle r="0.22600000000000003" cx="37.13734333334611" cy="38.4932081069829" fill="none" stroke="black" stroke-width="0.1" /><circle r="0.22800000000000004" cx="38.46855346467134" cy="37.04304692133442" fill="none" stroke="black" stroke-width="0.1" /><circle r="0.23000000000000004" cx="40.44580151860095" cy="36.60413692767021" fill="none" stroke="black" stroke-width="0.1" /><circle r="0.23200000000000004" cx="42.37073266205915" cy="37.398072513491975" fill="none" stroke="black" stroke-width="0.1" /><circle r="0.23400000000000004" cx="43.52512590336812" cy="39.19893048653497" fill="none" stroke="black" stroke-width="0.1" /><circle r="0.23600000000000004" cx="43.43848321643672" cy="41.39317377605344" fill="none" stroke="black" stroke-width="0.1" /><circle r="0.23800000000000004" cx="42.07705440028805" cy="43.18808249865716" fill="none" stroke="black" stroke-width="0.1" /><circle r="0.24000000000000005" cx="39.879220877563746" cy="43.89812934669741" fill="none" stroke="black" stroke-width="0.1" /><circle r="0.24200000000000005" cx="37.61618816522684" cy="43.20584873885145" fill="none" stroke="black" stroke-width="0.1" /><circle r="0.24400000000000005" cx="36.12151508428835" cy="41.29825065322426" fill="none" stroke="black" stroke-width="0.1" /><circle r="0.24600000000000005" cx="35.98428550886182" cy="38.82175464114523" fill="none" stroke="black" stroke-width="0.1" /><circle r="0.24800000000000005" cx="37.318793627408475" cy="36.663904619532794" fill="none" stroke="black" stroke-width="0.1" /><circle r="0.25000000000000006" cx="39.70018248683336" cy="35.63528529468436" fill="none" stroke="black" stroke-width="0.1" /><circle r="0.25200000000000006" cx="42.29751143858027" cy="36.16563679477376" fill="none" stroke="black" stroke-width="0.1" /><circle r="0.25400000000000006" cx="44.16346142254185" cy="38.12788515763433" fill="none" stroke="black" stroke-width="0.1" /><circle r="0.25600000000000006" cx="44.57976012004963" cy="40.86104427458932" fill="none" stroke="black" stroke-width="0.1" /><circle r="0.25800000000000006" cx="43.332404428295185" cy="43.39191770629517" fill="none" stroke="black" stroke-width="0.1" /><circle r="0.26000000000000006" cx="40.811646318815384" cy="44.78160331407295" fill="none" stroke="black" stroke-width="0.1" /><circle r="0.26200000000000007" cx="37.89253868510217" cy="44.473436241437796" fill="none" stroke="black" stroke-width="0.1" /><circle r="0.26400000000000007" cx="35.63151810714547" cy="42.51355643497458" fill="none" stroke="black" stroke-width="0.1" /><circle r="0.26600000000000007" cx="34.88410295783609" cy="39.5574816907985" fill="none" stroke="black" stroke-width="0.1" /><circle r="0.26800000000000007" cx="35.9820442688336" cy="36.652025725548796" fill="none" stroke="black" stroke-width="0.1" /><circle r="0.2700000000000001" cx="38.5914712159063" cy="34.86466440586601" fill="none" stroke="black" stroke-width="0.1" /><circle r="0.2720000000000001" cx="41.81112093725514" cy="34.89155200176844" fill="none" stroke="black" stroke-width="0.1" /><circle r="0.2740000000000001" cx="44.48314813523732" cy="36.78805233580649" fill="none" stroke="black" stroke-width="0.1" /><circle r="0.2760000000000001" cx="45.60950580459247" cy="39.9255377394691" fill="none" stroke="black" stroke-width="0.1" /><circle r="0.2780000000000001" cx="44.724160170603" cy="43.19833326632611" fill="none" stroke="black" stroke-width="0.1" /><circle r="0.2800000000000001" cx="42.082522135494486" cy="45.41323392762362" fill="none" stroke="black" stroke-width="0.1" /><circle r="0.2820000000000001" cx="38.59215162853513" cy="45.72442031676253" fill="none" stroke="black" stroke-width="0.1" /><circle r="0.2840000000000001" cx="35.501576853460975" cy="43.955286234229064" fill="none" stroke="black" stroke-width="0.1" /><circle r="0.2860000000000001" cx="33.953692453917746" cy="40.68512046983634" fill="none" stroke="black" stroke-width="0.1" /><circle r="0.2880000000000001" cx="34.5634855187104" cy="37.06117195216725" fill="none" stroke="black" stroke-width="0.1" /><circle r="0.2900000000000001" cx="37.17598188289696" cy="34.39638093065974" fill="none" stroke="black" stroke-width="0.1" /><circle r="0.2920000000000001" cx="40.89894205525635" cy="33.69374888057164" fill="none" stroke="black" stroke-width="0.1" /><circle r="0.2940000000000001" cx="44.406798861365964" cy="35.269635447931776" fill="none" stroke="black" stroke-width="0.1" /><circle r="0.2960000000000001" cx="46.4125984055664" cy="38.617183421806324" fill="none" stroke="black" stroke-width="0.1" /><circle r="0.2980000000000001" cx="46.13993024529107" cy="42.567154374586764" fill="none" stroke="black" stroke-width="0.1" /><circle r="0.3000000000000001" cx="43.62186719650309" cy="45.69601422144422" fill="none" stroke="black" stroke-width="0.1" /><circle r="0.3020000000000001" cx="39.71234536719789" cy="46.838953122534726" fill="none" stroke="black" stroke-width="0.1" /><circle r="0.3040000000000001" cx="35.79755663386554" cy="45.52295842410862" fill="none" stroke="black" stroke-width="0.1" /><circle r="0.3060000000000001" cx="33.30452188672016" cy="42.159119689732506" fill="none" stroke="black" stroke-width="0.1" /><circle r="0.3080000000000001" cx="33.181037118913935" cy="37.91705851585542" fill="none" stroke="black" stroke-width="0.1" /><circle r="0.3100000000000001" cx="35.53647332186932" cy="34.31866612549344" fill="none" stroke="black" stroke-width="0.1" /><circle r="0.3120000000000001" cx="39.5791784427675" cy="32.692106376186885" fill="none" stroke="black" stroke-width="0.1" /><circle r="0.3140000000000001" cx="43.88132539819685" cy="33.681967224419296" fill="none" stroke="black" stroke-width="0.1" /><circle r="0.3160000000000001" cx="46.88306958080132" cy="36.99609368557415" fill="none" stroke="black" stroke-width="0.1" /><circle r="0.3180000000000001" cx="47.45804856381728" cy="41.48779589317317" fill="none" stroke="black" stroke-width="0.1" /><circle r="0.3200000000000001" cx="45.335230883933605" cy="45.552054702100925" fill="none" stroke="black" stroke-width="0.1" /><circle r="0.3220000000000001" cx="41.219397371695756" cy="47.699032085262495" fill="none" stroke="black" stroke-width="0.1" /><circle r="0.3240000000000001" cx="36.55868576392272" cy="47.09996171317647" fill="none" stroke="black" stroke-width="0.1" /><circle r="0.3260000000000001" cx="33.03527359414815" cy="43.905484744769836" fill="none" stroke="black" stroke-width="0.1" /><circle r="0.3280000000000001" cx="31.958254101127146" cy="39.21468293157378" fill="none" stroke="black" stroke-width="0.1" /><circle r="0.3300000000000001" cx="33.77781873925349" cy="34.69763398486912" fill="none" stroke="black" stroke-width="0.1" /><circle r="0.33200000000000013" cx="37.900842209250136" cy="32.00084775932261" fill="none" stroke="black" stroke-width="0.1" /><circle r="0.33400000000000013" cx="42.88225339767542" cy="32.147239953265576" fill="none" stroke="black" stroke-width="0.1" /><circle r="0.33600000000000013" cx="46.93122534669932" cy="35.149256222673394" fill="none" stroke="black" stroke-width="0.1" /><circle r="0.33800000000000013" cx="48.55497908846039" cy="39.98108450356505" fill="none" stroke="black" stroke-width="0.1" /><circle r="0.34000000000000014" cx="47.10875399905419" cy="44.92829753372614" fill="none" stroke="black" stroke-width="0.1" /><circle r="0.34200000000000014" cx="43.04946017389739" cy="48.1960855075953" fill="none" stroke="black" stroke-width="0.1" /><circle r="0.34400000000000014" cx="37.79399310432269" cy="48.56032321680812" fill="none" stroke="black" stroke-width="0.1" /><circle r="0.34600000000000014" cx="33.22505900197918" cy="45.8253239801179" fill="none" stroke="black" stroke-width="0.1" /><circle r="0.34800000000000014" cx="31.016720710745105" cy="40.91738389523911" fill="none" stroke="black" stroke-width="0.1" /><circle r="0.35000000000000014" cx="32.021277497730026" cy="35.572177484161" fill="none" stroke="black" stroke-width="0.1" /><circle r="0.35200000000000015" cx="35.94194122754479" cy="31.721077425214116" fill="none" stroke="black" stroke-width="0.1" /><circle r="0.35400000000000015" cx="41.41647714934057" cy="30.793327556310256" fill="none" stroke="black" stroke-width="0.1" /><circle r="0.35600000000000015" cx="46.49000011302752" cy="33.186190600486185" fill="none" stroke="black" stroke-width="0.1" /><circle r="0.35800000000000015" cx="49.31302085917406" cy="38.099298162101974" fill="none" stroke="black" stroke-width="0.1" /><circle r="0.36000000000000015" cx="48.815491832453326" cy="43.80093458927523" fill="none" stroke="black" stroke-width="0.1" /><circle r="0.36200000000000015" cx="45.11125407608061" cy="48.238210167854994" fill="none" stroke="black" stroke-width="0.1" /><circle r="0.36400000000000016" cx="39.48040598494579" cy="49.77620182174652" fill="none" stroke="black" stroke-width="0.1" /><circle r="0.36600000000000016" cx="33.927586736911245" cy="47.79993731784198" fill="none" stroke="black" stroke-width="0.1" /><circle r="0.36800000000000016" cx="30.468350766964328" cy="42.95771244348917" fill="none" stroke="black" stroke-width="0.1" /><circle r="0.37000000000000016" cx="30.397657919706198" cy="36.95030303587077" fill="none" stroke="black" stroke-width="0.1" /><circle r="0.37200000000000016" cx="33.80593476370256" cy="31.933869834394457" fill="none" stroke="black" stroke-width="0.1" /><circle r="0.37400000000000017" cx="39.52327477019836" cy="29.74607596793936" fill="none" stroke="black" stroke-width="0.1" /><circle r="0.37600000000000017" cx="45.5201818031174" cy="31.233176580965505" fill="none" stroke="black" stroke-width="0.1" /><circle r="0.37800000000000017" cx="49.627897249958046" cy="35.92438721855835" fill="none" stroke="black" stroke-width="0.1" /><circle r="0.38000000000000017" cx="50.32267746655288" cy="42.178263051498035" fill="none" stroke="black" stroke-width="0.1" /><circle r="0.3820000000000002" cx="47.29042349546847" cy="47.756658446568444" fill="none" stroke="black" stroke-width="0.1" /><circle r="0.3840000000000002" cx="41.56264473869254" cy="50.62571133715935" fill="none" stroke="black" stroke-width="0.1" /><circle r="0.3860000000000002" cx="35.16662158466602" cy="49.69719949749327" fill="none" stroke="black" stroke-width="0.1" /><circle r="0.3880000000000002" cx="30.408013120949725" cy="45.2401037882973" fill="none" stroke="black" stroke-width="0.1" /><circle r="0.3900000000000002" cx="29.039722119111147" cy="38.8071321222789" fill="none" stroke="black" stroke-width="0.1" /><circle r="0.3920000000000002" cx="31.616615740722324" cy="32.69429891377319" fill="none" stroke="black" stroke-width="0.1" /><circle r="0.3940000000000002" cx="37.27349280376407" cy="29.121471445601017" fill="none" stroke="black" stroke-width="0.1" /><circle r="0.3960000000000002" cx="44.01419983210513" cy="29.42633934212339" fill="none" stroke="black" stroke-width="0.1" /><circle r="0.3980000000000002" cx="49.41581345288733" cy="33.56443615365162" fill="none" stroke="black" stroke-width="0.1" /><circle r="0.4000000000000002" cx="51.49954950353833" cy="40.10179005684065" fill="none" stroke="black" stroke-width="0.1" /><circle r="0.4020000000000002" cx="49.45535518821593" cy="46.71120579811694" fill="none" stroke="black" stroke-width="0.1" /><circle r="0.4040000000000002" cx="43.95495820840385" cy="51.00065477913835" fill="none" stroke="black" stroke-width="0.1" /><circle r="0.4060000000000002" cx="36.93300931355319" cy="51.378918803174976" fill="none" stroke="black" stroke-width="0.1" /><circle r="0.4080000000000002" cx="30.90689028131952" cy="47.64524398852248" fill="none" stroke="black" stroke-width="0.1" /><circle r="0.4100000000000002" cx="28.074228863351472" cy="41.084715537033276" fill="none" stroke="black" stroke-width="0.1" /><circle r="0.4120000000000002" cx="29.511662547823597" cy="34.02675318697826" fill="none" stroke="black" stroke-width="0.1" /><circle r="0.4140000000000002" cx="34.76690333783255" cy="29.018109255487357" fill="none" stroke="black" stroke-width="0.1" /><circle r="0.4160000000000002" cx="41.998237802331545" cy="27.90394090270167" fill="none" stroke="black" stroke-width="0.1" /><circle r="0.4180000000000002" cx="48.61958725268242" cy="31.148517604751433" fill="none" stroke="black" stroke-width="0.1" /><circle r="0.4200000000000002" cx="52.22533289560701" cy="37.64548612414587" fill="none" stroke="black" stroke-width="0.1" /><circle r="0.4220000000000002" cx="51.4641770950742" cy="45.09408171634267" fill="none" stroke="black" stroke-width="0.1" /><circle r="0.4240000000000002" cx="46.544649386197726" cy="50.81374886021228" fill="none" stroke="black" stroke-width="0.1" /><circle r="0.4260000000000002" cx="39.18346538822589" cy="52.708796018025296" fill="none" stroke="black" stroke-width="0.1" /><circle r="0.4280000000000002" cx="32.006946948479836" cy="50.03593557749276" fill="none" stroke="black" stroke-width="0.1" /><circle r="0.4300000000000002" cx="27.61403602354448" cy="43.693713764485125" fill="none" stroke="black" stroke-width="0.1" /><circle r="0.4320000000000002" cx="27.635176703973993" cy="35.92182088940992" fill="none" stroke="black" stroke-width="0.1" /><circle r="0.4340000000000002" cx="32.12783188538711" cy="29.510376833495258" fill="none" stroke="black" stroke-width="0.1" /><circle r="0.4360000000000002" cx="39.53251576726075" cy="26.798274412329995" fill="none" stroke="black" stroke-width="0.1" /><circle r="0.4380000000000002" cx="47.21349941173638" cy="28.82017660081879" fill="none" stroke="black" stroke-width="0.1" /><circle r="0.4400000000000002" cx="52.39694632284677" cy="34.9131815573527" fill="none" stroke="black" stroke-width="0.1" /><circle r="0.4420000000000002" cx="53.1725901922369" cy="42.932216333660435" fill="none" stroke="black" stroke-width="0.1" /><circle r="0.44400000000000023" cx="49.1972464485692" cy="50.00493666967872" fill="none" stroke="black" stroke-width="0.1" /><circle r="0.44600000000000023" cx="41.84123759818137" cy="53.56057038280633" fill="none" stroke="black" stroke-width="0.1" /><circle r="0.44800000000000023" cx="33.716834467615094" cy="52.26418488496693" fill="none" stroke="black" stroke-width="0.1" /><circle r="0.45000000000000023" cx="27.75068883604429" cy="46.51690118143516" fill="none" stroke="black" stroke-width="0.1" /><circle r="0.45200000000000023" cx="26.129581151918426" cy="38.33495316018305" fill="none" stroke="black" stroke-width="0.1" /><circle r="0.45400000000000024" cx="29.499245770346867" cy="30.642736211454608" fill="none" stroke="black" stroke-width="0.1" /><circle r="0.45600000000000024" cx="36.70967887019854" cy="26.227586019045788" fill="none" stroke="black" stroke-width="0.1" /><circle r="0.45800000000000024" cx="45.20656962127292" cy="26.729858411499933" fill="none" stroke="black" stroke-width="0.1" /><circle r="0.46000000000000024" cx="51.936015581738616" cy="32.03419608372801" fill="none" stroke="black" stroke-width="0.1" /><circle r="0.46200000000000024" cx="54.44213591617603" cy="40.287637234549685" fill="none" stroke="black" stroke-width="0.1" /><circle r="0.46400000000000025" cx="51.76308648812775" cy="48.54642593560767" fill="none" stroke="black" stroke-width="0.1" /><circle r="0.46600000000000025" cx="44.798657821390506" cy="53.825921600862955" fill="none" stroke="black" stroke-width="0.1" /><circle r="0.46800000000000025" cx="36.00948935069712" cy="54.179165164345946" fill="none" stroke="black" stroke-width="0.1" /><circle r="0.47000000000000025" cx="28.54790351007621" cy="49.41435664214376" fill="none" stroke="black" stroke-width="0.1" /><circle r="0.47200000000000025" cx="25.127294459730994" cy="41.18702565787468" fill="none" stroke="black" stroke-width="0.1" /><circle r="0.47400000000000025" cx="27.03557608861128" cy="32.42544142237888" fill="none" stroke="black" stroke-width="0.1" /><circle r="0.47600000000000026" cx="33.65132567258148" cy="26.288456166996426" fill="none" stroke="black" stroke-width="0.1" /><circle r="0.47800000000000026" cx="42.644039275023346" cy="25.02665430466072" fill="none" stroke="black" stroke-width="0.1" /><circle r="0.48000000000000026" cx="50.7947996656369" cy="29.157384993519006" fill="none" stroke="black" stroke-width="0.1" /><circle r="0.48200000000000026" cx="55.148471096783744" cy="37.25594307094242" fill="none" stroke="black" stroke-width="0.1" /><circle r="0.48400000000000026" cx="54.08500159637328" cy="46.4461484647938" fill="none" stroke="black" stroke-width="0.1" /><circle r="0.48600000000000027" cx="47.92150110165115" cy="53.42170053668838" fill="none" stroke="black" stroke-width="0.1" /><circle r="0.48800000000000027" cx="38.82160215155194" cy="55.63565727786249" fill="none" stroke="black" stroke-width="0.1" /><circle r="0.49000000000000027" cx="30.036318235292036" cy="52.230113273867396" fill="none" stroke="black" stroke-width="0.1" /><circle r="0.49200000000000027" cx="24.74261653845766" cy="44.36682377792552" fill="none" stroke="black" stroke-width="0.1" /><circle r="0.49400000000000027" cx="24.894617293391775" cy="34.83195991821825" fill="none" stroke="black" stroke-width="0.1" /><circle r="0.4960000000000003" cx="30.50280587831823" cy="27.049057802032518" fill="none" stroke="black" stroke-width="0.1" /><circle r="0.4980000000000003" cx="39.6069297948052" cy="23.849782638806694" fill="none" stroke="black" stroke-width="0.1" /><circle r="0.5000000000000002" cx="48.96068357017561" cy="26.443870391767923" fill="none" stroke="black" stroke-width="0.1" /><circle r="0.5020000000000002" cx="55.189212619826364" cy="33.96287775594124" fill="none" stroke="black" stroke-width="0.1" /><circle r="0.5040000000000002" cx="56.0067335521002" cy="43.74941075264782" fill="none" stroke="black" stroke-width="0.1" /><circle r="0.5060000000000002" cx="51.05497565839341" cy="52.29608629574185" fill="none" stroke="black" stroke-width="0.1" /><circle r="0.5080000000000002" cx="42.0550409295887" cy="56.502536374076456" fill="none" stroke="black" stroke-width="0.1" /><circle r="0.5100000000000002" cx="32.20982693336142" cy="54.79996042534642" fill="none" stroke="black" stroke-width="0.1" /><circle r="0.5120000000000002" cx="25.064260389816518" cy="47.73537861366834" fill="none" stroke="black" stroke-width="0.1" /><circle r="0.5140000000000002" cx="23.22890345008705" cy="37.79828577842192" fill="none" stroke="black" stroke-width="0.1" /><circle r="0.5160000000000002" cx="27.42650872247373" cy="28.54367349042582" fill="none" stroke="black" stroke-width="0.1" /><circle r="0.5180000000000002" cx="36.20964076957321" cy="23.320245748083707" fill="none" stroke="black" stroke-width="0.1" /><circle r="0.5200000000000002" cx="46.45895729693049" cy="24.058799586090466" fill="none" stroke="black" stroke-width="0.1" /><circle r="0.5220000000000002" cx="54.490926003502466" cy="30.559126705594593" fill="none" stroke="black" stroke-width="0.1" /><circle r="0.5240000000000002" cx="57.381657506097035" cy="40.538592926746844" fill="none" stroke="black" stroke-width="0.1" /><circle r="0.5260000000000002" cx="54.03108002078613" cy="50.433312918258395" fill="none" stroke="black" stroke-width="0.1" /><circle r="0.5280000000000002" cx="45.58021566141577" cy="56.67086060082356" fill="none" stroke="black" stroke-width="0.1" /><circle r="0.5300000000000002" cx="35.02373766213594" cy="56.96002470943827" fill="none" stroke="black" stroke-width="0.1" /><circle r="0.5320000000000003" cx="26.148941633405034" cy="51.13198464449087" fill="none" stroke="black" stroke-width="0.1" /><circle r="0.5340000000000003" cx="22.176996313813248" cy="41.224240418453185" fill="none" stroke="black" stroke-width="0.1" /><circle r="0.5360000000000003" cx="24.593945490554884" cy="30.768798320261514" fill="none" stroke="black" stroke-width="0.1" /><circle r="0.5380000000000003" cx="32.59565121585484" cy="23.53310460096594" fill="none" stroke="black" stroke-width="0.1" /><circle r="0.5400000000000003" cx="43.35368112403532" cy="22.16253036671709" fill="none" stroke="black" stroke-width="0.1" /><circle r="0.5420000000000003" cx="53.01486544113932" cy="27.21355004119446" fill="none" stroke="black" stroke-width="0.1" /><circle r="0.5440000000000003" cx="58.081369211786935" cy="36.93084907066395" fill="none" stroke="black" stroke-width="0.1" /><circle r="0.5460000000000003" cx="56.67698754691503" cy="47.85667304652814" fill="none" stroke="black" stroke-width="0.1" /><circle r="0.5480000000000003" cx="49.241270938497635" cy="56.06112734029837" fill="none" stroke="black" stroke-width="0.1" /><circle r="0.5500000000000003" cx="38.39491075174525" cy="58.55570838058029" fill="none" stroke="black" stroke-width="0.1" /><circle r="0.5520000000000003" cx="28.016393918765537" cy="54.38164056322508" fill="none" stroke="black" stroke-width="0.1" /><circle r="0.5540000000000003" cx="21.855135565649732" cy="44.9767579466005" fill="none" stroke="black" stroke-width="0.1" /><circle r="0.5560000000000003" cx="22.176998329360536" cy="33.68108304783301" fill="none" stroke="black" stroke-width="0.1" /><circle r="0.5580000000000003" cx="28.931485061005993" cy="24.55079283441163" fill="none" stroke="black" stroke-width="0.1" /><circle r="0.5600000000000003" cx="39.746529269319176" cy="20.901681943461917" fill="none" stroke="black" stroke-width="0.1" /><circle r="0.5620000000000003" cx="50.761126332469246" cy="24.105152248082483" fill="none" stroke="black" stroke-width="0.1" /><circle r="0.5640000000000003" cx="58.00368609308709" cy="33.07386203851071" fill="none" stroke="black" stroke-width="0.1" /><circle r="0.5660000000000003" cx="58.82405801971565" cy="44.62958579900828" fill="none" stroke="black" stroke-width="0.1" /><circle r="0.5680000000000003" cx="52.86289891825338" cy="54.62929360628176" fill="none" stroke="black" stroke-width="0.1" /><circle r="0.5700000000000003" cx="42.203935542267985" cy="59.45053452030376" fill="none" stroke="black" stroke-width="0.1" /><circle r="0.5720000000000003" cx="30.646115601525096" cy="57.30357612344824" fill="none" stroke="black" stroke-width="0.1" /><circle r="0.5740000000000003" cx="22.349694739461096" cy="48.89505195093277" fill="none" stroke="black" stroke-width="0.1" /><circle r="0.5760000000000003" cx="20.338759155707496" cy="37.19728551887204" fill="none" stroke="black" stroke-width="0.1" /><circle r="0.5780000000000003" cx="25.399193724619533" cy="26.397850129159345" fill="none" stroke="black" stroke-width="0.1" /><circle r="0.5800000000000003" cx="35.773603302787215" cy="20.400508400527606" fill="none" stroke="black" stroke-width="0.1" /><circle r="0.5820000000000003" cx="47.77094262323091" cy="21.414159267161114" fill="none" stroke="black" stroke-width="0.1" /><circle r="0.5840000000000003" cx="57.079630314675256" cy="29.13980532798671" fill="none" stroke="black" stroke-width="0.1" /><circle r="0.5860000000000003" cx="60.317033986865354" cy="40.85460808360212" fill="none" stroke="black" stroke-width="0.1" /><circle r="0.5880000000000003" cx="56.258477458004165" cy="52.371208944463355" fill="none" stroke="black" stroke-width="0.1" /><circle r="0.5900000000000003" cx="46.29930351462796" cy="59.534441385168805" fill="none" stroke="black" stroke-width="0.1" /><circle r="0.5920000000000003" cx="33.97607398548516" cy="59.72046438022318" fill="none" stroke="black" stroke-width="0.1" /><circle r="0.5940000000000003" cx="23.710857552041983" cy="52.797463159162916" fill="none" stroke="black" stroke-width="0.1" /><circle r="0.5960000000000003" cx="19.224414285553408" cy="41.19630189403944" fill="none" stroke="black" stroke-width="0.1" /><circle r="0.5980000000000003" cx="22.187689885059218" cy="29.05739366653548" fill="none" stroke="black" stroke-width="0.1" /><circle r="0.6000000000000003" cx="31.60030838523732" cy="20.75304749377489" fill="none" stroke="black" stroke-width="0.1" /><circle r="0.6020000000000003" cx="44.126947241194046" cy="19.312628696028092" fill="none" stroke="black" stroke-width="0.1" /><circle r="0.6040000000000003" cx="55.27900152872826" cy="25.317758608266956" fill="none" stroke="black" stroke-width="0.1" /><circle r="0.6060000000000003" cx="61.0229583740545" cy="36.670368458406934" fill="none" stroke="black" stroke-width="0.1" /><circle r="0.6080000000000003" cx="59.23916400467902" cy="49.32517926911127" fill="none" stroke="black" stroke-width="0.1" /><circle r="0.6100000000000003" cx="50.503434465185265" cy="58.73108350938507" fill="none" stroke="black" stroke-width="0.1" /><circle r="0.6120000000000003" cx="37.90350155023486" cy="61.46787353815304" fill="none" stroke="black" stroke-width="0.1" /><circle r="0.6140000000000003" cx="25.947879534837398" cy="56.489697857527815" fill="none" stroke="black" stroke-width="0.1" /><circle r="0.6160000000000003" cx="18.952640518678425" cy="45.523247130449796" fill="none" stroke="black" stroke-width="0.1" /><circle r="0.6180000000000003" cx="19.483333064732996" cy="32.46956821508084" fill="none" stroke="black" stroke-width="0.1" /><circle r="0.6200000000000003" cx="27.414484749625895" cy="22.016471261662804" fill="none" stroke="black" stroke-width="0.1" /><circle r="0.6220000000000003" cx="39.95131065877085" cy="17.955053768538022" fill="none" stroke="black" stroke-width="0.1" /><circle r="0.6240000000000003" cx="52.61420658319296" cy="21.804907467217152" fill="none" stroke="black" stroke-width="0.1" /><circle r="0.6260000000000003" cx="60.83935103204587" cy="32.2465057191504" fill="none" stroke="black" stroke-width="0.1" /><circle r="0.6280000000000003" cx="61.62351794542997" cy="45.57246549237112" fill="none" stroke="black" stroke-width="0.1" /><circle r="0.6300000000000003" cx="54.62031604611122" cy="57.00373440488357" fill="none" stroke="black" stroke-width="0.1" /><circle r="0.6320000000000003" cx="42.28781810147133" cy="62.40348830728328" fill="none" stroke="black" stroke-width="0.1" /><circle r="0.6340000000000003" cx="29.026231086879996" cy="59.7740896336959" fill="none" stroke="black" stroke-width="0.1" /><circle r="0.6360000000000003" cx="19.607965952548543" cy="49.99545133586169" fill="none" stroke="black" stroke-width="0.1" /><circle r="0.6380000000000003" cx="17.46021608394189" cy="36.53212370211872" fill="none" stroke="black" stroke-width="0.1" /><circle r="0.6400000000000003" cx="23.418078975370353" cy="24.206017122557597" fill="none" stroke="black" stroke-width="0.1" /><circle r="0.6420000000000003" cx="35.401775663087264" cy="17.469435028223952" fill="none" stroke="black" stroke-width="0.1" /><circle r="0.6440000000000003" cx="49.142090680827856" cy="18.796927628677988" fill="none" stroke="black" stroke-width="0.1" /><circle r="0.6460000000000004" cx="59.701205623542386" cy="27.776795756476123" fill="none" stroke="black" stroke-width="0.1" /><circle r="0.6480000000000004" cx="63.24718582626728" cy="41.23561772364916" fill="none" stroke="black" stroke-width="0.1" /><circle r="0.6500000000000004" cx="58.44443019752406" cy="54.35944357169388" fill="none" stroke="black" stroke-width="0.1" /><circle r="0.6520000000000004" cx="46.95560837339016" cy="62.41562874772917" fill="none" stroke="black" stroke-width="0.1" /><circle r="0.6540000000000004" cx="32.86683328609789" cy="62.459455862323935" fill="none" stroke="black" stroke-width="0.1" /><circle r="0.6560000000000004" cx="21.234513949478096" cy="54.41013994684527" fill="none" stroke="black" stroke-width="0.1" /><circle r="0.6580000000000004" cx="16.270629060816013" cy="41.10316808810277" fill="none" stroke="black" stroke-width="0.1" /><circle r="0.6600000000000004" cx="19.817719976078195" cy="27.291810788471686" fill="none" stroke="black" stroke-width="0.1" /><circle r="0.6620000000000004" cx="30.66571094278986" cy="17.94928407519509" fill="none" stroke="black" stroke-width="0.1" /><circle r="0.6640000000000004" cx="44.96360589580098" cy="16.478005685929446" fill="none" stroke="black" stroke-width="0.1" /><circle r="0.6660000000000004" cx="57.58641389664063" cy="23.47074498786945" fill="none" stroke="black" stroke-width="0.1" /><circle r="0.6680000000000004" cx="63.97216731906579" cy="36.47464980084082" fill="none" stroke="black" stroke-width="0.1" /><circle r="0.6700000000000004" cx="61.77056707388318" cy="50.851176631202314" fill="none" stroke="black" stroke-width="0.1" /><circle r="0.6720000000000004" cx="51.707481211143616" cy="61.43061556957048" fill="none" stroke="black" stroke-width="0.1" /><circle r="0.6740000000000004" cx="37.34750077243455" cy="64.37107861477949" fill="none" stroke="black" stroke-width="0.1" /><circle r="0.6760000000000004" cx="23.831492691530656" cy="58.55347599281522" fill="none" stroke="black" stroke-width="0.1" /><circle r="0.6780000000000004" cx="16.03618275759796" cy="46.00603764330127" fill="none" stroke="black" stroke-width="0.1" /><circle r="0.6800000000000004" cx="16.81462915651538" cy="31.197808292811928" fill="none" stroke="black" stroke-width="0.1" /><circle r="0.6820000000000004" cx="25.952407130950043" cy="19.446991471188117" fill="none" stroke="black" stroke-width="0.1" /><circle r="0.6840000000000004" cx="40.22125448138283" cy="15.010979481891152" fill="none" stroke="black" stroke-width="0.1" /><circle r="0.6860000000000004" cx="54.51929016252058" cy="19.544012168156485" fill="none" stroke="black" stroke-width="0.1" /><circle r="0.6880000000000004" cx="63.69518626979548" cy="31.48116512428531" fill="none" stroke="black" stroke-width="0.1" /><circle r="0.6900000000000004" cx="64.40407177009808" cy="46.57775843581219" fill="none" stroke="black" stroke-width="0.1" /><circle r="0.6920000000000004" cx="56.32653902887582" cy="59.41857418397632" fill="none" stroke="black" stroke-width="0.1" /><circle r="0.6940000000000004" cx="42.306601151411705" cy="65.3603197166026" fill="none" stroke="black" stroke-width="0.1" /><circle r="0.6960000000000004" cx="27.350717892902537" cy="62.2105664532686" fill="none" stroke="black" stroke-width="0.1" /><circle r="0.6980000000000004" cx="16.84005500927224" cy="51.036121285418204" fill="none" stroke="black" stroke-width="0.1" /><circle r="0.7000000000000004" cx="14.594339504955023" cy="35.80298739452599" fill="none" stroke="black" stroke-width="0.1" /><circle r="0.7020000000000004" cx="21.4839315842753" cy="21.968936930280606" fill="none" stroke="black" stroke-width="0.1" /><circle r="0.7040000000000004" cx="35.094351391396046" cy="14.528089751082696" fill="none" stroke="black" stroke-width="0.1" /><circle r="0.7060000000000004" cx="50.57195195367456" cy="16.208088414564227" fill="none" stroke="black" stroke-width="0.1" /><circle r="0.7080000000000004" cx="62.354720737290414" cy="26.470648176732404" fill="none" stroke="black" stroke-width="0.1" /><circle r="0.7100000000000004" cx="66.17103446657072" cy="41.68154094495592" fill="none" stroke="black" stroke-width="0.1" /><circle r="0.7120000000000004" cx="60.588099537358815" cy="56.39733385156873" fill="none" stroke="black" stroke-width="0.1" /><circle r="0.7140000000000004" cx="47.548832502122195" cy="65.31338288050216" fill="none" stroke="black" stroke-width="0.1" /><circle r="0.7160000000000004" cx="31.696365690771877" cy="65.17597579555965" fill="none" stroke="black" stroke-width="0.1" /><circle r="0.7180000000000004" cx="18.72078311732807" cy="55.969375500006436" fill="none" stroke="black" stroke-width="0.1" /><circle r="0.7200000000000004" cx="13.316721931091053" cy="40.94481294300968" fill="none" stroke="black" stroke-width="0.1" /><circle r="0.7220000000000004" cx="17.484937853252045" cy="25.472646437562236" fill="none" stroke="black" stroke-width="0.1" /><circle r="0.7240000000000004" cx="29.792257908684906" cy="15.122819665460682" fill="none" stroke="black" stroke-width="0.1" /><circle r="0.7260000000000004" cx="45.863409779767665" cy="13.65971430005892" fill="none" stroke="black" stroke-width="0.1" /><circle r="0.7280000000000004" cx="59.93629769224529" cy="21.673231754448075" fill="none" stroke="black" stroke-width="0.1" /><circle r="0.7300000000000004" cx="66.92792260248419" cy="36.34382586374543" fill="none" stroke="black" stroke-width="0.1" /><circle r="0.7320000000000004" cx="64.27024010253034" cy="52.43416042061239" fill="none" stroke="black" stroke-width="0.1" /><circle r="0.7340000000000004" cx="52.85291477282237" cy="64.15876252713619" fill="none" stroke="black" stroke-width="0.1" /><circle r="0.7360000000000004" cx="36.727050484209485" cy="67.26425134616906" fill="none" stroke="black" stroke-width="0.1" /><circle r="0.7380000000000004" cx="21.667962924296198" cy="60.57217639568104" fill="none" stroke="black" stroke-width="0.1" /><circle r="0.7400000000000004" cx="13.10681737510205" cy="46.4248913067757" fill="none" stroke="black" stroke-width="0.1" /><circle r="0.7420000000000004" cx="14.171888459580472" cy="29.866211011884914" fill="none" stroke="black" stroke-width="0.1" /><circle r="0.7440000000000004" cx="24.545841137679673" cy="16.84326072483086" fill="none" stroke="black" stroke-width="0.1" /><circle r="0.7460000000000004" cx="40.55632530733531" cy="12.070540156451056" fill="none" stroke="black" stroke-width="0.1" /><circle r="0.7480000000000004" cx="56.4757299936868" cy="17.323333111430955" fill="none" stroke="black" stroke-width="0.1" /><circle r="0.7500000000000004" cx="66.57016539057264" cy="30.778181517856115" fill="none" stroke="black" stroke-width="0.1" /><circle r="0.7520000000000004" cx="67.16468223808354" cy="47.64515787305554" fill="none" stroke="black" stroke-width="0.1" /><circle r="0.7540000000000004" cx="57.98089216447619" cy="61.87296829352325" fill="none" stroke="black" stroke-width="0.1" /><circle r="0.7560000000000004" cx="42.26021313541007" cy="68.31994944526762" fill="none" stroke="black" stroke-width="0.1" /><circle r="0.7580000000000005" cx="25.62013430276021" cy="64.61208011382502" fill="none" stroke="black" stroke-width="0.1" /><circle r="0.7600000000000005" cx="14.046949603409196" cy="52.01662078589535" fill="none" stroke="black" stroke-width="0.1" /><circle r="0.7620000000000005" cx="11.74219192629483" cy="35.01007937241113" fill="none" stroke="black" stroke-width="0.1" /><circle r="0.7640000000000005" cx="19.597507413763996" cy="19.6873833229547" fill="none" stroke="black" stroke-width="0.1" /><circle r="0.7660000000000005" cx="34.85150833451266" cy="11.577539540525326" fill="none" stroke="black" stroke-width="0.1" /><circle r="0.7680000000000005" cx="52.060062418511876" cy="13.648618737121364" fill="none" stroke="black" stroke-width="0.1" /><circle r="0.7700000000000005" cx="65.03923635066025" cy="25.22189904027693" fill="none" stroke="black" stroke-width="0.1" /><circle r="0.7720000000000005" cx="69.0875025446242" cy="42.19228093922155" fill="none" stroke="black" stroke-width="0.1" /><circle r="0.7740000000000005" cx="62.688656848329764" cy="58.484184467233945" fill="none" stroke="black" stroke-width="0.1" /><circle r="0.7760000000000005" cx="48.078693500341885" cy="68.22665958500097" fill="none" stroke="black" stroke-width="0.1" /><circle r="0.7780000000000005" cx="30.465036418664916" cy="67.8690059833968" fill="none" stroke="black" stroke-width="0.1" /><circle r="0.7800000000000005" cx="16.170546778918222" cy="57.474543175266945" fill="none" stroke="black" stroke-width="0.1" /><circle r="0.7820000000000005" cx="10.363774573079649" cy="40.72122634779448" fill="none" stroke="black" stroke-width="0.1" /><circle r="0.7840000000000005" cx="15.190236806611193" cy="23.600510669903066" fill="none" stroke="black" stroke-width="0.1" /><circle r="0.7860000000000005" cx="28.980333477542985" cy="12.274665471200656" fill="none" stroke="black" stroke-width="0.1" /><circle r="0.7880000000000005" cx="46.82609605561731" cy="10.85880385709127" fill="none" stroke="black" stroke-width="0.1" /><circle r="0.7900000000000005" cx="62.32783740447921" cy="19.92592961457164" fill="none" stroke="black" stroke-width="0.1" /><circle r="0.7920000000000005" cx="69.88914881871946" cy="36.27801358244898" fill="none" stroke="black" stroke-width="0.1" /><circle r="0.7940000000000005" cx="66.73723387864119" cy="54.073611814983195" fill="none" stroke="black" stroke-width="0.1" /><circle r="0.7960000000000005" cx="53.939252917154406" cy="66.914556063803" fill="none" stroke="black" stroke-width="0.1" /><circle r="0.7980000000000005" cx="36.042308565429735" cy="70.14632155850398" fill="none" stroke="black" stroke-width="0.1" /><circle r="0.8000000000000005" cx="19.45803154914979" cy="62.5450112478186" fill="none" stroke="black" stroke-width="0.1" /><circle r="0.8020000000000005" cx="10.165602981963229" cy="46.77958550135264" fill="none" stroke="black" stroke-width="0.1" /><circle r="0.8040000000000005" cx="11.55610682142606" cy="28.47519888042023" fill="none" stroke="black" stroke-width="0.1" /><circle r="0.8060000000000005" cx="23.19536232619683" cy="14.206194975301003" fill="none" stroke="black" stroke-width="0.1" /><circle r="0.8080000000000005" cx="40.95647176339382" cy="9.134816349714967" fill="none" stroke="black" stroke-width="0.1" /><circle r="0.8100000000000005" cx="58.48286621283012" cy="15.143727520832595" fill="none" stroke="black" stroke-width="0.1" /><circle r="0.8120000000000005" cx="69.46325693820773" cy="30.13788102925412" fill="none" stroke="black" stroke-width="0.1" /><circle r="0.8140000000000005" cx="69.90431660948933" cy="48.774341748496724" fill="none" stroke="black" stroke-width="0.1" /><circle r="0.8160000000000005" cx="59.58271220169054" cy="64.36606211158775" fill="none" stroke="black" stroke-width="0.1" /><circle r="0.8180000000000005" cx="42.148598413129044" cy="71.28129712558433" fill="none" stroke="black" stroke-width="0.1" /><circle r="0.8200000000000005" cx="23.835052267763256" cy="66.97771237177173" fill="none" stroke="black" stroke-width="0.1" /><circle r="0.8220000000000005" cx="11.229643942031085" cy="52.93652338527175" fill="none" stroke="black" stroke-width="0.1" /><circle r="0.8240000000000005" cx="8.904832875758899" cy="34.15361808333507" fill="none" stroke="black" stroke-width="0.1" /><circle r="0.8260000000000005" cx="17.7595509231114" cy="17.362141226292707" fill="none" stroke="black" stroke-width="0.1" /><circle r="0.8280000000000005" cx="34.673408606186754" cy="8.618854002389497" fill="none" stroke="black" stroke-width="0.1" /><circle r="0.8300000000000005" cx="53.60594363702502" cy="11.11948887664747" fill="none" stroke="black" stroke-width="0.1" /><circle r="0.8320000000000005" cx="67.75380523610593" cy="24.0310709527442" fill="none" stroke="black" stroke-width="0.1" /><circle r="0.8340000000000005" cx="71.99551411175796" cy="42.76772500879122" fill="none" stroke="black" stroke-width="0.1" /><circle r="0.8360000000000005" cx="64.74528374477379" cy="60.619287873023765" fill="none" stroke="black" stroke-width="0.1" /><circle r="0.8380000000000005" cx="48.5449243629007" cy="71.15441048442895" fill="none" stroke="black" stroke-width="0.1" /><circle r="0.8400000000000005" cx="29.17322570943618" cy="70.5375336014744" fill="none" stroke="black" stroke-width="0.1" /><circle r="0.8420000000000005" cx="13.584695911127803" cy="58.92502932342252" fill="none" stroke="black" stroke-width="0.1" /><circle r="0.8440000000000005" cx="7.412868828187435" cy="40.43241414300675" fill="none" stroke="black" stroke-width="0.1" /><circle r="0.8460000000000005" cx="12.934501142875266" cy="21.676026724125304" fill="none" stroke="black" stroke-width="0.1" /><circle r="0.8480000000000005" cx="28.23030693747932" cy="9.405838380271916" fill="none" stroke="black" stroke-width="0.1" /><circle r="0.8500000000000005" cx="47.85138640733861" cy="8.076319816120062" fill="none" stroke="black" stroke-width="0.1" /><circle r="0.8520000000000005" cx="64.76020702825409" cy="18.229537259902184" fill="none" stroke="black" stroke-width="0.1" /><circle r="0.8540000000000005" cx="72.85476881987174" cy="36.277314035165716" fill="none" stroke="black" stroke-width="0.1" /><circle r="0.8560000000000005" cx="69.17060682514295" cy="55.76899798506277" fill="none" stroke="black" stroke-width="0.1" /><circle r="0.8580000000000005" cx="54.966027682431296" cy="69.69702073287301" fill="none" stroke="black" stroke-width="0.1" /><circle r="0.8600000000000005" cx="35.29344868062179" cy="73.01622138704018" fill="none" stroke="black" stroke-width="0.1" /><circle r="0.8620000000000005" cx="17.202451513634244" cy="64.471203648611" fill="none" stroke="black" stroke-width="0.1" /><circle r="0.8640000000000005" cx="7.213601491804042" cy="47.06991321458442" fill="none" stroke="black" stroke-width="0.1" /><circle r="0.8660000000000005" cx="8.968273878015317" cy="27.02520910033141" fill="none" stroke="black" stroke-width="0.1" /><circle r="0.8680000000000005" cx="21.901532756759746" cy="11.536718680985693" fill="none" stroke="black" stroke-width="0.1" /><circle r="0.8700000000000006" cx="41.42162654046525" cy="6.204887883313155" fill="none" stroke="black" stroke-width="0.1" /><circle r="0.8720000000000006" cx="60.54002630119753" cy="13.006042906863346" fill="none" stroke="black" stroke-width="0.1" /><circle r="0.8740000000000006" cx="72.37342462552189" cy="29.560574584028046" fill="none" stroke="black" stroke-width="0.1" /><circle r="0.8760000000000006" cx="72.62194687158188" cy="49.96497277004198" fill="none" stroke="black" stroke-width="0.1" /><circle r="0.8780000000000006" cx="61.131348477703746" cy="66.89699121674832" fill="none" stroke="black" stroke-width="0.1" /><circle r="0.8800000000000006" cx="41.97171727488553" cy="74.24328154525945" fill="none" stroke="black" stroke-width="0.1" /><circle r="0.8820000000000006" cx="21.996057293294445" cy="69.30655339704163" fill="none" stroke="black" stroke-width="0.1" /><circle r="0.8840000000000006" cx="8.389138543997827" cy="53.79541728290321" fill="none" stroke="black" stroke-width="0.1" /><circle r="0.8860000000000006" cx="6.083318684784942" cy="33.23383760451097" fill="none" stroke="black" stroke-width="0.1" /><circle r="0.8880000000000006" cx="15.970795014479926" cy="14.994006563148801" fill="none" stroke="black" stroke-width="0.1" /><circle r="0.8900000000000006" cx="34.56019855107762" cy="5.653105159326415" fill="none" stroke="black" stroke-width="0.1" /><circle r="0.8920000000000006" cx="55.209102850657366" cy="8.62166208228814" fill="none" stroke="black" stroke-width="0.1" /><circle r="0.8940000000000006" cx="70.49747243542885" cy="22.898672564673664" fill="none" stroke="black" stroke-width="0.1" /><circle r="0.8960000000000006" cx="74.89399485344934" cy="43.40774458659071" fill="none" stroke="black" stroke-width="0.1" /><circle r="0.8980000000000006" cx="66.75717225338812" cy="62.80192443638265" fill="none" stroke="black" stroke-width="0.1" /><circle r="0.9000000000000006" cx="48.94727353739881" cy="74.09558323664446" fill="none" stroke="black" stroke-width="0.1" /><text x="36" y="78" font-size="2" font-family="Arial, Helvetica, sans-serif" fill="black" stroke="none">VARICITE</text></svg>