<svg width="80" height="80" fill="none" stroke="black" viewBox="0 0 80 80"><circle r="40" cx="40" cy="40" stroke-width="0.1" /><circle r="0.2" cx="39.167706326905716" cy="41.81859485365136" fill="none" stroke="black" stroke-width="0.1" /><circle r="0.202" cx="38.02021395778792" cy="40.68518043394584" fill="none" stroke="black" stroke-width="0.1" /><circle r="0.20400000000000001" cx="38.0526707716558" cy="38.99799756665147" fill="none" stroke="black" stroke-width="0.1" /><circle r="0.20600000000000002" cx="39.35280302727252" cy="37.808570996246424" fill="none" stroke="black" stroke-width="0.1" /><circle r="0.20800000000000002" cx="41.18513327398867" cy="37.936057383819765" fill="none" stroke="black" stroke-width="0.1" /><circle r="0.21000000000000002" cx="42.40338328844888" cy="39.40892152060435" fill="none" stroke="black" stroke-width="0.1" /><circle r="0.21200000000000002" cx="42.167481554705645" cy="41.3809140849491" fill="none" stroke="black" stroke-width="0.1" /><circle r="0.21400000000000002" cx="40.516733758668664" cy="42.6144236884354" fill="none" stroke="black" stroke-width="0.1" /><circle r="0.21600000000000003" cx="38.411486123117434" cy="42.25703869327744" fill="none" stroke="black" stroke-width="0.1" /><circle r="0.21800000000000003" cx="37.176681908155835" cy="40.42414614493759" fill="none" stroke="black" stroke-width="0.1" /><circle r="0.22000000000000003" cx="37.66824382888427" cy="38.192954577642354" fill="none" stroke="black" stroke-width="0.1" /><circle r="0.22200000000000003" cx="39.686626093890865" cy="36.97116824584628" fill="none" stroke="black" stroke-width="0.1" /><circle r="0.22400000000000003" cx="42.03556808221554" cy="37.60917115153231" fill="none" stroke="black" stroke-width="0.1" /><circle r="0.22600000000000003" cx="43.229731590312134" cy="39.81544958807991" fill="none" stroke="black" stroke-width="0.1" /><circle r="0.22800000000000004" cx="42.433507381046276" cy="42.27309080909525" fill="none" stroke="black" stroke-width="0.1" /><circle r="0.23000000000000004" cx="40.03788406574937" cy="43.42479047498709" fill="none" stroke="black" stroke-width="0.1" /><circle r="0.23200000000000004" cx="37.48142468037479" cy="42.459101128334254" fill="none" stroke="black" stroke-width="0.1" /><circle r="0.23400000000000004" cx="36.38720846173771" cy="39.8736579996185" fill="none" stroke="black" stroke-width="0.1" /><circle r="0.23600000000000004" cx="37.53301911320257" cy="37.22906057370858" fill="none" stroke="black" stroke-width="0.1" /><circle r="0.23800000000000004" cx="40.30777046726214" cy="36.20746755590921" fill="none" stroke="black" stroke-width="0.1" /><circle r="0.24000000000000005" cx="43.02906051952762" cy="37.54341856047085" fill="none" stroke="black" stroke-width="0.1" /><circle r="0.24200000000000005" cx="43.962829638843154" cy="40.505970605377705" fill="none" stroke="black" stroke-width="0.1" /><circle r="0.24400000000000005" cx="42.4274039143503" cy="43.29177919013364" fill="none" stroke="black" stroke-width="0.1" /><circle r="0.24600000000000005" cx="39.279560714464" cy="44.12252255734961" fill="none" stroke="black" stroke-width="0.1" /><circle r="0.24800000000000005" cx="36.442097018284706" cy="42.37901794291288" fill="none" stroke="black" stroke-width="0.1" /><circle r="0.25000000000000006" cx="35.72952222606867" cy="39.04939777911129" fill="none" stroke="black" stroke-width="0.1" /><circle r="0.25200000000000006" cx="37.68893638609902" cy="36.1737897375467" fill="none" stroke="black" stroke-width="0.1" /><circle r="0.25400000000000006" cx="41.195815437342674" cy="35.59440691395438" fill="none" stroke="black" stroke-width="0.1" /><circle r="0.25600000000000006" cx="44.09545420515173" cy="37.776746786012666" fill="none" stroke="black" stroke-width="0.1" /><circle r="0.25800000000000006" cx="44.52680151833389" cy="41.45536696870927" fill="none" stroke="black" stroke-width="0.1" /><circle r="0.26000000000000006" cx="42.11537275078693" cy="44.36436686418868" fill="none" stroke="black" stroke-width="0.1" /><circle r="0.26200000000000007" cx="38.27152122769952" cy="44.63307523505789" fill="none" stroke="black" stroke-width="0.1" /><circle r="0.26400000000000007" cx="35.36833666230547" cy="41.987283252648275" fill="none" stroke="black" stroke-width="0.1" /><circle r="0.26600000000000007" cx="35.27657065085994" cy="37.98569113994842" fill="none" stroke="black" stroke-width="0.1" /><circle r="0.26800000000000007" cx="38.16107815926231" cy="35.10395399698308" fill="none" stroke="black" stroke-width="0.1" /><circle r="0.2700000000000001" cx="42.31195363963411" cy="35.20307438371381" fill="none" stroke="black" stroke-width="0.1" /><circle r="0.2720000000000001" cx="45.15620881329704" cy="38.329697430500104" fill="none" stroke="black" stroke-width="0.1" /><circle r="0.2740000000000001" cx="44.85267600296229" cy="42.62045045941989" fill="none" stroke="black" stroke-width="0.1" /><circle r="0.2760000000000001" cx="41.481517032217745" cy="45.4108416427806" fill="none" stroke="black" stroke-width="0.1" /><circle r="0.2780000000000001" cx="37.06121964942986" cy="44.889846117323415" fill="none" stroke="black" stroke-width="0.1" /><circle r="0.2800000000000001" cx="34.34136533168241" cy="41.27273472904383" fill="none" stroke="black" stroke-width="0.1" /><circle r="0.2820000000000001" cx="35.09234150745358" cy="36.73412904104632" fill="none" stroke="black" stroke-width="0.1" /><circle r="0.2840000000000001" cx="38.95579680446503" cy="34.1017172256296" fill="none" stroke="black" stroke-width="0.1" /><circle r="0.2860000000000001" cx="43.6005996590465" cy="35.09460428759573" fill="none" stroke="black" stroke-width="0.1" /><circle r="0.2880000000000001" cx="46.12848996874896" cy="39.20375210961446" fill="none" stroke="black" stroke-width="0.1" /><circle r="0.2900000000000001" cx="44.882403369331364" cy="43.94179684143434" fill="none" stroke="black" stroke-width="0.1" /><circle r="0.2920000000000001" cx="40.52927184172517" cy="46.34797379622481" fill="none" stroke="black" stroke-width="0.1" /><circle r="0.2940000000000001" cx="35.711750634970606" cy="44.838092845670175" fill="none" stroke="black" stroke-width="0.1" /><circle r="0.2960000000000001" cx="33.4445302628557" cy="40.24375505201991" fill="none" stroke="black" stroke-width="0.1" /><circle r="0.2980000000000001" cx="35.22805609074457" cy="35.361295835373845" fill="none" stroke="black" stroke-width="0.1" /><circle r="0.3000000000000001" cx="40.05974633771023" cy="33.2502644218362" fill="none" stroke="black" stroke-width="0.1" /><circle r="0.3020000000000001" cx="44.99187200395803" cy="35.316492885016615" fill="none" stroke="black" stroke-width="0.1" /><circle r="0.3040000000000001" cx="46.929555742267624" cy="40.38060112296962" fill="none" stroke="black" stroke-width="0.1" /><circle r="0.3060000000000001" cx="44.57240600452897" cy="45.34643136397984" fill="none" stroke="black" stroke-width="0.1" /><circle r="0.3080000000000001" cx="39.2818956518979" cy="47.093745565301646" fill="none" stroke="black" stroke-width="0.1" /><circle r="0.3100000000000001" cx="34.29896754430963" cy="44.43833909691058" fill="none" stroke="black" stroke-width="0.1" /><circle r="0.3120000000000001" cx="32.75884449363731" cy="38.92852114688472" fill="none" stroke="black" stroke-width="0.1" /><circle r="0.3140000000000001" cx="35.71891833683883" cy="33.94569865357322" fill="none" stroke="black" stroke-width="0.1" /><circle r="0.3160000000000001" cx="41.439877051624094" cy="32.62932472047464" fill="none" stroke="black" stroke-width="0.1" /><circle r="0.3180000000000001" cx="46.40484418820888" cy="35.899512721057796" fill="none" stroke="black" stroke-width="0.1" /><circle r="0.3200000000000001" cx="47.48123789456358" cy="41.822382935868816" fill="none" stroke="black" stroke-width="0.1" /><circle r="0.3220000000000001" cx="43.89648914953336" cy="46.751251536387066" fill="none" stroke="black" stroke-width="0.1" /><circle r="0.3240000000000001" cx="37.78198569588325" cy="47.57182359453345" fill="none" stroke="black" stroke-width="0.1" /><circle r="0.3260000000000001" cx="32.90789725344483" cy="43.66910120224347" fill="none" stroke="black" stroke-width="0.1" /><circle r="0.3280000000000001" cx="32.35853632167321" cy="37.374274794878104" fill="none" stroke="black" stroke-width="0.1" /><circle r="0.3300000000000001" cx="36.581581058083415" cy="32.57402956257259" fill="none" stroke="black" stroke-width="0.1" /><circle r="0.33200000000000013" cx="43.044408593694435" cy="32.31075580341999" fill="none" stroke="black" stroke-width="0.1" /><circle r="0.33400000000000013" cx="47.75142500714979" cy="36.855379934152175" fill="none" stroke="black" stroke-width="0.1" /><circle r="0.33600000000000013" cx="47.71430950963045" cy="43.47289919082387" fill="none" stroke="black" stroke-width="0.1" /><circle r="0.33800000000000013" cx="42.84796483507715" cy="48.06703919032032" fill="none" stroke="black" stroke-width="0.1" /><circle r="0.34000000000000014" cx="36.09002345879292" cy="47.71586569655086" fill="none" stroke="black" stroke-width="0.1" /><circle r="0.34200000000000014" cx="31.628607357170345" cy="42.52879619969216" fill="none" stroke="black" stroke-width="0.1" /><circle r="0.34400000000000014" cx="32.30681619533782" cy="35.64563173954206" fill="none" stroke="black" stroke-width="0.1" /><circle r="0.34600000000000014" cx="37.812460323557346" cy="31.336923458494137" fill="none" stroke="black" stroke-width="0.1" /><circle r="0.34800000000000014" cx="44.804753463719095" cy="32.35439707067655" fill="none" stroke="black" stroke-width="0.1" /><circle r="0.35000000000000014" cx="48.94069818545304" cy="38.1752970223522" fill="none" stroke="black" stroke-width="0.1" /><circle r="0.35200000000000015" cx="47.572533114225074" cy="45.25976636686125" fill="none" stroke="black" stroke-width="0.1" /><circle r="0.35400000000000015" cx="41.44087539105984" cy="49.20288558591479" fill="none" stroke="black" stroke-width="0.1" /><circle r="0.35600000000000015" cx="34.28199994905818" cy="47.47345806286685" fill="none" stroke="black" stroke-width="0.1" /><circle r="0.35800000000000015" cx="30.551707968530113" cy="41.03672691103431" fill="none" stroke="black" stroke-width="0.1" /><circle r="0.36000000000000015" cx="32.6520623476164" cy="33.821989619895135" fill="none" stroke="black" stroke-width="0.1" /><circle r="0.36200000000000015" cx="39.386992877955805" cy="30.32439938462096" fill="none" stroke="black" stroke-width="0.1" /><circle r="0.36400000000000016" cx="46.63832006263872" cy="32.80438975861196" fill="none" stroke="black" stroke-width="0.1" /><circle r="0.36600000000000016" cx="49.883528711948635" cy="39.829456163737554" fill="none" stroke="black" stroke-width="0.1" /><circle r="0.36800000000000016" cx="47.016194764031084" cy="47.09742284446847" fill="none" stroke="black" stroke-width="0.1" /><circle r="0.37000000000000016" cx="39.71024148762163" cy="50.07083238885964" fill="none" stroke="black" stroke-width="0.1" /><circle r="0.37200000000000016" cx="32.4462121760517" cy="46.809492603033696" fill="none" stroke="black" stroke-width="0.1" /><circle r="0.37400000000000017" cx="29.76368925747271" cy="39.23307928544041" fill="none" stroke="black" stroke-width="0.1" /><circle r="0.37600000000000017" cx="33.42461076498145" cy="31.994136123565276" fill="none" stroke="black" stroke-width="0.1" /><circle r="0.37800000000000017" cx="41.25989086861921" cy="29.621189856290357" fill="none" stroke="black" stroke-width="0.1" /><circle r="0.38000000000000017" cx="48.45208417676763" cy="33.68614435793512" fill="none" stroke="black" stroke-width="0.1" /><circle r="0.3820000000000002" cx="50.49722838077038" cy="41.767546695832685" fill="none" stroke="black" stroke-width="0.1" /><circle r="0.3840000000000002" cx="46.024949484022585" cy="48.89087080746179" fill="none" stroke="black" stroke-width="0.1" /><circle r="0.3860000000000002" cx="37.71130191715689" cy="50.590518688222524" fill="none" stroke="black" stroke-width="0.1" /><circle r="0.3880000000000002" cx="30.679360559880735" cy="45.70881602675139" fill="none" stroke="black" stroke-width="0.1" /><circle r="0.3900000000000002" cx="29.342306351564936" cy="37.17791015449416" fill="none" stroke="black" stroke-width="0.1" /><circle r="0.3920000000000002" cx="34.634311177903896" cy="30.2601959226875" fill="none" stroke="black" stroke-width="0.1" /><circle r="0.3940000000000002" cx="43.3664047077789" cy="29.302171045326794" fill="none" stroke="black" stroke-width="0.1" /><circle r="0.3960000000000002" cx="50.146781841960845" cy="35.00410986393275" fill="none" stroke="black" stroke-width="0.1" /><circle r="0.3980000000000002" cx="50.7100670239638" cy="43.92026648867186" fill="none" stroke="black" stroke-width="0.1" /><circle r="0.4000000000000002" cx="44.59983112236708" cy="50.53999780102936" fill="none" stroke="black" stroke-width="0.1" /><circle r="0.4020000000000002" cx="35.51775651033702" cy="50.693620448630774" fill="none" stroke="black" stroke-width="0.1" /><circle r="0.4040000000000002" cx="29.082110189780337" cy="44.178011739081406" fill="none" stroke="black" stroke-width="0.1" /><circle r="0.4060000000000002" cx="29.35222472427071" cy="34.949147925590324" fill="none" stroke="black" stroke-width="0.1" /><circle r="0.4080000000000002" cx="36.2689795929529" cy="28.72108663380206" fill="none" stroke="black" stroke-width="0.1" /><circle r="0.4100000000000002" cx="45.624560432011926" cy="29.428105895978415" fill="none" stroke="black" stroke-width="0.1" /><circle r="0.4120000000000002" cx="51.62154645281595" cy="36.74046659089962" fill="none" stroke="black" stroke-width="0.1" /><circle r="0.4140000000000002" cx="50.465418988580794" cy="46.20179251454393" fill="none" stroke="black" stroke-width="0.1" /><circle r="0.4160000000000002" cx="42.76431403011239" cy="51.944294367727395" fill="none" stroke="black" stroke-width="0.1" /><circle r="0.4180000000000002" cx="33.21906786095285" cy="50.327874143580466" fill="none" stroke="black" stroke-width="0.1" /><circle r="0.4200000000000002" cx="27.75430548421592" cy="42.24621143842165" fill="none" stroke="black" stroke-width="0.1" /><circle r="0.4220000000000002" cx="29.841131565674036" cy="32.639672756320124" fill="none" stroke="black" stroke-width="0.1" /><circle r="0.4240000000000002" cx="38.29384069002141" cy="27.475678844385456" fill="none" stroke="black" stroke-width="0.1" /><circle r="0.4260000000000002" cx="47.93829428724559" cy="30.04190234989209" fill="none" stroke="black" stroke-width="0.1" /><circle r="0.4280000000000002" cx="52.77879008584222" cy="38.85482580277871" fill="none" stroke="black" stroke-width="0.1" /><circle r="0.4300000000000002" cx="49.725346550006776" cy="48.51312278087612" fill="none" stroke="black" stroke-width="0.1" /><circle r="0.4320000000000002" cx="40.56435364540442" cy="53.00776325749048" fill="none" stroke="black" stroke-width="0.1" /><circle r="0.4340000000000002" cx="30.91692005977307" cy="49.46049067434919" fill="none" stroke="black" stroke-width="0.1" /><circle r="0.4360000000000002" cx="26.790046700751518" cy="39.9648740598004" fill="none" stroke="black" stroke-width="0.1" /><circle r="0.4380000000000002" cx="30.836502084889794" cy="30.353584553847384" fill="none" stroke="black" stroke-width="0.1" /><circle r="0.4400000000000002" cx="40.65201167211565" cy="26.615872057566627" fill="none" stroke="black" stroke-width="0.1" /><circle r="0.4420000000000002" cx="50.201366301471026" cy="31.165570160830292" fill="none" stroke="black" stroke-width="0.1" /><circle r="0.44400000000000023" cx="53.52911433268264" cy="41.28497679870189" fill="none" stroke="black" stroke-width="0.1" /><circle r="0.44600000000000023" cx="48.47344275896329" cy="50.74616177109639" fill="none" stroke="black" stroke-width="0.1" /><circle r="0.44800000000000023" cx="38.06737644306293" cy="53.643803215642365" fill="none" stroke="black" stroke-width="0.1" /><circle r="0.45000000000000023" cx="28.720971607474688" cy="48.08078854571809" fill="none" stroke="black" stroke-width="0.1" /><circle r="0.45200000000000023" cx="26.272847015815163" cy="37.406513746173644" fill="none" stroke="black" stroke-width="0.1" /><circle r="0.45400000000000024" cx="32.34318481887081" cy="28.201804956603297" fill="none" stroke="black" stroke-width="0.1" /><circle r="0.45600000000000024" cx="43.266034569643516" cy="26.221806425010044" fill="none" stroke="black" stroke-width="0.1" /><circle r="0.45800000000000024" cx="52.30189805261678" cy="32.798032955988724" fill="none" stroke="black" stroke-width="0.1" /><circle r="0.46000000000000024" cx="53.7960302026596" cy="43.94867707559192" fill="none" stroke="black" stroke-width="0.1" /><circle r="0.46200000000000024" cx="46.716784929152034" cy="52.7883863413457" fill="none" stroke="black" stroke-width="0.1" /><circle r="0.46400000000000025" cx="35.36023504215085" cy="53.7798469199014" fill="none" stroke="black" stroke-width="0.1" /><circle r="0.46600000000000025" cx="26.74407342001765" cy="46.20190579629508" fill="none" stroke="black" stroke-width="0.1" /><circle r="0.46800000000000025" cx="26.271090007282655" cy="34.6624040606405" fill="none" stroke="black" stroke-width="0.1" /><circle r="0.47000000000000025" cx="34.34193775210858" cy="26.29719165284039" fill="none" stroke="black" stroke-width="0.1" /><circle r="0.47200000000000025" cx="46.040418390158834" cy="26.35742892003739" fill="none" stroke="black" stroke-width="0.1" /><circle r="0.47400000000000025" cx="54.127349276674394" cy="34.91391826502476" fill="none" stroke="black" stroke-width="0.1" /><circle r="0.47600000000000026" cx="53.52027020709997" cy="46.74643561645749" fill="none" stroke="black" stroke-width="0.1" /><circle r="0.47800000000000026" cx="44.486885491242916" cy="54.52790017822518" fill="none" stroke="black" stroke-width="0.1" /><circle r="0.48000000000000026" cx="32.54618968182879" cy="53.36153852446363" fill="none" stroke="black" stroke-width="0.1" /><circle r="0.48200000000000026" cx="25.097149882185207" cy="43.86148719613945" fill="none" stroke="black" stroke-width="0.1" /><circle r="0.48400000000000026" cx="26.83399915913712" cy="31.83933079592125" fill="none" stroke="black" stroke-width="0.1" /><circle r="0.48600000000000027" cx="36.78900863151608" cy="24.74936855630157" fill="none" stroke="black" stroke-width="0.1" /><circle r="0.48800000000000027" cx="48.86510775329956" cy="27.06662207610133" fill="none" stroke="black" stroke-width="0.1" /><circle r="0.49000000000000027" cx="55.56972474381579" cy="37.463408507108056" fill="none" stroke="black" stroke-width="0.1" /><circle r="0.49200000000000027" cx="52.66348855893436" cy="49.56519511132627" fill="none" stroke="black" stroke-width="0.1" /><circle r="0.49400000000000027" cx="41.8395678819777" cy="55.858663720742605" fill="none" stroke="black" stroke-width="0.1" /><circle r="0.4960000000000003" cx="29.741020891582494" cy="52.35625135925353" fill="none" stroke="black" stroke-width="0.1" /><circle r="0.4980000000000003" cx="23.883960029670522" cy="41.12128527803773" fill="none" stroke="black" stroke-width="0.1" /><circle r="0.5000000000000002" cx="27.98831367944795" cy="29.055508612244047" fill="none" stroke="black" stroke-width="0.1" /><circle r="0.5020000000000002" cx="39.61680980136699" cy="23.659492349633897" fill="none" stroke="black" stroke-width="0.1" /><circle r="0.5040000000000002" cx="51.6197526304076" cy="28.37008388645313" fill="none" stroke="black" stroke-width="0.1" /><circle r="0.5060000000000002" cx="56.53078802581469" cy="40.37319196880849" fill="none" stroke="black" stroke-width="0.1" /><circle r="0.5080000000000002" cx="51.21116710913807" cy="52.282777863780744" fill="none" stroke="black" stroke-width="0.1" /><circle r="0.5100000000000002" cx="38.8537398824499" cy="56.685673877399" fill="none" stroke="black" stroke-width="0.1" /><circle r="0.5120000000000002" cx="27.068418160021075" cy="50.75577013123321" fill="none" stroke="black" stroke-width="0.1" /><circle r="0.5140000000000002" cx="23.195966239387115" cy="38.06565918923688" fill="none" stroke="black" stroke-width="0.1" /><circle r="0.5160000000000002" cx="29.735839066967984" cy="26.43581552982928" fill="none" stroke="black" stroke-width="0.1" /><circle r="0.5180000000000002" cx="42.73569190222503" cy="23.115183897474584" fill="none" stroke="black" stroke-width="0.1" /><circle r="0.5200000000000002" cx="54.17861630086462" cy="30.2631196067294" fill="none" stroke="black" stroke-width="0.1" /><circle r="0.5220000000000002" cx="56.92705312410632" cy="43.54850638067394" fill="none" stroke="black" stroke-width="0.1" /><circle r="0.5240000000000002" cx="49.1745744296409" cy="54.772924017775914" fill="none" stroke="black" stroke-width="0.1" /><circle r="0.5260000000000002" cx="35.62908357065499" cy="56.92986457617671" fill="none" stroke="black" stroke-width="0.1" /><circle r="0.5280000000000002" cx="24.654824037192707" cy="48.57799362732815" fill="none" stroke="black" stroke-width="0.1" /><circle r="0.5300000000000002" cx="23.107538722496482" cy="34.79900230839839" fill="none" stroke="black" stroke-width="0.1" /><circle r="0.5320000000000003" cx="32.052007418656856" cy="24.106532350461862" fill="none" stroke="black" stroke-width="0.1" /><circle r="0.5340000000000003" cx="46.03677373297083" cy="23.18585155599861" fill="none" stroke="black" stroke-width="0.1" /><circle r="0.5360000000000003" cx="56.41592726252633" cy="32.71447104793031" fill="none" stroke="black" stroke-width="0.1" /><circle r="0.5380000000000003" cx="56.69432879848223" cy="46.876220689315296" fill="none" stroke="black" stroke-width="0.1" /><circle r="0.5400000000000003" cx="46.59166223419548" cy="56.910721125672964" fill="none" stroke="black" stroke-width="0.1" /><circle r="0.5420000000000003" cx="32.282727909681704" cy="56.5325054508987" fill="none" stroke="black" stroke-width="0.1" /><circle r="0.5440000000000003" cx="22.623940875115014" cy="45.86755223994657" fill="none" stroke="black" stroke-width="0.1" /><circle r="0.5460000000000003" cx="23.671715460437397" cy="31.44217615307013" fill="none" stroke="black" stroke-width="0.1" /><circle r="0.5480000000000003" cx="34.885542701701496" cy="22.18979992970652" fill="none" stroke="black" stroke-width="0.1" /><circle r="0.5500000000000003" cx="49.39573939091777" cy="23.918622375618536" fill="none" stroke="black" stroke-width="0.1" /><circle r="0.5520000000000003" cx="58.211456983345784" cy="35.66626782740941" fill="none" stroke="black" stroke-width="0.1" /><circle r="0.5540000000000003" cx="55.79160382374448" cy="50.228854954192045" fill="none" stroke="black" stroke-width="0.1" /><circle r="0.5560000000000003" cx="43.52682569972019" cy="58.57820229418858" fill="none" stroke="black" stroke-width="0.1" /><circle r="0.5580000000000003" cx="28.94501502487436" cy="55.45889168730239" fill="none" stroke="black" stroke-width="0.1" /><circle r="0.5600000000000003" cx="21.091127065104146" cy="42.69527815484106" fill="none" stroke="black" stroke-width="0.1" /><circle r="0.5620000000000003" cx="24.916719202478397" cy="28.12807238132255" fill="none" stroke="black" stroke-width="0.1" /><circle r="0.5640000000000003" cx="38.1592816537702" cy="20.79802468572951" fill="none" stroke="black" stroke-width="0.1" /><circle r="0.5660000000000003" cx="52.67747039674035" cy="25.335076906448755" fill="none" stroke="black" stroke-width="0.1" /><circle r="0.5680000000000003" cx="59.45609016016038" cy="39.03513955428217" fill="none" stroke="black" stroke-width="0.1" /><circle r="0.5700000000000003" cx="54.20408391161954" cy="53.46939587478485" fill="none" stroke="black" stroke-width="0.1" /><circle r="0.5720000000000003" cx="40.06950056080875" cy="59.6698772154797" fill="none" stroke="black" stroke-width="0.1" /><circle r="0.5740000000000003" cx="25.75451254944813" cy="53.70114273687305" fill="none" stroke="black" stroke-width="0.1" /><circle r="0.5760000000000003" cx="20.15792022558771" cy="39.15651305531222" fill="none" stroke="black" stroke-width="0.1" /><circle r="0.5780000000000003" cx="26.843406337714548" cy="24.99646480973533" fill="none" stroke="black" stroke-width="0.1" /><circle r="0.5800000000000003" cx="41.77215337397678" cy="20.028470954403545" fill="none" stroke="black" stroke-width="0.1" /><circle r="0.5820000000000003" cx="55.74134170758312" cy="27.42895444900846" fill="none" stroke="black" stroke-width="0.1" /><circle r="0.5840000000000003" cx="60.05714832944882" cy="42.714479856342315" fill="none" stroke="black" stroke-width="0.1" /><circle r="0.5860000000000003" cx="51.94522189914416" cy="56.45672807031235" fill="none" stroke="black" stroke-width="0.1" /><circle r="0.5880000000000003" cx="36.33161826692042" cy="60.097956997177796" fill="none" stroke="black" stroke-width="0.1" /><circle r="0.5900000000000003" cx="22.85246028029581" cy="51.279960397145324" fill="none" stroke="black" stroke-width="0.1" /><circle r="0.5920000000000003" cx="19.906925740536163" cy="35.36828683922767" fill="none" stroke="black" stroke-width="0.1" /><circle r="0.5940000000000003" cx="29.423787812133803" cy="22.18834761294646" fill="none" stroke="black" stroke-width="0.1" /><circle r="0.5960000000000003" cx="45.60227192176828" cy="19.95827728675585" fill="none" stroke="black" stroke-width="0.1" /><circle r="0.5980000000000003" cx="58.44697799219439" cy="30.164959178758053" fill="none" stroke="black" stroke-width="0.1" /><circle r="0.6000000000000003" cx="59.94323165553113" cy="46.57780443110167" fill="none" stroke="black" stroke-width="0.1" /><circle r="0.6020000000000003" cx="49.057620905404356" cy="59.05147050844059" fill="none" stroke="black" stroke-width="0.1" /><circle r="0.6040000000000003" cx="32.44398907146684" cy="59.79704015371709" fill="none" stroke="black" stroke-width="0.1" /><circle r="0.6060000000000003" cx="20.376868221503205" cy="48.24523645529639" fill="none" stroke="black" stroke-width="0.1" /><circle r="0.6080000000000003" cx="20.397300137629344" cy="31.46544915617624" fill="none" stroke="black" stroke-width="0.1" /><circle r="0.6100000000000003" cx="32.60072105950398" cy="19.839982734116237" fill="none" stroke="black" stroke-width="0.1" /><circle r="0.6120000000000003" cx="49.51104832283245" cy="20.64012242288848" fill="none" stroke="black" stroke-width="0.1" /><circle r="0.6140000000000003" cx="60.660241726480834" cy="33.47875496524019" fill="none" stroke="black" stroke-width="0.1" /><circle r="0.6160000000000003" cx="59.068357516759036" cy="50.483097901529796" fill="none" stroke="black" stroke-width="0.1" /><circle r="0.6180000000000003" cx="45.61273407057833" cy="61.1219847848863" fill="none" stroke="black" stroke-width="0.1" /><circle r="0.6200000000000003" cx="28.55172968544899" cy="58.72804332558448" fill="none" stroke="black" stroke-width="0.1" /><circle r="0.6220000000000003" cx="18.456503599566407" cy="44.67544520281265" fill="none" stroke="black" stroke-width="0.1" /><circle r="0.6240000000000003" cx="21.661040211844306" cy="27.595881575524707" fill="none" stroke="black" stroke-width="0.1" /><circle r="0.6260000000000003" cx="36.2888257137467" cy="18.07689779212232" fill="none" stroke="black" stroke-width="0.1" /><circle r="0.6280000000000003" cx="53.34818325761375" cy="22.09874575005542" fill="none" stroke="black" stroke-width="0.1" /><circle r="0.6300000000000003" cx="62.259208717981494" cy="37.27818952729336" fill="none" stroke="black" stroke-width="0.1" /><circle r="0.6320000000000003" cx="57.41519773757062" cy="54.27800013171711" fill="none" stroke="black" stroke-width="0.1" /><circle r="0.6340000000000003" cx="41.709332533967924" cy="62.55030836348624" fill="none" stroke="black" stroke-width="0.1" /><circle r="0.6360000000000003" cx="24.808895139321486" cy="56.88118577327636" fill="none" stroke="black" stroke-width="0.1" /><circle r="0.6380000000000003" cx="17.205015623758392" cy="40.675804917782884" fill="none" stroke="black" stroke-width="0.1" /><circle r="0.6400000000000003" cx="23.700261121029165" cy="23.914959978993988" fill="none" stroke="black" stroke-width="0.1" /><circle r="0.6420000000000003" cx="40.37662645537151" cy="17.00808451839837" fill="none" stroke="black" stroke-width="0.1" /><circle r="0.6440000000000003" cx="56.957361264575695" cy="24.328497234066344" fill="none" stroke="black" stroke-width="0.1" /><circle r="0.6460000000000004" cx="63.139880396558816" cy="41.445738646142985" fill="none" stroke="black" stroke-width="0.1" /><circle r="0.6480000000000004" cx="54.99724820704292" cy="57.80564366195017" fill="none" stroke="black" stroke-width="0.1" /><circle r="0.6500000000000004" cx="37.470763608443605" cy="63.23776211849207" fill="none" stroke="black" stroke-width="0.1" /><circle r="0.6520000000000004" cx="21.372511939641143" cy="54.27787058917352" fill="none" stroke="black" stroke-width="0.1" /><circle r="0.6540000000000004" cx="16.71544800815763" cy="36.37524296825462" fill="none" stroke="black" stroke-width="0.1" /><circle r="0.6560000000000004" cx="26.485610855794043" cy="20.579472559712336" fill="none" stroke="black" stroke-width="0.1" /><circle r="0.6580000000000004" cx="44.72987565759018" cy="16.72064645949691" fill="none" stroke="black" stroke-width="0.1" /><circle r="0.6600000000000004" cx="60.182433254515715" cy="27.292054142111873" fill="none" stroke="black" stroke-width="0.1" /><circle r="0.6620000000000004" cx="63.22138605421818" cy="45.842110468055125" fill="none" stroke="black" stroke-width="0.1" /><circle r="0.6640000000000004" cx="51.859804056601575" cy="60.91092173336734" fill="none" stroke="black" stroke-width="0.1" /><circle r="0.6660000000000004" cx="33.04107167458962" cy="63.10998791782026" fill="none" stroke="black" stroke-width="0.1" /><circle r="0.6680000000000004" cx="18.396239860082122" cy="50.971346672897226" fill="none" stroke="black" stroke-width="0.1" /><circle r="0.6700000000000004" cx="17.055380327289267" cy="31.92224950406036" fill="none" stroke="black" stroke-width="0.1" /><circle r="0.6720000000000004" cx="29.955925808517925" cy="17.741227041096778" fill="none" stroke="black" stroke-width="0.1" /><circle r="0.6740000000000004" cx="49.195958563180156" cy="17.275133199416306" fill="none" stroke="black" stroke-width="0.1" /><circle r="0.6760000000000004" cx="62.87384800313489" cy="30.920397721844893" fill="none" stroke="black" stroke-width="0.1" /><circle r="0.6780000000000004" cx="62.450442220024456" cy="50.31090050021534" fill="none" stroke="black" stroke-width="0.1" /><circle r="0.6800000000000004" cx="48.07965909500649" cy="63.44694242131533" fill="none" stroke="black" stroke-width="0.1" /><circle r="0.6820000000000004" cx="28.58010311295562" cy="62.12118848726874" fill="none" stroke="black" stroke-width="0.1" /><circle r="0.6840000000000004" cx="16.02391140871838" cy="47.04608230600611" fill="none" stroke="black" stroke-width="0.1" /><circle r="0.6860000000000004" cx="18.262920306909503" cy="27.479752741410028" fill="none" stroke="black" stroke-width="0.1" /><circle r="0.6880000000000004" cx="34.01918422208553" cy="15.540600117119673" fill="none" stroke="black" stroke-width="0.1" /><circle r="0.6900000000000004" cx="53.60923656847442" cy="18.701776951508478" fill="none" stroke="black" stroke-width="0.1" /><circle r="0.6920000000000004" cx="64.89507627489078" cy="35.11409401775203" fill="none" stroke="black" stroke-width="0.1" /><circle r="0.6940000000000004" cx="60.804860152594586" cy="54.68414175329899" fill="none" stroke="black" stroke-width="0.1" /><circle r="0.6960000000000004" cx="43.76349810482078" cy="65.28140981066932" fill="none" stroke="black" stroke-width="0.1" /><circle r="0.6980000000000004" cx="24.25776161819929" cy="60.25736793689045" fill="none" stroke="black" stroke-width="0.1" /><circle r="0.7000000000000004" cx="14.383210122518598" cy="42.615831870163476" fill="none" stroke="black" stroke-width="0.1" /><circle r="0.7020000000000004" cx="20.34374071924279" cy="23.219192627062238" fill="none" stroke="black" stroke-width="0.1" /><circle r="0.7040000000000004" cx="38.55476291111635" cy="14.10029170517723" fill="none" stroke="black" stroke-width="0.1" /><circle r="0.7060000000000004" cx="57.79714176666839" cy="20.997816706043917" fill="none" stroke="black" stroke-width="0.1" /><circle r="0.7080000000000004" cx="66.12876419740294" cy="39.74587106321691" fill="none" stroke="black" stroke-width="0.1" /><circle r="0.7100000000000004" cx="58.29592526260795" cy="58.78855353094166" fill="none" stroke="black" stroke-width="0.1" /><circle r="0.7120000000000004" cx="39.04500297527811" cy="66.30266869887481" fill="none" stroke="black" stroke-width="0.1" /><circle r="0.7140000000000004" cx="20.247619611789734" cy="57.538406255969846" fill="none" stroke="black" stroke-width="0.1" /><circle r="0.7160000000000004" cx="13.579750677158447" cy="37.82042992338249" fill="none" stroke="black" stroke-width="0.1" /><circle r="0.7180000000000004" cx="23.269317607843835" cy="19.31400735539163" fill="none" stroke="black" stroke-width="0.1" /><circle r="0.7200000000000004" cx="43.41694980779598" cy="13.519545811844562" fill="none" stroke="black" stroke-width="0.1" /><circle r="0.7220000000000004" cx="61.58680000481056" cy="24.126056238215206" fill="none" stroke="black" stroke-width="0.1" /><circle r="0.7240000000000004" cx="66.48235593604167" cy="44.664431806425505" fill="none" stroke="black" stroke-width="0.1" /><circle r="0.7260000000000004" cx="54.96951300937194" cy="62.45225835550268" fill="none" stroke="black" stroke-width="0.1" /><circle r="0.7280000000000004" cx="34.08074643507696" cy="66.42515538713333" fill="none" stroke="black" stroke-width="0.1" /><circle r="0.7300000000000004" cx="16.72012349964856" cy="54.01884357314755" fill="none" stroke="black" stroke-width="0.1" /><circle r="0.7320000000000004" cx="13.691815082911482" cy="32.8213994143516" fill="none" stroke="black" stroke-width="0.1" /><circle r="0.7340000000000004" cx="26.9764824151841" cy="15.932777170641682" fill="none" stroke="black" stroke-width="0.1" /><circle r="0.7360000000000004" cx="48.43961267384877" cy="13.869088459921525" fill="none" stroke="black" stroke-width="0.1" /><circle r="0.7380000000000004" cx="64.81193190552361" cy="28.01475656836063" fill="none" stroke="black" stroke-width="0.1" /><circle r="0.7400000000000004" cx="65.89293969008203" cy="49.69939040382278" fill="none" stroke="black" stroke-width="0.1" /><circle r="0.7420000000000004" cx="50.90585298407633" cy="65.51171095182971" fill="none" stroke="black" stroke-width="0.1" /><circle r="0.7440000000000004" cx="29.044998256255205" cy="65.5940136905985" fill="none" stroke="black" stroke-width="0.1" /><circle r="0.7460000000000004" cx="13.835653778321827" cy="49.78729849305465" fill="none" stroke="black" stroke-width="0.1" /><circle r="0.7480000000000004" cx="14.76598009590601" cy="27.796511175906165" fill="none" stroke="black" stroke-width="0.1" /><circle r="0.7500000000000004" cx="31.368350838192825" cy="13.23229076391728" fill="none" stroke="black" stroke-width="0.1" /><circle r="0.7520000000000004" cx="53.44187483416991" cy="15.18701144677441" fill="none" stroke="black" stroke-width="0.1" /><circle r="0.7540000000000004" cx="67.31976287113058" cy="32.55891260196537" fill="none" stroke="black" stroke-width="0.1" /><circle r="0.7560000000000004" cx="64.33109520664065" cy="54.66717103075376" fill="none" stroke="black" stroke-width="0.1" /><circle r="0.7580000000000005" cx="46.21790475299012" cy="67.81856727947607" fill="none" stroke="black" stroke-width="0.1" /><circle r="0.7600000000000005" cx="24.123616157423918" cy="63.78866192292419" fill="none" stroke="black" stroke-width="0.1" /><circle r="0.7620000000000005" cx="11.737714370076084" cy="44.96449755489821" fill="none" stroke="black" stroke-width="0.1" /><circle r="0.7640000000000005" cx="16.813841952936883" cy="22.933477946089766" fill="none" stroke="black" stroke-width="0.1" /><circle r="0.7660000000000005" cx="36.316637755073785" cy="11.350810350506492" fill="none" stroke="black" stroke-width="0.1" /><circle r="0.7680000000000005" cx="58.23460405028875" cy="17.475799345388822" fill="none" stroke="black" stroke-width="0.1" /><circle r="0.7700000000000005" cx="68.97766495273073" cy="37.62290957528437" fill="none" stroke="black" stroke-width="0.1" /><circle r="0.7720000000000005" cx="61.80355463956958" cy="59.37766510907073" fill="none" stroke="black" stroke-width="0.1" /><circle r="0.7740000000000005" cx="41.04836362525374" cy="69.24621614344731" fill="none" stroke="black" stroke-width="0.1" /><circle r="0.7760000000000005" cx="19.507235282646263" cy="61.02513244284505" fill="none" stroke="black" stroke-width="0.1" /><circle r="0.7780000000000005" cx="10.54652832547849" cy="39.6999478076193" fill="none" stroke="black" stroke-width="0.1" /><circle r="0.7800000000000005" cx="19.81000658099375" cy="18.423006100467155" fill="none" stroke="black" stroke-width="0.1" /><circle r="0.7820000000000005" cx="41.66531239313176" cy="10.401811548115397" fill="none" stroke="black" stroke-width="0.1" /><circle r="0.7840000000000005" cx="62.62748253665968" cy="20.700657160070072" fill="none" stroke="black" stroke-width="0.1" /><circle r="0.7860000000000005" cx="69.67925616934598" cy="43.04449966896559" fill="none" stroke="black" stroke-width="0.1" /><circle r="0.7880000000000005" cx="58.35453053480673" cy="63.64140665964783" fill="none" stroke="black" stroke-width="0.1" /><circle r="0.7900000000000005" cx="35.56536972790499" cy="69.69570136147337" fill="none" stroke="black" stroke-width="0.1" /><circle r="0.7920000000000005" cx="15.384004301692386" cy="57.357049166862836" fill="none" stroke="black" stroke-width="0.1" /><circle r="0.7940000000000005" cx="10.353308837656506" cy="34.16733953288751" fill="none" stroke="black" stroke-width="0.1" /><circle r="0.7960000000000005" cx="23.691467851956343" cy="14.451460331826809" fill="none" stroke="black" stroke-width="0.1" /><circle r="0.7980000000000005" cx="47.23549318808535" cy="10.468463241389504" fill="none" stroke="black" stroke-width="0.1" /><circle r="0.8000000000000005" cx="66.43639627710915" cy="24.78924880620152" fill="none" stroke="black" stroke-width="0.1" /><circle r="0.8020000000000005" cx="69.34969652600363" cy="48.63998488606797" fill="none" stroke="black" stroke-width="0.1" /><circle r="0.8040000000000005" cx="54.06561352099821" cy="67.27699793375189" fill="none" stroke="black" stroke-width="0.1" /><circle r="0.8060000000000005" cx="29.957047448081383" cy="69.10077883906037" fill="none" stroke="black" stroke-width="0.1" /><circle r="0.8080000000000005" cx="11.93214136004693" cy="52.87515869290954" fill="none" stroke="black" stroke-width="0.1" /><circle r="0.8100000000000005" cx="11.21545545537483" cy="28.558819101225545" fill="none" stroke="black" stroke-width="0.1" /><circle r="0.8120000000000005" cx="28.358444883964296" cy="11.193419250450866" fill="none" stroke="black" stroke-width="0.1" /><circle r="0.8140000000000005" cx="52.83142968803919" cy="11.599090909604701" fill="none" stroke="black" stroke-width="0.1" /><circle r="0.8160000000000005" cx="69.49086157598074" cy="29.632903805484688" fill="none" stroke="black" stroke-width="0.1" /><circle r="0.8180000000000005" cx="67.94994430057241" cy="54.21044118227478" fill="none" stroke="black" stroke-width="0.1" /><circle r="0.8200000000000005" cx="49.05419614864283" cy="70.11849983153033" fill="none" stroke="black" stroke-width="0.1" /><circle r="0.8220000000000005" cx="24.425052292036938" cy="67.43187979147999" fill="none" stroke="black" stroke-width="0.1" /><circle r="0.8240000000000005" cx="9.312598118766964" cy="47.70538550493655" fill="none" stroke="black" stroke-width="0.1" /><circle r="0.8260000000000005" cx="13.15289597917004" cy="23.07832068928361" fill="none" stroke="black" stroke-width="0.1" /><circle r="0.8280000000000005" cx="33.676693733971064" cy="8.80441220515327" fill="none" stroke="black" stroke-width="0.1" /><circle r="0.8300000000000005" cx="58.24737148516872" cy="13.80383503483301" fill="none" stroke="black" stroke-width="0.1" /><circle r="0.8320000000000005" cx="71.6411971806389" cy="35.08929323050947" fill="none" stroke="black" stroke-width="0.1" /><circle r="0.8340000000000005" cx="65.47977042087788" cy="59.5487729614763" fill="none" stroke="black" stroke-width="0.1" /><circle r="0.8360000000000005" cx="43.47043624550538" cy="72.02249478516427" fill="none" stroke="black" stroke-width="0.1" /><circle r="0.8380000000000005" cx="19.177346469914" cy="64.69878792503769" fill="none" stroke="black" stroke-width="0.1" /><circle r="0.8400000000000005" cx="7.66212415634277" cy="42.00543908414114" fill="none" stroke="black" stroke-width="0.1" /><circle r="0.8420000000000005" cx="16.14575570674502" cy="17.93418811378782" fill="none" stroke="black" stroke-width="0.1" /><circle r="0.8440000000000005" cx="39.48125117630098" cy="7.414128833835029" fill="none" stroke="black" stroke-width="0.1" /><circle r="0.8460000000000005" cx="63.275083475288554" cy="17.052675227418337" fill="none" stroke="black" stroke-width="0.1" /><circle r="0.8480000000000005" cx="72.76515194507613" cy="40.98651812759017" fill="none" stroke="black" stroke-width="0.1" /><circle r="0.8500000000000005" cx="61.97937180847336" cy="64.44734832052092" fill="none" stroke="black" stroke-width="0.1" /><circle r="0.8520000000000005" cx="37.49283097646109" cy="72.87453427027366" fill="none" stroke="black" stroke-width="0.1" /><circle r="0.8540000000000005" cx="14.420461186418233" cy="60.951883425707905" fill="none" stroke="black" stroke-width="0.1" /><circle r="0.8560000000000005" cx="7.087016661250878" cy="35.96005844804498" fill="none" stroke="black" stroke-width="0.1" /><circle r="0.8580000000000005" cx="20.13348877589978" cy="13.331352550556865" fill="none" stroke="black" stroke-width="0.1" /><circle r="0.8600000000000005" cx="45.58151083220948" cy="7.120382653839812" fill="none" stroke="black" stroke-width="0.1" /><circle r="0.8620000000000005" cx="67.71173448634566" cy="21.274942009214758" fill="none" stroke="black" stroke-width="0.1" /><circle r="0.8640000000000005" cx="72.77371104849098" cy="47.1284966234129" fill="none" stroke="black" stroke-width="0.1" /><circle r="0.8660000000000005" cx="57.52947493177622" cy="68.70593551194976" fill="none" stroke="black" stroke-width="0.1" /><circle r="0.8680000000000005" cx="31.322529272417896" cy="72.59469898268651" fill="none" stroke="black" stroke-width="0.1" /><circle r="0.8700000000000006" cx="10.351531103191938" cy="56.281858526439606" fill="none" stroke="black" stroke-width="0.1" /><circle r="0.8720000000000006" cx="7.65782166412577" cy="29.77503542839895" fill="none" stroke="black" stroke-width="0.1" /><circle r="0.8740000000000006" cx="25.01555299054033" cy="9.463356883562266" fill="none" stroke="black" stroke-width="0.1" /><circle r="0.8760000000000006" cx="51.76747695123791" cy="7.984088546441889" fill="none" stroke="black" stroke-width="0.1" /><circle r="0.8780000000000006" cx="71.3678639234568" cy="26.360383514208095" fill="none" stroke="black" stroke-width="0.1" /><circle r="0.8800000000000006" cx="71.61582797796962" cy="53.301481919975004" fill="none" stroke="black" stroke-width="0.1" /><circle r="0.8820000000000006" cx="52.24987668502291" cy="72.13964135147933" fill="none" stroke="black" stroke-width="0.1" /><circle r="0.8840000000000006" cx="25.176563195058662" cy="71.14202660858633" fill="none" stroke="black" stroke-width="0.1" /><circle r="0.8860000000000006" cx="7.150403467259046" cy="50.817866362463604" fill="none" stroke="black" stroke-width="0.1" /><circle r="0.8880000000000006" cx="9.405223522321602" cy="23.67020966818971" fill="none" stroke="black" stroke-width="0.1" /><circle r="0.8900000000000006" cx="30.653651644800917" cy="6.504531688252882" fill="none" stroke="black" stroke-width="0.1" /><circle r="0.8920000000000006" cx="57.8169908401383" cy="10.02548186538413" fill="none" stroke="black" stroke-width="0.1" /><circle r="0.8940000000000006" cx="74.07511963760267" cy="32.16179569779833" fill="none" stroke="black" stroke-width="0.1" /><circle r="0.8960000000000006" cx="69.28186413356215" cy="59.28149457027628" fill="none" stroke="black" stroke-width="0.1" /><circle r="0.8980000000000006" cx="46.296429038479474" cy="74.58654371809043" fill="none" stroke="black" stroke-width="0.1" /><circle r="0.9000000000000006" cx="19.280225997316002" cy="68.51759922009018" fill="none" stroke="black" stroke-width="0.1" /><text x="36" y="78" font-size="2" font-family="Arial, Helvetica, sans-serif" fill="black" stroke="none">VARICITE</text></svg>